<?xml version="1.0" encoding="iso-8859-1"?>
<!-- Generator: Adobe Illustrator 27.7.0, SVG Export Plug-In . SVG Version: 6.00 Build 0)  -->
<svg version="1.1" xmlns="http://www.w3.org/2000/svg" xmlns:xlink="http://www.w3.org/1999/xlink" x="0px" y="0px"
	 viewBox="0 0 512 512" style="enable-background:new 0 0 512 512;" xml:space="preserve">
<g id="about">
	<g>
		<path style="fill:#BDBDBD;" d="M229.207,404.906v-53.398h48.448v53.398H229.207z M229.383,334.18v-7.073
			c0-18.742,2.299-34.302,7.073-46.149c4.774-12.2,14.853-25.285,30.766-40.491l15.737-14.853c4.244-3.89,7.78-7.957,10.255-12.023
			c4.597-7.249,6.896-14.322,6.896-21.748c0-10.786-3.183-19.803-9.725-27.583c-6.189-7.426-17.151-11.139-32.534-11.139
			c-19.273,0-32.004,6.365-39.076,19.803c-4.244,7.78-6.542,19.273-7.249,34.656l-0.354,6.719h-48.094v-7.073
			c0-28.998,8.664-52.691,25.638-70.549c17.151-18.035,40.844-27.053,70.196-27.053c27.23,0,49.508,7.78,66.129,23.163
			c16.797,15.56,25.285,35.54,25.285,59.587c0,14.676-3.183,27.053-9.548,36.424c-6.012,8.841-17.505,21.218-35.363,37.839
			c-11.847,11.139-19.627,20.334-22.986,27.583c-3.359,7.073-4.951,18.212-4.951,33.065v7.073h-48.094V334.18z"/>
		<path style="fill:#1D1D1D;" d="M259.088,116.343c25.461,0,45.972,7.073,61.355,21.218c15.383,14.145,22.986,32.357,22.986,54.282
			c0,13.438-2.829,24.224-8.31,32.534c-5.658,8.31-16.974,20.511-34.302,36.778c-12.554,11.67-20.687,21.572-24.577,29.705
			c-3.713,8.134-5.658,20.157-5.658,36.07h-34.125c0-18.035,2.122-32.534,6.542-43.673c4.42-10.963,13.968-23.693,28.998-37.839
			l15.737-14.853c4.774-4.244,8.487-8.841,11.493-13.438c5.304-8.134,7.957-16.621,7.957-25.461c0-12.377-3.89-22.986-11.493-32.18
			c-7.603-9.018-20.334-13.615-38.015-13.615c-21.748,0-36.954,7.78-45.265,23.516c-4.774,8.664-7.426,21.218-7.957,37.662H170.15
			c0-27.23,7.957-49.155,23.693-65.775C209.757,124.653,231.328,116.343,259.088,116.343 M270.581,358.404v39.253h-34.302v-39.253
			H270.581 M259.088,102.198c-31.473,0-56.935,9.902-75.324,29.175c-18.389,19.273-27.76,44.734-27.76,75.677v14.145h14.145h34.125
			h13.615l0.53-13.615c0.707-17.682,3.89-26.876,6.365-31.473c3.713-6.896,11.139-16.09,32.888-16.09
			c13.261,0,22.279,2.829,27.053,8.664c5.481,6.542,8.134,13.968,8.134,22.986c0,6.012-1.945,11.847-5.658,17.858v0.177v0.177
			c-2.299,3.536-5.304,7.073-9.018,10.432l-0.177,0.177l-0.177,0.177l-15.737,14.853c-16.621,15.737-27.23,29.882-32.534,42.966
			c-5.128,12.908-7.603,28.821-7.603,48.801v14.145h14.145h34.125h14.145v-14.145c0-17.151,2.299-25.815,4.42-30.059
			c2.122-4.42,7.426-12.377,21.395-25.461c18.212-16.974,30.059-29.882,36.424-39.076c7.073-10.609,10.786-24.224,10.786-40.314
			c0-25.992-9.371-47.917-27.583-64.715C311.956,110.685,288.086,102.198,259.088,102.198L259.088,102.198z M284.727,344.259
			h-14.145h-34.302h-14.145v14.145v39.253v14.145h14.145h34.302h14.145v-14.145v-39.253V344.259L284.727,344.259z"/>
	</g>
	<path style="fill:#BDBDBD;stroke:#1D1D1D;stroke-width:20;stroke-miterlimit:10;" d="M256.876,23.788
		C128.629,23.788,24.664,127.753,24.664,256s103.965,232.212,232.212,232.212S489.088,384.247,489.088,256
		S385.123,23.788,256.876,23.788z M256.876,443.834c-103.738,0-187.834-84.096-187.834-187.834S153.138,68.166,256.876,68.166
		S444.71,152.262,444.71,256S360.614,443.834,256.876,443.834z"/>
</g>
<g id="Layer_1">
</g>
</svg>
