<?xml version="1.0" encoding="iso-8859-1"?>
<!-- Generator: Adobe Illustrator 27.6.1, SVG Export Plug-In . SVG Version: 6.00 Build 0)  -->
<svg version="1.1" xmlns="http://www.w3.org/2000/svg" xmlns:xlink="http://www.w3.org/1999/xlink" x="0px" y="0px"
	 viewBox="0 0 32 32" style="enable-background:new 0 0 32 32;" xml:space="preserve">
<g id="abr_x5F_create_x5F_rig">
	<g>
		<g style="opacity:0.8;">
			<path d="M1.363,28.137l1.95,1.95c1.074,1.049,2.296,0.963,3.382-0.235l12.923-14.071c0.531,0.37,1.024,0.358,1.629,0.235
				l1.321-0.272l0.876,0.876l-0.062,0.654c-0.086,0.679,0.111,1.197,0.74,1.827l1.037,1.024c0.629,0.642,1.469,0.679,2.074,0.074
				l4.11-4.11c0.605-0.605,0.568-1.432-0.062-2.074l-1.037-1.037c-0.629-0.63-1.16-0.852-1.827-0.753l-0.666,0.074l-0.839-0.839
				l0.37-1.444c0.173-0.716-0.012-1.296-0.79-2.061L23.445,4.92C18.964,0.464,13.225,0.6,9.3,4.562
				C8.757,5.105,8.707,5.846,9.053,6.389c0.284,0.469,0.889,0.753,1.716,0.543c1.913-0.481,3.826-0.333,5.702,0.938l-0.79,2
				c-0.296,0.741-0.272,1.345,0.025,1.901L1.598,24.755C0.413,25.853,0.277,27.05,1.363,28.137z M11.262,5.056
				c3.37-2.518,7.566-2.111,10.602,0.926l3.32,3.296c0.296,0.296,0.333,0.531,0.247,0.901l-0.469,1.975l1.987,1.987l1.21-0.111
				c0.358-0.037,0.469-0.012,0.765,0.272l0.778,0.79l-3.468,3.481l-0.79-0.79c-0.284-0.284-0.309-0.395-0.271-0.753l0.111-1.222
				l-1.975-1.975l-2.049,0.395c-0.358,0.074-0.543,0.074-0.852-0.235l-2.74-2.752c-0.296-0.296-0.333-0.469-0.173-0.864l1.21-2.888
				c-2.024-1.938-4.703-3.012-7.282-2.185c-0.111,0.037-0.185,0.012-0.222-0.037C11.164,5.204,11.164,5.142,11.262,5.056z
				 M2.968,27.248c-0.629-0.629-0.407-1.012,0.012-1.395l13.861-12.787l1.543,1.555L5.56,28.433
				c-0.383,0.42-0.864,0.543-1.382,0.037L2.968,27.248z"/>
		</g>
		<g>
			<path style="fill:#FFFFFF;" d="M1.163,27.937l1.95,1.95c1.074,1.049,2.296,0.963,3.382-0.235l12.923-14.071
				c0.531,0.37,1.024,0.358,1.629,0.235l1.321-0.272l0.876,0.876l-0.062,0.654c-0.086,0.679,0.111,1.197,0.74,1.827l1.037,1.024
				c0.629,0.642,1.469,0.679,2.074,0.074l4.11-4.11c0.605-0.605,0.568-1.432-0.062-2.074l-1.037-1.037
				c-0.629-0.63-1.16-0.852-1.827-0.753l-0.666,0.074l-0.839-0.839l0.37-1.444c0.173-0.716-0.012-1.296-0.79-2.061L23.245,4.72
				C18.764,0.264,13.025,0.4,9.1,4.362C8.557,4.905,8.507,5.646,8.853,6.189c0.284,0.469,0.889,0.753,1.716,0.543
				c1.913-0.481,3.826-0.333,5.702,0.938l-0.79,2c-0.296,0.741-0.272,1.345,0.025,1.901L1.398,24.555
				C0.213,25.653,0.077,26.85,1.163,27.937z M11.062,4.856c3.37-2.518,7.566-2.111,10.602,0.926l3.32,3.296
				c0.296,0.296,0.333,0.531,0.247,0.901l-0.469,1.975l1.987,1.987l1.21-0.111c0.358-0.037,0.469-0.012,0.765,0.272l0.778,0.79
				l-3.468,3.481l-0.79-0.79c-0.284-0.284-0.309-0.395-0.271-0.753l0.111-1.222l-1.975-1.975l-2.049,0.395
				c-0.358,0.074-0.543,0.074-0.852-0.235l-2.74-2.752c-0.296-0.296-0.333-0.469-0.173-0.864l1.21-2.888
				c-2.024-1.938-4.703-3.012-7.282-2.185c-0.111,0.037-0.185,0.012-0.222-0.037C10.964,5.004,10.964,4.942,11.062,4.856z
				 M2.768,27.048c-0.629-0.629-0.407-1.012,0.012-1.395l13.861-12.787l1.543,1.555L5.36,28.233
				c-0.383,0.42-0.864,0.543-1.382,0.037L2.768,27.048z"/>
		</g>
	</g>
</g>
<g id="Layer_1">
</g>
</svg>
