<?xml version="1.0" encoding="UTF-8"?>
<svg id="Layer_1" data-name="Layer 1" xmlns="http://www.w3.org/2000/svg" version="1.1" viewBox="0 0 512 512">
  <defs>
    <style>
      .cls-1 {
        fill: #bdbdbd;
      }

      .cls-1, .cls-2, .cls-3 {
        stroke-width: 0px;
      }

      .cls-2 {
        fill: #1d1d1d;
      }

      .cls-3 {
        fill: #64b7a5;
      }
    </style>
  </defs>
  <g id="rigger_dict">
    <g>
      <path class="cls-1" d="M373.5,426.9c-15.4,0-27.9-12.5-27.9-27.9s12.5-27.9,27.9-27.9,13-5.8,13-13v-81.7c0-7.4,2.9-14.4,8.2-19.7l.7-.7-.7-.7c-5.3-5.3-8.2-12.3-8.2-19.7v-81.7c0-7.2-5.8-13-13-13-15.4,0-27.9-12.5-27.9-27.9s12.5-27.9,27.9-27.9c37.9,0,68.8,30.8,68.8,68.8v70.2l12.3,12.3c10.9,10.9,10.9,28.6,0,39.4l-12.3,12.3v70.2c0,37.9-30.8,68.8-68.8,68.8ZM138.5,426.9c-37.9,0-68.8-30.8-68.8-68.8v-70.2l-12.3-12.3c-10.9-10.9-10.9-28.6,0-39.4l12.3-12.3v-70.2c0-37.9,30.8-68.8,68.8-68.8s27.9,12.5,27.9,27.9-12.5,27.9-27.9,27.9-13,5.8-13,13v81.7c0,7.4-2.9,14.4-8.2,19.7l-.7.7.7.7c5.3,5.3,8.2,12.3,8.2,19.7v81.7c0,7.2,5.8,13,13,13,15.4,0,27.9,12.5,27.9,27.9s-12.5,27.9-27.9,27.9ZM336.5,292.8c-20.3,0-36.8-16.5-36.8-36.8s16.5-36.8,36.8-36.8,36.8,16.5,36.8,36.8-16.5,36.8-36.8,36.8ZM256,292.8c-20.3,0-36.8-16.5-36.8-36.8s16.5-36.8,36.8-36.8,36.8,16.5,36.8,36.8-16.5,36.8-36.8,36.8ZM175.5,292.8c-20.3,0-36.8-16.5-36.8-36.8s16.5-36.8,36.8-36.8,36.8,16.5,36.8,36.8-16.5,36.8-36.8,36.8Z"/>
      <path class="cls-2" d="M373.5,95.1c32.4,0,58.8,26.4,58.8,58.8v74.3l15.2,15.2c7,7,7,18.3,0,25.3l-15.2,15.2v74.3c0,32.4-26.4,58.8-58.8,58.8s-17.9-8-17.9-17.9,8-17.9,17.9-17.9,23-10.3,23-23v-81.7c0-4.7,1.9-9.3,5.2-12.6l7.8-7.8-7.8-7.8c-3.4-3.4-5.2-7.9-5.2-12.6v-81.7c0-12.7-10.3-23-23-23s-17.9-8-17.9-17.9,8-17.9,17.9-17.9M138.5,95.1c9.9,0,17.9,8,17.9,17.9s-8,17.9-17.9,17.9-23,10.3-23,23v81.7c0,4.7-1.9,9.3-5.2,12.6l-7.8,7.8,7.8,7.8c3.4,3.4,5.2,7.9,5.2,12.6v81.7c0,12.7,10.3,23,23,23s17.9,8,17.9,17.9-8,17.9-17.9,17.9c-32.4,0-58.8-26.4-58.8-58.8v-74.3l-15.2-15.2c-7-7-7-18.3,0-25.3l15.2-15.2v-74.3c0-32.4,26.4-58.8,58.8-58.8M336.5,229.2c14.8,0,26.8,12,26.8,26.8s-12,26.8-26.8,26.8-26.8-12-26.8-26.8,12-26.8,26.8-26.8M256,229.2c14.8,0,26.8,12,26.8,26.8s-12,26.8-26.8,26.8-26.8-12-26.8-26.8,12-26.8,26.8-26.8M175.5,229.2c14.8,0,26.8,12,26.8,26.8s-12,26.8-26.8,26.8-26.8-12-26.8-26.8,12-26.8,26.8-26.8M373.5,75.1c-20.9,0-37.9,17-37.9,37.9s17,37.9,37.9,37.9,3,1.4,3,3v77.9c-8.2-13.5-23.1-22.5-40-22.5s-32.1,9.2-40.2,22.9c-8.2-13.7-23.1-22.9-40.2-22.9s-32.1,9.2-40.2,22.9c-8.2-13.7-23.1-22.9-40.2-22.9s-31.8,9-40,22.5v-77.9c0-1.6,1.4-3,3-3,20.9,0,37.9-17,37.9-37.9s-17-37.9-37.9-37.9c-43.4,0-78.8,35.3-78.8,78.8v66l-9.3,9.3c-14.8,14.8-14.8,38.8,0,53.6l9.3,9.3v66c0,43.4,35.3,78.8,78.8,78.8s37.9-17,37.9-37.9-17-37.9-37.9-37.9-3-1.4-3-3v-77.9c8.2,13.5,23.1,22.5,40,22.5s32.1-9.2,40.2-22.9c8.2,13.7,23.2,22.9,40.2,22.9s32.1-9.2,40.2-22.9c8.2,13.7,23.2,22.9,40.2,22.9s31.8-9,40-22.5v77.9c0,1.6-1.4,3-3,3-20.9,0-37.9,17-37.9,37.9s17,37.9,37.9,37.9c43.4,0,78.8-35.3,78.8-78.8v-66l9.3-9.3c14.8-14.8,14.8-38.8,0-53.6l-9.3-9.3v-66c0-43.4-35.3-78.8-78.8-78.8h0Z"/>
    </g>
    <circle class="cls-3" cx="336.5" cy="256" r="26.8"/>
    <path class="cls-3" d="M256,282.8c-14.8,0-26.8-12-26.8-26.8s12-26.8,26.8-26.8,26.8,12,26.8,26.8-12,26.8-26.8,26.8Z"/>
    <path class="cls-3" d="M175.5,282.8c-14.8,0-26.8-12-26.8-26.8s12-26.8,26.8-26.8,26.8,12,26.8,26.8-12,26.8-26.8,26.8Z"/>
  </g>
</svg>
