<?xml version="1.0" encoding="utf-8"?>
<svg xmlns="http://www.w3.org/2000/svg" viewBox="0 0 24 24" version="1.1">
  <title>Annotation Snapshot</title>
  <style>
    .node { fill: #bdbdbd; stroke: #1d1d1d; stroke-width: .55; stroke-linejoin: round; }
    .accent { fill: #df8388; stroke: #1d1d1d; stroke-width: .55; stroke-linejoin: round; }
    .detail { fill: #1d1d1d; stroke: none; }
  </style>
<path class="node" d="M1.9 16.6H22.1C22.7 16.6 23.2 17.1 23.2 17.7V21.1C23.2 21.7 22.7 22.2 22.1 22.2H1.9C1.3 22.2 0.8 21.7 0.8 21.1V17.7C0.8 17.1 1.3 16.6 1.9 16.6Z"/>
<path class="detail" d="M6.6 16.6H7.5V22.2H6.6V16.6Z"/>
<path class="detail" d="M11.55 16.6H12.45V22.2H11.55V16.6Z"/>
<path class="detail" d="M16.5 16.6H17.4V22.2H16.5V16.6Z"/>
<path class="accent" d="M3 1.4H21C22.2 1.4 23.2 2.4 23.2 3.6V11.3C23.2 12.5 22.2 13.5 21 13.5H12.7L8.2 16.4V13.5H3C1.8 13.5 0.8 12.5 0.8 11.3V3.6C0.8 2.4 1.8 1.4 3 1.4Z"/>
<path class="detail" d="M4.4 4.7H19.6C20 4.7 20.3 5 20.3 5.4C20.3 5.8 20 6.1 19.6 6.1H4.4C4 6.1 3.7 5.8 3.7 5.4C3.7 5 4 4.7 4.4 4.7Z"/>
<path class="detail" d="M4.4 8.8H14.2C14.6 8.8 14.9 9.1 14.9 9.5C14.9 9.9 14.6 10.2 14.2 10.2H4.4C4 10.2 3.7 9.9 3.7 9.5C3.7 9.1 4 8.8 4.4 8.8Z"/>
</svg>
