<?xml version="1.0" encoding="iso-8859-1"?>
<!-- Generator: Adobe Illustrator 27.6.1, SVG Export Plug-In . SVG Version: 6.00 Build 0)  -->
<svg version="1.1" xmlns="http://www.w3.org/2000/svg" xmlns:xlink="http://www.w3.org/1999/xlink" x="0px" y="0px"
	 viewBox="0 0 512 512" style="enable-background:new 0 0 512 512;" xml:space="preserve">
<g id="color_x5F_manager">
	<rect style="fill:none;" width="511.547" height="511.445"/>
	<g style="display:none;">
		<path style="display:inline;fill:#1D1D1D;" d="M253.477,488.548c-42.903-0.236-83.116-8.63-113.231-23.634
			c-10.937-5.229-20.853-12.336-29.386-21.082c-8.459-8.777-14.705-19.574-18.085-31.249c-0.473-1.642-0.7-3.33-0.679-5.028
			l0-200.421c-0.463-1.517-0.699-3.088-0.702-4.686c0-40.495,9.373-75.959,27.859-105.419
			c16.587-26.435,40.339-47.163,68.688-59.943c20.999-9.418,43.305-14.192,66.309-14.192l0.459-0.001
			c22.825,0,44.954,4.75,65.771,14.118c25.004,11.279,46.642,29.046,62.577,51.383c17.199,24.108,27.849,53.073,31.669,86.126
			c2.73,3.043,4.258,6.984,4.262,11.151v222.365c-0.017,2.094-0.395,4.101-1.125,6.012c-3.702,11.214-10.075,21.544-18.437,29.882
			c-9.279,9.132-19.952,16.497-31.751,21.918c-30.798,14.631-70.76,22.707-112.457,22.707L253.477,488.548z M125.548,405.306
			c2.006,5.68,5.248,10.956,9.412,15.307c5.775,5.841,12.546,10.641,20.056,14.197c0.036,0.018,0.071,0.034,0.106,0.052
			c25.926,12.911,60.874,20.084,98.406,20.196l0.911,0.001c37.322,0,73.341-7.038,98.822-19.31c0.039-0.019,0.079-0.037,0.118-0.055
			c8.281-3.769,15.782-8.903,22.294-15.263c4.248-4.261,7.635-9.525,9.786-15.228V238.923c-6.617,3.645-13.541,6.729-20.685,9.21
			c-29.516,10.611-68.37,16.468-109.345,16.468c-41.015,0-79.87-5.856-109.409-16.49c-7.054-2.451-13.912-5.517-20.473-9.15V405.306
			z M255.726,159.145c-37.396,0-72.253,5.12-98.149,14.417c-22.127,7.913-32.029,16.496-32.029,21.493
			c0,5.056,9.849,13.709,31.852,21.643c25.787,9.295,60.64,14.414,98.141,14.414c37.373,0,72.217-5.12,98.112-14.417
			c20.961-7.608,29.994-15.246,31.586-20.07v-3.478c-2.02-4.834-11.188-12.306-31.407-19.586
			C328.044,164.264,293.203,159.145,255.726,159.145z M254.212,54.759c-18.712,0-36.855,3.885-53.927,11.548
			c-34.28,15.528-58.934,44.606-70.46,82.695c5.298-2.662,10.771-4.976,16.375-6.918c29.472-10.61,68.328-16.467,109.341-16.467
			c40.975,0,79.829,5.856,109.407,16.49c4.214,1.486,8.375,3.183,12.451,5.074c-11.629-37.391-35.87-65.838-69.268-80.877
			C291.067,58.645,272.924,54.759,254.212,54.759z"/>
		<path style="display:inline;fill:#BDBDBD;" d="M254.708,28.893c21.825,0,43.403,4.631,63.309,13.589
			C364.432,63.418,401.689,108.318,409,177.33c2.52,2.038,3.985,5.104,3.988,8.345v8.05c0,0.48,0,0.96,0,1.44c0,0.48,0,0.96,0,1.44
			v211.43c-0.01,1.366-0.273,2.718-0.775,3.988c-3.418,10.43-9.25,19.906-17.022,27.656c-8.731,8.592-18.889,15.601-30.02,20.715
			c-30.65,14.561-70.344,22.159-109.953,22.159c-0.569,0-1.138-0.002-1.707-0.005c-40.174-0.222-79.979-7.754-110.589-23.004
			c-10.353-4.951-19.753-11.688-27.767-19.902c-7.791-8.083-13.494-17.944-16.616-28.727c-0.308-1.068-0.457-2.175-0.443-3.286
			V206.131c-0.462-1.176-0.699-2.429-0.702-3.692c0-82.932,40.839-136.362,93.013-159.883c20.079-9.006,41.836-13.662,63.843-13.662
			C254.402,28.893,254.555,28.893,254.708,28.893 M120.508,161.231c8.647-5.583,17.932-10.107,27.656-13.477
			c27.693-9.97,65.689-16.136,107.377-16.136c41.688,0,79.646,6.166,107.376,16.136c8.266,2.916,16.229,6.626,23.779,11.077
			c-10.967-49.331-40.432-81.935-76.101-97.998c-17.933-8.049-37.158-12.074-56.384-12.074s-38.451,4.025-56.384,12.074
			C161.31,77.375,131.143,110.866,120.508,161.231 M255.541,237.111c39.362,0,74.735-5.649,100.139-14.77
			c20.345-7.385,33.564-16.099,35.558-24.924v0.111c0-0.037,0-0.074,0-0.111c0-1.775,0-3.616,0-5.28
			c-2.511-8.566-15.582-17.096-35.374-24.222c-25.404-9.157-60.778-14.77-100.139-14.77c-39.362,0-74.772,5.649-100.176,14.77
			c-22.302,7.976-36.001,17.687-36.001,27.14c0,9.453,13.699,19.312,35.817,27.287C180.769,231.498,216.18,237.111,255.541,237.111
			 M255.43,258.601c-41.688,0-79.683-6.166-107.376-16.136c-10.065-3.497-19.644-8.262-28.506-14.179v178.013
			c2.268,6.904,6.053,13.212,11.077,18.462c6.317,6.389,13.702,11.625,21.822,15.471c27.73,13.81,64.286,20.715,101.062,20.825
			c0.308,0.001,0.616,0.001,0.924,0.001c36.481,0,73.603-6.502,101.431-19.904c8.891-4.047,17.012-9.606,24.001-16.431
			c5.195-5.211,9.157-11.519,11.594-18.462V228.286c-8.921,5.906-18.547,10.67-28.654,14.179
			C335.077,252.434,297.118,258.601,255.43,258.601 M391.239,197.417h0.005 M254.708,16.893l-0.495,0.001
			c-23.82,0-46.952,4.95-68.718,14.713C156.045,44.883,131.388,66.4,114.17,93.839c-19.095,30.43-28.776,66.968-28.776,108.599
			c0.003,1.881,0.238,3.726,0.702,5.519v199.611c-0.019,2.256,0.287,4.499,0.912,6.667c3.655,12.624,10.399,24.283,19.507,33.734
			c0.017,0.018,0.034,0.035,0.051,0.053c9.004,9.228,19.463,16.732,31.089,22.304c30.911,15.378,72.029,23.98,115.79,24.221
			c0.59,0.003,1.182,0.005,1.773,0.005c42.54,0,83.389-8.27,115.036-23.289c12.401-5.707,23.622-13.456,33.353-23.032
			c0.019-0.019,0.038-0.037,0.056-0.056c8.993-8.968,15.854-20.07,19.855-32.123c0.954-2.542,1.448-5.207,1.468-7.927
			c0-0.03,0-0.061,0-0.091v-211.43v-1.44v-1.44v-8.05c-0.004-4.98-1.607-9.718-4.512-13.599
			c-4.108-33.346-15.044-62.652-32.535-87.168c-16.551-23.2-39.024-41.653-64.989-53.365
			C301.347,21.82,278.39,16.893,254.708,16.893L254.708,16.893z M140.113,137.916c12.306-30.113,33.946-53.142,62.667-66.152
			c16.256-7.296,33.573-11.005,51.432-11.005c17.86,0,35.176,3.708,51.47,11.021c27.977,12.598,49.225,35.15,61.494,64.75
			c-0.076-0.027-0.152-0.054-0.228-0.081c-30.208-10.855-69.771-16.833-111.407-16.833c-41.658,0-81.207,5.973-111.374,16.821
			C142.808,136.91,141.457,137.403,140.113,137.916L140.113,137.916z M131.695,195.065c1.319-2.322,8.243-8.823,27.895-15.852
			c25.276-9.074,59.412-14.069,96.135-14.069c36.801,0,70.919,4.993,96.07,14.059c18.434,6.638,25.584,12.781,27.443,15.42v0.681
			c-1.172,1.816-6.521,8.087-27.653,15.757c-25.222,9.055-59.346,14.05-96.045,14.05c-36.825,0-70.956-4.993-96.107-14.059
			C139.866,203.995,132.996,197.417,131.695,195.065L131.695,195.065z M366.804,253.78c4.301-1.496,8.525-3.201,12.656-5.107
			v155.394c-1.852,4.511-4.606,8.673-8.038,12.13c-5.998,5.845-12.904,10.567-20.528,14.036c-0.079,0.036-0.158,0.073-0.236,0.11
			c-24.698,11.894-59.77,18.715-96.224,18.715l-0.889-0.001c-36.628-0.11-70.633-7.06-95.748-19.567
			c-0.071-0.035-0.141-0.069-0.213-0.103c-6.847-3.243-13.022-7.614-18.355-12.992c-3.32-3.487-5.952-7.66-7.681-12.159V248.726
			c4.081,1.887,8.254,3.573,12.505,5.053c30.167,10.849,69.716,16.823,111.378,16.823C297.052,270.601,336.6,264.628,366.804,253.78
			L366.804,253.78z"/>
	</g>
	<path style="fill:#BDBDBD;" d="M111.673,216.263v197.121c0,0,29.89,61.531,142.74,57.354s149.323-59.86,149.323-59.86
		l2.784-214.105c0,0-67.099,56.241-156.194,54.849S111.673,216.263,111.673,216.263z"/>
	<path style="fill:#6BBE66;" d="M256,141.182c0,0-148.411,9.281-148.411,51.229S211.744,249.552,256,247.153
		s150.055-18.361,146.714-58.825C399.373,147.864,256,141.182,256,141.182z"/>
	<path style="fill:#BDBDBD;" d="M107.589,238.543c0,0,31.632-51.612,147.601-51.612s147.601,41.663,147.601,41.663l-2.119-31.091
		c0,0-29.858-47.466-144.673-47.466s-148.411,52.441-148.411,52.441V238.543z"/>
	<g>
		<path style="fill-rule:evenodd;clip-rule:evenodd;fill:#6BBE66;" d="M251.846,416.835c-18.482,0-37.597-15.826-37.73-42.327
			l-2.682-50.668c-1.244-23.462-4.981-29.144-5.957-30.242c-2.792,0.335-9.048,4.618-13.245,7.49
			c-8.384,5.738-17.053,11.673-26.672,11.673c-0.384,0-0.768-0.01-1.148-0.029c-10.469-0.529-18.886-7.265-25.01-20.021
			c-4.329-9.017-7.115-20.007-9.574-29.704l-10.916-43.035l17.838,6.598c38.61,14.281,77.837,21.523,116.58,21.523
			c0.007,0,0.008,0,0.015,0c43.802-0.002,88.264-9.249,132.151-27.483c1.294-0.538,2.659-0.811,4.055-0.811
			c4.318,0,8.266,2.713,9.821,6.751c1.576,4.091,0.49,8.64-2.767,11.587c-7.849,7.094-13.964,15.604-18.181,25.299
			c-2.889,6.888-3.126,17.305-3.354,27.38c-0.475,20.885-1.065,46.876-26.977,55.064c-3.116,0.978-6.355,1.47-9.646,1.47
			c-0.002,0-0.003,0-0.004,0c-16.827-0.002-34.232-13.358-34.232-35.707c-0.098-12.129-4.669-18.518-9.135-18.518
			c-1.989,0-4.176,1.105-6.154,3.111c-4.824,4.89-7.507,13.954-7.36,24.871l0.003,0.244l-0.008,0.244
			c-0.341,9.612-0.055,19.34,0.849,28.912c0.195,1.999,0.511,4.414,0.846,6.97c2.009,15.348,4.759,36.366-6.679,49.398
			C270.774,413.484,262.455,416.835,251.846,416.835z"/>
		<path style="fill:#1D1D1D;" d="M389.551,229.798c0.444,0,0.731,0.575,0.345,0.924c-8.854,8.002-15.905,17.814-20.667,28.784
			c-10.081,23.89,5.76,67.387-24.149,76.84c-2.157,0.677-4.393,1.005-6.635,1.005c-12.071,0-24.234-9.545-24.234-25.708
			c-0.153-19.136-9.331-28.517-19.134-28.517c-11.496,0-23.852,12.907-23.514,38.118c-0.357,10.077-0.061,20.166,0.886,30.204
			c1.772,18.13,11.004,55.387-20.604,55.387c-13.625,0-27.73-11.816-27.73-32.604l-2.695-50.919
			c-1.625-30.657-7.626-39.735-15.628-39.735c-11.629,0-27.477,19.184-40.232,19.184c-0.212,0-0.424-0.005-0.635-0.016
			c-15.361-0.775-21.01-24.924-25.847-43.94l-5.797-22.856c39.821,14.729,79.857,22.144,120.064,22.144
			c45.167,0,90.543-9.367,135.988-28.248C389.408,229.812,389.482,229.798,389.551,229.798 M104.544,203.994l9.352,36.871
			l5.797,22.856l0.442,1.743c2.574,10.151,5.492,21.656,10.253,31.574c9.754,20.319,23.617,25.18,33.53,25.681
			c0.53,0.027,1.089,0.042,1.643,0.042c12.714,0,23.13-7.13,32.32-13.42c0.589-0.403,1.234-0.845,1.906-1.3
			c0.644,3.747,1.273,9.017,1.661,16.33l2.67,50.438c0.13,14.437,5.159,27.64,14.194,37.232
			c8.855,9.402,21.078,14.794,33.534,14.794c16.957,0,26.893-7.266,32.243-13.361c14.425-16.436,11.207-41.022,9.078-57.292
			c-0.321-2.453-0.624-4.77-0.808-6.633c-0.862-9.139-1.133-18.424-0.808-27.596l0.017-0.488l-0.007-0.489
			c-0.09-6.728,1.028-11.268,2.253-14.132c0.22,1.301,0.377,2.915,0.396,4.894c0.024,12.883,4.878,24.666,13.676,33.187
			c8.154,7.897,19.292,12.427,30.558,12.427c4.308,0,8.555-0.647,12.62-1.922c10.391-3.284,24.007-11.288,30.096-30.846
			c3.391-10.89,3.652-22.405,3.906-33.541c0.207-9.112,0.421-18.532,2.554-23.681c3.644-8.354,8.921-15.689,15.684-21.802
			c6.355-5.744,8.474-14.615,5.399-22.6c-3.031-7.872-10.728-13.161-19.155-13.161c-2.722,0-5.38,0.531-7.899,1.579
			c-42.663,17.726-85.834,26.715-128.307,26.715c-37.567,0-75.628-7.032-113.126-20.902L104.544,203.994L104.544,203.994z"/>
	</g>
	<path style="fill:#1D1D1D;" d="M409.809,177.607c2.52,2.038,3.985,5.104,3.988,8.345v8.05c0,0.48,0,0.96,0,1.44s0,0.96,0,1.44
		v211.43c-0.01,1.366-0.273,2.718-0.775,3.988c-3.418,10.43-9.25,19.906-17.022,27.656c-8.731,8.592-18.889,15.601-30.02,20.715
		c-31.09,14.77-71.486,22.376-111.66,22.155c-40.174-0.222-79.979-7.754-110.589-23.004c-10.353-4.951-19.753-11.688-27.767-19.902
		c-7.791-8.083-13.494-17.944-16.616-28.727c-0.307-1.068-0.457-2.175-0.443-3.286V206.408c-0.462-1.176-0.7-2.429-0.702-3.692
		c0-82.932,40.839-136.362,93.013-159.883c20.079-9.006,41.836-13.662,63.842-13.662c21.982-0.065,43.723,4.567,63.769,13.588
		C365.241,63.695,402.498,108.595,409.809,177.607z M121.318,161.508c8.646-5.583,17.932-10.107,27.656-13.477
		c27.693-9.97,65.689-16.136,107.377-16.136s79.646,6.166,107.376,16.136c8.265,2.916,16.229,6.626,23.779,11.077
		c-10.967-49.331-40.432-81.936-76.101-97.998c-35.866-16.098-76.902-16.098-112.767,0
		C162.119,77.653,131.952,111.143,121.318,161.508z M392.048,197.805c0-1.809,0-3.692,0-5.391
		c-2.511-8.566-15.582-17.096-35.374-24.222c-25.404-9.157-60.778-14.77-100.139-14.77s-74.772,5.649-100.176,14.77
		c-22.302,7.976-36.001,17.687-36.001,27.14s13.699,19.312,35.817,27.287c25.404,9.157,60.815,14.77,100.176,14.77
		s74.735-5.649,100.139-14.77c20.345-7.385,33.564-16.099,35.558-24.924L392.048,197.805z M120.358,228.563v178.013
		c2.268,6.904,6.053,13.212,11.077,18.462c6.317,6.389,13.702,11.625,21.822,15.471c27.73,13.81,64.286,20.715,101.062,20.825
		s74.292-6.388,102.355-19.902c8.891-4.046,17.012-9.606,24.001-16.431c5.195-5.211,9.157-11.519,11.594-18.462V228.563
		c-8.921,5.906-18.547,10.67-28.653,14.179c-27.73,9.97-65.689,16.136-107.377,16.136s-79.683-6.166-107.377-16.136
		C138.798,239.245,129.219,234.48,120.358,228.563z"/>
</g>
<g id="Layer_1">
</g>
</svg>
