<?xml version="1.0" encoding="iso-8859-1"?>
<!-- Generator: Adobe Illustrator 27.7.0, SVG Export Plug-In . SVG Version: 6.00 Build 0)  -->
<svg version="1.1" xmlns="http://www.w3.org/2000/svg" xmlns:xlink="http://www.w3.org/1999/xlink" x="0px" y="0px"
	 viewBox="0 0 512 512" style="enable-background:new 0 0 512 512;" xml:space="preserve">
<g id="crv_x5F_text">
	<g id="Page-1">
		<g id="Dribbble-Light-Preview" transform="translate(-60.000000, -2759.000000)">
			<g id="icons" transform="translate(56.000000, 160.000000)">
				<g id="text_x5F_style-_x5B__x23_1212_x5D_">
					<path style="fill-rule:evenodd;clip-rule:evenodd;fill:#42A5F5;" d="M190.572,3038.57c-5.523,0-10-4.478-10-10v-34.714
						c0-5.522,4.477-10,10-10h34.714c4.057,0,7.357-3.301,7.357-7.357v-232.828c0-9.665-7.863-17.527-17.528-17.527h-24.543
						c-32.769,0-59.428,26.659-59.428,59.428c0,5.523-4.477,10-10,10H86.43c-5.523,0-10-4.477-10-10V2681.43c0-5.523,4.477-10,10-10
						H433.57c5.522,0,10,4.477,10,10v104.142c0,5.523-4.478,10-10,10h-34.714c-5.522,0-10-4.477-10-10
						c0-32.769-26.659-59.428-59.429-59.428h-24.542c-9.665,0-17.528,7.863-17.528,17.527v232.828c0,4.057,3.3,7.357,7.356,7.357
						h34.714c5.522,0,10,4.478,10,10v34.714c0,5.522-4.478,10-10,10H190.572z"/>
					<path style="fill:#1D1D1D;" d="M433.57,2681.429v104.142h-34.714c0-38.342-31.086-69.428-69.428-69.428h-24.543
						c-15.205,0-27.528,12.323-27.528,27.527v232.829c0,9.581,7.776,17.357,17.357,17.357h34.714v34.714H190.572v-34.714h34.714
						c9.581,0,17.357-7.776,17.357-17.357v-232.829c0-15.204-12.324-27.527-27.528-27.527h-24.543
						c-38.342,0-69.428,31.087-69.428,69.428H86.429v-104.142H433.57 M433.57,2661.429H86.429c-11.046,0-20,8.954-20,20v104.142
						c0,11.046,8.954,20,20,20h34.714c11.046,0,20-8.954,20-20c0-27.255,22.173-49.428,49.428-49.428h24.543
						c4.151,0,7.528,3.377,7.528,7.527v230.186h-32.071c-11.046,0-20,8.954-20,20v34.714c0,11.046,8.954,20,20,20h138.856
						c11.046,0,20-8.954,20-20v-34.714c0-11.046-8.954-20-20-20h-32.071v-230.186c0-4.15,3.377-7.527,7.528-7.527h24.543
						c27.255,0,49.428,22.173,49.428,49.428c0,11.046,8.954,20,20,20h34.714c11.046,0,20-8.954,20-20v-104.142
						C453.57,2670.384,444.616,2661.429,433.57,2661.429L433.57,2661.429z"/>
				</g>
			</g>
		</g>
	</g>
</g>
<g id="Layer_1">
</g>
</svg>
