<?xml version="1.0" encoding="iso-8859-1"?>
<!-- Generator: Adobe Illustrator 27.7.0, SVG Export Plug-In . SVG Version: 6.00 Build 0)  -->
<svg version="1.1" xmlns="http://www.w3.org/2000/svg" xmlns:xlink="http://www.w3.org/1999/xlink" x="0px" y="0px"
	 viewBox="0 0 512 512" style="enable-background:new 0 0 512 512;" xml:space="preserve">
<g id="crv_x5F_state">
	<polygon style="fill-rule:evenodd;clip-rule:evenodd;fill:#BDBDBD;stroke:#1D1D1D;stroke-width:16;stroke-miterlimit:10;" points="
		171.653,401.06 199.43,353.198 160.756,353.198 160.756,161.749 199.43,161.749 171.653,113.886 144.09,66.024 116.526,113.886 
		88.963,161.749 127.423,161.749 127.423,353.198 88.963,353.198 116.526,401.06 144.09,448.922 	"/>
	<g>
		<path style="fill:#42A5F5;" d="M80.416,479.263V445.29h8.547c87.819,0,170.082-20.085,232.046-56.623
			c60.469-35.683,93.801-82.691,93.801-132.048c0-49.572-33.333-96.365-93.801-132.048C259.044,88.032,176.568,67.947,88.963,67.947
			h-8.547V33.546h8.547c94.656,0,183.97,22.222,251.277,62.819c70.084,42.093,108.758,98.929,108.758,160.253
			s-38.674,118.16-108.758,160.253c-67.306,40.384-156.621,62.819-251.277,62.819h-8.547V479.263z"/>
		<path style="fill:#1D1D1D;" d="M88.963,42.093c93.16,0,180.765,21.794,247.003,61.537
			c67.52,40.384,104.699,94.656,104.699,152.775s-37.179,112.391-104.699,152.774c-66.024,39.743-153.843,61.537-247.003,61.537
			v-16.88c184.398,0,334.608-88.46,334.608-197.432c0-108.758-149.997-197.432-334.608-197.432L88.963,42.093 M88.963,24.999H71.869
			v17.094v16.88v17.094h17.094c86.109,0,167.09,19.658,227.773,55.554c57.905,34.187,89.742,78.417,89.742,124.784
			s-31.837,90.596-89.742,124.784c-60.682,35.683-141.664,55.554-227.773,55.554H71.869v17.094v16.88v17.094h17.094
			c96.152,0,186.962-22.649,255.764-63.888c72.862-43.589,112.818-103.203,112.818-167.518s-40.17-123.715-112.818-167.518
			C276.138,47.649,185.328,24.999,88.963,24.999L88.963,24.999z"/>
	</g>
</g>
<g id="Layer_1">
</g>
</svg>
