<?xml version="1.0" encoding="iso-8859-1"?>
<!-- Generator: Adobe Illustrator 27.7.0, SVG Export Plug-In . SVG Version: 6.00 Build 0)  -->
<svg version="1.1" xmlns="http://www.w3.org/2000/svg" xmlns:xlink="http://www.w3.org/1999/xlink" x="0px" y="0px"
	 viewBox="0 0 512 512" style="enable-background:new 0 0 512 512;" xml:space="preserve">
<g id="crv_x5F_to_x5F_python">
	<g id="pythonFile">
		<g id="Shape" style="display:none;">
			<path style="display:inline;opacity:0.8;fill-rule:evenodd;clip-rule:evenodd;fill:#9AA7B0;" d="M135.086,217.582
				c-3.236,0-6.153-1.949-7.391-4.938s-0.554-6.43,1.734-8.718l96.912-96.912c1.53-1.531,3.577-2.343,5.659-2.343
				c1.03,0,2.07,0.199,3.06,0.609c2.989,1.238,4.938,4.155,4.938,7.391v96.912c0,4.418-3.582,8-8,8H135.086z"/>
			<path style="display:inline;fill:#1D1D1D;" d="M231.998,112.669v96.912h-96.912L231.998,112.669 M232.002,96.669
				c-4.164,0-8.256,1.626-11.317,4.687l-96.912,96.912c-4.576,4.576-5.945,11.458-3.468,17.437
				c2.476,5.979,8.311,9.877,14.782,9.877h96.912c8.837,0,16-7.163,16-16v-96.912c0-6.471-3.898-12.306-9.877-14.782
				C236.142,97.067,234.063,96.669,232.002,96.669L232.002,96.669z"/>
		</g>
		<g id="Shape_2">
			<path style="opacity:0.8;fill-rule:evenodd;clip-rule:evenodd;fill:#9AA7B0;" d="M135.086,459.862c-4.418,0-8-3.582-8-8V233.81
				c0-4.418,3.582-8,8-8h113.14v-113.14c0-4.418,3.582-8,8-8h121.14c4.418,0,8,3.582,8,8v123.009c0,2.388-1.066,4.65-2.908,6.17
				c-1.445,1.193-3.249,1.83-5.092,1.83c-0.505,0-1.014-0.048-1.518-0.146c-0.129-0.025-13.254-2.529-23.824-2.529l-0.561,0.001
				c-2.86,0-5.79-0.067-8.624-0.132c-2.817-0.065-5.73-0.132-8.554-0.132c-5.925,0-10.321,0.295-14.254,0.958
				c-0.385,0.065-0.773,0.102-1.163,0.11c-12.825,0.265-23.154,8.681-29.562,15.694c-7.794,8.532-11.804,20.037-11,31.565
				c0.013,0.186,0.02,0.371,0.02,0.557v5.182c0,4.354-3.482,7.908-7.835,7.998c-24.411,0.503-45.011,17.533-50.094,41.415
				c-0.034,0.16-0.073,0.32-0.117,0.479c-6.012,21.609-2.983,47.104,7.536,63.441c9.942,15.442,29.458,18.757,29.654,18.789
				c3.876,0.626,6.756,3.977,6.756,7.902v17.032c0,4.418-3.582,8-8,8H135.086z"/>
			<path style="fill:#1D1D1D;" d="M377.367,112.669v123.009c0,0-13.843-2.674-25.342-2.674c-0.126,0-0.253,0-0.378,0.001
				c-0.059,0-0.117,0-0.176,0c-5.585,0-11.4-0.265-17.183-0.265c-5.289,0-10.551,0.221-15.584,1.069
				c-13.8,0.286-25.993,8.107-35.302,18.297c-9.309,10.19-14.034,23.75-13.075,37.518v5.182
				c-28.001,0.577-51.922,20.353-57.754,47.747c-6.388,22.963-3.602,51.095,8.518,69.917c12.12,18.825,35.136,22.36,35.136,22.36
				v17.032h-121.14V233.81h121.14v-121.14H377.367 M377.367,96.669h-121.14c-8.837,0-16,7.163-16,16v105.14h-105.14
				c-8.837,0-16,7.163-16,16v218.053c0,8.837,7.163,16,16,16h121.14c8.837,0,16-7.163,16-16V434.83
				c0-7.976-5.614-14.692-13.503-15.805c-1.088-0.203-16.495-3.281-24.179-15.216c-9.211-14.306-11.907-37.732-6.556-56.968
				c0.088-0.316,0.166-0.635,0.235-0.957c4.306-20.229,21.756-34.655,42.434-35.082c8.706-0.179,15.67-7.288,15.67-15.997v-5.182
				c0-0.371-0.013-0.742-0.039-1.112c-0.652-9.355,2.601-18.69,8.926-25.614c4.381-4.796,13.302-12.874,23.82-13.092
				c0.78-0.016,1.557-0.089,2.326-0.219c3.43-0.578,7.537-0.847,12.927-0.847c2.732,0,5.599,0.066,8.372,0.13
				c2.88,0.066,5.858,0.135,8.81,0.135l0.199,0c0.021,0,0.041,0,0.062,0l0.293-0.001c9.776,0,22.192,2.362,22.316,2.386
				c1.003,0.193,2.014,0.287,3.018,0.287c3.69,0,7.303-1.276,10.195-3.665c3.679-3.04,5.813-7.562,5.813-12.333V112.669
				C393.367,103.833,386.203,96.669,377.367,96.669L377.367,96.669z"/>
		</g>
		<g id="path1948">
			<g style="opacity:0.9;">
				<path style="fill-rule:evenodd;clip-rule:evenodd;fill:#40A0CF;" d="M263.974,425.938c-0.109,0-0.219-0.002-0.327-0.007
					c-18.359-0.752-33.614-14.925-35.788-33.101c-5.186-18.607-5.153-38.235,0.101-56.83c3.936-19.002,20.8-32.756,40.23-32.756
					c0.274,0,0.547,0.002,0.821,0.008h11.854v-18.702c0-21.154,9.305-31.022,33.186-35.194c8.844-1.495,17.831-2.254,26.754-2.264
					l0.953-0.002c9.274,0,18.616,0.744,27.771,2.21c18.179,1.889,32.25,16.441,33.506,34.701c0.013,0.183,0.019,0.366,0.019,0.549
					v50.035c0.032,9.228-3.546,17.938-10.074,24.5c-6.524,6.56-15.215,10.183-24.47,10.202h-53.081
					c-13.668,0.154-24.752,11.021-25.189,24.758v23.893c0,4.418-3.582,8-8,8H263.974z"/>
			</g>
			<path style="fill:#1D1D1D;" d="M341.764,255.091c8.953,0,17.889,0.718,26.728,2.146c14.338,1.39,25.573,12.942,26.561,27.314
				v50.035c0.024,7.065-2.762,13.849-7.746,18.857c-4.981,5.008-11.751,7.831-18.816,7.845h-53.064
				c-18.034,0.204-32.687,14.614-33.189,32.64v24.01h-18.265c-14.736-0.603-26.778-11.966-28.235-26.641
				c-4.987-17.451-4.987-35.952,0-53.404c3.081-15.517,16.699-26.649,32.451-26.649c0.246,0,0.491,0.003,0.738,0.008h73.064v-6.675
				h-53.126v-20.026c0-15.164,4.081-23.386,26.562-27.314c8.388-1.417,16.88-2.134,25.386-2.143
				C341.13,255.092,341.448,255.091,341.764,255.091 M312.125,291.227c2.619,0,5.191-1.028,7.109-2.959
				c2.854-2.875,3.695-7.187,2.13-10.924c-1.559-3.723-5.202-6.144-9.235-6.144c-0.015,0-0.03,0-0.045,0
				c-5.524,0.03-9.981,4.521-9.97,10.044c0.012,4.051,2.464,7.696,6.212,9.233C309.556,290.982,310.846,291.227,312.125,291.227
				 M341.765,239.091h-0.001c-0.332,0-0.664,0.001-0.996,0.003c-9.356,0.012-18.779,0.808-28.006,2.367
				c-0.029,0.005-0.059,0.01-0.088,0.015c-9.275,1.621-22.587,4.914-31.074,14.756c-7.741,8.977-8.734,19.85-8.734,28.319v10.702
				h-3.779c-0.3-0.005-0.598-0.008-0.897-0.008c-23.115,0-43.191,16.296-48.003,38.848c-5.524,19.739-5.588,40.548-0.191,60.312
				c1.382,10.353,6.282,19.937,13.901,27.127c7.993,7.542,18.443,11.943,29.423,12.393c0.218,0.009,0.436,0.013,0.654,0.013h18.265
				c8.837,0,16-7.164,16-16v-23.753c0.359-9.36,7.913-16.753,17.295-16.898h52.958c11.426-0.023,22.125-4.485,30.159-12.562
				c8.026-8.065,12.431-18.774,12.402-30.155v-50.02c0-0.366-0.013-0.732-0.038-1.098c-1.519-22.081-18.483-39.696-40.432-42.085
				C361.078,239.857,351.385,239.091,341.765,239.091L341.765,239.091z"/>
		</g>
		<g id="path1950">
			<g style="opacity:0.9;">
				<path style="fill-rule:evenodd;clip-rule:evenodd;fill:#BDBDBD;" d="M341.96,483.348c-9.586,0-19.092-1.403-28.265-4.173
					c-17.185-2.55-30.61-16.248-32.769-33.547c-0.041-0.328-0.062-0.659-0.062-0.99v-50.033
					c0.171-18.899,15.625-34.434,34.449-34.701c0.037-0.001,53.09-0.001,53.09-0.001c13.929-0.325,25.014-11.457,25.275-25.387
					v-23.263c0-4.418,3.582-8,8-8h19.939c0.165,0,0.33,0.005,0.495,0.016c17.989,1.115,32.423,15.277,33.978,33.133
					c5.69,18.768,5.597,38.555-0.277,57.289c-0.017,0.052-0.033,0.103-0.05,0.153c-5.215,15.528-12.584,32.095-34.146,32.095
					h-18.563v18.699c0,0.301-0.017,0.601-0.051,0.899c-1.981,17.518-15.427,31.253-32.823,33.65
					C361.021,481.948,351.531,483.348,341.96,483.348z"/>
			</g>
			<path style="fill:#1D1D1D;" d="M421.619,311.253c14.316,0.888,25.716,12.322,26.561,26.64c5.451,17.384,5.451,36.02,0,53.404
				c-5.369,15.988-11.123,26.641-26.561,26.641h-79.628v6.675h53.064v20.024c-1.582,13.989-12.584,25.047-26.564,26.702
				c-8.642,2.672-17.587,4.009-26.532,4.009c-8.945,0-17.89-1.336-26.532-4.009c-13.904-1.807-24.826-12.788-26.563-26.702v-50.033
				c0.133-14.639,11.926-26.493,26.563-26.702h53.064c18.222-0.373,32.887-15.092,33.188-33.316v-23.333H421.619 M371.877,457.99
				c2.609,0,5.173-1.019,7.089-2.937c2.866-2.871,3.717-7.188,2.156-10.932c-1.557-3.73-5.203-6.159-9.245-6.159
				c-0.014,0-0.028,0-0.042,0v0.002c-2.646,0-5.182,1.051-7.053,2.924c-1.87,1.873-2.919,4.412-2.915,7.058
				c-0.015,4.056,2.423,7.719,6.168,9.277C369.279,457.739,370.583,457.99,371.877,457.99 M421.619,295.253h-19.94
				c-8.836,0-16,7.163-16,16v23.181c-0.215,9.564-7.815,17.201-17.377,17.468h-52.875c-0.076,0-0.152,0-0.228,0.002
				c-11.282,0.161-21.878,4.654-29.836,12.654c-7.958,7.999-12.396,18.618-12.499,29.901c0,0.048-0.001,0.097-0.001,0.145v50.033
				c0,0.662,0.041,1.324,0.123,1.981c2.579,20.668,18.493,37.077,38.94,40.378c9.755,2.888,19.852,4.351,30.032,4.351
				c10.154,0,20.224-1.456,29.956-4.329c9.752-1.493,18.881-6.115,25.85-13.121c7.336-7.374,12.02-17.127,13.189-27.463
				c0.068-0.597,0.101-1.197,0.101-1.798v-10.699h10.564c29.12,0,37.636-25.36,41.729-37.548c0.034-0.102,0.067-0.204,0.099-0.306
				c6.278-20.018,6.455-41.149,0.532-61.23c-2.275-21.382-19.711-38.228-41.37-39.571
				C422.28,295.263,421.949,295.253,421.619,295.253L421.619,295.253z"/>
		</g>
	</g>
	<polygon style="fill:#BDBDBD;stroke:#1D1D1D;stroke-width:20;stroke-miterlimit:10;" points="143.265,172.627 61.731,91.096 
		116.162,36.652 197.701,118.191 240.346,75.545 259.932,234.863 100.62,215.276 	"/>
</g>
<g id="Layer_1">
</g>
</svg>
