<?xml version="1.0" encoding="iso-8859-1"?>
<!-- Generator: Adobe Illustrator 27.7.0, SVG Export Plug-In . SVG Version: 6.00 Build 0)  -->
<svg version="1.1" xmlns="http://www.w3.org/2000/svg" xmlns:xlink="http://www.w3.org/1999/xlink" x="0px" y="0px"
	 viewBox="0 0 512 512" style="enable-background:new 0 0 512 512;" xml:space="preserve">
<g id="curve_x5F_library_x5F_base_x5F_curve">
	<g>
		<g>
			<path style="fill:#42A5F5;" d="M246.928,468.415c-3.905,0-7.711-0.862-11.015-2.493c-3.747-1.679-26.25-12.09-49.771-29.506
				c-36.881-27.369-55.679-57.188-55.881-88.633c-0.2-43.587,36.02-82.286,107.651-115.039l1.684-0.77h0.171
				c47.363-21.944,74.418-45.62,74.306-65.085c-0.146-27.773-50.684-59.659-73.715-69.941c-6.553-3.014-11.51-8.305-14.045-14.937
				c-2.562-6.703-2.338-13.961,0.628-20.445c4.284-9.587,13.845-15.778,24.373-15.778c3.846,0,7.565,0.816,11.054,2.426
				l-0.003,0.005c3.281,1.482,26.051,12.078,49.761,29.769c36.828,27.67,55.49,57.559,55.49,88.852
				c0.199,43.474-35.836,82.05-107.104,114.62l-1.683,0.769h-0.168c-47.75,22.142-75.006,45.88-74.856,65.251
				c0.148,27.889,50.896,59.448,74.023,69.566l0.135,0.061c6.464,2.963,11.448,8.154,14.034,14.62
				c2.644,6.607,2.474,13.941-0.478,20.648C267.313,462.1,257.652,468.415,246.928,468.415z"/>
			<path style="fill:#1D1D1D;" d="M251.314,54.289c2.558,0,5.116,0.548,7.491,1.644c0.914,0.365,24.484,11.146,48.237,28.869
				c34.533,25.945,52.074,53.535,52.074,82.039c0.183,39.832-34.168,75.827-102.138,106.888h-0.183
				c-52.622,24.118-81.673,50.247-81.491,73.817c0.183,34.533,58.651,68.335,79.115,77.288c4.385,2.01,7.857,5.481,9.684,10.049
				c1.827,4.568,1.644,9.501-0.365,14.069c-2.923,6.76-9.501,10.963-16.81,10.963c-2.558,0-5.116-0.548-7.309-1.644
				c-0.914-0.365-24.484-10.963-48.419-28.686c-34.716-25.763-52.256-53.353-52.439-81.856
				c-0.183-39.832,34.35-76.009,102.686-107.254h0.183c30.331-13.886,81.125-41.842,80.943-73.634
				c-0.183-34.716-58.286-68.518-78.75-77.654c-9.136-4.202-13.338-14.983-9.136-24.118
				C237.61,58.491,244.188,54.289,251.314,54.289 M251.314,37.289c-13.863,0-26.456,8.15-32.115,20.772
				c-3.91,8.567-4.204,18.146-0.825,26.987c3.333,8.721,9.848,15.676,18.345,19.584l0.087,0.04l0.087,0.039
				c8.347,3.726,26.834,13.584,43.175,26.892c16.16,13.161,25.456,26.037,25.505,35.327c0.087,15.096-26.363,37.119-67.693,56.545
				h-0.134l-3.367,1.539c-74.943,34.266-112.833,75.579-112.617,122.792c0.22,34.291,20.174,66.388,59.308,95.43
				c23.225,17.197,45.659,27.84,51.028,30.28c4.481,2.224,9.607,3.399,14.831,3.399c14.103,0,26.814-8.31,32.396-21.175
				c3.853-8.798,4.054-18.444,0.564-27.17c-3.4-8.499-9.929-15.314-18.385-19.19l-0.134-0.062l-0.135-0.059
				c-7.719-3.377-26.703-13.304-43.297-26.704c-16.241-13.114-25.584-25.907-25.632-35.1c-0.089-11.48,17.811-33.05,68.242-56.727
				h0.133l3.366-1.538c74.558-34.073,112.265-75.251,112.072-122.387c-0.015-34.096-19.818-66.259-58.862-95.593l-0.022-0.017
				l-0.023-0.017c-22.997-17.159-46.486-28.616-51.529-30.793C261.195,38.358,256.235,37.289,251.314,37.289L251.314,37.289z"/>
		</g>
	</g>
</g>
<g id="Layer_1">
</g>
</svg>
