<?xml version="1.0" encoding="iso-8859-1"?>
<!-- Generator: Adobe Illustrator 27.7.0, SVG Export Plug-In . SVG Version: 6.00 Build 0)  -->
<svg version="1.1" xmlns="http://www.w3.org/2000/svg" xmlns:xlink="http://www.w3.org/1999/xlink" x="0px" y="0px"
	 viewBox="0 0 512 512" style="enable-background:new 0 0 512 512;" xml:space="preserve">
<g id="curve_x5F_library_x5F_control">
	<g>
		<g>
			<path style="fill:#7DD875;" d="M246.928,467.915c-3.754,0-7.413-0.812-10.604-2.35c-4.385-1.853-27.544-13.009-49.885-29.551
				c-36.747-27.271-55.478-56.956-55.678-88.235c-0.199-43.371,35.922-81.917,107.359-114.58l1.584-0.725h0.172
				c47.611-22.044,74.809-45.905,74.695-65.588c-0.147-28.014-50.888-60.071-74.011-70.395c-6.428-2.957-11.293-8.149-13.781-14.659
				c-2.513-6.576-2.294-13.696,0.615-20.057c4.203-9.41,13.586-15.488,23.918-15.488c3.719,0,7.317,0.778,10.696,2.313
				c3.722,1.576,27.179,12.897,49.816,29.789c36.694,27.569,55.289,57.323,55.289,88.451
				c0.198,43.261-35.738,81.684-106.812,114.165l-1.584,0.724h-0.169c-47.999,22.242-75.397,46.166-75.246,65.755
				c0.148,28.131,51.102,59.861,74.323,70.021l0.126,0.057c6.348,2.909,11.24,8.006,13.778,14.352
				c2.594,6.482,2.427,13.678-0.471,20.261C266.934,461.718,257.453,467.915,246.928,467.915z"/>
			<path style="fill:#1D1D1D;" d="M251.314,54.289c2.558,0,5.116,0.548,7.491,1.644c0.914,0.365,24.484,11.146,48.237,28.869
				c34.533,25.945,52.074,53.535,52.074,82.039c0.183,39.832-34.168,75.827-102.138,106.888h-0.183
				c-52.622,24.118-81.673,50.247-81.491,73.817c0.183,34.533,58.651,68.335,79.115,77.288c4.385,2.01,7.857,5.481,9.684,10.049
				c1.827,4.568,1.644,9.501-0.365,14.069c-2.923,6.76-9.501,10.963-16.81,10.963c-2.558,0-5.116-0.548-7.309-1.644
				c-0.914-0.365-24.484-10.963-48.419-28.686c-34.716-25.763-52.256-53.353-52.439-81.856
				c-0.183-39.832,34.35-76.009,102.686-107.254h0.183c30.331-13.886,81.125-41.842,80.943-73.634
				c-0.183-34.716-58.286-68.518-78.75-77.654c-9.136-4.202-13.338-14.983-9.136-24.118
				C237.61,58.491,244.188,54.289,251.314,54.289 M251.314,38.289c-13.473,0-25.712,7.922-31.208,20.192
				c-3.796,8.32-4.08,17.623-0.799,26.21c3.239,8.475,9.571,15.234,17.829,19.033l0.082,0.038l0.082,0.037
				c28.243,12.609,69.163,42.344,69.273,63.128c0.049,8.474-8.048,19.402-22.8,30.777c-14.366,11.078-32.227,20.463-45.671,26.772
				h-0.139l-3.169,1.449c-74.554,34.087-112.247,75.093-112.032,121.878c0.218,33.958,20.036,65.787,58.904,94.631
				c23.254,17.219,45.684,27.831,50.887,30.192c4.341,2.153,9.31,3.29,14.376,3.29c13.704,0,26.055-8.073,31.478-20.572
				c3.746-8.552,3.943-17.926,0.553-26.402c-3.304-8.26-9.651-14.884-17.873-18.652l-0.126-0.058l-0.127-0.056
				c-8.335-3.647-26.882-13.403-43.525-26.842c-16.476-13.303-25.954-26.378-26.004-35.873c-0.053-6.788,5.514-15.564,15.674-24.75
				c12.181-11.013,30.117-22.102,53.343-32.982h0.139l3.168-1.448c74.169-33.895,111.678-74.765,111.487-121.473
				c-0.012-33.768-19.682-65.661-58.463-94.799l-0.021-0.016l-0.021-0.016c-23.679-17.668-46.687-28.545-51.105-30.561l0.005-0.012
				C261.092,39.367,256.183,38.289,251.314,38.289L251.314,38.289z"/>
		</g>
	</g>
</g>
<g id="Layer_1">
</g>
</svg>
