<?xml version="1.0" encoding="iso-8859-1"?>
<!-- Generator: Adobe Illustrator 27.7.0, SVG Export Plug-In . SVG Version: 6.00 Build 0)  -->
<svg version="1.1" xmlns="http://www.w3.org/2000/svg" xmlns:xlink="http://www.w3.org/1999/xlink" x="0px" y="0px"
	 viewBox="0 0 512 512" style="enable-background:new 0 0 512 512;" xml:space="preserve">
<g id="curve_x5F_library_x5F_snapshot">
	<rect style="fill:none;" width="512" height="512"/>
	<path style="fill-rule:evenodd;clip-rule:evenodd;fill:#BDBDBD;" d="M340.363,132.251h55.169c19.144,0,34.807,15.663,34.807,34.807
		V375.9c0,19.144-15.663,34.807-34.807,34.807H117.076c-19.144,0-34.807-15.663-34.807-34.807V167.058
		c0-19.144,15.663-34.807,34.807-34.807h55.169l31.848-34.807h104.421L340.363,132.251z M117.076,375.9h278.456V167.058h-70.484
		l-10.268-11.312l-21.58-23.495h-73.791l-21.58,23.495l-10.268,11.312h-70.484V375.9z"/>
	<path style="fill-rule:evenodd;clip-rule:evenodd;fill:#BDBDBD;" d="M255.086,341.093c38.446,0,69.614-31.168,69.614-69.614
		c0-38.446-31.168-69.614-69.614-69.614c-38.447,0-69.614,31.168-69.614,69.614C185.472,309.925,216.639,341.093,255.086,341.093z
		 M255.086,306.286c19.224,0,34.807-15.583,34.807-34.807c0-19.224-15.583-34.807-34.807-34.807s-34.807,15.583-34.807,34.807
		C220.279,290.703,235.862,306.286,255.086,306.286z"/>
</g>
<g id="Layer_1">
</g>
</svg>
