<?xml version="1.0" encoding="iso-8859-1"?>
<!-- Generator: Adobe Illustrator 27.7.0, SVG Export Plug-In . SVG Version: 6.00 Build 0)  -->
<svg version="1.1" xmlns="http://www.w3.org/2000/svg" xmlns:xlink="http://www.w3.org/1999/xlink" x="0px" y="0px"
	 viewBox="0 0 512 512" style="enable-background:new 0 0 512 512;" xml:space="preserve">
<g id="curve_x5F_library_x5F_remove">
	
		<line style="fill:#BDBDBD;stroke:#BDBDBD;stroke-width:32.1933;stroke-linecap:round;stroke-linejoin:round;stroke-miterlimit:133.3333;" x1="194.061" y1="260.085" x2="319.496" y2="260.085"/>
	<path style="fill-rule:evenodd;clip-rule:evenodd;fill:#BDBDBD;" d="M432.058,260.085c0,97.066-78.688,175.754-175.754,175.754
		c-97.066,0-175.754-78.688-175.754-175.754c0-97.066,78.688-175.754,175.754-175.754
		C353.37,84.331,432.058,163.019,432.058,260.085z M112.614,260.085c0,79.358,64.332,143.69,143.69,143.69
		c79.358,0,143.69-64.332,143.69-143.69c0-79.358-64.332-143.69-143.69-143.69C176.946,116.395,112.614,180.727,112.614,260.085z"/>
	<rect style="fill:none;" width="512" height="512"/>
</g>
<g id="Layer_1">
</g>
</svg>
