<?xml version="1.0" encoding="iso-8859-1"?>
<!-- Generator: Adobe Illustrator 27.7.0, SVG Export Plug-In . SVG Version: 6.00 Build 0)  -->
<svg version="1.1" xmlns="http://www.w3.org/2000/svg" xmlns:xlink="http://www.w3.org/1999/xlink" x="0px" y="0px"
	 viewBox="0 0 512 512" style="enable-background:new 0 0 512 512;" xml:space="preserve">
<g id="curve_x5F_library_x5F_build">
	<g id="Icons1">
		<g id="Strike">
		</g>
		<g id="H1">
		</g>
		<g id="H2">
		</g>
		<g id="H3">
		</g>
		<g id="list-ul">
		</g>
		<g id="hamburger-1">
		</g>
		<g id="hamburger-2">
		</g>
		<g id="list-ol">
		</g>
		<g id="list-task">
		</g>
		<g id="trash">
		</g>
		<g id="vertical-menu">
		</g>
		<g id="horizontal-menu">
		</g>
		<g id="sidebar-2">
		</g>
		<g id="Pen">
		</g>
		<g id="Pen1">
			<path style="fill:#1D1D1D;" d="M423.179,386.165v29.364l-235.217-0.189l32.921-29.175H423.179z M370.372,80.631
				c11.526,0,17.509,0.895,33.215,14.056c16.034,13.427,18.921,23.898,19.592,35.557c0.713,12.547-3.523,27.791-15.293,39.708
				L184.488,393.35c-3.635,3.32-4.397,3.145-6.829,3.865l-71.477,17.873c-10.289,2.09-19.949-7.332-17.824-17.824l17.873-71.477
				c0.699-2.335,0.93-3.614,3.865-6.822c74.762-74.769,148.147-150.935,224.299-224.278
				C344.329,85.356,358.839,80.631,370.372,80.631L370.372,80.631z M144.081,326.543l-10.324,10.324l-10.946,43.769l43.769-10.946
				c3.446-3.439,6.885-6.871,10.338-10.303L144.081,326.543L144.081,326.543z M355.002,182.744l-33.565-33.558L164.218,306.406
				l32.935,32.942C249.919,287.289,303.369,235.894,355.002,182.744z M374.755,162.222c4.32-4.529,8.625-9.073,12.917-13.637
				c11.694-12.763,3.096-38.122-16.125-38.989c-0.391-0.014-0.783-0.014-1.174-0.014c-6.018,0.112-11.875,2.6-16.16,6.829
				l-12.63,12.637L374.755,162.222z"/>
		</g>
		<g id="clock">
		</g>
		<g id="external-link">
		</g>
		<g id="hr">
		</g>
		<g id="info">
		</g>
		<g id="warning">
		</g>
		<g id="plus-circle">
		</g>
		<g id="minus-circle">
		</g>
		<g id="vue">
		</g>
		<g id="cog">
		</g>
		<g id="logo">
		</g>
		<g id="radio-check">
		</g>
		<g id="eye-slash">
		</g>
		<g id="eye">
		</g>
		<g id="toggle-off">
		</g>
		<g id="shredder">
		</g>
		<g id="spinner--loading--dots-">
		</g>
		<g id="react">
		</g>
		<g id="check-selected">
		</g>
		<g id="turn-off">
		</g>
		<g id="code-block">
		</g>
		<g id="user">
		</g>
		<g id="coffee-bean">
		</g>
		<g id="coffee-beans">
			<g id="coffee-bean1">
			</g>
		</g>
		<g id="coffee-bean-filled">
		</g>
		<g id="coffee-beans-filled">
			<g id="coffee-bean2">
			</g>
		</g>
		<g id="clipboard">
		</g>
		<g id="clipboard-paste">
		</g>
		<g id="clipboard-copy">
		</g>
		<g id="Layer1">
		</g>
	</g>
	<rect style="fill:none;" width="512" height="512"/>
</g>
<g id="Layer_1">
</g>
</svg>
