<?xml version="1.0" encoding="iso-8859-1"?>
<!-- Generator: Adobe Illustrator 27.7.0, SVG Export Plug-In . SVG Version: 6.00 Build 0)  -->
<svg version="1.1" xmlns="http://www.w3.org/2000/svg" xmlns:xlink="http://www.w3.org/1999/xlink" x="0px" y="0px"
	 viewBox="0 0 512 512" style="enable-background:new 0 0 512 512;" xml:space="preserve">
<g id="curve_x5F_library_x5F_parameters">
	<g>
		<g>
			<path style="fill:#6BBE66;" d="M207.803,471.547c-4.418,0-8-3.582-8-8v-32.044c-14.27-4.219-27.745-10.158-40.2-17.717
				l-21.014,21.007c-1.562,1.562-3.609,2.342-5.656,2.342c-2.047,0-4.095-0.781-5.657-2.343l-46.32-46.32
				c-3.125-3.125-3.125-8.189,0-11.314l21.006-21.006c-7.542-12.433-13.468-25.867-17.681-40.083H52.201c-4.418,0-8-3.582-8-8
				v-82.149c0-4.418,3.582-8,8-8h32.082c4.085-13.78,9.811-26.857,17.081-39.02l-20.415-20.416c-3.124-3.124-3.125-8.189,0-11.313
				l46.32-46.328c1.5-1.5,3.535-2.344,5.657-2.344c0,0,0,0,0,0c2.122,0,4.157,0.843,5.657,2.344l19.95,19.957
				c12.667-7.8,26.441-13.921,41.097-18.261v-32.09c0-4.418,3.582-8,8-8h33.438c4.418,0,8,3.582,8,8v65.901
				c0,4.238-3.305,7.741-7.536,7.986c-64.943,3.774-115.815,57.654-115.815,122.662S176.59,385.885,241.533,389.66
				c4.23,0.246,7.536,3.748,7.536,7.986v65.9c0,4.418-3.582,8-8,8H207.803z"/>
			<path style="fill:#1D1D1D;" d="M241.069,70.449v65.901c-68.768,3.996-123.351,60.865-123.351,130.648
				c0,69.775,54.583,126.651,123.351,130.648v65.901h-33.266v-38.131c-17.771-4.586-34.429-11.949-49.326-21.817l-25.543,25.535
				l-46.32-46.32l25.535-25.535c-9.844-14.872-17.198-31.481-21.784-49.211H52.201v-82.149h38.163
				c4.48-17.337,11.629-33.569,21.154-48.179l-24.913-24.913l46.32-46.328l24.511,24.519c15.11-10.163,32.078-17.706,50.194-22.398
				V70.449H241.069 M241.069,54.449h-33.438c-8.837,0-16,7.163-16,16v26.217c-11.156,3.7-21.794,8.411-31.824,14.092l-15.565-15.57
				c-3.001-3.002-7.071-4.688-11.315-4.688c-4.244,0-8.315,1.686-11.315,4.687l-46.32,46.328
				c-6.247,6.249-6.247,16.378,0.001,22.626l16.087,16.087c-5.195,9.439-9.53,19.364-12.966,29.691H52.201c-8.837,0-16,7.163-16,16
				v82.149c0,8.837,7.163,16,16,16h26.21c3.569,10.742,8.096,21.034,13.539,30.782l-16.65,16.65c-6.248,6.248-6.248,16.379,0,22.627
				l46.32,46.32c3.124,3.124,7.219,4.686,11.314,4.686s8.188-1.561,11.312-4.684l16.656-16.651
				c9.777,5.462,20.108,10.001,30.901,13.578v26.17c0,8.837,7.163,16,16,16h33.266c8.837,0,16-7.163,16-16v-65.901
				c0-8.476-6.61-15.481-15.072-15.973c-60.717-3.529-108.279-53.9-108.279-114.675s47.562-111.146,108.279-114.675
				c8.462-0.492,15.072-7.497,15.072-15.973V70.449C257.069,61.613,249.905,54.449,241.069,54.449L241.069,54.449z"/>
		</g>
		<g>
			<path style="fill:#A2D69F;" d="M241.069,348.303c-0.274,0-0.549-0.014-0.824-0.043c-41.731-4.32-73.2-39.255-73.2-81.262
				c0-42.006,31.469-76.941,73.2-81.262c0.275-0.028,0.55-0.042,0.824-0.042c1.969,0,3.88,0.727,5.357,2.059
				c1.682,1.517,2.643,3.676,2.643,5.941v33.135c0,3.843-2.732,7.143-6.508,7.859c-15.504,2.944-26.758,16.533-26.758,32.31
				s11.253,29.366,26.758,32.311c3.775,0.717,6.507,4.017,6.507,7.859v33.135c0,2.265-0.96,4.424-2.642,5.941
				C244.95,347.575,243.038,348.303,241.069,348.303z"/>
			<path style="fill:#1D1D1D;" d="M241.069,193.694v33.135c-18.934,3.595-33.266,20.187-33.266,40.17
				c0,19.982,14.332,36.575,33.266,40.17v33.135c-37.099-3.841-66.024-35.19-66.024-73.305S203.97,197.534,241.069,193.694
				 M241.069,177.693c-0.548,0-1.098,0.028-1.648,0.085c-21.955,2.273-42.243,12.559-57.126,28.964
				c-14.993,16.526-23.25,37.925-23.25,60.256s8.257,43.73,23.25,60.256c14.883,16.405,35.171,26.691,57.126,28.964
				c0.55,0.057,1.101,0.085,1.648,0.085c3.938,0,7.761-1.455,10.715-4.118c3.364-3.034,5.285-7.352,5.285-11.882v-33.135
				c0-7.686-5.465-14.285-13.015-15.719c-11.734-2.228-20.251-12.511-20.251-24.451s8.517-22.223,20.251-24.451
				c7.551-1.434,13.015-8.034,13.015-15.719v-33.135c0-4.53-1.92-8.848-5.285-11.882
				C248.831,179.148,245.007,177.693,241.069,177.693L241.069,177.693z"/>
		</g>
		<g>
			<path style="fill:#BDBDBD;" d="M279.13,471.547c-4.418,0-8-3.582-8-8V220.408c0-4.418,3.582-8,8-8h140.304v-53.169h-6.479v32.104
				c0,4.418-3.582,8-8,8H279.13c-4.418,0-8-3.582-8-8V70.449c0-4.418,3.582-8,8-8h125.824c4.418,0,8,3.582,8,8v44.7h42.382
				c4.418,0,8,3.582,8,8v125.349c0,4.418-3.582,8-8,8H319.587c2.373,0.888,4.247,2.878,4.929,5.436l19.762,74.197
				c0.179,0.671,0.27,1.363,0.27,2.059v125.357c0,4.418-3.582,8-8,8H279.13z"/>
			<path style="fill:#1D1D1D;" d="M404.954,70.449v52.7h22.48h27.902v28.09v69.169v28.09h-27.902H306.908v15.495h9.877
				l19.761,74.197v125.357h-57.417V272.796v-24.298V232.7v-12.293h148.305v-69.169h-22.48v40.104H279.129V70.449H404.954
				 M404.954,54.449H279.129c-8.836,0-16,7.163-16,16v120.894c0,6.443,3.808,11.996,9.297,14.532
				c-5.488,2.536-9.297,8.089-9.297,14.532V232.7v15.798v24.298v190.751c0,8.837,7.164,16,16,16h57.417c8.837,0,16-7.163,16-16
				V338.19c0-1.39-0.181-2.774-0.539-4.118l-18.53-69.574h93.957h27.902c8.836,0,16-7.163,16-16v-28.09v-69.169v-28.09
				c0-8.837-7.164-16-16-16h-27.902h-6.48v-36.7C420.954,61.613,413.79,54.449,404.954,54.449L404.954,54.449z"/>
		</g>
	</g>
</g>
<g id="Layer_1">
</g>
</svg>
