<?xml version="1.0" encoding="iso-8859-1"?>
<!-- Generator: Adobe Illustrator 27.8.1, SVG Export Plug-In . SVG Version: 6.00 Build 0)  -->
<svg version="1.1" xmlns="http://www.w3.org/2000/svg" xmlns:xlink="http://www.w3.org/1999/xlink" x="0px" y="0px"
	 viewBox="0 0 512 512" style="enable-background:new 0 0 512 512;" xml:space="preserve">
<g id="library_x5F_shelf">
	<rect style="fill:none;" width="512" height="512"/>
	<path style="fill-rule:evenodd;clip-rule:evenodd;fill:#BDBDBD;" d="M432.058,260.085c0,97.066-78.688,175.754-175.754,175.754
		c-97.066,0-175.754-78.688-175.754-175.754c0-97.066,78.688-175.754,175.754-175.754
		C353.37,84.331,432.058,163.019,432.058,260.085z M112.614,260.085c0,79.358,64.332,143.69,143.69,143.69
		c79.358,0,143.69-64.332,143.69-143.69c0-79.358-64.332-143.69-143.69-143.69C176.946,116.395,112.614,180.727,112.614,260.085z"/>
	<path style="fill-rule:evenodd;clip-rule:evenodd;fill:#BDBDBD;" d="M172.523,176.608h41.739v41.739h-41.739V176.608z
		 M172.523,239.216h41.739v41.739h-41.739V239.216z M172.523,301.824h41.739v41.739h-41.739V301.824z M235.131,176.608h41.739
		v41.739h-41.739V176.608z M235.131,239.216h41.739v41.739h-41.739V239.216z M235.131,301.824h41.739v41.739h-41.739V301.824z
		 M297.739,176.608h41.738v41.739h-41.738V176.608z M297.739,239.216h41.738v41.739h-41.738V239.216z M297.739,301.824h41.738
		v41.739h-41.738V301.824z"/>
</g>
<g id="Layer_1">
</g>
</svg>
