<?xml version="1.0" encoding="iso-8859-1"?>
<!-- Generator: Adobe Illustrator 27.7.0, SVG Export Plug-In . SVG Version: 6.00 Build 0)  -->
<svg version="1.1" xmlns="http://www.w3.org/2000/svg" xmlns:xlink="http://www.w3.org/1999/xlink" x="0px" y="0px"
	 viewBox="0 0 512 512" style="enable-background:new 0 0 512 512;" xml:space="preserve">
<g id="mod_x5F_sphere_x5F_types">
	<g>
		<g>
			<circle style="fill:#BDBDBD;" cx="126.438" cy="126.609" r="84.486"/>
			<path style="fill:#1D1D1D;" d="M126.438,45.623c44.727,0,80.986,36.259,80.986,80.986s-36.259,80.986-80.986,80.986
				s-80.986-36.259-80.986-80.986S81.71,45.623,126.438,45.623 M126.438,38.623c-48.516,0-87.986,39.47-87.986,87.986
				s39.47,87.986,87.986,87.986s87.986-39.47,87.986-87.986S174.954,38.623,126.438,38.623L126.438,38.623z"/>
		</g>
		<path style="fill:#1D1D1D;" d="M121.599,208.33c-2.727-2.838-4.883-5.96-6.4-9.267c-4.464-9.868-7.489-20.07-9.021-30.427
			c-2.325-13.941-3.459-27.979-3.393-42.028c0.003-23.299,2.854-44.388,7.517-59.777c1.71-6.398,4.51-12.605,8.329-18.469
			c0.865-1.22,1.864-2.383,2.987-3.478c-0.49,0.03-0.977,0.068-1.466,0.103c0,0,8.635-1.215,7.957,0.31
			c-0.271,0.145-0.525,0.31-0.756,0.494c-3.385,2.785-5.908,6.096-7.386,9.698c-4.325,9.597-7.256,19.516-8.741,29.585
			c-2.297,13.777-3.416,27.65-3.35,41.534c-0.003,23.059,2.842,43.94,7.39,58.931c1.614,6.062,4.251,11.946,7.849,17.509
			c1.078,1.625,2.51,3.105,4.238,4.376c0.232,0.184,0.485,0.349,0.756,0.494c0.673,1.513-7.538,0.339-7.538,0.339
			C120.914,208.28,121.256,208.308,121.599,208.33z"/>
		<path style="fill:#1D1D1D;" d="M44.718,139.137c2.838,3.049,5.96,5.46,9.267,7.156c9.868,4.991,20.07,8.373,30.427,10.086
			c13.941,2.6,27.979,3.867,42.028,3.794c23.299-0.003,44.388-3.192,59.777-8.405c6.398-1.912,12.605-5.042,18.469-9.312
			c1.22-0.967,2.383-2.084,3.478-3.339c-0.03,0.547-0.068,1.093-0.103,1.639c0,0,1.215-9.655-0.31-8.896
			c-0.145,0.303-0.31,0.587-0.494,0.845c-2.785,3.785-6.096,6.605-9.698,8.259c-9.597,4.836-19.516,8.113-29.585,9.773
			c-13.777,2.568-27.65,3.819-41.534,3.746c-23.059,0.003-43.94-3.178-58.931-8.263c-6.062-1.804-11.946-4.753-17.509-8.776
			c-1.625-1.205-3.105-2.807-4.376-4.738c-0.184-0.259-0.349-0.543-0.494-0.845c-1.513-0.753-0.339,8.428-0.339,8.428
			C44.767,139.904,44.739,139.521,44.718,139.137z"/>
	</g>
	<g>
		<g>
			<circle style="fill:#BDBDBD;" cx="240.668" cy="243.862" r="92.483"/>
			<path style="fill:#1D1D1D;" d="M240.668,154.879c49.144,0,88.983,39.839,88.983,88.983c0,49.144-39.839,88.983-88.983,88.983
				c-49.144,0-88.983-39.839-88.983-88.983C151.685,194.718,191.524,154.879,240.668,154.879 M240.668,147.879
				c-52.925,0-95.983,43.058-95.983,95.983s43.058,95.983,95.983,95.983s95.983-43.058,95.983-95.983
				S293.593,147.879,240.668,147.879L240.668,147.879z"/>
		</g>
		<polyline style="fill:none;stroke:#1D1D1D;stroke-width:6.25;stroke-linecap:round;stroke-linejoin:round;" points="
			241.54,332.235 241.54,302.71 162.896,287.949 		"/>
		
			<polyline style="fill-rule:evenodd;clip-rule:evenodd;fill:none;stroke:#1D1D1D;stroke-width:6.25;stroke-linecap:round;stroke-linejoin:round;" points="
			241.521,332.235 241.521,302.71 320.164,287.949 		"/>
		
			<polyline style="fill-rule:evenodd;clip-rule:evenodd;fill:none;stroke:#1D1D1D;stroke-width:6.25;stroke-linecap:round;stroke-linejoin:round;" points="
			241.521,302.71 320.188,287.949 296.372,210.633 		"/>
		
			<polyline style="fill-rule:evenodd;clip-rule:evenodd;fill:none;stroke:#1D1D1D;stroke-width:6.25;stroke-linecap:round;stroke-linejoin:round;" points="
			241.785,302.71 163.118,287.949 186.934,210.633 		"/>
		
			<polyline style="fill-rule:evenodd;clip-rule:evenodd;fill:none;stroke:#1D1D1D;stroke-width:6.25;stroke-linecap:round;stroke-linejoin:round;" points="
			162.896,287.949 186.736,210.633 164.196,199.776 		"/>
		<polyline style="fill:none;stroke:#1D1D1D;stroke-width:6.25;stroke-linecap:round;stroke-linejoin:round;" points="
			320.212,287.949 296.372,210.633 318.912,199.776 		"/>
		
			<polyline style="fill-rule:evenodd;clip-rule:evenodd;fill:none;stroke:#1D1D1D;stroke-width:6.25;stroke-linecap:round;stroke-linejoin:round;" points="
			241.736,157.177 186.736,210.633 164.196,199.776 		"/>
		
			<polyline style="fill-rule:evenodd;clip-rule:evenodd;fill:none;stroke:#1D1D1D;stroke-width:6.25;stroke-linecap:round;stroke-linejoin:round;" points="
			241.736,157.177 296.556,210.633 318.912,199.776 		"/>
		<polyline style="fill:none;stroke:#1D1D1D;stroke-width:6.25;stroke-linecap:round;stroke-linejoin:round;" points="
			296.74,210.633 241.736,157.177 186.736,210.633 		"/>
		
			<polygon style="fill-rule:evenodd;clip-rule:evenodd;fill:none;stroke:#1D1D1D;stroke-width:6.25;stroke-linecap:round;stroke-linejoin:round;" points="
			296.544,210.633 241.641,302.71 186.736,210.633 		"/>
		<polygon style="display:none;fill:none;stroke:#000000;stroke-width:6.25;stroke-linecap:round;stroke-linejoin:round;" points="
			346.208,280.622 254.551,332.235 162.896,280.622 162.896,178.415 254.551,126.804 346.208,178.415 		"/>
	</g>
	<g>
		
			<circle id="XMLID_40_" style="fill:#FF9931;stroke:#1D1D1D;stroke-width:8;stroke-miterlimit:10;" cx="371.05" cy="371.146" r="105.517"/>
		<path style="fill:#1D1D1D;" d="M445.939,426.092c-5.088,3.053-10.684,5.8-16.687,8.14c2.239-15.365,2.34-31.543,0.102-47.824
			c3.561-1.526,6.919-3.256,10.175-5.088c17.298-9.972,28.389-23.403,32.866-39.48c-1.526-5.495-3.561-10.684-5.902-15.772
			c-0.407,25.133-16.993,40.09-30.933,48.129c-2.34,1.425-4.884,2.646-7.428,3.867c-0.611-3.46-1.323-6.817-2.239-10.277
			c-3.46-14.144-9.056-27.677-16.179-40.09c16.789-8.242,27.677-21.572,27.677-36.733c0-0.712,0-1.323-0.102-2.035
			c-3.154-2.544-6.41-4.884-9.87-7.021c1.119,2.951,1.73,5.902,1.73,9.056c0,12.21-9.361,23.098-23.81,29.813
			c-7.835-11.905-17.094-22.487-27.473-31.238c10.887-7.631,22.182-12.719,32.561-15.161l-0.305-1.323
			c-3.663-1.425-7.326-2.747-11.193-3.765c-9.666,3.46-19.028,8.547-27.88,14.958c-8.852-6.512-18.315-11.6-28.084-15.059
			c-3.663,1.018-7.326,2.239-10.887,3.561l-0.407,1.526c10.379,2.442,21.572,7.53,32.561,15.161
			c-10.277,8.751-19.638,19.333-27.473,31.238c-14.144-6.512-23.505-17.298-23.505-29.61c0-3.256,0.712-6.512,1.933-9.463
			c-3.46,2.137-6.817,4.477-9.972,7.021c-0.102,0.814-0.102,1.628-0.102,2.442c0,15.059,10.989,28.491,27.677,36.733
			c-7.123,12.312-12.719,25.845-16.179,40.09c-0.814,3.46-1.526,6.817-2.239,10.277c-2.544-1.221-5.088-2.442-7.428-3.867
			c-14.144-8.14-31.034-23.301-31.034-48.943h-0.102c-2.442,4.986-4.477,10.277-6.105,15.67c4.274,16.382,15.466,30.22,33.07,40.396
			c3.256,1.832,6.614,3.561,10.175,5.088c-2.239,16.28-2.137,32.459,0.102,47.824c-6.003-2.34-11.6-4.986-16.687-8.14
			c-10.175-6.105-21.572-15.568-27.982-29.61c2.442,9.768,6.207,19.028,11.193,27.575c3.765,3.256,8.038,6.207,12.617,9.056
			c6.817,4.07,14.449,7.53,22.589,10.379c1.526,7.021,3.46,13.94,6.003,20.452c2.035,1.119,4.07,2.137,6.207,3.053l3.358-1.323
			c-2.544-6.105-4.681-12.617-6.309-19.435c14.551,4.07,30.627,6.207,47.213,6.207c16.687,0,32.663-2.137,47.213-6.207
			c-1.628,6.716-3.765,13.228-6.309,19.435l2.951,1.221c2.239-1.018,4.477-2.137,6.614-3.358c2.442-6.512,4.375-13.228,5.8-20.147
			c8.14-2.849,15.772-6.309,22.589-10.379c4.274-2.544,8.14-5.291,11.6-8.14c4.782-8.038,8.547-16.891,11.091-26.15
			C466.29,411.542,455.504,420.394,445.939,426.092z M371.253,294.832c9.565,7.733,18.722,17.501,26.557,29.101
			c-7.937,2.646-16.993,4.172-26.557,4.172s-18.621-1.526-26.557-4.172C352.531,312.333,361.688,302.565,371.253,294.832z
			 M324.549,369.722c3.561-14.449,8.954-27.473,15.67-38.768c9.259,3.358,19.842,5.291,31.034,5.291
			c11.193,0,21.775-1.933,31.035-5.291c6.716,11.396,12.109,24.319,15.67,38.768c0.916,3.867,1.73,7.733,2.34,11.6
			c-14.856,5.495-31.95,8.242-49.045,8.242c-17.094,0-34.189-2.747-49.045-8.242C322.921,377.455,323.633,373.588,324.549,369.722z
			 M420.4,437.285c-14.856,4.579-31.645,7.021-49.146,7.021s-34.291-2.442-49.146-7.021c-2.646-15.263-3.053-31.543-1.119-47.722
			c15.059,5.393,32.256,8.242,50.266,8.242c17.908,0,35.206-2.849,50.266-8.242C423.452,405.844,423.045,422.022,420.4,437.285z"/>
	</g>
	<rect x="248.947" y="249.043" style="fill:none;" width="244.206" height="244.206"/>
</g>
<g id="Layer_1">
</g>
</svg>
