<?xml version="1.0" encoding="iso-8859-1"?>
<!-- Generator: Adobe Illustrator 27.7.0, SVG Export Plug-In . SVG Version: 6.00 Build 0)  -->
<svg version="1.1" xmlns="http://www.w3.org/2000/svg" xmlns:xlink="http://www.w3.org/1999/xlink" x="0px" y="0px"
	 viewBox="0 0 512 512" style="enable-background:new 0 0 512 512;" xml:space="preserve">
<g id="mod_x5F_paste_x5F_material">
	<g>
		<g>
			<path style="fill:#1D1D1D;" d="M239.741,220.274l181.373,124.915L239.544,470.3L58.368,345.385L239.741,220.274 M239.741,201.192
				l-8.852,6.098L49.516,332.205l-18.885,12.983l18.885,12.983l181.373,125.112l8.852,6.098l8.852-6.098l181.569-125.112
				l18.885-12.983l-18.885-12.983L248.79,207.291L239.741,201.192L239.741,201.192z"/>
		</g>
		<g>
			<g>
				<g>
					<polygon style="fill-rule:evenodd;clip-rule:evenodd;fill:#FF9931;" points="44.402,345.385 239.741,210.831 435.081,345.385 
						239.544,479.94 					"/>
				</g>
				<g>
					<polygon style="fill-rule:evenodd;clip-rule:evenodd;fill:#1D1D1D;" points="239.839,303.266 300.844,261.244 361.849,303.266 
						300.783,345.287 					"/>
					<polygon style="fill-rule:evenodd;clip-rule:evenodd;fill:#1D1D1D;" points="239.839,387.308 300.844,345.287 361.849,387.308 
						300.783,429.33 					"/>
					<polygon style="fill-rule:evenodd;clip-rule:evenodd;fill:#1D1D1D;" points="117.83,387.308 178.835,345.287 239.839,387.308 
						178.773,429.33 					"/>
					<polygon style="fill-rule:evenodd;clip-rule:evenodd;fill:#1D1D1D;" points="117.83,303.266 178.835,261.244 239.839,303.266 
						178.773,345.287 					"/>
				</g>
				<g>
					<path style="fill:#1D1D1D;" d="M239.741,220.274l181.373,124.915L239.544,470.3L58.368,345.385L239.741,220.274
						 M239.741,201.192l-8.852,6.098L49.516,332.205l-18.885,12.983l18.885,12.983l181.373,125.112l8.852,6.098l8.852-6.098
						l181.569-125.112l18.885-12.983l-18.885-12.983L248.79,207.291L239.741,201.192L239.741,201.192z"/>
				</g>
			</g>
		</g>
	</g>
	<g>
		<g>
			<path style="fill-rule:evenodd;clip-rule:evenodd;fill:#BDBDBD;" d="M180.455,322.088c-1.893,0-3.975-0.757-5.3-2.271
				c-2.082-2.082-2.839-5.11-1.703-7.949l25.741-71.734c0.379-1.136,0.946-2.082,1.703-2.839l200.059-199.87
				c5.11-5.11,12.113-7.949,19.306-7.949s14.195,2.839,19.306,7.949l17.981,17.981c10.599,10.599,10.599,28.012,0,38.801
				l-200.059,199.87c-0.757,0.757-1.703,1.325-2.839,1.703l-71.734,25.741C182.159,321.899,181.402,322.088,180.455,322.088z"/>
			<path style="fill:#1D1D1D;" d="M420.261,36.857c5.11,0,10.221,1.893,14.006,5.867l17.981,17.981c7.76,7.76,7.76,20.252,0,28.012
				l-7.571,7.571l-10.221,10.221L252.189,288.776l-71.734,25.741l25.741-71.734L388.464,60.516l10.221-10.221l7.571-7.571
				C410.23,38.75,415.34,36.857,420.261,36.857 M420.261,21.715c-9.274,0-18.17,3.596-24.794,10.221l-7.571,7.571l-10.221,10.221
				L195.408,231.995c-1.514,1.514-2.839,3.407-3.596,5.678l-25.552,71.734c-1.893,5.489-0.568,11.735,3.596,15.899
				c2.839,2.839,6.814,4.353,10.788,4.353c1.703,0,3.407-0.379,5.11-0.946l71.734-25.741c2.082-0.757,3.975-1.893,5.678-3.596
				l182.268-182.268l10.221-10.221l7.571-7.571c13.627-13.627,13.627-35.772,0-49.4l-17.981-17.981
				C438.431,25.311,429.725,21.715,420.261,21.715L420.261,21.715z"/>
		</g>
		<g>
			
				<rect x="401.858" y="60.26" transform="matrix(0.7077 -0.7065 0.7065 0.7077 52.8665 310.9517)" style="fill-rule:evenodd;clip-rule:evenodd;fill:#48AAB5;stroke:#1D1D1D;stroke-miterlimit:10;" width="0.757" height="62.648"/>
			<polygon style="fill:#1D1D1D;stroke:#1D1D1D;stroke-miterlimit:10;" points="380.325,58.623 369.158,69.79 424.047,124.868 
				435.403,113.512 			"/>
		</g>
		<g>
			
				<rect x="234.044" y="228.528" transform="matrix(0.7065 -0.7077 0.7077 0.7065 -116.2362 242.6391)" style="fill-rule:evenodd;clip-rule:evenodd;fill:#48AAB5;stroke:#1D1D1D;stroke-miterlimit:10;" width="0.757" height="65.866"/>
			<polygon style="fill:#1D1D1D;stroke:#1D1D1D;stroke-miterlimit:10;" points="211.306,227.263 200.14,238.43 257.299,295.779 
				268.656,284.423 			"/>
		</g>
	</g>
</g>
<g id="Layer_1">
</g>
</svg>
