<?xml version="1.0" encoding="iso-8859-1"?>
<!-- Generator: Adobe Illustrator 27.7.0, SVG Export Plug-In . SVG Version: 6.00 Build 0)  -->
<svg version="1.1" xmlns="http://www.w3.org/2000/svg" xmlns:xlink="http://www.w3.org/1999/xlink" x="0px" y="0px"
	 viewBox="0 0 512 512" style="enable-background:new 0 0 512 512;" xml:space="preserve">
<g id="mod_x5F_load_x5F_udims">
	<g>
		
			<circle id="XMLID_00000141446754660984562980000013167408982363543951_" style="fill:#FF9931;stroke:#1D1D1D;stroke-width:8;stroke-miterlimit:10;" cx="356.219" cy="354.6" r="122.674"/>
		<path style="fill:#1D1D1D;" d="M443.286,418.48c-5.915,3.549-12.421,6.743-19.401,9.464c2.603-17.863,2.721-36.672,0.118-55.6
			c4.14-1.774,8.044-3.785,11.83-5.915c20.111-11.593,33.005-27.208,38.21-45.899c-1.774-6.388-4.14-12.421-6.861-18.336
			c-0.473,29.219-19.756,46.609-35.962,55.955c-2.721,1.656-5.678,3.076-8.636,4.495c-0.71-4.022-1.538-7.926-2.603-11.948
			c-4.022-16.443-10.528-32.177-18.809-46.609c19.519-9.582,32.177-25.079,32.177-42.705c0-0.828,0-1.538-0.118-2.366
			c-3.667-2.957-7.453-5.678-11.475-8.163c1.301,3.431,2.011,6.861,2.011,10.528c0,14.196-10.883,26.853-27.682,34.661
			c-9.109-13.841-19.874-26.144-31.94-36.317c12.658-8.872,25.789-14.787,37.855-17.626l-0.355-1.538
			c-4.259-1.656-8.517-3.194-13.013-4.377c-11.238,4.022-22.122,9.937-32.413,17.39c-10.292-7.571-21.293-13.486-32.65-17.508
			c-4.259,1.183-8.517,2.603-12.658,4.14l-0.473,1.774c12.066,2.839,25.079,8.754,37.855,17.626
			c-11.948,10.174-22.831,22.477-31.94,36.317c-16.443-7.571-27.327-20.111-27.327-34.424c0-3.785,0.828-7.571,2.248-11.002
			c-4.022,2.484-7.926,5.205-11.593,8.163c-0.118,0.946-0.118,1.893-0.118,2.839c0,17.508,12.776,33.123,32.177,42.705
			c-8.281,14.314-14.787,30.047-18.809,46.609c-0.946,4.022-1.774,7.926-2.603,11.948c-2.957-1.42-5.915-2.839-8.636-4.495
			c-16.443-9.464-36.081-27.09-36.081-56.901h-0.118c-2.839,5.797-5.205,11.948-7.098,18.218
			c4.968,19.046,17.981,35.134,38.447,46.964c3.786,2.129,7.689,4.14,11.83,5.915c-2.603,18.928-2.484,37.737,0.118,55.6
			c-6.98-2.721-13.486-5.797-19.401-9.464c-11.83-7.098-25.079-18.099-32.532-34.424c2.839,11.357,7.216,22.122,13.013,32.059
			c4.377,3.786,9.345,7.216,14.669,10.528c7.926,4.732,16.798,8.754,26.262,12.066c1.774,8.163,4.022,16.207,6.98,23.778
			c2.366,1.301,4.732,2.484,7.216,3.549l3.904-1.538c-2.957-7.098-5.442-14.669-7.334-22.595c16.917,4.732,35.607,7.216,54.89,7.216
			c19.401,0,37.973-2.484,54.89-7.216c-1.893,7.808-4.377,15.379-7.334,22.595l3.431,1.42c2.603-1.183,5.205-2.484,7.689-3.904
			c2.839-7.571,5.087-15.379,6.743-23.423c9.464-3.312,18.336-7.334,26.262-12.066c4.968-2.957,9.464-6.151,13.486-9.464
			c5.56-9.345,9.937-19.637,12.894-30.402C466.946,401.564,454.406,411.856,443.286,418.48z M356.456,265.877
			c11.12,8.991,21.767,20.347,30.876,33.833c-9.227,3.076-19.756,4.85-30.876,4.85s-21.648-1.774-30.876-4.85
			C334.689,286.224,345.336,274.868,356.456,265.877z M302.158,352.944c4.14-16.798,10.41-31.94,18.218-45.071
			c10.765,3.904,23.068,6.151,36.081,6.151s25.316-2.248,36.081-6.151c7.808,13.249,14.077,28.273,18.218,45.071
			c1.065,4.495,2.011,8.991,2.721,13.486c-17.271,6.388-37.145,9.582-57.019,9.582c-19.874,0-39.748-3.194-57.019-9.582
			C300.265,361.934,301.093,357.439,302.158,352.944z M413.594,431.493c-17.271,5.323-36.79,8.163-57.138,8.163
			c-20.347,0-39.866-2.839-57.138-8.163c-3.076-17.745-3.549-36.672-1.301-55.481c17.508,6.27,37.5,9.582,58.439,9.582
			c20.82,0,40.931-3.312,58.439-9.582C417.142,394.939,416.669,413.749,413.594,431.493z"/>
	</g>
	<g>
		<g>
			<g>
				<rect x="43.206" y="39.017" style="fill-rule:evenodd;clip-rule:evenodd;fill:#BDBDBD;" width="206.814" height="206.811"/>
				<path style="fill:#1D1D1D;" d="M244.04,44.997v194.851H49.186V44.997H244.04 M256,33.036H37.226v218.771H256V33.036L256,33.036z
					"/>
			</g>
		</g>
		<g>
			<path style="fill-rule:evenodd;clip-rule:evenodd;fill:#1D1D1D;" d="M47.551,109.403h66.042v66.046H47.551V109.403z"/>
			<path style="fill-rule:evenodd;clip-rule:evenodd;fill:#1D1D1D;" d="M113.592,43.361h66.045v66.042h-66.045V43.361z"/>
			<path style="fill-rule:evenodd;clip-rule:evenodd;fill:#1D1D1D;" d="M113.592,175.449h66.045v66.039h-66.045V175.449z"/>
			<path style="fill-rule:evenodd;clip-rule:evenodd;fill:#1D1D1D;" d="M179.637,109.403h66.042v66.046h-66.042
				C179.637,175.449,179.637,109.403,179.637,109.403z"/>
		</g>
	</g>
	<polygon style="fill:#BDBDBD;stroke:#1D1D1D;stroke-width:14;stroke-miterlimit:10;" points="127.441,402.942 67.886,343.39 
		107.644,303.623 167.202,363.18 198.352,332.031 212.658,448.401 96.292,434.094 	"/>
</g>
<g id="Layer_1">
</g>
</svg>
