<?xml version="1.0" encoding="iso-8859-1"?>
<!-- Generator: Adobe Illustrator 27.7.0, SVG Export Plug-In . SVG Version: 6.00 Build 0)  -->
<svg version="1.1" xmlns="http://www.w3.org/2000/svg" xmlns:xlink="http://www.w3.org/1999/xlink" x="0px" y="0px"
	 viewBox="0 0 955.144 236.007" style="enable-background:new 0 0 955.144 236.007;" xml:space="preserve">
<g id="package_x5F_logo">
	<path id="Logo_Clear_00000092428887555607339160000017933356214128574910_" style="fill:#1D183F;" d="M945.144,15v211.007H15.155
		V15H945.144 M955.144,5h-10H15.155h-10v10v211.007v10h10h929.989h10v-10V15V5L955.144,5z M191.827,116.359v29.936
		c-1.554,29.729-26.769,42.941-46.456,42.941c-20.378,0-46.456-12.387-46.456-44.8V93.65c0-32.619,26.078-46.452,46.456-46.452
		c21.587,0,46.456,14.865,46.456,42.529c0,4.955-1.036,5.78-5.008,5.78h-16.752c-4.835,0-4.145-4.129-5.008-7.019
		c-1.899-6.4-8.117-12.594-19.688-12.594c-11.398,0-18.997,9.084-18.997,22.297v41.497c0,13.213,7.599,20.852,18.997,20.852
		c11.226,0,19.169-6.194,19.169-22.091h-15.543c-3.972,0-5.008-2.271-5.008-5.987v-16.103c0-3.716,1.036-5.987,5.008-5.987h37.821
		C190.791,110.373,191.827,112.644,191.827,116.359z M295.795,56.282v17.135c0,3.716-1.036,5.987-5.008,5.987h-26.423v100.748
		c0,4.749-1.9,5.987-5.008,5.987h-17.097c-3.109,0-5.008-1.238-5.008-5.987V79.405h-26.596c-3.972,0-5.008-2.271-5.008-5.987V56.282
		c0-3.716,1.036-5.987,5.008-5.987h80.132C294.758,50.295,295.795,52.566,295.795,56.282z M441.728,56.282v17.135
		c0,3.716-1.036,5.987-5.008,5.987h-26.423v100.748c0,4.749-1.9,5.987-5.008,5.987h-17.097c-3.109,0-5.008-1.238-5.008-5.987V79.405
		h-26.596c-3.972,0-5.008-2.271-5.008-5.987V56.282c0-3.716,1.036-5.987,5.008-5.987h80.132
		C440.692,50.295,441.728,52.566,441.728,56.282z M548.284,142.579c0,32.619-25.904,46.658-46.456,46.658
		c-20.551,0-46.11-14.039-46.11-46.658V93.856c0-32.62,25.56-46.658,46.11-46.658c20.552,0,46.456,14.039,46.456,46.658V142.579z
		 M521.171,96.747c0-13.213-7.944-20.852-19.343-20.852c-11.226,0-19.169,7.639-19.169,20.852v42.942
		c0,13.213,7.943,20.852,19.169,20.852c11.398,0,19.343-7.639,19.343-20.852V96.747z M659.678,142.579
		c0,32.619-25.905,46.658-46.456,46.658c-20.552,0-46.111-14.039-46.111-46.658V93.856c0-32.62,25.56-46.658,46.111-46.658
		c20.551,0,46.456,14.039,46.456,46.658V142.579z M632.564,96.747c0-13.213-7.944-20.852-19.342-20.852
		c-11.226,0-19.17,7.639-19.17,20.852v42.942c0,13.213,7.944,20.852,19.17,20.852c11.397,0,19.342-7.639,19.342-20.852V96.747z
		 M763.644,163.224v16.929c0,3.717-1.036,5.987-5.008,5.987h-71.843c-3.973,0-5.009-2.271-5.009-5.987V56.282
		c0-4.749,1.9-5.987,5.009-5.987h17.097c3.109,0,5.009,1.239,5.009,5.987v100.955h49.737
		C762.608,157.237,763.644,159.508,763.644,163.224z M866.573,145.882c0,29.315-19.342,43.354-45.938,43.354
		c-21.588,0-46.456-14.864-46.456-43.768c0-4.748,1.036-5.78,5.008-5.78h16.752c3.973,0,5.872,0.619,6.217,5.78
		c0.173,2.684,1.037,5.368,3.281,8.465c3.454,4.954,10.535,6.812,16.925,6.812c9.326,0,16.925-2.478,16.925-14.039
		c0-11.561-15.37-11.768-30.05-17.342c-17.442-6.606-33.504-14.864-33.504-41.083c0-26.839,20.379-40.052,41.966-41.084
		c21.934,0,45.938,11.974,45.938,39.226c0,4.955-1.036,5.78-5.009,5.78h-16.924c-3.281,0-3.8-2.89-4.663-5.574
		c-0.69-2.064-1.555-3.716-3.627-6.193c-3.281-3.716-9.498-5.574-14.68-5.574c-5.698,0-15.197,2.684-15.197,11.974
		c0,12.594,25.387,17.136,32.295,20.439C848.268,111.818,866.573,117.805,866.573,145.882z"/>
	
		<radialGradient id="Logo_Clear_00000080181045864779564060000003172492788625607074_" cx="502.5055" cy="116.4725" r="589.9047" gradientTransform="matrix(0.223 0.9748 -7.7985 1.7841 1298.7544 -581.1761)" gradientUnits="userSpaceOnUse">
		<stop  offset="0.2111" style="stop-color:#00FFAF"/>
		<stop  offset="0.226" style="stop-color:#0FF0B2"/>
		<stop  offset="0.2801" style="stop-color:#41BEBD"/>
		<stop  offset="0.3384" style="stop-color:#6E91C6"/>
		<stop  offset="0.3994" style="stop-color:#956ACF"/>
		<stop  offset="0.4639" style="stop-color:#B649D6"/>
		<stop  offset="0.5328" style="stop-color:#D12EDB"/>
		<stop  offset="0.6079" style="stop-color:#E51AE0"/>
		<stop  offset="0.6922" style="stop-color:#F40BE3"/>
		<stop  offset="0.7933" style="stop-color:#FC03E4"/>
		<stop  offset="0.9562" style="stop-color:#FF00E5"/>
	</radialGradient>
	
		<path id="Logo_Clear_00000111905916569151998860000000711024544951083179_" style="fill:url(#Logo_Clear_00000080181045864779564060000003172492788625607074_);" d="
		M939.989,10v211.007H10V10H939.989 M949.989,0h-10H10H0v10v211.007v10h10h929.989h10v-10V10V0L949.989,0z M186.672,111.359v29.936
		c-1.554,29.729-26.769,42.941-46.456,42.941c-20.378,0-46.456-12.387-46.456-44.8V88.65c0-32.619,26.078-46.452,46.456-46.452
		c21.587,0,46.456,14.865,46.456,42.529c0,4.955-1.036,5.78-5.008,5.78h-16.752c-4.835,0-4.145-4.129-5.008-7.019
		c-1.899-6.4-8.117-12.594-19.688-12.594c-11.398,0-18.997,9.084-18.997,22.297v41.497c0,13.213,7.599,20.852,18.997,20.852
		c11.226,0,19.169-6.194,19.169-22.091h-15.543c-3.972,0-5.008-2.271-5.008-5.987v-16.103c0-3.716,1.036-5.987,5.008-5.987h37.821
		C185.635,105.373,186.672,107.644,186.672,111.359z M290.639,51.282v17.135c0,3.716-1.036,5.987-5.008,5.987h-26.423v100.748
		c0,4.749-1.9,5.987-5.008,5.987h-17.097c-3.109,0-5.008-1.238-5.008-5.987V74.405h-26.596c-3.972,0-5.008-2.271-5.008-5.987V51.282
		c0-3.716,1.036-5.987,5.008-5.987h80.132C289.603,45.295,290.639,47.566,290.639,51.282z M436.573,51.282v17.135
		c0,3.716-1.036,5.987-5.008,5.987h-26.423v100.748c0,4.749-1.9,5.987-5.008,5.987h-17.097c-3.109,0-5.008-1.238-5.008-5.987V74.405
		h-26.596c-3.972,0-5.008-2.271-5.008-5.987V51.282c0-3.716,1.036-5.987,5.008-5.987h80.132
		C435.537,45.295,436.573,47.566,436.573,51.282z M543.129,137.579c0,32.619-25.904,46.658-46.456,46.658
		c-20.551,0-46.11-14.039-46.11-46.658V88.856c0-32.62,25.56-46.658,46.11-46.658c20.552,0,46.456,14.039,46.456,46.658V137.579z
		 M516.016,91.747c0-13.213-7.944-20.852-19.343-20.852c-11.226,0-19.169,7.639-19.169,20.852v42.942
		c0,13.213,7.943,20.852,19.169,20.852c11.398,0,19.343-7.639,19.343-20.852V91.747z M654.523,137.579
		c0,32.619-25.905,46.658-46.456,46.658c-20.552,0-46.111-14.039-46.111-46.658V88.856c0-32.62,25.56-46.658,46.111-46.658
		c20.551,0,46.456,14.039,46.456,46.658V137.579z M627.408,91.747c0-13.213-7.944-20.852-19.342-20.852
		c-11.226,0-19.17,7.639-19.17,20.852v42.942c0,13.213,7.944,20.852,19.17,20.852c11.397,0,19.342-7.639,19.342-20.852V91.747z
		 M758.489,158.224v16.929c0,3.717-1.036,5.987-5.008,5.987h-71.843c-3.973,0-5.009-2.271-5.009-5.987V51.282
		c0-4.749,1.9-5.987,5.009-5.987h17.097c3.109,0,5.009,1.239,5.009,5.987v100.955h49.737
		C757.452,152.237,758.489,154.508,758.489,158.224z M861.418,140.882c0,29.315-19.342,43.354-45.938,43.354
		c-21.588,0-46.456-14.864-46.456-43.768c0-4.748,1.036-5.78,5.008-5.78h16.752c3.973,0,5.872,0.619,6.217,5.78
		c0.173,2.684,1.037,5.368,3.281,8.465c3.454,4.954,10.535,6.812,16.925,6.812c9.326,0,16.925-2.478,16.925-14.039
		c0-11.561-15.37-11.768-30.05-17.342c-17.442-6.606-33.504-14.864-33.504-41.083c0-26.839,20.379-40.052,41.966-41.084
		c21.934,0,45.938,11.974,45.938,39.226c0,4.955-1.036,5.78-5.009,5.78H836.55c-3.281,0-3.8-2.89-4.663-5.574
		c-0.69-2.064-1.555-3.716-3.627-6.193c-3.281-3.716-9.498-5.574-14.68-5.574c-5.698,0-15.197,2.684-15.197,11.974
		c0,12.594,25.387,17.136,32.295,20.439C843.113,106.818,861.418,112.805,861.418,140.882z"/>
	<linearGradient id="SVGID_1_" gradientUnits="userSpaceOnUse" x1="0" y1="115.9002" x2="949.9891" y2="115.9002">
		<stop  offset="0" style="stop-color:#B0FF45"/>
		<stop  offset="0.4853" style="stop-color:#54FFA6"/>
		<stop  offset="0.8354" style="stop-color:#17FFE6"/>
		<stop  offset="1" style="stop-color:#00FFFF"/>
	</linearGradient>
	<path style="opacity:0.03;fill:url(#SVGID_1_);" d="M498.231,42.628c0.44,0.015,0.883,0.04,1.326,0.068l-19.252,37.611
		c-0.261,0.466-0.511,0.942-0.738,1.441l-28.994,56.641c-0.001-0.14-0.01-0.273-0.01-0.414V89.253c0-8.298,1.66-15.388,4.465-21.356
		L498.231,42.628z M607.029,42.617l-43.343,32.791c-1.114,4.18-1.731,8.788-1.731,13.845v21.477l47.004-68.116
		c-0.298-0.006-0.598-0.019-0.893-0.019C607.723,42.595,607.375,42.609,607.029,42.617z M590.515,144.406l-15.987,26.544
		c6.273,6.348,14.213,10.371,22.223,12.305l1.935-29.475C594.996,151.857,592.164,148.673,590.515,144.406z M377.043,45.691
		l-15.612,29.11h9.659l8.886-29.11H377.043z M815.481,184.633c26.596,0,45.938-14.039,45.938-43.354
		c0-2.539-0.154-4.893-0.436-7.086l-65.148,46.399C802.168,183.272,808.972,184.633,815.481,184.633z M703.743,51.679
		c0-4.749-1.899-5.987-5.009-5.987h-3.827l-18.279,27.637v78.173l27.114-28.453V51.679z M378.028,112.935v8.272l27.114,12.748
		V97.076L378.028,112.935z M277.996,74.801l-6.344-29.11h-3.313l0.637,29.11H277.996z M543.129,137.975V90.961l-27.113,20.513
		v23.612c0,13.213-7.944,20.852-19.343,20.852c-9.664,0-16.88-5.673-18.705-15.678l-7.225,5.466l-13.266,18.082
		c9.006,14.351,25.25,20.827,39.197,20.827c5.233,0,10.813-0.916,16.224-2.812l30.231-43.809
		C543.128,138,543.129,137.988,543.129,137.975z M232.094,147.637l27.114,1.336v-18.451l-27.114,9.886V147.637z M115.035,178.176
		V49.575c-1.477,0.884-2.914,1.856-4.3,2.917L93.76,113.199v26.634C93.76,159.266,103.136,171.494,115.035,178.176z
		 M790.784,135.085H775.18l-2.559,23.431c1.886,4.261,4.435,8.007,7.458,11.234l16.328-32.049
		C795.529,135.43,793.726,135.085,790.784,135.085z M200.49,52.338v16.476c0,3.716,1.036,5.987,5.008,5.987h9.8l14.279-13.689
		L200.49,52.338z M164.911,90.904h16.752c3.972,0,5.008-0.826,5.008-5.78c0-21.374-14.847-35.1-31.555-40.24l7.225,45.404
		C162.959,90.671,163.779,90.904,164.911,90.904z M164.806,105.769l2.408,15.131l15.689-15.04c-0.378-0.057-0.787-0.091-1.239-0.091
		H164.806z M793.497,47.065l-9.703,9.142l-5.713,52.31c6.134,7.815,15.355,12.163,25.095,15.898l13.549-26.594
		c-8.925-3.236-18.343-7.917-18.343-15.588c0-9.29,9.499-11.974,15.197-11.974c5.073,0,11.132,1.786,14.463,5.349l12.963-25.443
		c-8.329-5.14-18.601-7.57-28.462-7.57C805.893,42.913,799.358,44.392,793.497,47.065z M504.168,221.404h-35.881l-11.748,10h48.029
		L504.168,221.404z M419.406,221.404H323.94v10h89.393L419.406,221.404z M279.103,221.404h-95.52l2.059,10h89.474L279.103,221.404z
		 M171.475,221.404H98.45l-2.231,10h71.45L171.475,221.404z M949.989,215.672v-25.675l-10,14.079v17.328h-12.307l-7.103,10h17.853
		L949.989,215.672z M10,159.492v-22.914L0,137.43v16.441L10,159.492z M884.846,221.404H763.214l41.88,10h91.523L884.846,221.404z
		 M650.314,221.404h-23.755l-39.907,10h57.656L650.314,221.404z M0,67.923l10-7.212V27.072L0,23.441V67.923z M842.081,10.396h69.232
		l-1.882-10h-71.003L842.081,10.396z M949.989,41.58l-10,10.366v37.09l10,35.054V41.58z M654.523,137.975v-12.102l-12.759,45.117
		C649.332,163.428,654.523,152.565,654.523,137.975z M723.695,10.396h52.429l9.73-10h-58.172L723.695,10.396z M136.389,10.396
		h98.384l-6.458-10h-82.828L136.389,10.396z M398.988,10.396h66.136l-5.838-10H408.58L398.988,10.396z M558.331,10.396h59.049
		l-2.848-10h-55.554L558.331,10.396z"/>
</g>
<g id="Layer_1">
</g>
</svg>
