<?xml version="1.0" encoding="iso-8859-1"?>
<!-- Generator: Adobe Illustrator 27.6.1, SVG Export Plug-In . SVG Version: 6.00 Build 0)  -->
<svg version="1.1" xmlns="http://www.w3.org/2000/svg" xmlns:xlink="http://www.w3.org/1999/xlink" x="0px" y="0px"
	 viewBox="0 0 430.613 431.206" style="enable-background:new 0 0 430.613 431.206;" xml:space="preserve">
<g id="path_x5F_manager">
	<g id="text">
		<g>
			<g>
				<path style="fill:#BDBDBD;" d="M7.5,258.801V7.5h268.577v251.301H7.5z M242.547,225.271V40.912H41.029v184.359H242.547z"/>
				<path style="fill:#1D1D1D;" d="M268.577,15v236.301H15V15H268.577 M33.53,232.771h216.518V33.412H33.53V232.771 M283.577,0h-15
					H15H0v15v236.301v15h15h253.577h15v-15V15V0L283.577,0z M48.53,48.412h186.518v169.359H48.53V48.412L48.53,48.412z"/>
			</g>
		</g>
		<g>
			<g>
				<rect x="126.71" y="58.708" style="fill:#BDBDBD;" width="30.095" height="148.424"/>
				<path style="fill:#1D1D1D;" d="M150.305,65.208v135.424H133.21V65.208H150.305 M163.305,52.208h-13H133.21h-13v13v135.424v13h13
					h17.095h13v-13V65.208V52.208L163.305,52.208z"/>
			</g>
			<g>
				<rect x="92.885" y="42.5" style="fill:#BDBDBD;" width="46.856" height="29.699"/>
				<path style="fill:#1D1D1D;" d="M133.241,49v16.699H99.385V49H133.241 M146.241,36h-13H99.385h-13v13v16.699v13h13h33.856h13v-13
					V49V36L146.241,36z"/>
			</g>
			<g>
				<rect x="143.836" y="42.5" style="fill:#BDBDBD;" width="46.856" height="29.699"/>
				<path style="fill:#1D1D1D;" d="M184.192,49v16.699h-33.856V49H184.192 M197.192,36h-13h-33.856h-13v13v16.699v13h13h33.856h13
					v-13V49V36L197.192,36z"/>
			</g>
			<g>
				<rect x="92.854" y="194.132" style="fill:#BDBDBD;" width="46.856" height="29.699"/>
				<path style="fill:#1D1D1D;" d="M133.21,200.632v16.699H99.354v-16.699H133.21 M146.21,187.632h-13H99.354h-13v13v16.699v13h13
					h33.856h13v-13v-16.699V187.632L146.21,187.632z"/>
			</g>
			<g>
				<rect x="143.805" y="194.132" style="fill:#BDBDBD;" width="46.856" height="29.699"/>
				<path style="fill:#1D1D1D;" d="M184.161,200.632v16.699h-33.856v-16.699H184.161 M197.161,187.632h-13h-33.856h-13v13v16.699v13
					h13h33.856h13v-13v-16.699V187.632L197.161,187.632z"/>
			</g>
		</g>
		<g>
			<g>
				<rect x="133.195" y="65.253" style="fill:#6BBE66;" width="17.095" height="135.424"/>
			</g>
			<g>
				<rect x="99.37" y="49.045" style="fill:#6BBE66;" width="33.856" height="16.699"/>
			</g>
			<g>
				<rect x="150.32" y="49.045" style="fill:#6BBE66;" width="33.856" height="16.699"/>
			</g>
			<g>
				<rect x="99.339" y="200.677" style="fill:#6BBE66;" width="33.856" height="16.699"/>
			</g>
			<g>
				<rect x="150.29" y="200.677" style="fill:#6BBE66;" width="33.856" height="16.699"/>
			</g>
		</g>
	</g>
	<g id="cube">
		
			<polygon style="fill-rule:evenodd;clip-rule:evenodd;fill:#6BBE66;stroke:#1D1D1D;stroke-width:13;stroke-miterlimit:10;" points="
			202.489,360.661 202.489,251.084 312.329,189.332 424.007,254.5 424.007,360.661 313.248,423.726 		"/>
		<polygon style="fill-rule:evenodd;clip-rule:evenodd;fill:#7DD875;" points="311.094,312.832 206.956,251.193 310.226,190.514 
			419.751,252.016 		"/>
		<polygon style="fill-rule:evenodd;clip-rule:evenodd;fill:#65AF5F;" points="313.248,423.726 313.248,314.413 424.007,254.5 
			424.007,357.069 		"/>
		<polyline style="fill-rule:evenodd;clip-rule:evenodd;fill:none;stroke:#1D1D1D;stroke-width:13;stroke-miterlimit:10;" points="
			202.489,251.765 310.226,313.948 424.007,254.5 		"/>
		
			<line style="fill-rule:evenodd;clip-rule:evenodd;fill:none;stroke:#1D1D1D;stroke-width:13;stroke-miterlimit:10;" x1="310.226" y1="423.201" x2="310.226" y2="314.413"/>
		<polygon style="fill-rule:evenodd;clip-rule:evenodd;fill:none;stroke:#1D1D1D;stroke-width:13;stroke-miterlimit:10;" points="
			202.595,360.661 202.595,251.084 312.434,189.332 424.113,254.5 424.113,360.661 313.354,423.726 		"/>
	</g>
</g>
<g id="Layer_1">
</g>
</svg>
