<?xml version="1.0" encoding="iso-8859-1"?>
<!-- Generator: Adobe Illustrator 27.7.0, SVG Export Plug-In . SVG Version: 6.00 Build 0)  -->
<svg version="1.1" xmlns="http://www.w3.org/2000/svg" xmlns:xlink="http://www.w3.org/1999/xlink" x="0px" y="0px"
	 viewBox="0 0 512 512" style="enable-background:new 0 0 512 512;" xml:space="preserve">
<g id="rebuild_x5F_menu">
	<path style="fill:#BDBDBD;stroke:#1D1D1D;stroke-width:21;stroke-linejoin:round;stroke-miterlimit:10;" d="M383.67,410.73
		l29.04,33.13l-117.07,6.63l21.92-115.19l30.54,35.65l0.23-0.13h0.01c33.54-27.01,55-68.41,55-114.82
		c0-81.38-65.96-147.34-147.34-147.34S108.66,174.62,108.66,256c0,59.41,35.17,110.61,85.82,133.92l-26.53,45.95
		C101.51,403.29,55.77,334.99,55.77,256c0-110.59,89.64-200.23,200.23-200.23S456.23,145.41,456.23,256
		c0,61.95-28.13,117.32-72.32,154.04L383.67,410.73z"/>
</g>
<g id="Layer_1">
</g>
</svg>
