<?xml version="1.0" encoding="iso-8859-1"?>
<!-- Generator: Adobe Illustrator 27.9.0, SVG Export Plug-In . SVG Version: 6.00 Build 0)  -->
<svg version="1.1" xmlns="http://www.w3.org/2000/svg" xmlns:xlink="http://www.w3.org/1999/xlink" x="0px" y="0px"
	 viewBox="0 0 512 512" style="enable-background:new 0 0 512 512;" xml:space="preserve">
<g id="rigger_x5F_module_x5F_root">
	<linearGradient id="SVGID_1_" gradientUnits="userSpaceOnUse" x1="24.2628" y1="256" x2="487.7372" y2="256">
		<stop  offset="0.0013" style="stop-color:#FFCB4B"/>
		<stop  offset="1" style="stop-color:#FFD748"/>
	</linearGradient>
	<path style="fill:url(#SVGID_1_);stroke:#1D1D1D;stroke-width:15;stroke-miterlimit:10;" d="M256,24.263
		C128.015,24.263,24.263,128.015,24.263,256S128.015,487.737,256,487.737S487.737,383.985,487.737,256S383.985,24.263,256,24.263z
		 M256,449.898c-107.087,0-193.898-86.811-193.898-193.898S148.913,62.102,256,62.102S449.898,148.913,449.898,256
		S363.087,449.898,256,449.898z"/>
	<circle style="fill:#999999;stroke:#1D1D1D;stroke-width:17;stroke-miterlimit:10;" cx="256" cy="256" r="151.738"/>
	<circle style="display:none;fill:#FF9931;stroke:#1D1D1D;stroke-width:3;stroke-miterlimit:10;" cx="256" cy="256" r="77.226"/>
	<g style="display:none;">
		<g style="display:inline;">
			<g>
				<path style="fill:#FF9931;" d="M216.614,256.019h-42.943c-13.494,0-24.472-10.978-24.472-24.471v-59.924
					c0-13.494,10.978-24.472,24.472-24.472c21.873,0,32.983,3.865,43.728,7.602c10.91,3.795,21.216,7.38,42.413,7.38
					s31.503-3.584,42.413-7.38c10.744-3.737,21.854-7.602,43.729-7.602c13.493,0,24.471,10.978,24.472,24.472v59.925
					c0,13.494-10.978,24.471-24.472,24.471h-52.074l-77.265,19.316V256.019z"/>
				<path style="fill:#1D1D1D;" d="M345.953,149.151c12.41,0,22.471,10.061,22.472,22.471v59.925
					c0,12.41-10.061,22.471-22.471,22.471H293.52v0.028l-74.906,18.726v-18.755h-44.943c-12.41,0-22.471-10.061-22.471-22.471
					v-59.924c0-12.41,10.061-22.471,22.471-22.471c43.071,0,43.071,14.981,86.141,14.981
					C302.882,164.133,302.882,149.151,345.953,149.151 M345.953,145.151c-22.211,0-33.483,3.921-44.385,7.713
					c-10.746,3.738-20.897,7.269-41.756,7.269c-20.859,0-31.01-3.531-41.756-7.269c-10.901-3.792-22.174-7.713-44.385-7.713
					c-14.596,0-26.471,11.875-26.471,26.471v59.924c0,14.596,11.875,26.471,26.471,26.471h40.943v14.755v5.123l4.97-1.243
					l74.541-18.635h51.828c14.596,0,26.471-11.875,26.471-26.471v-59.925C372.424,157.026,360.549,145.151,345.953,145.151
					L345.953,145.151z"/>
			</g>
		</g>
	</g>
	<g style="display:none;">
		<g style="display:inline;">
			<g>
				<polygon style="fill:#FF9931;" points="216.614,294.376 295.52,274.649 295.52,300.552 216.614,320.278 				"/>
				<path style="fill:#1D1D1D;" d="M293.519,277.211v21.779l-74.906,18.727v-21.78L293.519,277.211 M297.519,272.088l-4.97,1.242
					l-74.906,18.726l-3.03,0.758v3.123v21.78v5.123l4.97-1.243l74.906-18.727l3.03-0.757v-3.123v-21.779V272.088L297.519,272.088z"
					/>
			</g>
		</g>
	</g>
	<g style="display:none;">
		<g style="display:inline;">
			<g>
				<polygon style="fill:#FF9931;" points="216.614,339.319 295.52,319.593 295.52,345.495 216.614,365.222 				"/>
				<path style="fill:#1D1D1D;" d="M293.519,322.154v21.78l-74.906,18.726v-21.78L293.519,322.154 M297.519,317.031l-4.97,1.242
					L217.643,337l-3.03,0.758v3.123v21.78v5.123l4.97-1.242l74.906-18.726l3.03-0.758v-3.123v-21.78V317.031L297.519,317.031z"/>
			</g>
		</g>
	</g>
	<g style="display:none;">
		<g style="display:inline;">
			<g>
				<path style="fill:#FF9931;" d="M241.085,396.841c-8.172,0-15.774-4.058-20.333-10.854l-1.586-2.364l76.354-19.087v7.833
					c0,13.494-10.978,24.472-24.472,24.472H241.085z"/>
				<path style="fill:#1D1D1D;" d="M293.519,367.098v5.272c0,12.41-10.061,22.471-22.471,22.471h-29.962
					c-7.782,0-14.639-3.956-18.672-9.968L293.519,367.098 M297.519,361.975l-4.97,1.242l-71.106,17.776l-5.524,1.381l3.172,4.728
					c4.932,7.351,13.154,11.739,21.994,11.739h29.962c14.596,0,26.471-11.875,26.471-26.471v-5.272V361.975L297.519,361.975z"/>
			</g>
		</g>
	</g>
	<circle style="fill:none;stroke:#1D1D1D;stroke-width:17;stroke-miterlimit:10;" cx="256" cy="256" r="151.738"/>
	<g>
		<path style="fill:#FFC477;" d="M339.564,166.357c0-7.844-3.054-15.217-8.601-20.764c-5.546-5.546-12.92-8.601-20.763-8.6
			c-16.192,0-29.365,13.173-29.365,29.364l0,13.319l-97.218,97.218l-13.319,0c-7.844,0-15.218,3.054-20.764,8.601
			c-5.546,5.547-8.6,12.921-8.6,20.764s3.054,15.217,8.6,20.763c5.546,5.546,12.92,8.601,20.763,8.601h2.137l167.129-167.128
			V166.357z"/>
		<path style="fill:#FFB655;" d="M362.465,177.095c-5.546-5.546-12.92-8.601-20.764-8.601h-2.137L172.436,335.623v2.138
			c0,7.844,3.054,15.217,8.601,20.763c5.546,5.546,12.92,8.601,20.763,8.6c7.843,0,15.217-3.054,20.764-8.6
			c5.546-5.546,8.601-12.92,8.601-20.764l0-13.319l97.218-97.218l13.319,0c16.191,0,29.364-13.173,29.364-29.365
			C371.066,190.015,368.012,182.641,362.465,177.095z"/>
	</g>
	<g>
		<path style="fill:#1D1D1D;" d="M310.202,136.993c7.842,0,15.216,3.055,20.762,8.6c5.546,5.546,8.601,12.92,8.601,20.764v2.137
			l-0.066,0.066l0.066-0.066h2.137c7.844,0,15.218,3.054,20.764,8.601s8.601,12.92,8.6,20.763c0,16.192-13.173,29.365-29.364,29.365
			l-13.319,0l-97.218,97.218l0,13.319c0,7.844-3.054,15.218-8.601,20.764c-5.547,5.546-12.921,8.6-20.764,8.6
			c-0.001,0-0.001,0-0.002,0c-7.842,0-15.216-3.055-20.762-8.6c-5.546-5.546-8.601-12.92-8.601-20.763v-2.138l0.183-0.183l0,0
			l-0.184,0.184h-2.137c-7.843,0-15.217-3.054-20.763-8.601c-5.546-5.546-8.6-12.92-8.6-20.763c0-7.843,3.054-15.217,8.6-20.764
			c5.546-5.546,12.92-8.601,20.764-8.601l13.319,0l97.218-97.218l0-13.319c0-16.192,13.173-29.364,29.365-29.364
			C310.201,136.993,310.201,136.993,310.202,136.993 M310.202,132.993H310.2c-18.397,0-33.365,14.967-33.365,33.364l0,11.662
			l-94.875,94.875l-11.662,0c-8.913,0-17.291,3.471-23.593,9.773c-6.302,6.302-9.772,14.681-9.772,23.592
			c0,8.912,3.47,17.29,9.772,23.592c5.872,5.872,13.548,9.286,21.778,9.724c0.438,8.23,3.852,15.906,9.724,21.778
			c6.301,6.301,14.679,9.772,23.59,9.772c8.913,0,17.292-3.47,23.594-9.772c6.302-6.302,9.773-14.681,9.773-23.592l0-11.662
			l94.875-94.875l11.662,0c18.397,0,33.364-14.967,33.364-33.365c0-8.911-3.47-17.29-9.772-23.592
			c-5.872-5.872-13.548-9.286-21.778-9.724c-0.438-8.23-3.852-15.906-9.724-21.778C327.491,136.463,319.113,132.993,310.202,132.993
			L310.202,132.993z"/>
	</g>
	<g>
		<path style="fill:#FFC477;" d="M170.299,168.494c-7.844,0-15.217,3.054-20.764,8.601c-5.546,5.546-8.601,12.92-8.6,20.763
			c0,16.192,13.173,29.365,29.364,29.365l13.319,0l97.218,97.218l0,13.319c0,7.844,3.054,15.218,8.601,20.764
			c5.547,5.546,12.921,8.6,20.764,8.6s15.217-3.054,20.763-8.6c5.546-5.546,8.601-12.92,8.601-20.763v-2.137L172.436,168.494
			H170.299z"/>
		<path style="fill:#FFB655;" d="M181.037,145.593c-5.546,5.546-8.601,12.92-8.601,20.764v2.137l167.128,167.128h2.138
			c7.844,0,15.217-3.054,20.763-8.601c5.546-5.546,8.601-12.92,8.6-20.763c0-7.843-3.054-15.217-8.6-20.764
			c-5.546-5.546-12.92-8.601-20.764-8.601l-13.319,0l-97.218-97.218l0-13.319c0-16.191-13.173-29.364-29.365-29.364
			C193.957,136.992,186.583,140.047,181.037,145.593z"/>
	</g>
	<g>
		<path style="fill:#1D1D1D;" d="M201.8,136.993c16.192,0,29.365,13.173,29.365,29.364l0,13.319l97.218,97.218l13.319,0
			c7.844,0,15.218,3.054,20.764,8.601c5.546,5.547,8.6,12.921,8.6,20.764c0,7.843-3.054,15.217-8.6,20.763
			c-5.546,5.546-12.92,8.601-20.763,8.601h-2.138l-0.183-0.183l0,0l0.184,0.184v2.137c0,7.843-3.054,15.217-8.601,20.763
			c-5.546,5.546-12.92,8.6-20.763,8.6c-7.843,0-15.217-3.054-20.764-8.6c-5.546-5.546-8.601-12.92-8.601-20.764l0-13.319
			l-97.218-97.218l-13.319,0c-16.192,0-29.364-13.173-29.364-29.365c0-7.843,3.054-15.217,8.6-20.763
			c5.546-5.546,12.92-8.601,20.764-8.601h2.137l0.066,0.066l-0.066-0.066v-2.137c0-7.844,3.054-15.217,8.601-20.764
			C186.583,140.047,193.957,136.992,201.8,136.993 M201.8,132.993C201.799,132.993,201.801,132.993,201.8,132.993
			c-8.912,0-17.29,3.47-23.592,9.772c-5.872,5.872-9.286,13.548-9.724,21.778c-8.23,0.438-15.906,3.852-21.778,9.724
			c-6.302,6.302-9.772,14.68-9.772,23.592c0,18.397,14.967,33.365,33.364,33.365l11.662,0l94.875,94.875l0,11.662
			c0,8.913,3.471,17.291,9.773,23.593c6.302,6.301,14.681,9.772,23.592,9.772c8.912,0,17.29-3.47,23.592-9.772
			c5.872-5.872,9.286-13.548,9.724-21.778c8.23-0.438,15.906-3.852,21.778-9.724c6.302-6.302,9.772-14.68,9.772-23.592
			c0-8.911-3.47-17.29-9.772-23.592c-6.302-6.302-14.681-9.773-23.592-9.773l-11.662,0l-94.875-94.875l0-11.662
			C235.165,147.961,220.196,132.995,201.8,132.993L201.8,132.993L201.8,132.993z"/>
	</g>
</g>
<g id="Layer_1">
</g>
</svg>
