<?xml version="1.0" encoding="iso-8859-1"?>
<!-- Generator: Adobe Illustrator 27.9.0, SVG Export Plug-In . SVG Version: 6.00 Build 0)  -->
<svg version="1.1" xmlns="http://www.w3.org/2000/svg" xmlns:xlink="http://www.w3.org/1999/xlink" x="0px" y="0px"
	 viewBox="0 0 512 512" style="enable-background:new 0 0 512 512;" xml:space="preserve">
<g id="rigger_x5F_project">
	<g>
		<path style="fill:#BDBDBD;" d="M301.933,467.111c-1.734,0-3.441-0.694-4.695-2.003l-62.607-65.341
			c-1.801-1.88-2.307-4.653-1.285-7.049c1.022-2.395,3.375-3.948,5.979-3.948c4.077,0,20.214-4.037,33.89-7.815
			c-0.079,0.003-0.158,0.004-0.237,0.004H161.961c-1.3,0-2.569-0.39-3.645-1.118l-35.85-24.282
			c-1.786-1.209-2.855-3.226-2.855-5.382v-39.317c0-0.535,0.066-1.062,0.192-1.568l-11.151,4.462
			c-0.781,0.312-1.6,0.465-2.414,0.465c-1.49,0-2.962-0.512-4.148-1.495l-72.285-59.89c-2.11-1.748-2.897-4.632-1.968-7.209
			s3.375-4.296,6.115-4.296h49.144c1.314,0,2.597,0.398,3.68,1.142l14.52,9.973c-2.05-2.03-2.542-5.227-1.082-7.812l3.605-6.384
			c-1.169,1.036-2.695,1.635-4.311,1.635H32.442c-1.792,0-3.503-0.739-4.731-2.043c-1.229-1.304-1.864-3.057-1.757-4.845
			c0.009-0.146,0.887-14.719,2.182-29.105c0.767-8.521,1.531-15.337,2.27-20.259c1.076-7.163,2.188-14.57,8.98-14.57h39.465
			l-27.04-11.828c-1.697-0.742-2.997-2.173-3.573-3.934s-0.374-3.683,0.556-5.285l16.775-28.902c0.74-1.275,1.893-2.261,3.268-2.795
			l82.239-31.953c0.761-0.296,1.559-0.441,2.354-0.441c1.292,0,2.575,0.385,3.671,1.136c1.771,1.211,2.829,3.219,2.829,5.364v49.876
			c0,3.556-2.857,6.452-6.413,6.5l-33.406,0.448l18.607,11.186c2.938,1.766,3.999,5.51,2.425,8.556l-31.528,60.996l10.835-19.185
			c1.179-2.087,3.369-3.305,5.661-3.305c0.695,0,1.4,0.112,2.089,0.346l22.428,7.616l1.833-6.472l-11.767-8.889
			c-2.534-1.914-3.314-5.377-1.846-8.192l10.554-20.237c1.146-2.197,3.398-3.495,5.764-3.495c0.69,0,1.391,0.111,2.077,0.342
			l57.566,19.419l4.234-1.913l-49.001-29.187c-1.993-1.187-3.202-3.346-3.173-5.665l0.882-71.448c0.044-3.561,2.944-6.42,6.499-6.42
			c0.019,0,74.627,0.624,74.627,0.624c0.891,0.007,1.771,0.198,2.584,0.559l35.139,15.608c1.728,0.767,3.035,2.249,3.583,4.058
			c0.547,1.809,0.28,3.767-0.731,5.363l-22.552,35.575c-0.057,0.088-0.114,0.175-0.175,0.261l-13.375,19.006l47.005,14.721
			c2.712,0.85,4.558,3.362,4.558,6.203V209.1c0,0.745-0.128,1.485-0.379,2.186l-11.562,32.374c-0.872,2.443-3.113,4.133-5.702,4.3
			l-71.696,4.629c-0.14,0.009-0.28,0.014-0.419,0.014c-1.646,0-3.237-0.625-4.445-1.758c-1.311-1.229-2.054-2.945-2.054-4.742v-8.44
			l-2.987-1.284l-10.931,33.771c-0.599,1.851-1.996,3.336-3.807,4.048l-35.124,13.8c-0.769,0.302-1.575,0.45-2.376,0.45
			c-0.348,0-0.696-0.028-1.039-0.084c0.646,1.16,0.933,2.512,0.781,3.879c-0.018,0.157-0.041,0.313-0.069,0.468l56.225,23.611
			l29.01,9.367l1.456-5.652l-40.869-15.837c-2.75-1.065-4.438-3.849-4.111-6.78l3.478-31.227c0.367-3.3,3.159-5.78,6.457-5.78
			c0.073,0,0.146,0.001,0.22,0.004l67.503,2.252l59.664-34.897c0.395-0.23,0.809-0.417,1.235-0.559
			c-0.063-0.021-19.876-7.404-19.876-7.404c-2.656-0.99-4.364-3.586-4.223-6.417l2.35-46.78l-45.797-14.336
			c-1.951-0.61-3.501-2.103-4.185-4.029s-0.421-4.062,0.708-5.765l43.369-65.419c1.217-1.834,3.262-2.909,5.417-2.909
			c0.344,0,0.69,0.027,1.037,0.083l57.823,9.336c3.247,0.524,5.591,3.392,5.459,6.678l-3.45,85.959
			c-0.048,1.193-0.424,2.35-1.086,3.344l-30.059,45.104c-0.826,1.24-2.021,2.119-3.357,2.563l57.966,17.497l62.154-45.488
			c1.123-0.822,2.47-1.255,3.839-1.255c0.438,0,0.878,0.044,1.314,0.134c1.799,0.372,3.356,1.487,4.288,3.07l34.697,58.977
			c1.142,1.94,1.197,4.334,0.148,6.325c-1.05,1.992-3.055,3.3-5.301,3.455l-3.035,0.211c0.709,0.341,1.358,0.811,1.91,1.396
			c1.279,1.355,1.916,3.194,1.748,5.05l-5.863,64.657c-0.303,3.334-3.087,5.893-6.435,5.913c0,0-68.708,0.409-68.721,0.409
			c-1.556,0-3.061-0.559-4.241-1.574l-0.535-0.461v42.215c0,3.043-2.111,5.679-5.081,6.343l-78.193,17.492
			c-0.471,0.105-0.946,0.157-1.419,0.157c-1.589,0-3.143-0.583-4.348-1.668l-34.688-31.214c-2.016-1.813-2.693-4.688-1.701-7.211
			l12.279-31.228c0.978-2.486,3.377-4.121,6.049-4.121h2.695l-0.33-0.013c-2.611-0.099-4.91-1.753-5.833-4.198
			c-0.924-2.444-0.294-5.205,1.6-7.007l18.581-17.675l-36.921-1.683l14.735,18.421c1.523,1.905,1.853,4.503,0.852,6.728
			l-20.811,46.25c-0.587,1.305-1.572,2.35-2.773,3.017c1.858-0.522,3.648-1.033,5.329-1.521c0.598-0.174,1.207-0.258,1.811-0.258
			c1.82,0,3.591,0.766,4.843,2.163l53.358,59.565c1.373,1.532,1.938,3.625,1.526,5.641c-0.413,2.016-1.756,3.718-3.621,4.587
			l-34.698,16.182C303.798,466.912,302.861,467.111,301.933,467.111z M400.71,336.303l-16.862-14.518l-38.053,14.518H400.71z
			 M368.959,234.09c-3.59,0-6.5-2.91-6.5-6.5v-31.221c0-1.449,0.484-2.857,1.376-3.999l16.989-21.768l-2.162-37.153
			c-0.111-1.914,0.628-3.78,2.021-5.098l16.191-15.327c1.209-1.144,2.809-1.779,4.469-1.779c0.062,0,0.122,0.001,0.184,0.002
			c1.726,0.049,3.36,0.782,4.545,2.037l57.802,61.274c1.227,1.301,1.864,3.051,1.761,4.836s-0.938,3.45-2.308,4.601l-57.802,48.571
			c-1.171,0.984-2.652,1.523-4.182,1.523H368.959z"/>
		<path style="fill:#1D1D1D;" d="M174.253,77.799l74.572,0.623l35.139,15.608l-22.552,35.574l-18.501,26.289l55.504,17.383V209.1
			l-11.562,32.373l-71.696,4.629v-12.721l-13.474-5.792l-13.128,40.557l-35.124,13.8l-47.557-34.121l20.238-35.834l28.906,9.816
			l4.91-17.334l-15.315-11.568l10.554-20.237l59.989,20.237l17.923-8.096l-59.709-35.564L174.253,77.799 M311.135,80.654
			l57.824,9.337l-3.45,85.959l-30.059,45.104l-19.686-7.336l2.601-51.805l-50.599-15.839L311.135,80.654 M153.431,90.421v49.876
			l-56.236,0.755l38.176,22.949l-35.862,69.381H32.442c0,0,3.466-57.824,6.945-57.823c3.461,0,70.544,0,70.544,0l-55.515-24.283
			l16.776-28.902L153.431,90.421 M401.343,117.745l57.801,61.274l-57.801,48.57h-32.384v-31.221l18.496-23.699l-2.303-39.598
			L401.343,117.745 M461.461,204.475l34.697,58.977l-83.252,5.775l-13.878,35.845l38.161,4.629l-26.61-12.73l5.799-18.497
			l74.38-2.468l-5.864,64.657l-68.681,0.409l-31.061-26.741l-43.947,16.766l-34.258-1.302l29.628-28.183l-66.488-3.031
			l23.699,29.628l-20.81,46.25H161.961l-35.85-24.283V310.86l23.13-12.721l57.825,24.283l35.844,11.574l4.619-17.933l-46.256-17.924
			l3.477-31.227l69.381,2.314l61.285-35.845l61.274,18.496L461.461,204.475 M83.096,247.827l63.616,43.698l-40.474,16.193
			l-72.285-59.891H83.096 M490.758,276.006h0.005 M404.937,342.803v44.949l-78.193,17.492l-34.688-31.214l12.28-31.227H404.937
			 M283.27,384.865l53.359,59.565l-34.698,16.181l-62.608-65.341C247.415,395.271,283.27,384.865,283.27,384.865 M174.25,64.799
			c-7.109,0-12.909,5.717-12.997,12.839l-0.029,2.377c-0.148-0.111-0.298-0.219-0.452-0.323c-2.193-1.501-4.758-2.271-7.342-2.271
			c-1.589,0-3.185,0.291-4.707,0.883l-82.239,31.953c-2.75,1.068-5.054,3.04-6.535,5.591L43.173,144.75
			c-1.86,3.204-2.264,7.049-1.112,10.569c1.006,3.076,3.117,5.648,5.898,7.24h-8.572c-0.001,0-0.002,0-0.003,0
			c-3.179,0-10.891,1.179-13.843,12.09c-0.543,2.006-1.054,4.628-1.562,8.014c-0.758,5.049-1.538,11.994-2.316,20.642
			c-1.304,14.483-2.161,28.701-2.197,29.3c-0.199,3.322,0.884,6.584,3.007,9.121c-0.287,0.541-0.538,1.106-0.75,1.693
			c-1.858,5.155-0.284,10.922,3.936,14.419l72.285,59.891c2.372,1.965,5.316,2.99,8.296,2.99c1.627,0,3.266-0.305,4.827-0.93
			l2.045-0.818v31.207c0,4.313,2.139,8.345,5.71,10.763l35.85,24.283c2.152,1.458,4.691,2.237,7.29,2.237h66.969
			c-0.62,0.825-1.147,1.732-1.564,2.708c-2.044,4.79-1.033,10.337,2.57,14.097l62.608,65.341c2.508,2.618,5.922,4.006,9.39,4.006
			c1.858,0,3.731-0.398,5.49-1.219l34.698-16.181c3.73-1.739,6.416-5.142,7.241-9.174c0.826-4.032-0.307-8.216-3.053-11.282
			l-16.095-17.968l77.558-17.35c5.939-1.329,10.162-6.6,10.162-12.686v-33.69l67.035-0.399c6.695-0.04,12.265-5.158,12.87-11.826
			l5.836-64.351c0.055-0.486,0.083-0.98,0.083-1.48c0-0.649-0.047-1.286-0.139-1.91c1.665-1.167,3.06-2.727,4.039-4.585
			c2.099-3.984,1.986-8.77-0.297-12.651l-34.697-58.977c-1.846-3.138-4.923-5.357-8.481-6.119l3.323-2.792
			c2.739-2.301,4.408-5.63,4.615-9.201c0.207-3.571-1.067-7.07-3.522-9.672L410.8,108.825c-2.369-2.511-5.638-3.977-9.089-4.074
			c-0.123-0.003-0.246-0.005-0.368-0.005c-3.32,0-6.519,1.271-8.936,3.559l-11.613,10.993l1.155-28.785
			c0.264-6.573-4.424-12.307-10.917-13.355l-57.824-9.337c-0.693-0.112-1.387-0.167-2.075-0.167c-4.311,0-8.401,2.149-10.833,5.817
			l-7.382,11.135c-1.065-1.012-2.305-1.847-3.677-2.456l-35.139-15.608c-1.628-0.723-3.387-1.104-5.169-1.119L174.361,64.8
			C174.324,64.8,174.287,64.799,174.25,64.799L174.25,64.799z M142.95,153.439l10.655-0.143c2.549-0.034,4.92-0.801,6.911-2.098
			c0.578,3.809,2.828,7.21,6.201,9.218l9.412,5.606l-16.807-5.67c-1.371-0.462-2.773-0.684-4.154-0.684
			c-2.493,0-4.924,0.721-7,2.046C147.586,158.467,145.777,155.464,142.95,153.439L142.95,153.439z M131.371,200.05l1.182-2.287
			c0.483,1.202,1.148,2.337,1.984,3.362L131.371,200.05L131.371,200.05z M349.145,223.946l6.814-10.225v12.282L349.145,223.946
			L349.145,223.946z M301.93,237.908l5.176-14.492c1.182,1.056,2.57,1.906,4.119,2.484l6.863,2.558L301.93,237.908L301.93,237.908z
			 M264.961,255.914l6.951-0.449l-1.101,0.644L264.961,255.914L264.961,255.914z M165.876,291.025l24.167-9.495l-1.689,15.171
			c-0.145,1.3-0.091,2.586,0.139,3.822L165.876,291.025L165.876,291.025z M301.497,317.037l-3.33-4.163l7.354,0.335L301.497,317.037
			L301.497,317.037z M381.069,329.803l1.475-0.563l0.653,0.563H381.069L381.069,329.803z"/>
	</g>
	<g>
		<g style="display:none;">
			<path style="display:inline;fill:#FF9931;" d="M135.371,164.001l-38.176-22.949l56.236-0.755V90.421l-82.239,31.953
				l-16.776,28.902l55.515,24.283c0,0-67.083,0-70.544,0c-3.478-0.001-6.945,57.823-6.945,57.823h67.066L135.371,164.001z"/>
		</g>
		<g style="display:none;">
			<polygon style="display:inline;fill:#FF9931;" points="83.096,247.827 33.953,247.827 106.238,307.718 146.712,291.525 			"/>
		</g>
		<g>
			<polygon style="fill:#FF9931;" points="410.58,296.971 437.189,309.701 399.029,305.072 412.906,269.227 496.158,263.452 
				461.461,204.475 396.691,251.877 335.417,233.382 274.132,269.227 204.751,266.912 201.274,298.139 247.53,316.063 
				242.911,333.996 207.067,322.422 149.242,298.139 126.112,310.86 126.112,350.177 161.961,374.459 272.976,374.459 
				293.786,328.209 270.087,298.581 336.576,301.612 306.947,329.795 341.205,331.097 385.152,314.331 416.213,341.072 
				484.894,340.664 490.758,276.006 416.378,278.475 			"/>
		</g>
		<g style="display:none;">
			<path style="display:inline;fill:#FF9931;" d="M239.323,395.271l62.608,65.341l34.698-16.181l-53.359-59.566
				C283.27,384.865,247.415,395.271,239.323,395.271z"/>
		</g>
		<g style="display:none;">
			<polygon style="display:inline;fill:#FF9931;" points="292.056,374.03 326.743,405.244 404.937,387.752 404.937,342.803 
				304.335,342.803 			"/>
		</g>
		<g style="display:none;">
			<polygon style="display:inline;fill:#FF9931;" points="318.366,161.912 315.765,213.718 335.45,221.054 365.509,175.95 
				368.959,89.99 311.135,80.654 267.767,146.073 			"/>
		</g>
		<g>
			<polygon style="fill:#FF9931;" points="368.959,196.369 368.959,227.59 401.343,227.59 459.145,179.019 401.343,117.745 
				385.152,133.072 387.455,172.67 			"/>
		</g>
		<g>
			<polygon style="fill:#FF9931;" points="155.167,172.67 144.613,192.907 159.928,204.475 155.018,221.809 126.112,211.993 
				105.873,247.827 153.43,281.948 188.554,268.147 201.683,227.59 215.156,233.382 215.156,246.102 286.853,241.473 298.415,209.1 
				298.415,173.276 242.911,155.894 261.412,129.605 283.964,94.03 248.825,78.422 174.253,77.799 173.37,149.247 233.079,184.811 
				215.156,192.907 			"/>
		</g>
	</g>
</g>
<g id="Layer_1">
</g>
</svg>
