<?xml version="1.0" encoding="iso-8859-1"?>
<!-- Generator: Adobe Illustrator 27.9.0, SVG Export Plug-In . SVG Version: 6.00 Build 0)  -->
<svg version="1.1" xmlns="http://www.w3.org/2000/svg" xmlns:xlink="http://www.w3.org/1999/xlink" x="0px" y="0px"
	 viewBox="0 0 512 512" style="enable-background:new 0 0 512 512;" xml:space="preserve">
<g id="rigger_x5F_proxy">
	<g>
		<g>
			<path style="fill:#FF9931;" d="M446.144,484.525c-4.974,0-9.828-1.746-13.67-4.915L262.695,339.554
				c-1.88-1.551-4.258-2.404-6.695-2.404c-2.438,0-4.815,0.854-6.694,2.404L79.526,479.61c-3.841,3.169-8.696,4.914-13.669,4.915
				c-6.478,0-12.545-2.873-16.645-7.883l-9.736-11.894c-7.478-9.138-6.152-22.685,2.956-30.198l180.805-149.157
				c2.432-2.006,3.826-4.964,3.826-8.116V40.271c0-11.854,9.644-21.497,21.497-21.497h15.273c11.854,0,21.497,9.644,21.497,21.497
				v237.321c0,3.151,1.395,6.108,3.825,8.114l180.414,148.844c9.107,7.514,10.434,21.06,2.956,30.197l-9.736,11.896
				C458.688,481.652,452.621,484.525,446.144,484.525z"/>
			<path style="fill:#1D1D1D;" d="M263.832,24.263c8.841,0,16.009,7.167,16.009,16.009v237.321c0,4.779,2.135,9.307,5.821,12.349
				l180.415,148.843c6.801,5.611,7.785,15.665,2.201,22.488l-9.736,11.895c-3.165,3.867-7.763,5.87-12.397,5.87
				c-3.586,0-7.194-1.199-10.178-3.66L266.187,335.32c-2.868-2.366-6.47-3.66-10.187-3.66c-3.718,0-7.319,1.294-10.187,3.66
				L76.034,475.377c-2.983,2.461-6.592,3.66-10.178,3.66c-4.635,0-9.232-2.002-12.397-5.87l-9.736-11.895
				c-5.585-6.823-4.601-16.877,2.201-22.488l180.805-149.158c3.686-3.041,5.821-7.57,5.821-12.349V40.271
				c0-8.841,7.167-16.009,16.009-16.009H263.832 M263.832,13.287h-15.273c-14.88,0-26.985,12.105-26.985,26.985v237.007
				c0,1.508-0.667,2.923-1.83,3.882L38.939,430.318c-11.434,9.432-13.098,26.437-3.71,37.907l9.736,11.895
				c5.146,6.288,12.761,9.894,20.891,9.894c6.245,0,12.34-2.191,17.162-6.169l169.779-140.057c0.899-0.742,2.037-1.15,3.203-1.15
				s2.303,0.409,3.203,1.15l169.779,140.056c4.823,3.978,10.918,6.169,17.163,6.169c8.13,0,15.745-3.606,20.891-9.894l9.736-11.895
				c9.388-11.47,7.724-28.474-3.709-37.907L292.647,281.474c-1.163-0.959-1.83-2.374-1.83-3.882V40.271
				C290.817,25.392,278.712,13.287,263.832,13.287L263.832,13.287z"/>
		</g>
		<g>
			<path style="fill:#BDBDBD;" d="M254.716,462.413c-89.649,0-162.585-73.218-162.585-163.214
				c0-89.997,72.936-163.214,162.585-163.214s162.585,73.217,162.585,163.214C417.301,389.195,344.365,462.413,254.716,462.413z
				 M254.716,187.096c-61.554,0-111.631,50.29-111.631,112.104c0,61.814,50.077,112.104,111.631,112.104
				s111.631-50.289,111.631-112.104C366.347,237.385,316.27,187.096,254.716,187.096z"/>
			<path style="fill:#1D1D1D;" d="M254.716,141.985c86.48,0,156.585,70.387,156.585,157.214s-70.105,157.214-156.585,157.214
				S98.131,386.026,98.131,299.199S168.236,141.985,254.716,141.985 M254.716,417.303c64.966,0,117.631-52.877,117.631-118.103
				c0-65.227-52.665-118.103-117.631-118.103c-64.966,0-117.631,52.877-117.631,118.103
				C137.085,364.426,189.75,417.303,254.716,417.303 M254.716,129.985c-22.759,0-44.844,4.478-65.641,13.309
				c-20.078,8.526-38.106,20.729-53.584,36.269c-15.475,15.537-27.625,33.632-36.114,53.782
				c-8.79,20.865-13.246,43.021-13.246,65.853s4.457,44.989,13.246,65.854c8.489,20.15,20.639,38.245,36.114,53.782
				c15.478,15.54,33.506,27.743,53.584,36.269c20.796,8.831,42.881,13.309,65.641,13.309c22.76,0,44.844-4.478,65.641-13.309
				c20.078-8.526,38.106-20.729,53.584-36.269c15.475-15.537,27.625-33.632,36.114-53.782c8.79-20.865,13.246-43.021,13.246-65.854
				s-4.457-44.989-13.246-65.853c-8.489-20.15-20.639-38.245-36.114-53.782c-15.478-15.54-33.506-27.743-53.584-36.269
				C299.56,134.463,277.475,129.985,254.716,129.985L254.716,129.985z M254.716,405.303c-58.245,0-105.631-47.598-105.631-106.103
				s47.386-106.103,105.631-106.103s105.631,47.598,105.631,106.103S312.961,405.303,254.716,405.303L254.716,405.303z"/>
		</g>
		<g>
			<path style="fill:#BDBDBD;" d="M254.716,348.081c-28.919,0-52.446-23.61-52.446-52.631s23.527-52.63,52.446-52.63
				s52.446,23.609,52.446,52.63S283.635,348.081,254.716,348.081z"/>
			<path style="fill:#1D1D1D;" d="M254.716,249.385c25.339,0,45.881,20.624,45.881,46.065c0,25.441-20.541,46.065-45.881,46.065
				s-45.881-20.624-45.881-46.065C208.835,270.009,229.377,249.385,254.716,249.385 M254.716,236.255
				c-32.539,0-59.011,26.555-59.011,59.195s26.472,59.195,59.011,59.195s59.011-26.555,59.011-59.195
				S287.254,236.255,254.716,236.255L254.716,236.255z"/>
		</g>
	</g>
</g>
<g id="Layer_1">
</g>
</svg>
