<?xml version="1.0" encoding="iso-8859-1"?>
<!-- Generator: Adobe Illustrator 27.9.0, SVG Export Plug-In . SVG Version: 6.00 Build 0)  -->
<svg version="1.1" xmlns="http://www.w3.org/2000/svg" xmlns:xlink="http://www.w3.org/1999/xlink" x="0px" y="0px"
	 viewBox="0 0 512 512" style="enable-background:new 0 0 512 512;" xml:space="preserve">
<g id="rigger_x5F_module_x5F_generic">
	<g>
		<g style="display:none;">
			<path style="display:inline;fill:#BDBDBD;" d="M256,476.775c-58.75,0-113.982-22.969-155.521-64.676
				C58.947,370.402,36.075,314.965,36.075,256s22.872-114.402,64.403-156.1C142.018,58.193,197.25,35.225,256,35.225
				S369.982,58.193,411.521,99.9c41.531,41.698,64.403,97.135,64.403,156.1s-22.872,114.402-64.403,156.1
				C369.982,453.807,314.75,476.775,256,476.775z M256,104.361c-83.262,0-151,68.025-151,151.639s67.738,151.64,151,151.64
				S407,339.614,407,256S339.262,104.361,256,104.361z"/>
			<path style="display:inline;fill:#1D1D1D;" d="M256,43.341c116.979,0,211.808,95.211,211.808,212.659
				S372.979,468.659,256,468.659S44.192,373.448,44.192,256S139.021,43.341,256,43.341 M256,415.755
				c87.878,0,159.116-71.525,159.116-159.755c0-88.231-71.239-159.755-159.116-159.755S96.884,167.769,96.884,256
				C96.884,344.23,168.122,415.755,256,415.755 M256,27.109c-30.786,0-60.66,6.057-88.79,18.003
				c-27.159,11.533-51.545,28.04-72.482,49.061c-20.932,21.016-37.368,45.493-48.85,72.749
				C33.988,195.145,27.959,225.115,27.959,256s6.029,60.855,17.918,89.078c11.482,27.256,27.918,51.733,48.85,72.749
				c20.937,21.021,45.323,37.527,72.482,49.06c28.131,11.946,58.004,18.003,88.79,18.003s60.66-6.057,88.79-18.003
				c27.159-11.533,51.545-28.04,72.482-49.06c20.932-21.016,37.368-45.493,48.85-72.749c11.89-28.223,17.918-58.193,17.918-89.078
				s-6.029-60.855-17.918-89.078c-11.482-27.256-27.918-51.733-48.85-72.749c-20.937-21.021-45.323-37.527-72.482-49.061
				C316.66,33.166,286.786,27.109,256,27.109L256,27.109z M256,399.523c-78.787,0-142.884-64.384-142.884-143.523
				S177.213,112.477,256,112.477S398.884,176.861,398.884,256S334.787,399.523,256,399.523L256,399.523z"/>
		</g>
		<g style="display:none;">
			<ellipse style="display:inline;fill:#BDBDBD;" cx="256" cy="250.929" rx="70.942" ry="71.191"/>
			<path style="display:inline;fill:#1D1D1D;" d="M256,188.618c34.276,0,62.062,27.898,62.062,62.311S290.276,313.24,256,313.24
				s-62.062-27.898-62.062-62.311S221.724,188.618,256,188.618 M256,170.857c-44.014,0-79.822,35.92-79.822,80.072
				S211.986,331,256,331s79.822-35.92,79.822-80.072S300.014,170.857,256,170.857L256,170.857z"/>
		</g>
	</g>
	<path style="fill:#FF9931;stroke:#1D1D1D;stroke-width:15;stroke-miterlimit:10;" d="M256,24.263
		C128.015,24.263,24.263,128.015,24.263,256S128.015,487.737,256,487.737S487.737,383.985,487.737,256S383.985,24.263,256,24.263z
		 M256,449.898c-107.087,0-193.898-86.811-193.898-193.898S148.913,62.102,256,62.102S449.898,148.913,449.898,256
		S363.087,449.898,256,449.898z"/>
	<circle style="fill:#BDBDBD;stroke:#1D1D1D;stroke-width:17;stroke-miterlimit:10;" cx="256" cy="256" r="151.738"/>
	<g>
		<path style="fill:none;stroke:#1D1D1D;stroke-width:12;stroke-miterlimit:10;" d="M346.812,150.674l-77.653,77.653
			c-8.281-3.928-17.955-3.936-26.242-0.023l-77.63-77.63c-2.188-2.188-5.734-2.188-7.922,0l-6.641,6.641
			c-2.188,2.188-2.188,5.734,0,7.922l77.607,77.607c-3.958,8.307-3.966,18.023-0.023,26.335l-77.583,77.583
			c-2.188,2.188-2.188,5.734,0,7.922l6.641,6.641c2.188,2.188,5.734,2.188,7.922,0l77.583-77.583
			c8.313,3.943,18.028,3.935,26.336-0.023l77.606,77.606c2.187,2.188,5.734,2.188,7.922,0l6.641-6.641
			c2.188-2.188,2.188-5.734,0-7.922l-77.63-77.63c3.913-8.286,3.905-17.961-0.023-26.242l77.653-77.653
			c2.188-2.188,2.188-5.734,0-7.922l-6.641-6.641C352.546,148.486,349,148.486,346.812,150.674z"/>
		<g>
			<path style="fill:#FF9931;" d="M354.734,150.674l6.641,6.641c2.188,2.188,2.188,5.734,0,7.922L165.287,361.326
				c-2.188,2.188-5.734,2.188-7.922,0l-6.641-6.641c-2.188-2.188-2.188-5.734,0-7.922l196.089-196.089
				C349,148.486,352.546,148.486,354.734,150.674z"/>
			<path style="fill:#FF9931;" d="M150.724,157.315l6.641-6.641c2.188-2.188,5.734-2.188,7.922,0l196.089,196.089
				c2.188,2.188,2.188,5.734,0,7.922l-6.641,6.641c-2.188,2.188-5.734,2.188-7.922,0L150.724,165.237
				C148.536,163.05,148.536,159.503,150.724,157.315z"/>
			<circle style="fill:#FF9931;" cx="256.015" cy="256.035" r="30.664"/>
		</g>
	</g>
</g>
<g id="Layer_1">
</g>
</svg>
