<?xml version="1.0" encoding="iso-8859-1"?>
<!-- Generator: Adobe Illustrator 27.9.0, SVG Export Plug-In . SVG Version: 6.00 Build 0)  -->
<svg version="1.1" xmlns="http://www.w3.org/2000/svg" xmlns:xlink="http://www.w3.org/1999/xlink" x="0px" y="0px"
	 viewBox="0 0 512 512" style="enable-background:new 0 0 512 512;" xml:space="preserve">
<g id="rigger_x5F_module_x5F_root">
	<g>
		<path style="fill:#1D1D1D;" d="M254.818,18.988c13.47,0,24.384,10.914,24.384,24.384v39.815
			c30.101,4.197,57.749,16.043,80.915,33.522l28.159-28.159c4.76-4.76,11-7.14,17.24-7.14s12.479,2.38,17.24,7.14
			c9.52,9.519,9.52,24.959,0,34.479l-28.159,28.159c17.479,23.166,29.325,50.815,33.522,80.915h39.815
			c13.47,0,24.384,10.914,24.384,24.384c0,13.47-10.914,24.384-24.384,24.384h-39.815c-4.197,30.101-16.043,57.749-33.522,80.915
			l28.159,28.159c9.52,9.52,9.52,24.96,0,34.479c-4.76,4.76-11.002,7.14-17.244,7.14c-6.242,0-12.475-2.38-17.235-7.14
			l-28.159-28.159c-23.166,17.479-50.815,29.325-80.915,33.522v39.815c0,13.47-10.914,24.384-24.384,24.384
			c-13.47,0-24.384-10.914-24.384-24.384v-39.815c-30.101-4.197-57.749-16.043-80.915-33.522l-28.16,28.16
			c-4.76,4.76-10.992,7.14-17.235,7.14s-12.485-2.38-17.244-7.14c-9.52-9.52-9.52-24.959,0-34.479l28.16-28.16
			c-17.479-23.166-29.325-50.815-33.522-80.915H41.702c-13.47,0-24.384-10.914-24.384-24.384c0-13.47,10.914-24.384,24.384-24.384
			h39.815c4.197-30.101,16.043-57.749,33.522-80.915l-28.16-28.16c-9.52-9.52-9.52-24.959,0-34.479c4.76-4.76,11-7.14,17.24-7.14
			s12.48,2.38,17.239,7.14l28.16,28.16c23.166-17.479,50.815-29.325,80.915-33.522V43.372
			C230.434,29.902,241.348,18.988,254.818,18.988 M295.431,204.558l52.019-52.019c-22.785-20.224-52.228-33.106-84.632-34.937
			v73.546C275.019,192.616,286.195,197.391,295.431,204.558 M214.205,204.559c9.237-7.167,20.413-11.943,32.614-13.411v-73.546
			c-32.404,1.831-61.848,14.713-84.633,34.937L214.205,204.559 M320.583,248.488h73.578c-1.947-32.458-14.98-61.923-35.368-84.665
			l-51.99,51.99C314.113,225.032,319.017,236.234,320.583,248.488 M115.475,248.488h73.578c1.566-12.253,6.47-23.455,13.779-32.674
			l-51.99-51.99C130.454,186.565,117.422,216.031,115.475,248.488 M254.818,286.237c16.16,0,29.261-13.1,29.261-29.261
			c0-16.161-13.101-29.261-29.261-29.261c-16.16,0-29.261,13.101-29.261,29.261C225.557,273.136,238.658,286.237,254.818,286.237
			 M359.255,349.608c20.326-22.899,33.239-52.523,34.968-85.12h-73.516c-1.398,12.391-6.209,23.74-13.472,33.1L359.255,349.608
			 M150.38,349.606l52.02-52.02c-7.262-9.359-12.073-20.709-13.471-33.098h-73.516C117.142,297.083,130.055,326.707,150.38,349.606
			 M246.818,396.349v-73.547c-12.444-1.497-23.822-6.436-33.164-13.843l-51.99,51.99C184.52,381.44,214.167,394.503,246.818,396.349
			 M262.818,396.349c32.65-1.845,62.297-14.908,85.152-35.398l-51.99-51.99c-9.341,7.406-20.719,12.344-33.162,13.841V396.349
			 M254.818,7.988c-19.511,0-35.384,15.873-35.384,35.384v30.497c-24.537,4.742-47.983,14.457-68.724,28.475l-21.573-21.573
			c-6.681-6.682-15.566-10.362-25.017-10.362c-9.451,0-18.336,3.68-25.018,10.362c-13.795,13.795-13.795,36.241,0,50.035
			l21.573,21.573c-14.019,20.741-23.734,44.188-28.475,68.724H41.702c-19.511,0-35.384,15.873-35.384,35.384
			s15.873,35.384,35.384,35.384h30.497c4.742,24.537,14.457,47.983,28.475,68.724l-21.573,21.573
			c-13.795,13.795-13.795,36.241,0,50.035c6.68,6.682,15.567,10.362,25.022,10.362c9.448,0,18.331-3.68,25.013-10.362l21.573-21.573
			c20.741,14.019,44.188,23.734,68.724,28.476v30.497c0,19.511,15.873,35.384,35.384,35.384s35.384-15.873,35.384-35.384v-30.497
			c24.537-4.742,47.983-14.457,68.724-28.476l21.572,21.572c6.682,6.682,15.565,10.362,25.013,10.362
			c9.454,0,18.34-3.68,25.022-10.362c6.682-6.681,10.362-15.566,10.362-25.017c0-9.451-3.68-18.336-10.362-25.018l-21.572-21.572
			c14.019-20.741,23.734-44.188,28.476-68.724h30.497c19.511,0,35.384-15.873,35.384-35.384s-15.873-35.384-35.384-35.384h-30.497
			c-4.742-24.537-14.457-47.983-28.476-68.724l21.572-21.572c6.682-6.682,10.362-15.567,10.362-25.018
			c0-9.451-3.68-18.336-10.362-25.018c-6.681-6.682-15.566-10.361-25.017-10.361c-9.451,0-18.336,3.68-25.018,10.362l-21.572,21.572
			c-20.741-14.019-44.188-23.734-68.724-28.475V43.372C290.202,23.861,274.329,7.988,254.818,7.988L254.818,7.988z M178.601,153.399
			c16.844-12.381,36.573-20.525,57.217-23.617v52.246c-7.109,1.8-13.929,4.607-20.251,8.337L178.601,153.399L178.601,153.399z
			 M273.818,182.028v-52.246c20.644,3.092,40.373,11.236,57.216,23.617l-36.966,36.966
			C287.746,186.635,280.927,183.828,273.818,182.028L273.818,182.028z M321.062,217.11l36.917-36.917
			c12.516,16.834,20.777,36.591,23.958,57.294h-52.298C327.776,230.322,324.887,223.459,321.062,217.11L321.062,217.11z
			 M127.699,237.488c3.181-20.703,11.442-40.46,23.957-57.293l36.917,36.917c-3.824,6.348-6.713,13.212-8.576,20.376H127.699
			L127.699,237.488z M254.818,275.237c-10.069,0-18.261-8.192-18.261-18.261c0-10.069,8.192-18.261,18.261-18.261
			c10.069,0,18.261,8.192,18.261,18.261C273.079,267.045,264.887,275.237,254.818,275.237L254.818,275.237z M329.892,275.488h52.197
			c-3.037,20.824-11.207,40.724-23.692,57.705l-36.966-36.966C325.248,289.757,328.098,282.771,329.892,275.488L329.892,275.488z
			 M127.549,275.488h52.197c1.793,7.282,4.644,14.268,8.461,20.736l-36.966,36.966C138.755,316.21,130.585,296.311,127.549,275.488
			L127.549,275.488z M178.035,360.135l36.917-36.917c6.495,3.914,13.524,6.846,20.867,8.704v52.247
			C214.935,381.044,195.004,372.754,178.035,360.135L178.035,360.135z M273.818,331.923c7.342-1.858,14.371-4.79,20.865-8.703
			l36.917,36.917c-16.969,12.618-36.899,20.907-57.782,24.033V331.923L273.818,331.923z"/>
	</g>
	<g>
		<linearGradient id="SVGID_1_" gradientUnits="userSpaceOnUse" x1="246.8183" y1="152.6124" x2="262.8183" y2="152.6124">
			<stop  offset="0.0013" style="stop-color:#FFCB4B"/>
			<stop  offset="1" style="stop-color:#FFD748"/>
		</linearGradient>
		<rect x="246.818" y="110.475" style="fill:url(#SVGID_1_);" width="16" height="84.275"/>
		
			<linearGradient id="SVGID_00000181781997972229705350000003881724772302865031_" gradientUnits="userSpaceOnUse" x1="246.8183" y1="360.3634" x2="262.8183" y2="360.3634">
			<stop  offset="0.0013" style="stop-color:#FFCB4B"/>
			<stop  offset="1" style="stop-color:#FFD748"/>
		</linearGradient>
		
			<rect x="246.818" y="318.226" style="fill:url(#SVGID_00000181781997972229705350000003881724772302865031_);" width="16" height="84.275"/>
		
			<linearGradient id="SVGID_00000129891181657045936150000011426472931154951331_" gradientUnits="userSpaceOnUse" x1="316.5563" y1="256.4879" x2="400.8313" y2="256.4879">
			<stop  offset="0.0013" style="stop-color:#FFCB4B"/>
			<stop  offset="1" style="stop-color:#FFD748"/>
		</linearGradient>
		
			<rect x="316.556" y="248.488" style="fill:url(#SVGID_00000129891181657045936150000011426472931154951331_);" width="84.275" height="16"/>
		
			<linearGradient id="SVGID_00000159463320449106209540000014969034388080200889_" gradientUnits="userSpaceOnUse" x1="108.8053" y1="256.4879" x2="193.0803" y2="256.4879">
			<stop  offset="0.0013" style="stop-color:#FFCB4B"/>
			<stop  offset="1" style="stop-color:#FFD748"/>
		</linearGradient>
		
			<rect x="108.805" y="248.488" style="fill:url(#SVGID_00000159463320449106209540000014969034388080200889_);" width="84.275" height="16"/>
		
			<linearGradient id="SVGID_00000145031727944953400210000008499470378278405777_" gradientUnits="userSpaceOnUse" x1="292.8178" y1="183.0334" x2="363.7209" y2="183.0334">
			<stop  offset="0.0013" style="stop-color:#FFCB4B"/>
			<stop  offset="1" style="stop-color:#FFD748"/>
		</linearGradient>
		<polygon style="fill:url(#SVGID_00000145031727944953400210000008499470378278405777_);" points="352.407,147.582 
			363.721,158.895 304.131,218.485 292.818,207.171 		"/>
		
			<linearGradient id="SVGID_00000108293358198065628770000003081574264740536227_" gradientUnits="userSpaceOnUse" x1="145.9133" y1="329.935" x2="216.8163" y2="329.935">
			<stop  offset="0.0013" style="stop-color:#FFCB4B"/>
			<stop  offset="1" style="stop-color:#FFD748"/>
		</linearGradient>
		<polygon style="fill:url(#SVGID_00000108293358198065628770000003081574264740536227_);" points="205.503,294.484 
			216.816,305.797 157.227,365.387 145.913,354.073 		"/>
		
			<linearGradient id="SVGID_00000075854013663592708000000018125056288150920071_" gradientUnits="userSpaceOnUse" x1="292.8179" y1="329.9358" x2="363.721" y2="329.9358">
			<stop  offset="0.0013" style="stop-color:#FFCB4B"/>
			<stop  offset="1" style="stop-color:#FFD748"/>
		</linearGradient>
		<polygon style="fill:url(#SVGID_00000075854013663592708000000018125056288150920071_);" points="304.132,294.484 
			363.721,354.074 352.407,365.387 292.818,305.798 		"/>
		
			<linearGradient id="SVGID_00000084504430689513192670000000478964323977522316_" gradientUnits="userSpaceOnUse" x1="145.9151" y1="183.0344" x2="216.8182" y2="183.0344">
			<stop  offset="0.0013" style="stop-color:#FFCB4B"/>
			<stop  offset="1" style="stop-color:#FFD748"/>
		</linearGradient>
		<polygon style="fill:url(#SVGID_00000084504430689513192670000000478964323977522316_);" points="157.229,147.583 
			216.818,207.172 205.505,218.486 145.915,158.896 		"/>
		<path style="fill:#999999;" d="M254.818,190.651c-36.63,0-66.324,29.695-66.324,66.324c0,36.629,29.694,66.324,66.324,66.324
			s66.324-29.694,66.324-66.324S291.448,190.651,254.818,190.651z M254.818,286.237c-16.16,0-29.261-13.101-29.261-29.261
			s13.101-29.261,29.261-29.261s29.261,13.1,29.261,29.261S270.978,286.237,254.818,286.237z"/>
		<path style="fill:#F8A805;" d="M279.202,43.372v41.687c-7.969-1.122-16.113-1.697-24.384-1.697s-16.415,0.576-24.384,1.697V43.372
			c0-13.47,10.914-24.384,24.384-24.384S279.202,29.902,279.202,43.372z"/>
		<path style="fill:#F8A805;" d="M279.202,428.893v40.711c0,13.47-10.914,24.384-24.384,24.384s-24.384-10.914-24.384-24.384
			v-40.711c7.969,1.122,16.113,1.697,24.384,1.697S271.233,430.014,279.202,428.893z"/>
		<path style="fill:#F8A805;" d="M492.318,256.488c0,13.47-10.914,24.384-24.384,24.384h-41.141
			c1.083-7.813,1.639-15.791,1.639-23.896c0-8.447-0.605-16.747-1.775-24.872h41.277
			C481.404,232.104,492.318,243.018,492.318,256.488z"/>
		<path style="fill:#F8A805;" d="M81.204,256.976c0,8.105,0.556,16.084,1.639,23.896H41.702c-13.47,0-24.384-10.914-24.384-24.384
			c0-13.47,10.914-24.384,24.384-24.384h41.277C81.809,240.229,81.204,248.529,81.204,256.976z"/>
		<path style="fill:#F8A805;" d="M422.755,123.03l-29.349,29.349c-9.851-13.021-21.487-24.618-34.547-34.411l29.417-29.417
			c9.52-9.52,24.959-9.52,34.479,0C432.275,98.07,432.275,113.51,422.755,123.03z"/>
		<path style="fill:#F8A805;" d="M150.22,395.565l-28.861,28.861c-4.76,4.76-10.992,7.14-17.235,7.14s-12.485-2.38-17.244-7.14
			c-9.52-9.52-9.52-24.959,0-34.479l28.929-28.929C125.602,374.077,137.2,385.713,150.22,395.565z"/>
		<path style="fill:#F8A805;" d="M422.755,424.425c-4.76,4.76-11.002,7.14-17.244,7.14c-6.242,0-12.475-2.38-17.235-7.14
			l-28.861-28.861c13.021-9.851,24.618-21.487,34.411-34.547l28.929,28.929C432.275,399.466,432.275,414.906,422.755,424.425z"/>
		<path style="fill:#F8A805;" d="M150.776,117.967c-13.06,9.793-24.696,21.39-34.547,34.411L86.88,123.029
			c-9.52-9.52-9.52-24.959,0-34.479s24.96-9.52,34.479,0L150.776,117.967z"/>
		<path style="fill:#999999;" d="M254.818,81.488c-96.65,0-175,78.35-175,175s78.35,175,175,175s175-78.35,175-175
			S351.468,81.488,254.818,81.488z M254.818,396.582c-77.103,0-139.607-62.504-139.607-139.607s62.504-139.606,139.607-139.606
			s139.607,62.504,139.607,139.607S331.921,396.582,254.818,396.582z"/>
	</g>
</g>
<g id="Layer_1">
</g>
</svg>
