<?xml version="1.0" encoding="iso-8859-1"?>
<!-- Generator: Adobe Illustrator 27.9.0, SVG Export Plug-In . SVG Version: 6.00 Build 0)  -->
<svg version="1.1" xmlns="http://www.w3.org/2000/svg" xmlns:xlink="http://www.w3.org/1999/xlink" x="0px" y="0px"
	 viewBox="0 0 512 512" style="enable-background:new 0 0 512 512;" xml:space="preserve">
<g id="rigger_x5F_dict">
	<g>
		<path style="fill:#BDBDBD;" d="M373.486,426.918c-15.373,0-27.88-12.507-27.88-27.88s12.507-27.88,27.88-27.88
			c7.164,0,12.993-5.829,12.993-12.993v-81.729c0-7.447,2.899-14.448,8.165-19.714l0.723-0.723l-0.723-0.723
			c-5.266-5.266-8.165-12.267-8.165-19.714v-81.729c0-7.165-5.829-12.993-12.993-12.993c-15.373,0-27.88-12.507-27.88-27.88
			s12.507-27.88,27.88-27.88c37.91,0,68.753,30.842,68.753,68.753v70.18l12.271,12.27c10.869,10.871,10.869,28.559,0,39.429
			l-12.271,12.271v70.18C442.239,396.075,411.396,426.918,373.486,426.918z M138.514,426.918c-37.911,0-68.753-30.843-68.753-68.753
			v-70.18L57.49,275.715c-10.869-10.871-10.869-28.559,0-39.429l12.271-12.271v-70.18c0-37.911,30.842-68.753,68.753-68.753
			c15.373,0,27.88,12.507,27.88,27.88s-12.507,27.88-27.88,27.88c-7.165,0-12.993,5.829-12.993,12.993v81.729
			c0,7.447-2.9,14.448-8.165,19.714L116.632,256l0.723,0.723c5.265,5.266,8.165,12.267,8.165,19.714v81.729
			c0,7.164,5.829,12.993,12.993,12.993c15.373,0,27.88,12.507,27.88,27.88S153.887,426.918,138.514,426.918z M336.461,292.819
			c-20.302,0-36.819-16.518-36.819-36.819c0-20.302,16.518-36.819,36.819-36.819c20.303,0,36.819,16.517,36.819,36.819
			C373.28,276.302,356.764,292.819,336.461,292.819z M256.002,292.819c-20.303,0-36.82-16.518-36.82-36.819
			c0-20.302,16.518-36.819,36.82-36.819s36.819,16.517,36.819,36.819C292.821,276.302,276.305,292.819,256.002,292.819z
			 M175.543,292.819c-20.303,0-36.82-16.518-36.82-36.819c0-20.302,16.518-36.819,36.82-36.819
			c20.302,0,36.819,16.517,36.819,36.819C212.362,276.302,195.845,292.819,175.543,292.819z"/>
		<path style="fill:#1D1D1D;" d="M373.486,95.082c32.396,0,58.753,26.357,58.753,58.753v74.322l15.199,15.199
			c6.982,6.983,6.982,18.304,0,25.287l-15.199,15.199v74.322c0,32.397-26.357,58.753-58.753,58.753
			c-9.874,0-17.88-8.005-17.88-17.88s8.006-17.88,17.88-17.88c12.679,0,22.993-10.315,22.993-22.993v-81.728
			c0-4.742,1.884-9.29,5.236-12.643L409.51,256l-7.794-7.794c-3.353-3.353-5.236-7.9-5.236-12.643v-81.729
			c0-12.679-10.315-22.993-22.993-22.993c-9.874,0-17.88-8.005-17.88-17.88S363.612,95.082,373.486,95.082 M138.514,95.082
			c9.874,0,17.88,8.005,17.88,17.88s-8.006,17.88-17.88,17.88c-12.679,0-22.993,10.314-22.993,22.993v81.729
			c0,4.742-1.884,9.29-5.236,12.643L102.49,256l7.794,7.794c3.352,3.353,5.236,7.9,5.236,12.643v81.728
			c0,12.679,10.314,22.993,22.993,22.993c9.874,0,17.88,8.005,17.88,17.88s-8.006,17.88-17.88,17.88
			c-32.397,0-58.753-26.357-58.753-58.753v-74.322l-15.199-15.199c-6.982-6.983-6.982-18.304,0-25.287l15.199-15.199v-74.322
			C79.761,121.439,106.117,95.082,138.514,95.082 M336.461,229.181c14.788,0,26.819,12.031,26.819,26.819
			s-12.031,26.819-26.819,26.819c-14.788,0-26.819-12.031-26.819-26.819S321.673,229.181,336.461,229.181 M256.002,229.181
			c14.788,0,26.819,12.031,26.819,26.819s-12.031,26.819-26.819,26.819c-14.789,0-26.82-12.031-26.82-26.819
			S241.213,229.181,256.002,229.181 M175.543,229.181c14.788,0,26.819,12.031,26.819,26.819s-12.031,26.819-26.819,26.819
			c-14.789,0-26.82-12.031-26.82-26.819S160.754,229.181,175.543,229.181 M373.486,75.082c-20.887,0-37.88,16.993-37.88,37.88
			c0,20.887,16.993,37.88,37.88,37.88c1.622,0,2.993,1.371,2.993,2.993v77.885c-8.223-13.502-23.086-22.539-40.019-22.539
			c-17.079,0-32.051,9.192-40.229,22.889c-8.178-13.697-23.15-22.889-40.229-22.889c-17.079,0-32.052,9.191-40.23,22.888
			c-8.178-13.697-23.15-22.888-40.229-22.888c-16.936,0-31.8,9.037-40.022,22.544v-77.89c0-1.622,1.371-2.993,2.993-2.993
			c20.887,0,37.88-16.993,37.88-37.88c0-20.887-16.993-37.88-37.88-37.88c-43.425,0-78.753,35.328-78.753,78.753v66.038
			l-9.341,9.341c-14.768,14.77-14.768,38.801-0.001,53.57l9.342,9.342v66.038c0,43.425,35.328,78.753,78.753,78.753
			c20.887,0,37.88-16.993,37.88-37.88c0-20.887-16.993-37.88-37.88-37.88c-1.622,0-2.993-1.371-2.993-2.993v-77.89
			c8.223,13.507,23.087,22.544,40.022,22.544c17.079,0,32.051-9.191,40.229-22.888c8.178,13.697,23.151,22.888,40.23,22.888
			c17.079,0,32.051-9.192,40.229-22.889c8.178,13.697,23.151,22.889,40.229,22.889c16.932,0,31.795-9.036,40.019-22.539v77.885
			c0,1.622-1.371,2.993-2.993,2.993c-20.887,0-37.88,16.993-37.88,37.88c0,20.887,16.993,37.88,37.88,37.88
			c43.425,0,78.753-35.328,78.753-78.753v-66.038l9.341-9.341c14.768-14.77,14.768-38.801,0.001-53.57l-9.342-9.342v-66.038
			C452.239,110.41,416.911,75.082,373.486,75.082L373.486,75.082z"/>
	</g>
	<g>
		<circle style="fill:#FF9931;" cx="336.461" cy="256" r="26.819"/>
	</g>
	<g>
		<path style="fill:#FF9931;" d="M256.002,282.819c-14.789,0-26.82-12.031-26.82-26.819s12.031-26.819,26.82-26.819
			c14.788,0,26.819,12.031,26.819,26.819S270.79,282.819,256.002,282.819z"/>
	</g>
	<g>
		<path style="fill:#FF9931;" d="M175.543,282.819c-14.789,0-26.82-12.031-26.82-26.819s12.031-26.819,26.82-26.819
			c14.788,0,26.819,12.031,26.819,26.819S190.331,282.819,175.543,282.819z"/>
	</g>
</g>
<g id="Layer_1">
</g>
</svg>
