<?xml version="1.0" encoding="iso-8859-1"?>
<!-- Generator: Adobe Illustrator 27.9.0, SVG Export Plug-In . SVG Version: 6.00 Build 0)  -->
<svg version="1.1" xmlns="http://www.w3.org/2000/svg" xmlns:xlink="http://www.w3.org/1999/xlink" x="0px" y="0px"
	 viewBox="0 0 512 512" style="enable-background:new 0 0 512 512;" xml:space="preserve">
<g id="rigger_x5F_module_x5F_digits">
	<rect style="fill:none;" width="512" height="512"/>
	<g>
		<linearGradient id="SVGID_1_" gradientUnits="userSpaceOnUse" x1="280.3218" y1="423.1207" x2="254.6021" y2="79.4479">
			<stop  offset="0.0013" style="stop-color:#FFCB4B"/>
			<stop  offset="1" style="stop-color:#FFD748"/>
		</linearGradient>
		<path style="fill:url(#SVGID_1_);" d="M233.545,492.844c-36.021,0-69.78-10.177-95.057-28.655
			c-31.599-23.058-45.837-98.553-52.68-134.834c-0.803-4.26-1.498-7.943-2.104-10.927c-2.416-9.556-5.601-23.817-8.974-38.914
			c-4.444-19.896-9.04-40.468-11.61-48.85c-0.254-0.827-0.598-1.878-1-3.11c-4.798-14.698-16.034-49.116,1.935-58.605
			c5.217-2.755,10.321-4.152,15.171-4.152c8.497,0,20.506,4.347,29.457,25.057c5.729,13.253,12.119,33.682,17.254,50.096
			c3.155,10.085,5.88,18.795,7.889,24.15c5.065,13.465,9.654,19.252,12.478,20.414c1.31-7.836-4.119-39.858-7.118-57.549
			c-0.896-5.288-1.743-10.283-2.394-14.392l-0.258-1.626c-4.742-29.917-9.646-60.854-12.51-89.902
			c-1.841-18.806,1.425-34.355,8.96-42.664c4.1-4.521,9.5-6.91,15.615-6.91l0.234,0.001c22.813,0.218,30.987,24.456,35.974,48.137
			c4.596,21.825,8.265,60.093,10.693,85.416c0.807,8.419,1.504,15.689,2.068,20.668c2.059,18.184,7.356,26.046,10.292,28.768
			c1.457-14.564,0.133-74.429-0.598-84.427c-0.661-9.038-0.833-106.796,0.113-115.386c2.03-18.403,12.14-29.39,27.045-29.39
			c1.07,0,2.181,0.055,3.302,0.163c15.803,1.518,25.863,11.004,29.903,28.195c3.352,14.265,2.295,32.157,1.362,47.943
			c-0.457,7.75-0.89,15.07-0.791,21.389c0.115,7.461,0.022,26.082-0.076,45.795c-0.127,25.344-0.271,54.049,0.059,58.991
			c0.003,0.03,0.006,0.061,0.008,0.091c0.483,6.5,2.231,11.162,3.378,12.701c2.572-2.104,8.089-10.656,8.918-18.23
			c4.638-41.998,9.698-65.888,14.592-88.992c1.001-4.726,1.991-9.402,2.965-14.177c7.258-35.498,19.148-52.753,36.354-52.753
			c2.028,0,4.142,0.259,6.282,0.769c8.571,2.042,15.636,7.018,19.894,14.011c4.746,7.796,5.809,17.744,3.074,28.769
			c-2.291,9.234-6.221,29.765-10.382,51.501c-5.727,29.922-12.219,63.837-16.188,77.444c-0.027,0.093-0.059,0.184-0.093,0.274
			c-8.568,29.449-7.449,51.55,3.078,60.655c3.915,3.378,7.872,5.021,12.092,5.021c7.519,0,15.879-5.264,24.849-15.646
			c19.284-22.351,40.528-27.042,54.953-27.042c15.332,0,26.754,5.16,31.876,9.578c2.964,2.553,9.001,8.961,12.812,16.778
			c4.798,9.84,4.385,18.461-1.193,24.931c-6.029,6.966-15.59,9.956-26.66,13.418c-14.863,4.648-31.711,9.917-46.363,26.152
			c-14.939,16.549-22.935,31.301-31.399,46.92c-9.089,16.77-18.486,34.109-37.162,55.738
			C314.05,478.587,275.605,492.844,233.545,492.844C233.542,492.844,233.547,492.844,233.545,492.844z"/>
		<path style="fill:#1D1D1D;" d="M234.42,28.757c0.95,0,1.94,0.048,2.967,0.146c40.119,3.853,26.802,61.413,27.31,94.097
			c0.27,17.409-0.605,96.649-0.003,105.066c0.001,0.006,0.003,0.011,0.003,0.017c0.599,8.051,3.358,16.264,6.732,16.264
			c0.054,0,0.109-0.002,0.163-0.006c3.447-0.236,11.322-12.1,12.37-21.665l-0.001-0.001c5.577-50.496,11.829-75,17.508-102.85
			c7.88-38.546,20.347-49.953,32.924-49.953c1.826,0,3.655,0.241,5.471,0.673c14.331,3.414,25.856,16.46,20.381,38.531
			c-5.475,22.07-19.738,105.521-26.532,128.808l-0.087,0.051l0.054,0.017c-6.794,23.254-10.41,51.949,4.089,64.489
			c4.772,4.117,9.607,5.873,14.381,5.873c9.765,0,19.278-7.346,27.496-16.858c17.001-19.704,36.375-25.83,52.305-25.83
			c13.555,0,24.617,4.44,29.589,8.728c6.084,5.239,22.037,24.268,11.255,36.773c-12.844,14.838-46.676,10.376-72.972,39.511
			c-31.061,34.407-32.481,60.872-68.612,102.715c-19.843,22.98-57.811,35.99-97.669,35.99c-32.717,0-66.708-8.766-92.992-27.979
			c-34.137-24.91-47.69-115.492-53.436-143.714c-5.679-22.442-16.122-73.242-20.652-88.012c-2.974-9.667-17.609-48.705-0.777-57.594
			c4.763-2.515,9.288-3.748,13.537-3.747c10.767,0.001,19.75,7.919,26.244,22.946c9.058,20.955,19.638,59.587,25.079,74.087
			c5.196,13.813,11.1,22.91,16.772,22.91c0.268,0,0.536-0.02,0.803-0.062c0.041-0.007,0.092-0.028,0.146-0.056
			c-0.059,0.021-0.117,0.044-0.18,0.054l0.358-0.168c0.119-0.086,0.258-0.204,0.414-0.35c4.15-5.515-5.051-53.13-8.614-75.632
			c-4.8-30.284-9.836-61.852-12.742-91.325c-2.323-23.738,3.671-45.732,21.093-45.731c0.066,0,0.134,0,0.2,0.001
			c17.575,0.168,26.533,16.629,32.583,45.358c6.05,28.729,10.41,85.477,12.708,105.757c2.776,24.522,11.715,33.061,15.467,33.061
			c0.06,0,0.118-0.002,0.175-0.006c0.291-0.068,0.514-0.134,0.65-0.2c0.136-0.067,0.371-0.208,0.689-0.411l-0.694,0.393
			c3.033-1.98,1.016-80.386,0.376-89.145c-0.642-8.787-0.845-106.162,0.101-114.747C211.756,46.863,215.865,28.756,234.42,28.757
			 M210.378,258.923c-0.01,0.006-0.02,0.012-0.029,0.017L210.378,258.923 M234.421,21.757
			C234.421,21.757,234.421,21.757,234.421,21.757c-16.868-0.001-28.279,12.151-30.524,32.506
			c-1.01,9.165-0.826,106.426-0.125,116.025c0.573,7.835,1.584,49.868,1.132,72.375c-1.547-4.144-3.002-9.807-3.857-17.364
			c-0.561-4.949-1.257-12.205-2.062-20.607c-2.581-26.92-6.115-63.787-10.752-85.805c-4.965-23.577-13.926-50.672-39.365-50.915
			l-0.259-0.001c-7.138,0-13.434,2.786-18.215,8.058c-8.198,9.039-11.789,25.57-9.853,45.354
			c2.875,29.156,7.787,60.144,12.537,90.111l0.258,1.628c0.653,4.126,1.502,9.13,2.4,14.428c1.927,11.367,4.111,24.251,5.578,35.382
			c0.676,5.126,1.085,9.063,1.322,12.08c-1.613-2.808-3.499-6.739-5.534-12.147c-1.973-5.258-4.685-13.925-7.824-23.961
			c-5.159-16.492-11.58-37.017-17.382-50.439c-9.705-22.453-23.122-27.167-32.669-27.168c-5.424-0.001-11.079,1.533-16.806,4.557
			c-20.576,10.867-8.7,47.249-3.628,62.786c0.395,1.21,0.732,2.242,0.983,3.057c2.528,8.245,7.108,28.747,11.537,48.574
			c3.369,15.082,6.553,29.332,8.978,38.936c0.598,2.945,1.285,6.587,2.078,10.794c3.449,18.287,8.66,45.922,16.958,72.228
			c10.399,32.969,22.535,54.162,37.101,64.791c25.868,18.909,60.36,29.325,97.118,29.325c20.678,0,40.983-3.387,58.718-9.794
			c18.574-6.71,33.875-16.607,44.249-28.621c18.924-21.916,28.414-39.425,37.591-56.359c8.362-15.43,16.261-30.003,30.919-46.241
			c14.013-15.526,30.375-20.643,44.811-25.158c11.58-3.622,21.581-6.749,28.257-14.463c6.478-7.514,7.078-17.724,1.696-28.761
			c-4.061-8.329-10.508-15.169-13.676-17.898c-5.572-4.807-17.865-10.424-34.157-10.424c-15.156,0-37.453,4.902-57.605,28.257
			c-8.156,9.44-15.832,14.431-22.197,14.431c-3.345,0-6.553-1.365-9.808-4.173c-9.43-8.155-10.17-28.889-2.036-56.908
			c0.046-0.128,0.088-0.258,0.126-0.389c4.016-13.765,10.524-47.767,16.266-77.765c4.151-21.689,8.072-42.175,10.341-51.317
			c3.746-15.099,0.174-25.426-3.482-31.431c-4.747-7.797-12.585-13.336-22.071-15.595c-2.406-0.573-4.792-0.864-7.093-0.864
			c-9.269,0-17.294,4.494-23.851,13.358c-6.793,9.183-12.005,22.985-15.932,42.192c-0.971,4.763-1.938,9.327-2.961,14.16
			c-4.911,23.186-9.989,47.161-14.646,89.324c-0.003,0.031-0.007,0.063-0.01,0.094c-0.451,3.911-2.45,8.331-4.406,11.552
			c-0.398-1.672-0.741-3.697-0.911-5.989c-0.003-0.04-0.006-0.08-0.01-0.12c-0.315-4.931-0.173-33.462-0.047-58.659
			c0.099-19.744,0.192-38.393,0.076-45.892c-0.096-6.188,0.333-13.444,0.786-21.127c0.946-16.025,2.019-34.188-1.45-48.951
			c-4.42-18.813-15.515-29.202-32.976-30.879C236.827,21.817,235.603,21.757,234.421,21.757L234.421,21.757z"/>
	</g>
	
		<linearGradient id="SVGID_00000110443370546386210590000013848301948813982611_" gradientUnits="userSpaceOnUse" x1="29.3736" y1="465.6693" x2="29.6532" y2="485.2773" gradientTransform="matrix(10 0 0 -10 -9 5131)">
		<stop  offset="0.0013" style="stop-color:#FFCB4B"/>
		<stop  offset="1" style="stop-color:#FFD748"/>
	</linearGradient>
	<path style="fill:url(#SVGID_00000110443370546386210590000013848301948813982611_);" d="M472.798,311.09
		c5.848-6.794,3.82-15.514-0.236-22.916c-13.384,30.014-50.733-0.405-120.764,80.78S214.1,432.97,191.05,420.126
		s-39.038-47.082-49.753-100.924c-3.278-16.528-9.43-35.827-17.305-55.194c-11.288,6.828-31.095,41.134-25.045,52.963
		c13.148,25.653-5.611,103.628,41.64,144.423c54.687,47.184,154.53,33.833,190.66-8.01c36.132-41.843,37.551-68.308,68.612-102.715
		C426.155,321.5,459.988,325.962,472.798,311.09z"/>
	
		<linearGradient id="SVGID_00000171715989520493263220000006875040499005251759_" gradientUnits="userSpaceOnUse" x1="19.1443" y1="495.2744" x2="13.3281" y2="494.5474" gradientTransform="matrix(10 0 0 -10 -9 5131)">
		<stop  offset="0" style="stop-color:#FFBC47;stop-opacity:0"/>
		<stop  offset="1" style="stop-color:#FFA754"/>
	</linearGradient>
	<path style="fill:url(#SVGID_00000171715989520493263220000006875040499005251759_);" d="M140.284,212.058
		c3.549,22.341,12.641,69.491,8.686,75.508c8.754-3.414,15.142-27.851,12.1-40.289c-17.575-71.924-16.392-166.291-23.355-168.555
		c-9.024,7.266-11.965,24.132-10.207,42.012C130.448,150.172,135.484,181.741,140.284,212.058z"/>
	
		<linearGradient id="SVGID_00000062898064191253578860000001924801738891831725_" gradientUnits="userSpaceOnUse" x1="34.973" y1="497.0913" x2="26.378" y2="498.0596" gradientTransform="matrix(10 0 0 -10 -9 5131)">
		<stop  offset="0" style="stop-color:#FFBC47;stop-opacity:0"/>
		<stop  offset="1" style="stop-color:#FFA754"/>
	</linearGradient>
	<path style="fill:url(#SVGID_00000062898064191253578860000001924801738891831725_);" d="M283.962,222.673
		c-1.015,9.193-3.988,19.266-7.301,19.84c26.16,4.461,33.799-60.67,39.342-98.694c4.293-29.405,22.476-52.456,24.977-73.006
		c-0.372-0.101-0.744-0.202-1.149-0.304c-14.331-3.414-29.372,5.138-38.396,49.279C295.792,147.672,289.539,172.177,283.962,222.673
		z"/>
	
		<linearGradient id="SVGID_00000070826192443397866420000011316634434418416551_" gradientUnits="userSpaceOnUse" x1="26.1716" y1="498.4335" x2="15.2722" y2="499.3146" gradientTransform="matrix(10 0 0 -10 -9 5131)">
		<stop  offset="0" style="stop-color:#FFBC47;stop-opacity:0"/>
		<stop  offset="1" style="stop-color:#FFA754"/>
	</linearGradient>
	<path style="fill:url(#SVGID_00000070826192443397866420000011316634434418416551_);" d="M210.788,169.815
		c0.642,8.788,2.67,87.675-0.405,89.162c26.836-5.983,21.124-96.597,19.231-141.517c-1.622-38.936,11.154-60.77,0.575-88.35
		c-14.939,2.535-18.488,18.421-19.334,25.958C209.909,63.653,210.145,160.994,210.788,169.815z"/>
	<path style="fill:#EF9645;" d="M342.228,314.034c-3.957-1.609-7.308-5.751-7.704-14.761c-24.958,3.417-58.715,10.408-84.689,35.815
		c-33.717,32.965-39.469,68.595-39.192,92.432c0.224,19.22,10.711,28.322,13.785-0.158
		C228.294,391.388,254.532,319.944,342.228,314.034L342.228,314.034z"/>
</g>
<g id="Layer_1">
</g>
</svg>
