<?xml version="1.0" encoding="iso-8859-1"?>
<!-- Generator: Adobe Illustrator 27.9.0, SVG Export Plug-In . SVG Version: 6.00 Build 0)  -->
<svg version="1.1" xmlns="http://www.w3.org/2000/svg" xmlns:xlink="http://www.w3.org/1999/xlink" x="0px" y="0px"
	 viewBox="0 0 512 512" style="enable-background:new 0 0 512 512;" xml:space="preserve">
<g id="rigger_x5F_module_x5F_leg">
	<rect style="fill:none;" width="512" height="512"/>
	<g>
		<linearGradient id="SVGID_1_" gradientUnits="userSpaceOnUse" x1="96.1826" y1="255.9998" x2="393.2677" y2="255.9998">
			<stop  offset="0.0013" style="stop-color:#FFCB4B"/>
			<stop  offset="1" style="stop-color:#FFD748"/>
		</linearGradient>
		<path style="fill:url(#SVGID_1_);" d="M251.438,479.619c-15.969,0.001-35.114-4.559-52.528-12.509
			c-4.314-1.97-17.446-7.963-15.846-17.693c2.46-14.954,39.557-19.412,39.931-19.45c7.706-0.784,31.185-12.077,39.788-29.457
			c4.999-10.098,4.18-20.687-2.435-31.472c-39.318-64.103-84.345-114.303-137.654-153.469
			c-14.86-10.912-23.859-26.042-26.021-43.752c-2.669-21.861,5.637-45.64,23.388-66.955c18.747-22.515,57.734-42.568,115.877-59.604
			c22.81-6.688,47.38-12.878,72.498-12.878c14.498,0,27.55,2.048,39.902,6.262c12.655,4.316,23.707,14.081,31.96,28.238
			c7.527,12.915,12.093,28.596,12.854,44.156c1.442,29.459-10.604,52.911-32.222,62.733c-12.245,5.56-36.42,14.884-60.761,14.884
			c-6.388,0-12.49-0.642-18.137-1.908c-12.448-2.788-25.006-4.202-37.322-4.202c-1.232,0-2.415,0.015-3.543,0.041
			c19.146,11.488,52.43,35.844,66.157,72.634c7.419,19.886,11.096,37.681,14.34,53.382c4.996,24.181,8.942,43.28,24.152,57.288
			c22.116,20.368,37.017,49.257,20.448,67.883c-9.871,11.104-22.213,12.047-34.148,12.958c-13.475,1.028-27.408,2.092-40.692,17.438
			C282.673,474.276,268.846,479.619,251.438,479.619z"/>
		<path style="fill:#1D1D1D;" d="M308.435,37.078c12.921,0,25.814,1.722,38.386,6.01c44.598,15.21,60.581,104.406,12.165,126.405
			c-15.334,6.961-37.347,14.463-58.816,14.463c-5.79,0-11.541-0.546-17.11-1.795c-15.11-3.384-28.353-4.315-38.349-4.316
			c-12.232,0-19.605,1.394-19.605,1.394s58.887,26.884,77.817,77.62c18.929,50.736,13.16,88.03,39.712,112.484
			c20.967,19.31,34.25,45.421,20.12,61.306c-18.966,21.335-48.232-0.344-74.883,30.444c-8.635,9.974-21.902,13.828-36.434,13.828
			c-16.912,0-35.537-5.219-50.577-12.085c-35.342-16.13,9.907-26.896,22.612-28.198c14.117-1.436,64.939-28.824,40.879-68.057
			c-51.51-83.979-104.357-129.437-138.877-154.799c-30.862-22.661-34.029-65.222-1.805-103.915
			c20.402-24.503,64.191-43.628,113.589-58.102C259.707,43.184,284.113,37.079,308.435,37.078 M308.441,27.683v9.395l-0.002-9.395
			c-25.715,0.001-50.677,6.281-73.823,13.068c-59.053,17.302-98.81,37.861-118.165,61.105
			c-18.589,22.321-27.269,47.369-24.441,70.53c2.29,18.757,12.2,35.438,27.905,46.969c52.808,38.799,97.435,88.564,136.429,152.138
			c5.794,9.448,6.524,18.258,2.23,26.932c-7.935,16.029-29.894,26.24-36.051,26.867c-5.493,0.563-14.681,2.397-22.838,5.229
			c-13.04,4.527-19.993,10.458-21.255,18.132c-0.573,3.483-0.162,8.749,5.05,14.055c3.02,3.075,7.43,5.912,13.481,8.674
			c18.003,8.219,37.86,12.933,54.478,12.933c18.812,0,33.866-5.904,43.537-17.074c12.019-13.885,23.827-14.786,37.499-15.83
			c12.266-0.936,26.169-1.998,37.302-14.522c8.906-10.012,10.631-23.85,4.856-38.964c-4.52-11.828-13.623-24.434-25.633-35.494
			c-14.098-12.984-17.721-30.516-22.735-54.782c-3.279-15.867-6.994-33.851-14.54-54.075
			c-11.218-30.068-34.962-52.063-54.159-65.815c7.795,0.627,15.639,1.82,23.442,3.568c5.981,1.341,12.429,2.022,19.163,2.022
			c23.96,0,47.321-8.322,62.7-15.303c23.44-10.65,36.513-35.786,34.974-67.241c-0.798-16.298-5.588-32.738-13.488-46.291
			c-8.83-15.148-20.761-25.632-34.502-30.319C337.006,29.814,323.459,27.683,308.441,27.683L308.441,27.683z"/>
	</g>
	<path style="fill:#EF9645;" d="M143.201,194.278l-0.516-0.246c-4.67-2.476-6.45-8.267-3.977-12.939
		c14.166-26.749,5.794-49.091,5.438-50.036c-1.903-4.915,0.506-10.446,5.401-12.399c4.885-1.949,10.426,0.423,12.386,5.303
		c0.503,1.252,12.19,31.193-6.298,66.081C153.266,194.524,147.814,196.381,143.201,194.278z"/>
</g>
<g id="Layer_1">
</g>
</svg>
