<?xml version="1.0" encoding="UTF-8"?>
<svg xmlns="http://www.w3.org/2000/svg" version="1.1" xmlns:xlink="http://www.w3.org/1999/xlink" viewBox="0 0 512 512">
  <defs>
    <style>
      .cls-1 {
        fill: url(#linear-gradient-3);
      }

      .cls-1, .cls-2, .cls-3, .cls-4, .cls-5, .cls-6 {
        fill-rule: evenodd;
        stroke: #1d1d1d;
        stroke-linecap: round;
        stroke-linejoin: round;
        stroke-width: 10px;
      }

      .cls-2 {
        fill: url(#linear-gradient-4);
      }

      .cls-3 {
        fill: url(#linear-gradient);
      }

      .cls-4 {
        fill: url(#linear-gradient-5);
      }

      .cls-5 {
        fill: url(#linear-gradient-2);
      }

      .cls-6 {
        fill: url(#linear-gradient-6);
      }
    </style>
    <linearGradient id="linear-gradient" x1="150.5" y1="453.2" x2="363.1" y2="453.2" gradientUnits="userSpaceOnUse">
      <stop offset="0" stop-color="#ffcb4b"/>
      <stop offset="1" stop-color="#ffd748"/>
    </linearGradient>
    <linearGradient id="linear-gradient-2" x1="104" y1="209.7" x2="408.7" y2="209.7" xlink:href="#linear-gradient"/>
    <linearGradient id="linear-gradient-3" x1="29.4" y1="225.4" x2="179.6" y2="225.4" xlink:href="#linear-gradient"/>
    <linearGradient id="linear-gradient-4" x1="333.5" y1="225.7" x2="484.6" y2="225.7" xlink:href="#linear-gradient"/>
    <linearGradient id="linear-gradient-5" x1="333.2" y1="361.8" x2="484.1" y2="361.8" xlink:href="#linear-gradient"/>
    <linearGradient id="linear-gradient-6" x1="29.5" y1="361.8" x2="180.4" y2="361.8" xlink:href="#linear-gradient"/>
  </defs>
  <!-- Generator: Adobe Illustrator 28.7.2, SVG Export Plug-In . SVG Version: 1.2.0 Build 154)  -->
  <g>
    <g id="Layer_1">
      <g>
        <g>
          <path class="cls-3" d="M331.3,422.8h-150v31.3h-30.9v29.4h212.6v-29.4h-31.8v-31.3Z"/>
          <path class="cls-5" d="M242.1,119.1v272h28.9V119.1h137.6l-137.6-35.4V28.4h-28.9v55.2l-138.1,35.4h138.1Z"/>
          <path class="cls-1" d="M104.7,179.2l57.7,121.7,17.2-6.3-67.6-140c-1.6-3-4.8-4.9-9.1-4.6-3.9.2-7.3,2.3-8.5,5.3L29.4,295.2l17.9,4.9,57.5-121h0Z"/>
          <path class="cls-2" d="M399,155.4l-65.6,140.3,18,4.9,57.8-121.2,58.1,121.9,17.3-6.3-68-140.3c-1.6-2.9-4.9-4.8-9.1-4.6-3.9,0-7.3,2.3-8.5,5.3h0Z"/>
        </g>
        <path class="cls-4" d="M484.1,332.6c0,32.2-33.8,58.4-75.5,58.4s-75.5-26.2-75.5-58.4h150.9Z"/>
        <path class="cls-6" d="M180.4,332.6c0,32.2-33.8,58.4-75.5,58.4s-75.5-26.2-75.5-58.4h150.9Z"/>
      </g>
    </g>
  </g>
</svg>