<?xml version="1.0" encoding="iso-8859-1"?>
<!-- Generator: Adobe Illustrator 27.9.0, SVG Export Plug-In . SVG Version: 6.00 Build 0)  -->
<svg version="1.1" xmlns="http://www.w3.org/2000/svg" xmlns:xlink="http://www.w3.org/1999/xlink" x="0px" y="0px"
	 viewBox="0 0 512 512" style="enable-background:new 0 0 512 512;" xml:space="preserve">
<g id="rigger_x5F_template_x5F_biped">
	<g>
		<linearGradient id="SVGID_1_" gradientUnits="userSpaceOnUse" x1="65.9372" y1="260.9226" x2="414.4951" y2="260.9226">
			<stop  offset="0.0013" style="stop-color:#FFCB4B"/>
			<stop  offset="1" style="stop-color:#FFD748"/>
		</linearGradient>
		<path style="fill:url(#SVGID_1_);" d="M290.679,484.165c-7.267,0-14.187-3.196-18.985-8.771
			c-4.749-5.516-6.849-12.826-5.763-20.059l10.786-71.762c1.708-11.363-2.973-22.663-12.217-29.49l-40.011-29.547l-18.2,42.527
			c-9.846,23.007-32.365,37.872-57.369,37.872c-3.84,0-7.71-0.359-11.502-1.068L85.728,394.2
			c-6.672-1.248-12.554-5.27-16.138-11.033c-3.584-5.766-4.588-12.821-2.754-19.358c2.923-10.423,12.522-17.702,23.343-17.702
			c0.359,0,0.722,0.008,1.084,0.024l51.229,2.271c0.184,0.008,0.366,0.012,0.549,0.012c5.375,0,10.074-3.445,11.692-8.574
			l17.539-55.557c1.649-5.224,3.746-10.349,6.233-15.233l41.072-80.667l-25.073-8.561c-1.281-0.438-2.613-0.659-3.96-0.659
			c-3.639,0-7.066,1.599-9.403,4.387l-26.719,31.869c-4.782,5.703-11.762,8.974-19.151,8.974c-10.936,0-20.548-6.964-23.919-17.331
			c-3.395-10.439-2.112-19.316,3.814-26.384l28.716-34.25c11.894-14.185,29.329-22.321,47.836-22.321c4,0,8.022,0.389,11.955,1.156
			c56.184,10.959,99.471,28.666,140.354,57.414c1.994,1.402,4.057,2.055,6.489,2.055c6.222,0,13.703-4.376,20.305-8.236
			c2.321-1.358,4.515-2.641,6.682-3.768c3.569-1.856,7.564-2.838,11.553-2.838c10.906,0,20.499,6.965,23.871,17.333
			c3.801,11.684,0.591,23.059-8.379,29.684c-19.269,14.232-37.769,21.151-56.558,21.151c-6.926,0-13.934-0.981-20.828-2.916
			l-24.595-6.9l-31.251,61.381l39.518,33.132c16.549,13.875,24.835,35.761,21.627,57.118l-12.234,81.395
			c-2.303,15.329-16.419,19.92-21.733,21.648C295.939,483.744,293.312,484.165,290.679,484.165z M306.081,143.889
			c-23.057-0.001-43.343-14.743-50.479-36.683c-4.386-13.486-3.258-27.873,3.176-40.51c6.435-12.638,17.405-22.013,30.892-26.4
			c5.337-1.736,10.864-2.616,16.43-2.616c23.058,0,43.343,14.742,50.479,36.683c4.387,13.485,3.259,27.873-3.176,40.51
			s-17.405,22.013-30.892,26.4c-5.337,1.735-10.863,2.616-16.427,2.616C306.083,143.889,306.083,143.889,306.081,143.889z"/>
		<path style="fill:#2B2B2B;" d="M306.1,44.087c19.673,0,37.972,12.537,44.387,32.258c7.975,24.519-5.437,50.861-29.956,58.836
			c-4.798,1.561-9.663,2.302-14.449,2.302c-19.673,0-37.972-12.537-44.387-32.258c-7.975-24.519,5.437-50.861,29.956-58.836
			C296.449,44.828,301.314,44.087,306.1,44.087 M191.715,130.513c3.562,0,7.155,0.341,10.729,1.038
			c51.332,10.013,95.385,26.475,137.895,56.367c3.268,2.298,6.693,3.221,10.175,3.221c10.38,0,21.261-8.212,29.942-12.727
			c2.77-1.441,5.71-2.115,8.597-2.115c7.783,0,15.175,4.902,17.778,12.907c2.681,8.243,1.271,17.111-6.093,22.55
			c-16.059,11.863-33.624,19.897-52.751,19.897c-6.2,0-12.566-0.845-19.097-2.677l-29.652-8.32l-35.947,70.603l43.423,36.406
			c14.956,12.54,22.306,31.958,19.407,51.258l-12.235,81.394c-1.456,9.693-9.019,13.789-17.378,16.508
			c-1.963,0.638-3.921,0.936-5.83,0.936c-10.93,0-20.168-9.784-18.412-21.47l10.786-71.762c2.056-13.68-3.618-27.376-14.747-35.595
			l-46.523-34.355l-21.384,49.968c-8.941,20.892-29.403,33.986-51.478,33.986c-3.415,0-6.869-0.313-10.324-0.96l-51.691-9.668
			c-10.301-1.926-16.733-12.272-13.902-22.363c2.168-7.729,9.212-13.026,17.174-13.025c0.265,0,0.532,0.006,0.799,0.018l51.23,2.271
			c0.278,0.012,0.555,0.018,0.832,0.018c8.112,0,15.342-5.256,17.803-13.052l17.538-55.557c1.548-4.904,3.499-9.672,5.833-14.255
			l44.423-87.251l-32.064-10.948c-1.979-0.676-4.014-1.003-6.031-1.003c-5.423,0-10.7,2.367-14.313,6.677l-26.719,31.869
			c-3.816,4.552-9.055,6.683-14.242,6.683c-7.621,0-15.127-4.606-17.827-12.905c-2.292-7.047-2.424-14.257,2.631-20.287
			l28.716-34.251C159.547,137.711,175.33,130.513,191.715,130.513 M306.1,31.273c-6.24,0-12.435,0.986-18.412,2.93
			c-15.113,4.916-27.408,15.422-34.619,29.585c-7.211,14.163-8.475,30.286-3.559,45.399c3.41,10.484,9.499,19.501,17.366,26.396
			c-19.072-6.781-39.513-12.228-61.979-16.61c-4.336-0.846-8.771-1.275-13.182-1.275c-20.407,0-39.632,8.97-52.745,24.611
			l-28.717,34.251c-5.115,6.101-10.134,16.688-4.997,32.482c4.232,13.013,16.293,21.755,30.012,21.755
			c9.289,0,18.058-4.106,24.06-11.264l26.719-31.869c1.117-1.332,2.755-2.096,4.494-2.096c0.641,0,1.277,0.106,1.889,0.315
			l18.084,6.174l-37.72,74.085c-2.645,5.194-4.877,10.648-6.633,16.211l-17.538,55.557c-0.773,2.45-3.017,4.096-5.584,4.096
			c-0.089,0-0.178-0.002-0.267-0.006l-51.226-2.271c-0.454-0.02-0.912-0.03-1.367-0.03c-13.679-0.001-25.815,9.201-29.512,22.378
			c-2.318,8.263-1.049,17.182,3.482,24.47c4.531,7.288,11.967,12.372,20.402,13.949l51.691,9.668
			c4.179,0.782,8.445,1.178,12.68,1.178c27.572,0,52.402-16.391,63.259-41.758l15.015-35.085l33.5,24.739
			c7.329,5.413,11.041,14.373,9.687,23.383l-10.786,71.763c-1.364,9.079,1.276,18.261,7.242,25.191
			c6.017,6.989,14.707,10.997,23.841,10.997c3.307,0,6.602-0.526,9.794-1.565c5.737-1.866,23.195-7.544,26.086-26.79l12.234-81.393
			c1.748-11.636,0.47-23.602-3.696-34.605c-4.166-11.004-11.134-20.816-20.15-28.376l-35.612-29.858l26.556-52.158l19.538,5.482
			c7.457,2.093,15.047,3.154,22.558,3.154c20.209,0,39.954-7.329,60.364-22.404c11.26-8.317,15.347-22.425,10.665-36.82
			c-4.233-13.013-16.274-21.757-29.964-21.757c-5.014,0-10.031,1.231-14.51,3.561c-2.308,1.2-4.672,2.583-6.959,3.92
			c-5.607,3.279-12.585,7.361-17.071,7.361c-1.108,0-1.895-0.25-2.806-0.89c-14.896-10.475-30.1-19.51-46.096-27.305
			c1.478,0.11,2.968,0.166,4.469,0.166c6.24,0,12.435-0.986,18.412-2.93c15.113-4.916,27.408-15.422,34.619-29.585
			c7.211-14.163,8.475-30.286,3.559-45.399C354.675,47.794,331.94,31.273,306.1,31.273L306.1,31.273z"/>
	</g>
</g>
<g id="Layer_1">
</g>
</svg>
