<?xml version="1.0" encoding="iso-8859-1"?>
<!-- Generator: Adobe Illustrator 27.9.0, SVG Export Plug-In . SVG Version: 6.00 Build 0)  -->
<svg version="1.1" xmlns="http://www.w3.org/2000/svg" xmlns:xlink="http://www.w3.org/1999/xlink" x="0px" y="0px"
	 viewBox="0 0 512 512" style="enable-background:new 0 0 512 512;" xml:space="preserve">
<g id="rigger_x5F_module_x5F_head">
	<rect id="bg_00000084508820713840940290000010700421909667994546_" style="fill:none;" width="512" height="512"/>
	<g>
		<g>
			<linearGradient id="SVGID_1_" gradientUnits="userSpaceOnUse" x1="76.3401" y1="256" x2="431.7191" y2="256">
				<stop  offset="0.0013" style="stop-color:#FFCB4B"/>
				<stop  offset="1" style="stop-color:#FFD748"/>
			</linearGradient>
			<path style="fill:url(#SVGID_1_);" d="M201.972,468.699c-0.933,0-1.761-0.55-2.162-1.436c-0.118-0.26-0.178-0.541-0.178-0.825
				v-80.601h-41.611c-1.385,0-2.737,0.011-4.06,0.021c-1.274,0.01-2.521,0.021-3.741,0.021c-5.15,0-9.408-0.183-13.445-1.072
				c-13.173-2.917-21.979-10.654-24.796-21.787c-1.203-4.746-1.088-10.145-0.968-15.86c0.039-1.816,0.078-3.688,0.078-5.612v-42.273
				c-4.384-1.872-8.725-3.808-12.934-5.685c-2.185-0.975-4.357-1.943-6.519-2.896c-0.751-0.334-1.503-0.625-2.248-0.913
				c-1.689-0.654-3.435-1.331-5.016-2.415c-4.867-3.309-7.625-8.296-7.972-14.417c-0.389-6.603,1.096-11.794,3.445-17.555
				c3.592-8.798,9.025-18.302,13.835-26.52c3.09-5.271,6.67-11.226,11.27-18.743c0.336-0.544,0.796-1.188,1.283-1.87
				c0.667-0.934,2.031-2.843,2.229-3.569c-0.339-2.496-0.214-5.139-0.093-7.696c0.035-0.739,0.07-1.484,0.095-2.234
				c0.362-10.812,2.111-20.803,3.514-27.281c4.547-21.058,12.634-39.091,25.45-56.75c18.004-24.849,40.432-42.737,68.563-54.686
				c19.296-8.217,42.176-12.743,64.424-12.743c4.359,0,8.731,0.176,12.996,0.524c7.097,0.595,13.875,1.581,20.726,3.014
				c24.292,5.064,45.684,14.804,65.396,29.777c11.818,8.958,22.697,20.009,31.458,31.957c15.371,21.008,24.411,42.176,28.452,66.617
				c1.849,11.122,2.561,20.823,2.174,29.656c-0.869,19.344-4.436,36.522-10.903,52.519c-10.325,25.678-26.146,47.239-47.02,64.082
				c-0.64,0.52-1.356,1.032-2.116,1.575c-0.764,0.546-1.553,1.109-2.332,1.731c-0.312,0.249-0.752,0.568-1.237,0.92
				c-0.675,0.486-2.024,1.463-2.459,1.937c-0.099,0.586-0.019,1.892,0.042,2.869c0.046,0.762,0.095,1.549,0.095,2.289v42.797
				c0,0.718-0.385,1.381-1.009,1.737c-27.224,15.534-55.129,31.18-82.115,46.31c-24.653,13.821-50.146,28.114-74.984,42.247
				c-0.446,0.25-0.878,0.507-1.31,0.763c-0.804,0.477-1.633,0.969-2.486,1.387C203.41,468.278,202.792,468.699,201.972,468.699z"/>
			<path style="fill:#1D1D1D;" d="M270.414,45.301c4.24,0,8.528,0.166,12.835,0.518c7.389,0.619,14.032,1.629,20.479,2.978
				c25.676,5.353,46.602,15.745,64.596,29.412c11.602,8.794,22.249,19.537,31.055,31.547c13.401,18.316,23.694,39.159,28.091,65.761
				c1.49,8.961,2.599,18.975,2.149,29.242c-0.899,20.015-4.649,36.744-10.76,51.856c-10.437,25.956-26.42,47.137-46.421,63.275
				c-1.224,0.996-2.839,2.022-4.439,3.3c-1.125,0.897-4.018,2.752-4.312,3.637c-0.407,1.292,0,3.919,0,5.941
				c0,14.382,0,29.313,0,42.796c-52.108,29.734-105.087,58.963-157.097,88.556c-1.278,0.716-2.542,1.544-3.806,2.149
				c-0.164,0.088-0.517,0.43-0.811,0.43c-0.132,0-0.253-0.069-0.34-0.261c0-27.529,0-55.072,0-82.601c-14.185,0-29.313,0-43.611,0
				c-2.719,0-5.317,0.042-7.801,0.042c-4.727,0-9.046-0.151-13.014-1.026c-11.546-2.556-20.479-9.227-23.287-20.324
				c-1.502-5.927-0.829-13.019-0.829-20.983c0-14.368,0-29.395,0-43.596c-7.036-2.978-13.89-6.111-20.646-9.088
				c-2.403-1.069-4.889-1.742-6.939-3.147c-4.03-2.74-6.77-6.939-7.106-12.88c-0.365-6.195,1.038-11.139,3.3-16.687
				c3.554-8.707,8.891-18.033,13.709-26.265c3.54-6.04,7.46-12.516,11.249-18.709c1.08-1.754,4.004-5.209,3.806-6.615
				c-0.435-3.034-0.113-6.334,0-9.733c0.322-9.634,1.784-19.142,3.47-26.924c4.889-22.642,13.78-40.381,25.114-55.999
				c17.219-23.765,39.284-41.939,67.726-54.02C223.765,50.648,246.359,45.301,270.414,45.301 M270.414,41.301
				c-22.511,0-45.669,4.583-65.208,12.903c-28.472,12.093-51.173,30.199-69.398,55.353c-12.983,17.891-21.177,36.163-25.784,57.502
				c-1.42,6.558-3.191,16.677-3.558,27.634c-0.025,0.741-0.06,1.476-0.094,2.205c-0.116,2.46-0.236,4.996,0.039,7.493
				c-0.382,0.716-1.284,1.979-1.804,2.707c-0.508,0.711-0.987,1.382-1.355,1.98c-4.544,7.425-8.236,13.566-11.295,18.784
				c-4.847,8.28-10.321,17.858-13.962,26.776c-2.122,5.205-4.025,11.039-3.59,18.434c0.383,6.757,3.443,12.277,8.85,15.953
				c1.761,1.207,3.619,1.927,5.415,2.623c0.753,0.292,1.464,0.567,2.148,0.871c2.169,0.956,4.336,1.922,6.515,2.895
				c3.83,1.708,7.769,3.465,11.756,5.18v40.955c0,1.896-0.039,3.764-0.078,5.57c-0.124,5.855-0.241,11.385,1.029,16.395
				c3.012,11.902,12.352,20.158,26.3,23.247c4.218,0.93,8.598,1.12,13.879,1.12c1.225,0,2.477-0.01,3.757-0.02
				c1.317-0.011,2.665-0.021,4.044-0.021h39.611v78.601c0,0.569,0.121,1.131,0.356,1.649c0.729,1.611,2.255,2.611,3.984,2.611
				c1.359,0,2.361-0.628,2.848-0.974c0.864-0.432,1.678-0.915,2.468-1.383c0.418-0.248,0.836-0.497,1.257-0.732
				c24.846-14.137,50.323-28.421,74.963-42.235c27.001-15.138,54.921-30.792,82.162-46.337c1.247-0.712,2.018-2.038,2.018-3.474
				v-42.796c0-0.801-0.05-1.62-0.099-2.412c-0.033-0.541-0.078-1.266-0.083-1.809c0.517-0.415,1.256-0.949,1.676-1.253
				c0.486-0.351,0.945-0.683,1.311-0.975c0.74-0.591,1.509-1.14,2.252-1.671c0.784-0.561,1.525-1.09,2.218-1.654
				c21.131-17.05,37.153-38.884,47.608-64.886c6.552-16.202,10.165-33.596,11.044-53.169c0.393-8.977-0.326-18.814-2.199-30.078
				c-4.092-24.757-13.247-46.197-28.809-67.467c-8.876-12.105-19.894-23.298-31.867-32.373
				c-19.951-15.154-41.605-25.014-66.195-30.14c-6.929-1.45-13.786-2.447-20.961-3.048
				C279.255,41.479,274.828,41.301,270.414,41.301L270.414,41.301z"/>
		</g>
	</g>
	<g id="Joints">
		<polygon style="fill:#FF9931;stroke:#1D1D1D;stroke-width:4;stroke-linejoin:round;stroke-miterlimit:10;" points="263.883,443.4 
			298.044,443.4 280.964,268.13 		"/>
		<polygon style="fill:#FF9931;stroke:#1D1D1D;stroke-width:4;stroke-linejoin:round;stroke-miterlimit:10;" points="
			273.623,283.555 286.613,251.049 184.135,202.024 		"/>
		<polygon style="fill:#FF9931;stroke:#1D1D1D;stroke-width:4;stroke-linejoin:round;stroke-miterlimit:10;" points="
			222.218,307.416 213.603,296.299 121.286,376.485 		"/>
		<g>
			<path style="fill:#FF9931;" d="M184.135,231.615c-16.316,0-29.591-13.274-29.591-29.591s13.274-29.591,29.591-29.591
				c16.317,0,29.591,13.274,29.591,29.591S200.452,231.615,184.135,231.615z"/>
			<path style="fill:#1D1D1D;" d="M184.135,174.433c15.238,0,27.591,12.353,27.591,27.591s-12.353,27.591-27.591,27.591
				s-27.591-12.353-27.591-27.591S168.897,174.433,184.135,174.433 M184.135,170.433c-17.419,0-31.591,14.172-31.591,31.591
				s14.172,31.591,31.591,31.591s31.591-14.172,31.591-31.591S201.554,170.433,184.135,170.433L184.135,170.433z"/>
		</g>
		<g>
			<path style="fill:#FF9931;" d="M280.964,462.48c-10.521,0-19.081-8.56-19.081-19.081c0-10.521,8.56-19.08,19.081-19.08
				c10.521,0,19.08,8.56,19.08,19.08C300.044,453.921,291.484,462.48,280.964,462.48z"/>
			<path style="fill:#1D1D1D;" d="M280.964,426.319c9.433,0,17.08,7.647,17.08,17.08s-7.647,17.08-17.08,17.08
				s-17.08-7.647-17.08-17.08S271.53,426.319,280.964,426.319 M280.964,422.319c-11.624,0-21.08,9.457-21.08,21.08
				s9.457,21.08,21.08,21.08s21.08-9.457,21.08-21.08S292.587,422.319,280.964,422.319L280.964,422.319z"/>
		</g>
		<g>
			<path style="fill:#FF9931;" d="M280.964,287.21c-10.521,0-19.081-8.56-19.081-19.08c0-10.521,8.56-19.081,19.081-19.081
				c10.521,0,19.08,8.559,19.08,19.081C300.044,278.65,291.484,287.21,280.964,287.21z"/>
			<path style="fill:#1D1D1D;" d="M280.964,251.049c9.433,0,17.08,7.647,17.08,17.08s-7.647,17.08-17.08,17.08
				s-17.08-7.647-17.08-17.08S271.53,251.049,280.964,251.049 M280.964,247.049c-11.624,0-21.08,9.457-21.08,21.08
				s9.457,21.08,21.08,21.08s21.08-9.457,21.08-21.08S292.587,247.049,280.964,247.049L280.964,247.049z"/>
		</g>
		<g>
			<path style="fill:#FF9931;" d="M218.029,313.867c-7.762,0-14.078-6.315-14.078-14.078c0-7.762,6.315-14.077,14.078-14.077
				s14.078,6.315,14.078,14.077C232.107,307.552,225.792,313.867,218.029,313.867z"/>
			<path style="fill:#1D1D1D;" d="M218.029,287.712c6.67,0,12.078,5.407,12.078,12.078s-5.407,12.078-12.078,12.078
				c-6.67,0-12.078-5.407-12.078-12.078S211.359,287.712,218.029,287.712 M218.029,283.712c-8.865,0-16.078,7.212-16.078,16.078
				s7.212,16.078,16.078,16.078s16.078-7.212,16.078-16.078S226.894,283.712,218.029,283.712L218.029,283.712z"/>
		</g>
		<g style="display:none;">
			<path style="display:inline;fill:#FF9931;" d="M84.46,405.025c-7.762,0-14.078-6.315-14.078-14.077
				c0-7.763,6.315-14.078,14.078-14.078s14.078,6.315,14.078,14.078C98.538,398.71,92.222,405.025,84.46,405.025z"/>
			<path style="display:inline;fill:#1D1D1D;" d="M84.46,378.87c6.67,0,12.078,5.407,12.078,12.078
				c0,6.67-5.407,12.078-12.078,12.078c-6.67,0-12.078-5.407-12.078-12.078C72.382,384.278,77.79,378.87,84.46,378.87 M84.46,374.87
				c-8.865,0-16.078,7.212-16.078,16.078s7.212,16.078,16.078,16.078s16.078-7.212,16.078-16.078S93.325,374.87,84.46,374.87
				L84.46,374.87z"/>
		</g>
	</g>
</g>
<g id="Layer_1">
</g>
</svg>
