<?xml version="1.0" encoding="iso-8859-1"?>
<!-- Generator: Adobe Illustrator 27.9.0, SVG Export Plug-In . SVG Version: 6.00 Build 0)  -->
<svg version="1.1" xmlns="http://www.w3.org/2000/svg" xmlns:xlink="http://www.w3.org/1999/xlink" x="0px" y="0px"
	 viewBox="0 0 512 512" style="enable-background:new 0 0 512 512;" xml:space="preserve">
<g id="rigger_x5F_module_x5F_arm">
	<rect style="fill:none;" width="512" height="512"/>
	<g>
		<path style="fill:#1D1D1D;" d="M210.514,39.791c6.544,0,12.611,3.161,22.627,8.423c29.885,15.711,71.802,56.175,71.015,65.133
			c-0.982,11.132-17.445,29.928-22.846,29.928c-0.125,0-0.245-0.01-0.358-0.031c-9.102-1.658-30.345-9.635-30.345-9.635
			c-4.491-1.646,12.104-11.499,6.088-16.655l-10.712-7.844c-1.728-1.127-3.225-2.152-4.839-2.152c-0.692,0-1.406,0.189-2.169,0.639
			c-2.516,1.452-3.918,4.27-3.559,7.154c0.799,6.052,0.145,23.046,12.721,26.69c10.866,3.164,21.684,6.489,32.451,9.974
			c4.636,1.622,15.723,12.443,15.106,18.81c-0.448,4.624-5.447,18.507-12.31,18.628c-0.127,0.002-0.254,0.003-0.383,0.003
			c-12.054,0-32.707-9.449-46.025-11.018c-3.617-0.425-6.976-0.627-10.097-0.626c-40.85,0-40.905,34.475-44.166,52.287
			c-2.687,28.203,3.607,39.593,11.112,66.5c1.043,3.878,1.875,7.809,2.493,11.777c19.946-35.826,79.794-59.225,138.158-59.223
			c67.225,0.003,132.479,31.051,132.479,109.915c0,80.443-95.767,113.741-195.949,113.741c-53.29,0-107.838-9.426-149.867-26.192
			c0,0-52.363,0-64.467-12.104c-12.104-12.104,0.787-72.625,0-72.625c0.013-7.103,0.32-14.202,0.92-21.279
			c0.968-23.276,5.217-64.479,32.403-142.684c6.633-19.064,51.83-105.209,98.395-145.044c10.289-8.812,12.891-12.08,21.158-12.467
			C209.873,39.799,210.194,39.791,210.514,39.791 M210.514,27.791L210.514,27.791c-0.508,0-1.023,0.012-1.531,0.036
			c-11.372,0.533-16.739,5.207-24.864,12.282c-1.072,0.934-2.24,1.951-3.532,3.058C131.925,84.795,85.935,172.483,78.664,193.382
			c-27.377,78.754-31.992,120.953-33.048,145.871c-0.609,7.268-0.926,14.649-0.941,21.943c-0.127,0.907-0.394,2.592-0.634,4.114
			c-7.167,45.323-6.003,66.937,4.149,77.089c4.54,4.541,14.044,10.936,44.021,14.042c11.537,1.195,22.061,1.485,26.595,1.555
			c42.805,16.674,98.116,26.214,152.203,26.214c26.529,0,51.803-2.244,75.119-6.67c25.046-4.754,47.193-11.927,65.825-21.318
			c43.835-22.095,67.005-55.897,67.005-97.752c0-40.209-15.929-72.818-46.064-94.301c-13.088-9.33-28.655-16.438-46.269-21.125
			c-16.178-4.305-33.722-6.488-52.146-6.489c-30.385-0.001-61.676,6.072-88.107,17.101c-18.02,7.519-32.982,16.905-44.324,27.712
			c-0.354-1.169-0.7-2.302-1.034-3.398c-5.12-16.782-8.226-26.964-6.398-46.844c0.354-1.998,0.663-4.085,0.989-6.283
			c1.262-8.523,2.692-18.184,7.185-25.152c2.901-4.498,8.554-10.478,24.092-10.478c2.698,0,5.623,0.183,8.696,0.544
			c4.935,0.581,12.071,2.784,18.971,4.913c10.309,3.182,20.046,6.187,28.455,6.187c0.198,0,0.394-0.002,0.589-0.005
			c16.199-0.286,23.295-21.701,24.047-29.47c0.616-6.357-2.255-13.184-8.536-20.289c-0.557-0.63-1.559-1.725-2.872-3
			c2.265-2.05,4.766-4.685,7.498-8.072c4.243-5.26,11.495-15.582,12.38-25.619c0.506-5.763-2.155-11.656-9.185-20.348
			c-4.635-5.73-11.059-12.475-18.578-19.505c-16.626-15.546-35.176-29.361-49.621-36.956
			C227.893,31.902,220.068,27.791,210.514,27.791L210.514,27.791z"/>
	</g>
	<path style="fill:#EF9645;" d="M234.727,151.426h45.863c1.464-2.466,1.722-5.466,0.702-8.146l-46.553-56.95v65.096H234.727z"/>
	<g>
		<linearGradient id="SVGID_1_" gradientUnits="userSpaceOnUse" x1="51.4657" y1="256" x2="466.9574" y2="256">
			<stop  offset="0.0013" style="stop-color:#FFCB4B"/>
			<stop  offset="1" style="stop-color:#FFD748"/>
		</linearGradient>
		<path style="fill:url(#SVGID_1_);" d="M196.32,307.776c-0.618-3.968-1.45-7.899-2.493-11.777
			c-7.505-26.908-13.799-38.298-11.112-66.5c3.51-19.173,3.304-57.652,54.263-51.661c13.46,1.586,34.412,11.221,46.407,11.015
			c6.863-0.121,11.862-14.005,12.31-18.628c0.617-6.367-10.47-17.188-15.106-18.81c-10.767-3.485-21.585-6.81-32.451-9.974
			c-12.576-3.643-11.923-20.638-12.721-26.69c-0.36-2.883,1.042-5.701,3.559-7.154c2.542-1.501,4.539-0.097,7.008,1.513
			l10.712,7.843c6.016,5.156-10.579,15.009-6.088,16.655c0,0,21.243,7.977,30.345,9.635c4.987,0.908,22.199-18.507,23.204-29.897
			c0.787-8.957-41.13-49.421-71.015-65.132c-10.506-5.519-16.667-8.727-23.591-8.4c-8.267,0.387-10.87,3.655-21.158,12.467
			c-46.565,39.835-91.762,125.98-98.395,145.044C62.812,275.53,58.563,316.733,57.595,340.009c-0.6,7.077-0.907,14.176-0.92,21.279
			c0.787,0-12.104,60.521,0,72.625s64.467,12.104,64.467,12.104c121.042,48.283,345.816,35.683,345.816-87.549
			C466.957,211.136,239.242,230.684,196.32,307.776L196.32,307.776z"/>
	</g>
	<path style="fill:#EF9645;" d="M291.048,426.409c-38.249-4.019-68.122-22.768-69.805-23.845
		c-5.639-3.593-7.297-11.077-3.704-16.716c3.593-5.639,11.077-7.297,16.716-3.704c0.484,0.303,48.453,30.164,94.969,17.757
		c25.721-6.851,46.807-25.6,62.663-55.691c3.115-5.916,10.437-8.187,16.353-5.072s8.187,10.437,5.072,16.353
		c-19.185,36.385-45.439,59.226-78.036,67.856C320.061,427.365,304.992,427.873,291.048,426.409z"/>
</g>
<g id="Layer_1">
</g>
</svg>
