<?xml version="1.0" encoding="iso-8859-1"?>
<!-- Generator: Adobe Illustrator 27.9.0, SVG Export Plug-In . SVG Version: 6.00 Build 0)  -->
<svg version="1.1" xmlns="http://www.w3.org/2000/svg" xmlns:xlink="http://www.w3.org/1999/xlink" x="0px" y="0px"
	 viewBox="0 0 512 512" style="enable-background:new 0 0 512 512;" xml:space="preserve">
<g id="rigger_x5F_module_x5F_spine">
	<rect style="fill:none;" width="512" height="512"/>
	<g>
		<path style="fill:#FF9931;" d="M205.332,466.58c-1.104,0-2-0.896-2-2V41.69c0-1.104,0.896-2,2-2h100.905c1.104,0,2,0.896,2,2
			v422.89c0,1.104-0.896,2-2,2H205.332z"/>
		<path style="fill:#1D1D1D;" d="M306.237,41.69V464.58H205.332V41.69H306.237 M306.237,37.69H205.332c-2.209,0-4,1.791-4,4V464.58
			c0,2.209,1.791,4,4,4h100.905c2.209,0,4-1.791,4-4V41.69C310.237,39.481,308.446,37.69,306.237,37.69L306.237,37.69z"/>
	</g>
	<g>
		<path style="fill:#F7BA26;" d="M203.201,117.317c-8.637,0-15.664-7.027-15.664-15.664V89.391h-8.371
			c-4.225,6.178-11.102,9.832-18.614,9.832c-12.453,0-22.584-10.131-22.584-22.584s10.131-22.584,22.584-22.584
			c6.619,0,12.798,2.853,17.104,7.861h9.881V47.347c0-8.637,7.027-15.664,15.664-15.664H308.66c8.638,0,15.665,7.027,15.665,15.664
			v14.569h10.02c4.306-5.008,10.485-7.861,17.104-7.861c12.453,0,22.584,10.131,22.584,22.584s-10.131,22.584-22.584,22.584
			c-7.513,0-14.39-3.654-18.614-9.832h-8.51v12.263c0,8.637-7.027,15.664-15.665,15.664H203.201z"/>
		<path style="fill:#1D1D1D;" d="M308.661,33.682c7.547,0,13.664,6.118,13.664,13.664v16.569h12.963
			c3.769-4.781,9.6-7.861,16.161-7.861c11.368,0,20.584,9.216,20.584,20.584c0,11.368-9.216,20.584-20.584,20.584
			c-7.422,0-13.907-3.941-17.528-9.832h-11.596v14.263c0,7.547-6.118,13.664-13.664,13.664h-105.46
			c-7.547,0-13.664-6.118-13.664-13.664V87.391h-11.457c-3.621,5.891-10.106,9.832-17.528,9.832
			c-11.368,0-20.584-9.216-20.584-20.584c0-11.368,9.216-20.584,20.584-20.584c6.561,0,12.391,3.08,16.161,7.861h12.825V47.347
			c0-7.547,6.118-13.664,13.664-13.664H308.661 M308.661,29.682h-105.46c-9.74,0-17.664,7.924-17.664,17.664v12.569h-6.986
			c-4.649-5.02-11.104-7.861-18-7.861c-13.556,0-24.584,11.028-24.584,24.584c0,13.556,11.028,24.584,24.584,24.584
			c7.82,0,15.007-3.636,19.642-9.832h5.343v10.263c0,9.74,7.924,17.664,17.664,17.664h105.46c9.74,0,17.664-7.924,17.664-17.664
			V91.391h5.482c4.635,6.196,11.822,9.832,19.642,9.832c13.556,0,24.584-11.028,24.584-24.584c0-13.556-11.028-24.584-24.584-24.584
			c-6.895,0-13.35,2.842-18,7.861h-7.124V47.347C326.325,37.607,318.401,29.682,308.661,29.682L308.661,29.682z"/>
	</g>
	<g>
		<path style="fill:#F7BA26;" d="M203.201,238.317c-8.637,0-15.664-7.027-15.664-15.664v-12.263h-8.371
			c-4.225,6.178-11.102,9.832-18.614,9.832c-12.453,0-22.584-10.131-22.584-22.584s10.131-22.584,22.584-22.584
			c6.619,0,12.798,2.853,17.104,7.861h9.881v-14.569c0-8.637,7.027-15.664,15.664-15.664H308.66c8.638,0,15.665,7.027,15.665,15.664
			v14.569h10.02c4.306-5.008,10.485-7.861,17.104-7.861c12.453,0,22.584,10.131,22.584,22.584s-10.131,22.584-22.584,22.584
			c-7.513,0-14.39-3.654-18.614-9.832h-8.51v12.263c0,8.637-7.027,15.664-15.665,15.664H203.201z"/>
		<path style="fill:#1D1D1D;" d="M308.661,154.682c7.547,0,13.664,6.118,13.664,13.664v16.569h12.963
			c3.769-4.781,9.6-7.861,16.161-7.861c11.368,0,20.584,9.216,20.584,20.584c0,11.368-9.216,20.584-20.584,20.584
			c-7.422,0-13.907-3.941-17.528-9.832h-11.596v14.263c0,7.547-6.118,13.664-13.664,13.664h-105.46
			c-7.547,0-13.664-6.118-13.664-13.664v-14.263h-11.457c-3.621,5.891-10.106,9.832-17.528,9.832
			c-11.368,0-20.584-9.216-20.584-20.584c0-11.368,9.216-20.584,20.584-20.584c6.561,0,12.391,3.08,16.161,7.861h12.825v-16.569
			c0-7.547,6.118-13.664,13.664-13.664H308.661 M308.661,150.682h-105.46c-9.74,0-17.664,7.924-17.664,17.664v12.569h-6.986
			c-4.649-5.02-11.104-7.861-18-7.861c-13.556,0-24.584,11.028-24.584,24.584c0,13.556,11.028,24.584,24.584,24.584
			c7.82,0,15.007-3.636,19.642-9.832h5.343v10.263c0,9.74,7.924,17.664,17.664,17.664h105.46c9.74,0,17.664-7.924,17.664-17.664
			v-10.263h5.482c4.635,6.196,11.822,9.832,19.642,9.832c13.556,0,24.584-11.028,24.584-24.584
			c0-13.556-11.028-24.584-24.584-24.584c-6.895,0-13.35,2.842-18,7.861h-7.124v-12.569
			C326.325,158.607,318.401,150.682,308.661,150.682L308.661,150.682z"/>
	</g>
	<g>
		<path style="fill:#F7BA26;" d="M203.201,359.317c-8.637,0-15.664-7.027-15.664-15.664v-12.263h-8.371
			c-4.225,6.178-11.102,9.832-18.614,9.832c-12.453,0-22.584-10.131-22.584-22.584s10.131-22.584,22.584-22.584
			c6.619,0,12.798,2.853,17.104,7.861h9.881v-14.569c0-8.637,7.027-15.664,15.664-15.664H308.66c8.638,0,15.665,7.027,15.665,15.664
			v14.569h10.02c4.306-5.009,10.485-7.861,17.104-7.861c12.453,0,22.584,10.131,22.584,22.584s-10.131,22.584-22.584,22.584
			c-7.513,0-14.39-3.654-18.614-9.832h-8.51v12.263c0,8.637-7.027,15.664-15.665,15.664H203.201z"/>
		<path style="fill:#1D1D1D;" d="M308.661,275.682c7.547,0,13.664,6.118,13.664,13.664v16.569h12.963
			c3.769-4.781,9.6-7.861,16.161-7.861c11.368,0,20.584,9.216,20.584,20.584c0,11.368-9.216,20.584-20.584,20.584
			c-7.422,0-13.907-3.941-17.528-9.832h-11.596v14.263c0,7.547-6.118,13.664-13.664,13.664h-105.46
			c-7.547,0-13.664-6.118-13.664-13.664v-14.263h-11.457c-3.621,5.891-10.106,9.832-17.528,9.832
			c-11.368,0-20.584-9.216-20.584-20.584c0-11.368,9.216-20.584,20.584-20.584c6.561,0,12.391,3.08,16.161,7.861h12.825v-16.569
			c0-7.547,6.118-13.664,13.664-13.664H308.661 M308.661,271.682h-105.46c-9.74,0-17.664,7.924-17.664,17.664v12.569h-6.986
			c-4.649-5.02-11.104-7.861-18-7.861c-13.556,0-24.584,11.028-24.584,24.584c0,13.556,11.028,24.584,24.584,24.584
			c7.82,0,15.007-3.636,19.642-9.832h5.343v10.263c0,9.74,7.924,17.664,17.664,17.664h105.46c9.74,0,17.664-7.924,17.664-17.664
			v-10.263h5.482c4.635,6.196,11.822,9.832,19.642,9.832c13.556,0,24.584-11.028,24.584-24.584
			c0-13.556-11.028-24.584-24.584-24.584c-6.895,0-13.35,2.842-18,7.861h-7.124v-12.569
			C326.325,279.607,318.401,271.682,308.661,271.682L308.661,271.682z"/>
	</g>
	<g>
		<path style="fill:#F7BA26;" d="M203.201,480.317c-8.637,0-15.664-7.027-15.664-15.664v-12.263h-8.371
			c-4.225,6.178-11.102,9.832-18.614,9.832c-12.453,0-22.584-10.131-22.584-22.584s10.131-22.584,22.584-22.584
			c6.619,0,12.798,2.853,17.104,7.861h9.881v-14.569c0-8.637,7.027-15.664,15.664-15.664H308.66c8.638,0,15.665,7.027,15.665,15.664
			v14.569h10.02c4.306-5.009,10.485-7.861,17.104-7.861c12.453,0,22.584,10.131,22.584,22.584s-10.131,22.584-22.584,22.584
			c-7.513,0-14.39-3.654-18.614-9.832h-8.51v12.263c0,8.637-7.027,15.664-15.665,15.664H203.201z"/>
		<path style="fill:#1D1D1D;" d="M308.661,396.682c7.547,0,13.664,6.118,13.664,13.664v16.569h12.963
			c3.769-4.781,9.6-7.861,16.161-7.861c11.368,0,20.584,9.216,20.584,20.584c0,11.368-9.216,20.584-20.584,20.584
			c-7.422,0-13.907-3.941-17.528-9.832h-11.596v14.263c0,7.547-6.118,13.664-13.664,13.664h-105.46
			c-7.547,0-13.664-6.118-13.664-13.664v-14.263h-11.457c-3.621,5.891-10.106,9.832-17.528,9.832
			c-11.368,0-20.584-9.216-20.584-20.584c0-11.368,9.216-20.584,20.584-20.584c6.561,0,12.391,3.08,16.161,7.861h12.825v-16.569
			c0-7.547,6.118-13.664,13.664-13.664H308.661 M308.661,392.682h-105.46c-9.74,0-17.664,7.924-17.664,17.664v12.569h-6.986
			c-4.649-5.02-11.104-7.861-18-7.861c-13.556,0-24.584,11.028-24.584,24.584c0,13.556,11.028,24.584,24.584,24.584
			c7.82,0,15.007-3.636,19.642-9.832h5.343v10.263c0,9.74,7.924,17.664,17.664,17.664h105.46c9.74,0,17.664-7.924,17.664-17.664
			v-10.263h5.482c4.635,6.196,11.822,9.832,19.642,9.832c13.556,0,24.584-11.028,24.584-24.584
			c0-13.556-11.028-24.584-24.584-24.584c-6.895,0-13.35,2.842-18,7.861h-7.124v-12.569
			C326.325,400.607,318.401,392.682,308.661,392.682L308.661,392.682z"/>
	</g>
</g>
<g id="Layer_1">
</g>
</svg>
