<?xml version="1.0" encoding="iso-8859-1"?>
<!-- Generator: Adobe Illustrator 27.7.0, SVG Export Plug-In . SVG Version: 6.00 Build 0)  -->
<svg version="1.1" xmlns="http://www.w3.org/2000/svg" xmlns:xlink="http://www.w3.org/1999/xlink" x="0px" y="0px"
	 viewBox="0 0 512 512" style="enable-background:new 0 0 512 512;" xml:space="preserve">
<g id="root_x5F_utilities">
	<g>
		<path style="fill:#BDBDBD;" d="M235.069,451.35V236.003h214.982V451.35H235.069z M399.305,401.555V285.787H285.827v115.768
			H399.305z"/>
		<path style="fill:#1D1D1D;" d="M438.552,247.503v192.346H246.569V247.503H438.552 M274.327,413.055h136.477V274.287H274.327
			V413.055 M461.552,224.503h-23H246.569h-23v23v192.346v23h23h191.982h23v-23V247.503V224.503L461.552,224.503z M297.327,297.287
			h90.477v92.768h-90.477V297.287L297.327,297.287z"/>
	</g>
	<g>
		<path style="fill:#BDBDBD;" d="M247.337,373.978c-59.742,0-111.138-42.551-122.208-101.177l-3.377-17.888l17.604,4.633
			c8.173,2.15,16.633,3.241,25.145,3.241c54.321,0,98.515-44.194,98.515-98.516c0-7.536-0.854-15.044-2.537-22.317l-4.104-17.733
			l17.778,3.908c27.247,5.991,52.003,21.27,69.705,43.024c17.964,22.075,27.857,49.934,27.857,78.445
			C371.716,318.182,315.92,373.978,247.337,373.978z"/>
		<path style="fill:#1D1D1D;" d="M271.684,139.361c50.637,11.133,88.532,56.256,88.532,110.238
			c0,62.341-50.537,112.878-112.878,112.878c-55.14,0-101.038-39.539-110.907-91.81c8.962,2.358,18.369,3.62,28.071,3.62
			c60.76,0,110.015-49.255,110.015-110.015C274.517,155.704,273.536,147.365,271.684,139.361 M241.066,109.08l8.21,35.468
			c1.487,6.423,2.241,13.059,2.241,19.724c0,47.98-39.035,87.015-87.015,87.015c-7.525,0-15-0.963-22.218-2.862l-35.208-9.265
			l6.755,35.775c12.094,64.053,68.242,110.543,133.508,110.543c36.294,0,70.417-14.134,96.081-39.798
			c25.664-25.664,39.798-59.786,39.798-96.081c0-31.147-10.81-61.584-30.438-85.704c-19.335-23.76-46.381-40.451-76.156-46.997
			L241.066,109.08L241.066,109.08z"/>
	</g>
	<g>
		<path style="fill:#BDBDBD;" d="M164.501,285.787c-67.004,0-121.515-54.512-121.515-121.516
			c0-67.003,54.511-121.515,121.515-121.515s121.515,54.511,121.515,121.515C286.017,231.275,231.505,285.787,164.501,285.787z
			 M164.501,93.125c-39.23,0-71.146,31.916-71.146,71.146c0,39.23,31.916,71.146,71.146,71.146s71.146-31.916,71.146-71.146
			C235.648,125.042,203.732,93.125,164.501,93.125z"/>
		<path style="fill:#1D1D1D;" d="M164.502,54.257c60.76,0,110.015,49.255,110.015,110.015s-49.255,110.015-110.015,110.015
			c-60.76,0-110.015-49.255-110.015-110.015S103.742,54.257,164.502,54.257 M164.502,246.918c45.644,0,82.646-37.002,82.646-82.646
			c0-45.644-37.002-82.646-82.646-82.646c-45.644,0-82.646,37.002-82.646,82.646C81.855,209.916,118.857,246.918,164.502,246.918
			 M164.502,31.257c-35.53,0-68.933,13.836-94.056,38.959c-25.123,25.123-38.959,58.526-38.959,94.056s13.836,68.933,38.959,94.056
			c25.123,25.123,58.526,38.959,94.056,38.959s68.933-13.836,94.056-38.959c25.123-25.123,38.959-58.526,38.959-94.056
			s-13.836-68.933-38.959-94.056C233.434,45.093,200.031,31.257,164.502,31.257L164.502,31.257z M164.502,223.918
			c-32.889,0-59.646-26.757-59.646-59.646s26.757-59.646,59.646-59.646c32.889,0,59.646,26.757,59.646,59.646
			S197.391,223.918,164.502,223.918L164.502,223.918z"/>
	</g>
</g>
<g id="Layer_1">
</g>
</svg>
