<?xml version="1.0" encoding="utf-8"?>
<!-- Generator: Adobe Illustrator 27.6.1, SVG Export Plug-In . SVG Version: 6.00 Build 0)  -->
<svg version="1.1" id="Curves" xmlns="http://www.w3.org/2000/svg" xmlns:xlink="http://www.w3.org/1999/xlink" x="0px" y="0px"
	 viewBox="0 0 512 512" style="enable-background:new 0 0 512 512;" xml:space="preserve">
<style type="text/css">
	.st0{fill:url(#SVGID_1_);stroke:#1D1D1D;stroke-width:21;stroke-miterlimit:10;}
	.st1{display:none;fill-rule:evenodd;clip-rule:evenodd;fill:url(#SVGID_00000154402784222247333780000006692127365771878554_);}
</style>
<g id="curves">
	<linearGradient id="SVGID_1_" gradientUnits="userSpaceOnUse" x1="75.9949" y1="20.229" x2="449.6592" y2="449.6012">
		<stop  offset="0" style="stop-color:#FFFFFF"/>
		<stop  offset="0.1198" style="stop-color:#D8D8D8"/>
		<stop  offset="0.2183" style="stop-color:#BDBDBD"/>
	</linearGradient>
	<path class="st0" d="M124.46,43.56c-11.04,32.28-17.47,79.77,8.52,106.3c1.29,1.11,2.42,2.29,3.71,3.38
		c1.4,1.01,2.61,2.11,4.01,3.07c0,0,2.86,1.87,2.86,1.87c0.33,0.21,0.76,0.52,1.04,0.69c6.29,3.07,13.35,3.2,20.46,2.94
		c22.54-1.36,47.42-8.48,71.65-12.02c38.78-6.62,82.76-4.83,118.95,15.23c51.91,27.89,74.76,75.96,74.04,133.67
		c-0.04,7.62-0.52,16.16-1.28,23.74c-4.17,42.08-16.24,83.62-27.33,122.29c-9.13,31.69-42.25,49.97-73.93,40.8
		c-31.65-9.16-49.88-42.25-40.72-73.9c0.81-2.8,1.96-5.8,3.12-8.38c10.46-22.69,20.42-44.83,28.35-66.07
		c5.76-15.6,10.2-29.35,12.95-44.91c1.82-10.76,2.72-22.65-0.38-33.12c-1.82-6.3-5.27-11.89-9.84-16.69
		c-46.49-47.77-125.8-9.25-183.62-30.02c-8.03-2.84-16.2-7.31-22.89-12.84c-3.34-2.99-7.6-6.83-10.54-10.23
		c-2.65-2.64-5.56-6.72-7.87-9.63c-30.41-42.5-20.71-99.39,1.14-143.33c0.62-1.22,1.9-3.7,2.56-4.91
		C108.4,16.11,130.83,27.06,124.46,43.56L124.46,43.56z"/>
	
		<linearGradient id="SVGID_00000026875143990526523280000012887396458281812378_" gradientUnits="userSpaceOnUse" x1="94.3214" y1="4.2802" x2="467.9856" y2="433.6525">
		<stop  offset="0" style="stop-color:#FFFFFF"/>
		<stop  offset="0.1198" style="stop-color:#D8D8D8"/>
		<stop  offset="0.2183" style="stop-color:#BDBDBD"/>
	</linearGradient>
	
		<path style="display:none;fill-rule:evenodd;clip-rule:evenodd;fill:url(#SVGID_00000026875143990526523280000012887396458281812378_);" d="
		M133.43,37.63c0,0-44.15,91.45,16.82,137.17c44.32,33.24,137.17-27.85,208.64,27.33c57,44,34.14,119.33,0.53,209.69"/>
</g>
</svg>
