<?xml version="1.0" encoding="iso-8859-1"?>
<!-- Generator: Adobe Illustrator 27.6.1, SVG Export Plug-In . SVG Version: 6.00 Build 0)  -->
<svg version="1.1" xmlns="http://www.w3.org/2000/svg" xmlns:xlink="http://www.w3.org/1999/xlink" x="0px" y="0px"
	 viewBox="0 0 512 512" style="enable-background:new 0 0 512 512;" xml:space="preserve">
<g id="Misc">
	<rect style="fill:none;" width="512" height="512"/>
	<g id="BG">
		<polygon style="fill:#BDBDBD;" points="60.424,356.039 60.424,159.52 258.561,55.838 456.697,159.52 456.697,356.039 
			258.561,464.064 		"/>
		<path style="fill:#1D1D1D;" d="M258.561,67.124l188.136,98.449v184.528L258.561,452.675L70.424,350.102V165.574L258.561,67.124
			 M258.561,44.552l-9.273,4.852L61.151,147.853l-10.727,5.613v12.107v184.528v11.875l10.426,5.684l188.136,102.573l9.574,5.22
			l9.574-5.22L456.27,367.662l10.426-5.684v-11.875V165.574v-12.107l-10.727-5.613L267.833,49.404L258.561,44.552L258.561,44.552z"
			/>
	</g>
	<polyline id="BG_00000112618194978851537860000013899586443022907824_" style="fill:#474747;" points="258.561,259.9 
		70.424,165.574 258.561,67.124 	"/>
	<polyline id="BG_00000166673666356779368520000010045449940722856332_" style="fill:#5B5B5B;" points="258.561,259.9 
		258.561,67.124 446.697,165.574 	"/>
	
		<line style="fill:none;stroke:#1D1D1D;stroke-width:21;stroke-miterlimit:10;" x1="258.561" y1="253.686" x2="258.561" y2="454.737"/>
	
		<line style="fill:none;stroke:#2B2B2B;stroke-width:21;stroke-linecap:round;stroke-linejoin:round;stroke-miterlimit:10;" x1="258.561" y1="73.825" x2="258.561" y2="259.398"/>
	<polyline style="fill:none;stroke:#1D1D1D;stroke-width:21;stroke-miterlimit:10;" points="458.036,158.873 258.561,259.9 
		64.529,162.424 	"/>
	<polyline style="fill:none;stroke:#1D1D1D;stroke-width:21;stroke-miterlimit:10;" points="450.305,157.584 258.561,57.263 
		64.239,159.131 	"/>
	
		<line style="fill:none;stroke:#1D1D1D;stroke-width:21;stroke-linecap:round;stroke-miterlimit:10;" x1="112.691" y1="267.631" x2="202.377" y2="317.114"/>
</g>
<g id="Layer_1">
</g>
</svg>
