<?xml version="1.0" encoding="iso-8859-1"?>
<!-- Generator: Adobe Illustrator 27.6.1, SVG Export Plug-In . SVG Version: 6.00 Build 0)  -->
<svg version="1.1" xmlns="http://www.w3.org/2000/svg" xmlns:xlink="http://www.w3.org/1999/xlink" x="0px" y="0px"
	 viewBox="0 0 512 509.861" style="enable-background:new 0 0 512 509.861;" xml:space="preserve">
<g id="Help">
	<g style="opacity:0.5;">
		<path style="fill:#BDBDBD;" d="M222.72,434.347V369.92h58.453v64.427H222.72z M222.933,349.013v-8.533
			c0-22.613,2.773-41.387,8.533-55.68c5.76-14.72,17.92-30.507,37.12-48.853l18.987-17.92c5.12-4.693,9.387-9.6,12.373-14.507
			c5.547-8.747,8.32-17.28,8.32-26.24c0-13.013-3.84-23.893-11.733-33.28c-7.467-8.96-20.693-13.44-39.253-13.44
			c-23.253,0-38.613,7.68-47.147,23.893c-5.12,9.387-7.893,23.253-8.747,41.813l-0.427,8.107h-58.027v-8.533
			c0-34.987,10.453-63.573,30.933-85.12c20.693-21.76,49.28-32.64,84.693-32.64c32.853,0,59.733,9.387,79.787,27.947
			c20.267,18.773,30.507,42.88,30.507,71.893c0,17.707-3.84,32.64-11.52,43.947c-7.253,10.667-21.12,25.6-42.667,45.653
			c-14.293,13.44-23.68,24.533-27.733,33.28c-4.053,8.533-5.973,21.973-5.973,39.893v8.533h-58.027V349.013z"/>
		<path style="fill:#1D1D1D;" d="M258.773,86.187c30.72,0,55.467,8.533,74.027,25.6c18.56,17.067,27.733,39.04,27.733,65.493
			c0,16.213-3.413,29.227-10.027,39.253c-6.827,10.027-20.48,24.747-41.387,44.373c-15.147,14.08-24.96,26.027-29.653,35.84
			c-4.48,9.813-6.827,24.32-6.827,43.52h-41.173c0-21.76,2.56-39.253,7.893-52.693c5.333-13.227,16.853-28.587,34.987-45.653
			L293.333,224c5.76-5.12,10.24-10.667,13.867-16.213c6.4-9.813,9.6-20.053,9.6-30.72c0-14.933-4.693-27.733-13.867-38.827
			c-9.173-10.88-24.533-16.427-45.867-16.427c-26.24,0-44.587,9.387-54.613,28.373c-5.76,10.453-8.96,25.6-9.6,45.44h-41.387
			c0-32.853,9.6-59.307,28.587-79.36C199.253,96.213,225.28,86.187,258.773,86.187 M272.64,378.24v47.36h-41.387v-47.36H272.64
			 M258.773,69.12c-37.973,0-68.693,11.947-90.88,35.2S134.4,158.293,134.4,195.627v17.067h17.067h41.173h16.427l0.64-16.427
			c0.853-21.333,4.693-32.427,7.68-37.973c4.48-8.32,13.44-19.413,39.68-19.413c16,0,26.88,3.413,32.64,10.453
			c6.613,7.893,9.813,16.853,9.813,27.733c0,7.253-2.347,14.293-6.827,21.547v0.213v0.213c-2.773,4.267-6.4,8.533-10.88,12.587
			l-0.213,0.213l-0.213,0.213l-18.987,17.92c-20.053,18.987-32.853,36.053-39.253,51.84c-6.187,15.573-9.173,34.773-9.173,58.88
			v17.067h17.067h41.173h17.067v-17.067c0-20.693,2.773-31.147,5.333-36.267c2.56-5.333,8.96-14.933,25.813-30.72
			c21.973-20.48,36.267-36.053,43.947-47.147c8.533-12.8,13.013-29.227,13.013-48.64c0-31.36-11.307-57.813-33.28-78.08
			C322.56,79.36,293.76,69.12,258.773,69.12L258.773,69.12z M289.707,361.173H272.64h-41.387h-17.067v17.067v47.36v17.067h17.067
			h41.387h17.067V425.6v-47.36V361.173L289.707,361.173z"/>
	</g>
	<g style="opacity:0.5;">
		<g>
			
				<rect x="65.047" y="38.31" transform="matrix(0.7071 -0.7071 0.7071 0.7071 -35.603 85.5999)" style="fill:#BDBDBD;" width="40.96" height="94.932"/>
			<path style="fill:#1D1D1D;" d="M66.56,49.707l55.04,55.04l-17.067,17.067l-54.827-55.04L66.56,49.707 M66.56,25.6L25.6,66.773
				l79.147,79.147l41.173-41.173L66.56,25.6L66.56,25.6z"/>
		</g>
		<g>
			
				<rect x="38.175" y="405.829" transform="matrix(0.7071 -0.7071 0.7071 0.7071 -276.3622 185.4205)" style="fill:#BDBDBD;" width="94.932" height="40.96"/>
			<path style="fill:#1D1D1D;" d="M104.747,390.187l17.067,17.067l-55.04,55.04l-17.067-17.067L104.747,390.187 M104.747,366.08
				L25.6,445.227L66.773,486.4l79.147-79.147L104.747,366.08L104.747,366.08z"/>
		</g>
		<g>
			
				<rect x="378.852" y="65.227" transform="matrix(0.7071 -0.7071 0.7071 0.7071 64.2619 326.5552)" style="fill:#BDBDBD;" width="94.932" height="40.96"/>
			<path style="fill:#1D1D1D;" d="M445.227,49.707l17.067,17.067l-55.04,55.04l-17.067-17.067L445.227,49.707 M445.227,25.6
				l-79.147,79.147l41.173,41.173L486.4,66.773L445.227,25.6L445.227,25.6z"/>
		</g>
		<g>
			
				<rect x="405.801" y="378.88" transform="matrix(0.7071 -0.7071 0.7071 0.7071 -176.6172 426.3002)" style="fill:#BDBDBD;" width="40.96" height="94.932"/>
			<path style="fill:#1D1D1D;" d="M407.253,390.187l55.04,55.04l-17.067,17.067l-55.04-55.04L407.253,390.187 M407.253,366.08
				l-41.173,41.173l79.147,79.147l41.173-41.173L407.253,366.08L407.253,366.08z"/>
		</g>
	</g>
	<rect y="0" style="fill:none;" width="512" height="512"/>
	<rect y="0" style="fill:none;" width="512" height="512"/>
</g>
<g id="Layer_1">
</g>
</svg>
