<?xml version="1.0" encoding="iso-8859-1"?>
<!-- Generator: Adobe Illustrator 27.6.1, SVG Export Plug-In . SVG Version: 6.00 Build 0)  -->
<svg version="1.1" xmlns="http://www.w3.org/2000/svg" xmlns:xlink="http://www.w3.org/1999/xlink" x="0px" y="0px"
	 viewBox="0 0 444.471 492.668" style="enable-background:new 0 0 444.471 492.668;" xml:space="preserve">
<g id="selection_x5F_manager">
	<g>
		<polygon style="fill:#6BBE66;" points="279.856,222.284 279.856,104.904 116.237,104.904 116.237,71.794 312.977,71.794 
			312.977,222.284 		"/>
		<path style="fill:#1D1D1D;" d="M304.477,80.294v133.49h-16.12V96.404h-163.62v-16.11H304.477 M321.477,63.294h-17h-179.74h-17v17
			v16.11v17h17h146.62v100.38v17h17h16.12h17v-17V80.294V63.294L321.477,63.294z"/>
	</g>
	<g>
		<rect x="71.566" y="121.493" style="fill:#828282;" width="33.817" height="164.854"/>
		<path style="fill:#1D1D1D;" d="M96.883,129.993v147.854H80.066V129.993H96.883 M113.883,112.993h-17H80.066h-17v17v147.854v17h17
			h16.818h17v-17V129.993V112.993L113.883,112.993z"/>
	</g>
	<g>
		<rect x="215.565" y="168.267" style="fill:#6BBE66;" width="160.037" height="160.036"/>
		<path style="fill:#1D1D1D;" d="M367.102,176.766v143.037H224.066V176.766H367.102 M384.102,159.766h-17H224.066h-17v17v143.037v17
			h17h143.037h17v-17V176.766V159.766L384.102,159.766z"/>
	</g>
	<g>
		<rect x="8.5" y="8.5" style="fill:#BDBDBD;" width="160.037" height="160.037"/>
		<path style="fill:#1D1D1D;" d="M160.037,17v143.036H17V17H160.037 M177.037,0h-17H17H0v17v143.036v17h17h143.036h17v-17V17V0
			L177.037,0z"/>
	</g>
	<g>
		<rect x="8.5" y="232.354" style="fill:#BDBDBD;" width="160.037" height="160.037"/>
		<g>
			<path style="fill:#1D1D1D;" d="M160.037,240.854v143.036H17V240.854H160.037 M177.037,223.854h-17H17H0v17v143.036v17h17h143.036
				h17v-17V240.854V223.854L177.037,223.854z"/>
		</g>
	</g>
	<polygon style="fill:#828282;stroke:#1D1D1D;stroke-width:17;stroke-miterlimit:10;" points="425.348,383.567 285.276,240.854 
		285.282,440.821 326.009,405.452 357.131,481.584 402.627,462.985 371.507,386.854 	"/>
</g>
<g id="Layer_1">
</g>
</svg>
