<?xml version="1.0" encoding="iso-8859-1"?>
<!-- Generator: Adobe Illustrator 27.7.0, SVG Export Plug-In . SVG Version: 6.00 Build 0)  -->
<svg version="1.1" xmlns="http://www.w3.org/2000/svg" xmlns:xlink="http://www.w3.org/1999/xlink" x="0px" y="0px"
	 viewBox="0 0 512 512" style="enable-background:new 0 0 512 512;" xml:space="preserve">
<g id="tool_x5F_color_x5F_manager_x5F_roller">
	<g>
		<path style="fill:#1D1D1D;" d="M404.572,55.562c8.205,0,14.857,6.651,14.857,14.857v37.143H139.295
			c-1.401-4.707-2.153-9.695-2.153-14.857V55.562h-14.857c-8.205,0-14.857,6.651-14.857,14.857c0-8.206,6.651-14.857,14.857-14.857
			H404.572 M374.856,94.562h14.857c5.129,0,9.287-4.157,9.287-9.286c0-5.129-4.158-9.286-9.287-9.286h-14.857
			c-5.128,0-9.286,4.157-9.286,9.286C365.57,90.404,369.728,94.562,374.856,94.562 M270.856,94.562h74.286
			c5.129,0,9.287-4.157,9.287-9.286c0-5.129-4.158-9.286-9.287-9.286h-74.286c-5.129,0-9.286,4.157-9.286,9.286
			C261.57,90.404,265.727,94.562,270.856,94.562 M107.428,70.419v37.143V70.419 M434.286,107.562c4.102,0,7.429,3.327,7.429,7.429
			c0,4.103-3.327,7.429-7.429,7.429h-14.857v-14.857H434.286 M139.295,107.562c1.597,5.367,4.037,10.37,7.167,14.857h-39.035
			v-14.857H139.295 M107.428,107.562v14.857h-7.429c-8.205,0-14.857,6.651-14.857,14.857v59.429c0,8.206,6.652,14.857,14.857,14.857
			h141.143c16.411,0,29.714,13.304,29.714,29.714v37.143h-14.857v-37.142c0-8.205-6.651-14.857-14.857-14.857H99.999
			c-16.411,0-29.714-13.303-29.714-29.714v-59.429c0-16.411,13.303-29.715,29.714-29.715H107.428 M419.429,122.419v37.143v-14.857
			H189.142c-17.67,0-33.283-8.814-42.679-22.285H419.429 M107.428,122.419v37.143V122.419 M419.429,159.562
			c0,8.205-6.653,14.857-14.857,14.857H122.285c-0.224,0-0.448-0.005-0.669-0.015c0.222,0.01,0.445,0.015,0.669,0.015h282.285
			C412.777,174.419,419.429,167.767,419.429,159.562 M107.428,159.562c0,7.98,6.293,14.492,14.188,14.843
			C113.721,174.054,107.428,167.544,107.428,159.562 M296.857,278.418c4.103,0,7.429,3.327,7.429,7.429v7.429
			c0,4.103-3.327,7.429-7.429,7.429h-3.715v-14.857h-44.571v-0.001c0-4.102,3.327-7.429,7.429-7.429h-26
			c-4.102,0-7.429,3.327-7.429,7.429c0-4.102,3.327-7.429,7.429-7.429h26v7.429h14.857h-0.001v-7.429H296.857 M222.571,285.847
			v7.429c0,4.103,3.327,7.429,7.429,7.429h3.714h-3.714c-4.102,0-7.429-3.326-7.429-7.429V285.847 M293.142,285.848v14.857h-37.143
			c-4.102,0-7.429-3.325-7.429-7.429v-7.428H293.142 M248.571,285.848h-14.857H248.571 M233.713,285.848v14.857V285.848
			 M293.142,300.704v156.001c0,8.205-6.653,14.857-14.857,14.857h-7.428c-8.205-0.001-14.857-6.653-14.857-14.859V322.99
			c0-4.102,3.327-7.429,7.429-7.429h29.714V300.704 M255.999,300.704h-22.286H255.999 M233.713,300.704v156.001
			c0,8.205,6.652,14.857,14.857,14.857h22.286h-22.286c-8.206,0-14.857-6.652-14.857-14.857V300.704 M404.572,37.562h-267.43
			h-14.857c-17.294,0-31.698,13.513-32.791,30.765c-0.001,0.021-0.003,0.042-0.004,0.063c-0.04,0.651-0.061,1.311-0.062,1.964
			c0,0.022,0,0.044,0,0.066v20.323c-21.239,4.823-37.143,23.857-37.143,46.534v59.429c0,26.309,21.405,47.714,47.714,47.714h138
			v15.999h-8c-14.002,0-25.397,11.376-25.429,25.37c0,0.019,0,0.039,0,0.058v7.429c0,8.729,4.422,16.445,11.143,21.027v142.403
			c0,18.117,14.74,32.857,32.857,32.857h22.285h7.429c18.117,0,32.857-14.74,32.857-32.857V314.303
			c6.722-4.581,11.144-12.297,11.144-21.027v-7.429c0-14.021-11.407-25.429-25.429-25.429h-8.001v-19.143
			c0-26.309-21.405-47.714-47.714-47.714h-138v-7.263c5.004,3.582,11.072,5.795,17.677,6.088c0.021,0.001,0.042,0.002,0.063,0.003
			c0.466,0.02,0.933,0.029,1.404,0.029h282.285c0.019,0,0.04,0,0.059,0c18.071-0.032,32.767-14.729,32.799-32.799
			c0-0.019,0-0.039,0-0.058v-19.336c12.544-1.553,22.285-12.278,22.285-25.235s-9.741-23.683-22.285-25.235V70.419
			C437.429,52.302,422.689,37.562,404.572,37.562L404.572,37.562z M107.428,88.419h0.005H107.428L107.428,88.419z M107.428,88.419
			h0.005H107.428L107.428,88.419z M125.428,140.419h12.497c6.332,6.789,13.908,12.207,22.246,16h-34.743V140.419L125.428,140.419z"
			/>
	</g>
	<path style="fill:#BDBDBD;" d="M270.857,285.848H256v-44.571c0-8.205-6.651-14.857-14.857-14.857H100
		c-16.411,0-29.714-13.304-29.714-29.714v-59.429c0-16.411,13.303-29.715,29.714-29.715h334.286c4.102,0,7.429,3.326,7.429,7.429
		l0,0c0,4.102-3.326,7.429-7.429,7.429H100c-8.205,0-14.857,6.651-14.857,14.857v59.429c0,8.205,6.652,14.857,14.857,14.857h141.143
		c16.411,0,29.714,13.304,29.714,29.714L270.857,285.848L270.857,285.848z"/>
	<path style="fill:#6BBE66;" d="M233.714,285.848v170.857c0,8.205,6.652,14.857,14.857,14.857h29.714
		c8.205,0,14.857-6.652,14.857-14.857V285.848H233.714z"/>
	<path style="fill:#508F4D;" d="M293.142,315.562v-29.714h-59.429v170.857c0,8.205,6.651,14.857,14.857,14.857h22.286
		C262.652,471.562,256,464.91,256,456.705V322.991c0-4.102,3.326-7.429,7.429-7.429H293.142z"/>
	<path style="fill:#6BBE66;" d="M296.857,300.705H230c-4.102,0-7.429-3.326-7.429-7.429v-7.429c0-4.102,3.326-7.429,7.429-7.429
		h66.857c4.102,0,7.429,3.326,7.429,7.429v7.429C304.286,297.379,300.959,300.705,296.857,300.705z"/>
	<path style="fill:#508F4D;" d="M248.571,293.276v-7.429c0-4.102,3.326-7.429,7.429-7.429h-26c-4.102,0-7.429,3.326-7.429,7.429
		v7.429c0,4.102,3.326,7.429,7.429,7.429h26C251.897,300.705,248.571,297.379,248.571,293.276z"/>
	<path style="fill:#6BBE66;" d="M404.571,174.419H122.286c-8.205,0-14.857-6.651-14.857-14.857V70.419
		c0-8.206,6.651-14.857,14.857-14.857h282.286c8.205,0,14.857,6.651,14.857,14.857v89.143
		C419.428,167.767,412.777,174.419,404.571,174.419z"/>
	<g>
		<path style="fill:#AAE6A5;" d="M389.714,94.562h-14.857c-5.129,0-9.286-4.158-9.286-9.286s4.158-9.286,9.286-9.286h14.857
			c5.129,0,9.286,4.158,9.286,9.286S394.842,94.562,389.714,94.562z"/>
		<path style="fill:#AAE6A5;" d="M345.142,94.562h-74.286c-5.129,0-9.286-4.158-9.286-9.286s4.158-9.286,9.286-9.286h74.286
			c5.129,0,9.286,4.158,9.286,9.286S350.271,94.562,345.142,94.562z"/>
	</g>
	<path style="fill:#8ADC83;" d="M137.142,92.705V55.562h-14.857c-8.205,0-14.857,6.651-14.857,14.857v89.143
		c0,8.205,6.652,14.857,14.857,14.857h282.286c8.205,0,14.857-6.652,14.857-14.857v-14.857H189.142
		C160.424,144.705,137.142,121.424,137.142,92.705z"/>
</g>
<g id="Layer_1">
</g>
</svg>
