<?xml version="1.0" encoding="iso-8859-1"?>
<!-- Generator: Adobe Illustrator 27.6.1, SVG Export Plug-In . SVG Version: 6.00 Build 0)  -->
<svg version="1.1" xmlns="http://www.w3.org/2000/svg" xmlns:xlink="http://www.w3.org/1999/xlink" x="0px" y="0px"
	 viewBox="0 0 428.38 401.92" style="enable-background:new 0 0 428.38 401.92;" xml:space="preserve">
<g id="renamer">
	<g>
		<g>
			<path style="fill:#BDBDBD;" d="M10,391.92V10h408.38v381.92H10z M370,343.54V58.2H58.38v285.34H370z"/>
			<path style="fill:#1D1D1D;" d="M408.38,20v361.92H20V20H408.38 M48.38,353.54H380V48.2H48.38V353.54 M428.38,0h-20H20H0v20
				v361.92v20h20h388.38h20v-20V20V0L428.38,0z M68.38,68.2H360v265.34H68.38V68.2L68.38,68.2z"/>
		</g>
	</g>
	<g>
		<g>
			<rect x="190.552" y="86.399" style="fill:#BDBDBD;" width="47.183" height="228.417"/>
			<path style="fill:#1D1D1D;" d="M227.234,96.899v207.416h-26.182V96.899H227.234 M248.234,75.899h-21h-26.182h-21v21v207.416v21
				h21h26.182h21v-21V96.899V75.899L248.234,75.899z"/>
		</g>
		<g>
			<rect x="138.745" y="61.574" style="fill:#BDBDBD;" width="72.854" height="46.577"/>
			<path style="fill:#1D1D1D;" d="M201.099,72.074v25.577h-51.854V72.074H201.099 M222.099,51.074h-21h-51.854h-21v21v25.577v21h21
				h51.854h21v-21V72.074V51.074L222.099,51.074z"/>
		</g>
		<g>
			<rect x="216.781" y="61.574" style="fill:#BDBDBD;" width="72.854" height="46.577"/>
			<path style="fill:#1D1D1D;" d="M279.135,72.074v25.577h-51.854V72.074H279.135 M300.135,51.074h-21h-51.854h-21v21v25.577v21h21
				h51.854h21v-21V72.074V51.074L300.135,51.074z"/>
		</g>
		<g>
			<rect x="138.698" y="293.815" style="fill:#BDBDBD;" width="72.854" height="46.576"/>
			<path style="fill:#1D1D1D;" d="M201.052,304.315v25.577h-51.854v-25.577H201.052 M222.052,283.315h-21h-51.854h-21v21v25.577v21
				h21h51.854h21v-21v-25.577V283.315L222.052,283.315z"/>
		</g>
		<g>
			<rect x="216.734" y="293.815" style="fill:#BDBDBD;" width="72.854" height="46.576"/>
			<path style="fill:#1D1D1D;" d="M279.088,304.315v25.577h-51.854v-25.577H279.088 M300.088,283.315h-21h-51.854h-21v21v25.577v21
				h21h51.854h21v-21v-25.577V283.315L300.088,283.315z"/>
		</g>
	</g>
	<g>
		<g>
			<rect x="201.028" y="96.968" style="fill:#6BBE66;" width="26.182" height="207.416"/>
		</g>
		<g>
			<rect x="149.221" y="72.143" style="fill:#6BBE66;" width="51.854" height="25.577"/>
		</g>
		<g>
			<rect x="227.258" y="72.143" style="fill:#6BBE66;" width="51.854" height="25.577"/>
		</g>
		<g>
			<rect x="149.174" y="304.384" style="fill:#6BBE66;" width="51.854" height="25.577"/>
		</g>
		<g>
			<rect x="227.211" y="304.384" style="fill:#6BBE66;" width="51.854" height="25.577"/>
		</g>
	</g>
</g>
<g id="Layer_1">
</g>
</svg>
