<?xml version="1.0" encoding="iso-8859-1"?>
<!-- Generator: Adobe Illustrator 27.6.1, SVG Export Plug-In . SVG Version: 6.00 Build 0)  -->
<svg version="1.1" xmlns="http://www.w3.org/2000/svg" xmlns:xlink="http://www.w3.org/1999/xlink" x="0px" y="0px"
	 viewBox="0 0 452.743 367.437" style="enable-background:new 0 0 452.743 367.437;" xml:space="preserve">
<g id="fSpy">
	<g>
		<path style="fill:#5B5B5B;stroke:#1D1D1D;stroke-width:20;stroke-linejoin:round;stroke-miterlimit:10;" d="M361.552,87.076
			c0.041-0.031,0.072-0.052,0.103-0.072c-0.021,0.031-0.041,0.062-0.062,0.103c-0.031,0.01-0.052,0.021-0.083,0.031
			C361.531,87.117,361.542,87.097,361.552,87.076z"/>
		<path style="fill:#5B5B5B;stroke:#1D1D1D;stroke-width:20;stroke-linejoin:round;stroke-miterlimit:10;" d="M376.068,75.714
			c-0.134,0.186-0.207,0.279-0.269,0.372l-0.103-0.103C375.789,75.92,375.882,75.858,376.068,75.714z"/>
		<path style="fill:#5B5B5B;stroke:#1D1D1D;stroke-width:20;stroke-linejoin:round;stroke-miterlimit:10;" d="M442.608,10.93
			c-72.351,37.044-143.917,75.96-215.265,114.896c-0.341,0-0.682,0-1.024-0.01c-16.625-11.735-36.961-20.037-54.92-29.631
			c-17.959-9.594-35.917-19.189-53.886-28.783C81.679,48.264,45.855,29.106,10,10c34.191,58.983,72.279,116.012,108.413,173.827
			c16.191,29.724,36.072,57.949,54,86.66c18.031,28.876,34.852,59.128,54.455,86.95c18.734-27.905,35.793-57.102,53.597-85.626
			c18.351-29.383,37.241-58.508,54.755-88.397c0.527-0.631,1.127-1.21,1.561-1.902c32.257-51.653,64.525-103.306,96.751-154.99
			c3.174-5.087,6.141-10.298,9.212-15.457L442.608,10.93z M143.578,170.087c-12.324-19.809-24.658-39.618-36.972-59.438
			c-4.849-7.816-9.625-15.674-14.423-23.511c-0.031,0-0.062-0.01-0.093-0.021c-0.021-0.052-0.041-0.103-0.052-0.145
			c0.031,0.01,0.062,0.052,0.103,0.103c0.01,0.021,0.021,0.041,0.041,0.062c0.837,0.227,1.737,0.31,2.481,0.713
			c33.115,17.648,66.22,35.328,99.315,53.018c0.713,0.383,1.313,0.962,1.975,1.447c-17.069,9.129-34.139,18.248-51.219,27.367
			C144.384,169.88,143.971,169.963,143.578,170.087z M226.847,303.292c-22.673-36.331-45.119-72.279-67.781-108.599
			c22.611-12.086,45.057-24.079,67.813-36.238c22.611,12.086,45.077,24.09,67.771,36.207
			C272.038,230.9,249.582,266.869,226.847,303.292z M361.666,86.993c-0.01,0.01-0.01,0.01-0.01,0.01
			c-0.021,0.031-0.041,0.062-0.062,0.103c-0.031,0.01-0.052,0.021-0.083,0.031c-8.602,13.968-17.193,27.946-25.868,41.883
			c-8.354,13.409-18.527,26.829-25.382,41.056h-0.01c-7.506-3.918-15.033-7.806-22.518-11.766
			c-9.967-5.273-19.902-10.597-29.848-15.911c17.121-10.049,34.811-19.117,52.335-28.453c16.687-8.902,33.601-20.171,51.291-26.809
			c0.021-0.021,0.031-0.041,0.041-0.062c0.041-0.031,0.072-0.052,0.103-0.072c0.01-0.031,0.021-0.041,0.021-0.041
			S361.676,86.973,361.666,86.993z M375.799,76.086l-0.103-0.103c0.093-0.062,0.186-0.124,0.372-0.269
			C375.933,75.9,375.861,75.993,375.799,76.086z"/>
		<path style="fill:#727272;stroke:#1D1D1D;stroke-width:20;stroke-linejoin:round;stroke-miterlimit:10;" d="M92.184,87.138
			c-0.031,0-0.062-0.01-0.093-0.021c-0.021-0.052-0.041-0.103-0.052-0.145c0.031,0.01,0.062,0.052,0.103,0.103
			C92.153,87.097,92.163,87.117,92.184,87.138z"/>
		<path style="fill:#5CD262;stroke:#1D1D1D;stroke-width:20;stroke-linejoin:round;stroke-miterlimit:10;" d="M376.068,75.714
			c-0.134,0.186-0.207,0.279-0.269,0.372l-0.103-0.103C375.789,75.92,375.882,75.858,376.068,75.714z"/>
	</g>
	<g>
		<path style="fill:#C3C3C3;" d="M335.276,183.311c-17.523,29.885-36.413,59.011-54.762,88.397
			c-17.806,28.517-34.857,57.715-53.599,85.624c-19.603-27.819-36.422-58.075-54.452-86.946
			c-17.931-28.711-37.807-56.946-53.995-86.664c8.388-4.579,16.775-9.158,25.163-13.737c0.388-0.132,0.804-0.214,1.161-0.405
			c17.075-9.116,34.145-18.241,51.215-27.366c10.121-5.5,20.241-11,30.362-16.5c0.341,0.001,0.682,0.002,1.024,0.003
			c10.181,5.526,20.36,11.051,30.541,16.577c9.951,5.308,19.886,10.641,29.853,15.914c7.485,3.961,15.011,7.846,22.518,11.765
			C318.631,174.419,326.953,178.865,335.276,183.311z M226.926,158.345c-22.753,12.16-45.196,24.153-67.812,36.24
			c22.671,36.32,45.111,72.271,67.79,108.605c22.733-36.423,45.182-72.392,67.799-108.63
			C272.012,182.435,249.545,170.431,226.926,158.345z"/>
		<path style="fill:#5B5B5B;" d="M257.934,142.293c-10.18-5.525-20.359-11.051-30.54-16.576
			C298.745,86.78,370.307,47.871,442.659,10.825l0.134,0.135c-3.065,5.155-6.037,10.369-9.21,15.457
			c-32.228,51.678-64.489,103.335-96.753,154.99c-0.43,0.688-1.032,1.269-1.554,1.902c-8.323-4.444-16.645-8.89-24.967-13.336
			c6.86-14.228,17.034-27.648,25.385-41.064c8.684-13.952,17.286-27.956,25.911-41.945c0.097-0.07,0.194-0.14,0.111-0.08
			c0.049-0.089-0.009,0.016-0.066,0.12c-17.727,6.636-34.659,17.925-51.373,26.832C292.753,123.176,275.061,132.245,257.934,142.293
			z"/>
		<path style="fill:#727272;" d="M226.37,125.714c-10.121,5.5-20.241,11-30.363,16.501c-0.657-0.487-1.262-1.069-1.975-1.45
			c-33.095-17.693-66.198-35.372-99.315-53.023c-0.771-0.411-1.715-0.494-2.579-0.731c-0.049-0.122-0.098-0.243-0.082-0.205
			c-0.028-0.033,0.055,0.064,0.138,0.161c4.821,7.859,9.608,15.74,14.47,23.573c12.305,19.826,24.643,39.631,36.968,59.444
			c-8.388,4.579-16.775,9.158-25.163,13.737C82.336,125.909,44.247,68.875,10.053,9.899C45.909,29,81.735,48.158,117.57,67.297
			c17.963,9.594,35.925,19.187,53.887,28.781C189.416,105.669,209.753,113.979,226.37,125.714z"/>
		<path style="fill:#5CD262;" d="M375.753,75.88c0.09-0.066,0.181-0.131,0.371-0.269c-0.143,0.186-0.21,0.275-0.277,0.364
			C375.849,75.976,375.753,75.88,375.753,75.88z"/>
	</g>
</g>
<g id="Layer_1">
</g>
</svg>
