<?xml version="1.0" encoding="iso-8859-1"?>
<!-- Generator: Adobe Illustrator 27.7.0, SVG Export Plug-In . SVG Version: 6.00 Build 0)  -->
<svg version="1.1" xmlns="http://www.w3.org/2000/svg" xmlns:xlink="http://www.w3.org/1999/xlink" x="0px" y="0px"
	 viewBox="0 0 512 512" style="enable-background:new 0 0 512 512;" xml:space="preserve">
<g id="tool_x5F_crv_x5F_library">
	<g>
		<path style="fill:#BCBCBC;" d="M47.161,454.864l-0.857-0.143c-7.186-1.198-14.92-6.873-14.92-16.504V115.063l0.092-0.691
			c1.011-7.583,7.022-15.258,16.554-15.258h154.164l49.172,53.27h174.502l0.539,0.056c7.462,0.772,15.202,6.585,15.559,16.202
			l0.008,0.214l-1.014,270.25l-0.14,0.838c-1.198,7.186-6.873,14.92-16.504,14.92H47.161z"/>
		<path style="fill:#1D1D1D;" d="M197.596,109.614l49.172,53.27h178.558c0,0,5.942,0.615,6.147,6.147l-1.011,269.187
			c0,0-1.024,6.146-6.147,6.146H48.03c0,0-6.147-1.024-6.147-6.146V115.761c0,0,0.82-6.147,6.147-6.147
			C48.645,109.614,197.596,109.614,197.596,109.614 M206.791,88.614h-9.195H48.03c-15.568,0-25.348,12.26-26.962,24.371
			l-0.184,1.382v1.394v322.457c0,15.042,11.92,24.898,23.694,26.861l1.714,0.286h1.738h376.286c15.042,0,24.898-11.92,26.861-23.694
			l0.279-1.675l0.006-1.698l1.01-269.187l0.002-0.428l-0.016-0.428c-0.578-15.602-13-25.019-24.971-26.258l-1.078-0.112h-1.083
			H255.963L213.027,95.37L206.791,88.614L206.791,88.614z"/>
	</g>
	<g style="display:none;">
		<path style="display:inline;fill:#42A5F5;" d="M236.729,434.191c2.514-0.474,4.926-1.487,6.877-2.971
			c0.83-0.528,22.028-15.311,42.264-37.164c29.339-31.751,41.462-62.114,36.359-90.157c-7.203-39.176-47.843-68.326-120.786-86.363
			l-0.18,0.034c-32.379-8.024-87.475-26.08-93.188-57.356c-6.255-34.148,44.576-78.134,62.993-90.904
			c8.199-5.823,10.33-17.195,4.507-25.394c-4.092-5.922-11.335-8.832-18.337-7.512c-2.514,0.474-4.926,1.487-7.057,3.004
			c-0.83,0.528-21.994,15.49-42.05,37.309c-29.126,31.897-41.249,62.26-35.966,90.269c7.203,39.176,47.63,68.18,120.179,86.105
			l0.18-0.034c56.18,13.947,89.571,34.238,93.76,57.434c6.221,33.969-44.969,78.022-63.419,90.613
			c-3.937,2.788-6.705,6.843-7.653,11.67c-0.949,4.827,0.145,9.641,2.967,13.758C222.304,432.635,229.547,435.546,236.729,434.191z"
			/>
		<path style="display:inline;fill:#1D1D1D;" d="M158.593,43.588c-1.436,0.271-2.985,0.935-4.319,1.744
			c-0.83,0.528-21.343,14.996-40.783,36.141c-27.422,30.088-39.019,58.306-34.177,83.982c6.627,36.123,45.178,63.064,114.797,80.241
			c0,0,0,0,0.18-0.034c41.922,10.315,92.99,29.689,99.143,63.298c7,38.098-45.569,83.713-66.476,98.069
			c-4.946,3.35-6.241,10.288-2.891,15.234c2.541,3.611,6.965,5.38,11.094,4.601c1.436-0.271,2.805-0.901,4.14-1.711
			c0.83-0.528,21.377-14.816,40.996-35.995c27.635-29.942,39.233-58.161,34.57-83.87c-6.627-36.123-45.425-63.39-115.437-80.678l0,0
			c-41.529-10.203-92.417-29.611-98.537-63.041c-7-38.098,45.176-83.825,65.869-98.327c4.912-3.53,6.241-10.288,2.711-15.2
			C167.113,44.398,162.722,42.809,158.593,43.588 M155.883,29.224L155.883,29.224c9.875-1.863,19.936,2.19,25.793,10.568
			c8.116,11.485,5.181,27.471-6.303,35.587c-26.974,18.661-64.498,58.278-59.903,83.628c3.725,19.75,35.555,38.662,87.626,51.525
			l0.213,0.146l0,0c75.873,18.786,118.355,49.82,126.134,92.048c5.544,30.378-7.284,62.919-38.148,96.445
			c-20.673,22.493-42.555,37.59-43.564,38.153c-2.961,2.046-6.237,3.408-9.828,4.085c-9.875,1.863-20.15-2.335-25.793-10.568
			c-3.845-5.597-5.311-12.386-4.162-19.11c1.149-6.724,5.082-12.487,10.645-16.511c27.153-18.695,64.925-57.986,60.329-83.336
			c-3.546-19.784-35.734-38.628-88.198-51.603c0,0-0.18,0.034-0.213-0.146c-75.48-18.674-117.749-49.562-125.528-91.79
			c-5.544-30.378,7.104-62.885,37.755-96.557c20.493-22.459,42.341-37.736,43.172-38.264
			C149.016,31.263,152.292,29.901,155.883,29.224L155.883,29.224z"/>
	</g>
	<g>
		<path style="fill:#42A5F5;" d="M197.752,382.037c-68.95,0-125.045-56.095-125.045-125.044c0-68.95,56.095-125.045,125.045-125.045
			c68.951,0,125.045,56.095,125.045,125.045C322.798,325.942,266.703,382.037,197.752,382.037z M197.752,164.514
			c-50.993,0-92.479,41.486-92.479,92.479s41.486,92.478,92.479,92.478c50.993,0,92.479-41.485,92.479-92.478
			S248.746,164.514,197.752,164.514z"/>
		<path style="fill:#1D1D1D;" d="M197.753,138.448c65.366,0,118.545,53.179,118.545,118.545
			c0,65.365-53.179,118.544-118.545,118.544S79.208,322.358,79.208,256.993C79.208,191.627,132.386,138.448,197.753,138.448
			 M197.753,355.97c54.577,0,98.979-44.401,98.979-98.978c0-54.577-44.401-98.979-98.979-98.979
			c-54.577,0-98.978,44.401-98.978,98.979C98.774,311.569,143.175,355.97,197.753,355.97 M197.753,125.448
			c-72.534,0-131.545,59.011-131.545,131.545c0,72.534,59.011,131.544,131.545,131.544s131.545-59.01,131.545-131.544
			C329.297,184.459,270.287,125.448,197.753,125.448L197.753,125.448z M197.753,342.97c-47.409,0-85.978-38.569-85.978-85.978
			c0-47.409,38.57-85.979,85.978-85.979s85.979,38.57,85.979,85.979C283.731,304.401,245.161,342.97,197.753,342.97L197.753,342.97z
			"/>
	</g>
	<g>
		<path style="fill:#42A5F5;stroke:#1D1D1D;stroke-width:23;stroke-linecap:round;stroke-miterlimit:10;" d="M436.919,163
			l-27.157,109.32L301.51,303.461l-81.095-78.178l27.157-109.32l108.252-31.141L436.919,163 M459.113,156.616l-8.313-8.014
			l-81.095-78.178l-8.313-8.014l-11.097,3.192L242.043,96.743l-11.097,3.192l-2.784,11.206l-27.157,109.32l-2.784,11.206
			l8.313,8.014l81.095,78.178l8.313,8.014l11.097-3.192l108.252-31.141l11.097-3.192l2.784-11.206l27.157-109.32L459.113,156.616
			L459.113,156.616z"/>
		<path style="fill:#42A5F5;" d="M436.919,163l-27.157,109.32L301.51,303.461l-81.095-78.178l27.157-109.32l108.252-31.141
			L436.919,163 M459.113,156.616l-8.313-8.014l-81.095-78.178l-8.313-8.014l-11.097,3.192L242.043,96.743l-11.097,3.192
			l-2.784,11.206l-27.157,109.32l-2.784,11.206l8.313,8.014l81.095,78.178l8.313,8.014l11.097-3.192l108.252-31.141l11.097-3.192
			l2.784-11.206l27.157-109.32L459.113,156.616L459.113,156.616z"/>
	</g>
	<g>
		<path style="fill:#BCBCBC;" d="M39.08,460.539c-2.973,0-5.754-1.468-7.431-3.923c-1.677-2.454-2.034-5.578-0.954-8.348
			l70.644-181.104c1.348-3.455,4.676-5.729,8.385-5.729h157.074l19.412-49.473c1.352-3.446,4.676-5.712,8.378-5.712h191.9
			c2.742,0,5.334,1.25,7.042,3.395c1.707,2.146,2.344,4.952,1.729,7.624l-54.403,236.291c-0.94,4.086-4.578,6.98-8.771,6.98H39.08z"
			/>
		<path style="fill:#1D1D1D;" d="M486.489,215.249l-54.404,236.29H39.08l70.643-181.105h163.211l21.653-55.186H486.489
			 M486.489,197.249H294.588c-7.404,0-14.052,4.533-16.756,11.425l-17.17,43.76H109.724c-7.417,0-14.074,4.549-16.769,11.459
			L22.311,444.998c-2.161,5.539-1.447,11.788,1.908,16.696c3.354,4.909,8.916,7.845,14.862,7.845h393.005
			c8.385,0,15.66-5.79,17.541-13.961l54.404-236.29c1.23-5.344-0.042-10.958-3.458-15.248
			C497.157,199.749,491.972,197.249,486.489,197.249L486.489,197.249z M486.489,233.249h0.005H486.489L486.489,233.249z"/>
	</g>
	<g style="display:none;">
		<path style="display:inline;fill:#42A5F5;" d="M239.664,677.489c-8.001,0-14.511-6.51-14.511-14.511
			c0-8.002,6.509-14.512,14.511-14.512h220.204c8.002,0,14.512,6.51,14.512,14.512c0,8.001-6.51,14.511-14.512,14.511H239.664z"/>
		<path style="display:inline;fill:#1D1D1D;" d="M459.869,652.467c5.805,0,10.511,4.706,10.511,10.511s-4.706,10.511-10.511,10.511
			H239.664c-5.805,0-10.511-4.706-10.511-10.511s4.706-10.511,10.511-10.511H459.869 M459.869,644.467H239.664
			c-10.207,0-18.511,8.304-18.511,18.511s8.304,18.511,18.511,18.511h220.204c10.207,0,18.511-8.304,18.511-18.511
			S470.076,644.467,459.869,644.467L459.869,644.467z"/>
	</g>
	<g>
		<path style="fill:#42A5F5;" d="M129.889,432.734c-0.421,0-0.841-0.004-1.263-0.012c-13.499-0.298-23.319-4.87-29.202-13.592
			c-5.733-8.497-7.224-19.938-4.431-34.003c1.726-8.967,5.167-18.855,10.226-29.369c5.088-10.582,11.49-19.935,19.026-27.798
			c7.593-7.926,15.847-13.96,24.532-17.935c8.412-3.853,17.153-5.807,25.979-5.807c0.378,0,0.755,0.004,1.134,0.011
			c13.949,0.235,24.238,4.646,30.574,13.109c6.265,8.375,8.011,19.814,5.189,34.003l-0.641,3.222l-35.877-0.105l1.312-4.989
			c2.067-7.857,1.144-10.99,0.41-12.158c-1.17-1.858-3.955-2.885-8.274-3.047c-0.233-0.008-0.482-0.012-0.73-0.012
			c-12.085,0-22.269,10.521-30.268,31.272c-3.954,10.212-6.495,17.554-7.555,21.824c-1.681,6.267-1.687,10.91-0.037,13.148
			c0.384,0.521,1.553,2.106,5.917,2.271c0.317,0.011,0.652,0.016,0.982,0.017c5.152,0,9.486-1.325,13.251-4.051
			c4.086-2.957,7.334-7.251,9.653-12.766l1.014-2.412l35.188-0.42l-1.771,5.317c-2.916,8.755-7.782,16.639-14.462,23.434
			c-6.641,6.753-14.554,12.013-23.519,15.634C147.688,430.98,138.82,432.734,129.889,432.734z M317.741,431.114L327.81,305.92
			h38.059l-10.134,72.346l48.498-72.346h41.549L354.2,431.114H317.741z M247.313,431.114l-2.598-41.46h-8.903l-17.527,41.46h-36.187
			l52.719-125.199l44.014,0.086c14.356,0,24.88,3.564,31.271,10.593c6.631,7.292,8.036,17.14,4.179,29.269
			c-2.878,9.057-7.437,16.685-13.551,22.67c-5.399,5.284-12.067,9.615-19.852,12.9l3.939,44.631l-1.25,5.051H247.313z
			 M258.361,360.1c3.692,0,7.061-0.885,10.257-2.706c3.222-1.831,5.753-4.276,7.742-7.476c1.971-3.176,3.085-6.226,3.311-9.063
			c0.116-1.704-0.151-2.959-0.798-3.688c-0.929-1.044-2.901-1.367-4.427-1.451l-15.902-0.067l-10.291,24.35L258.361,360.1z"/>
		<path style="fill:#1D1D1D;" d="M174.755,308.21c0.353,0,0.706,0.003,1.06,0.01c12.719,0.214,21.87,4.052,27.454,11.512
			c5.582,7.461,7.073,17.739,4.47,30.833l-27.433-0.081c1.878-7.137,1.853-12.235-0.07-15.296
			c-1.927-3.059-5.758-4.695-11.503-4.911c-0.294-0.01-0.589-0.015-0.88-0.015c-13.966-0.001-25.296,11.273-33.99,33.827
			c-4.031,10.412-6.599,17.844-7.704,22.299c-3.543,13.202-0.342,19.992,9.601,20.368c0.381,0.013,0.76,0.019,1.135,0.019
			c5.962,0,11.16-1.602,15.59-4.809c4.71-3.407,8.372-8.224,10.991-14.45l26.967-0.322c-2.735,8.211-7.242,15.51-13.522,21.896
			c-6.281,6.387-13.669,11.299-22.168,14.732c-8.119,3.28-16.409,4.922-24.864,4.922c-0.397,0-0.793-0.004-1.19-0.011
			c-12.17-0.269-20.825-4.212-25.967-11.834c-5.141-7.62-6.414-17.952-3.825-30.994c1.673-8.695,4.976-18.166,9.908-28.417
			c4.929-10.251,11.034-19.174,18.311-26.767c7.276-7.595,15.048-13.285,23.312-17.067
			C158.363,310.024,166.47,308.21,174.755,308.21 M437.919,309.91l-85.744,117.215h-30.109l9.426-117.215h29.789l-11.908,85.013
			l56.99-85.013H437.919 M237.464,309.91l41.358,0.082c13.256,0,22.699,3.097,28.328,9.287c5.631,6.193,6.739,14.65,3.328,25.374
			c-2.691,8.469-6.871,15.48-12.54,21.029c-5.671,5.55-12.769,9.932-21.295,13.147l4.142,46.923l-0.34,1.373h-29.383l-2.599-41.46
			h-15.296l-17.528,41.46h-27.532L237.464,309.91 M258.321,364.09c4.401,0,8.491-1.075,12.272-3.229
			c3.781-2.15,6.831-5.097,9.155-8.836c2.322-3.74,3.623-7.357,3.9-10.855c0.406-5.972-2.622-9.121-9.089-9.443l-18.657-0.081
			l-13.643,32.282L258.321,364.09 M174.755,300.23c-9.404,0-18.704,2.076-27.642,6.169c-9.143,4.185-17.808,10.511-25.751,18.802
			c-7.827,8.167-14.469,17.867-19.741,28.83c-5.206,10.822-8.757,21.039-10.552,30.367c-2.998,15.1-1.303,27.553,5.046,36.965
			c6.65,9.857,17.553,15.021,32.406,15.35c0.477,0.009,0.922,0.013,1.367,0.013c9.445,0,18.816-1.852,27.854-5.503
			c9.475-3.827,17.842-9.39,24.869-16.535c1.366-1.389,2.661-2.822,3.884-4.296l-5.742,13.637l-4.664,11.077h12.019h27.532h5.29
			l2.06-4.873l15.467-36.587h2.509l2.13,33.979l0.469,7.481h7.496h29.383h6.245l1.501-6.062l0.34-1.373l0.32-1.293l-0.117-1.327
			l-3.63-41.128c7.112-3.318,13.289-7.52,18.416-12.538c6.586-6.447,11.485-14.627,14.564-24.316
			c5.38-16.917,0.234-27.37-5.03-33.159c-7.179-7.895-18.696-11.899-34.232-11.899l-41.343-0.082l-5.31-0.01l-2.061,4.894
			l-13.162,31.258c-0.147-9.089-2.582-16.83-7.288-23.12c-7.116-9.505-18.457-14.453-33.71-14.711
			C175.559,300.233,175.158,300.23,174.755,300.23L174.755,300.23z M136.895,398.795c-0.287,0-0.577-0.005-0.869-0.015
			c-1.81-0.068-2.685-0.468-2.82-0.65c-0.014-0.019-1.396-2.013,0.66-9.673l0.02-0.073l0.018-0.074
			c1.019-4.108,3.509-11.287,7.401-21.339c7.35-19.067,16.28-28.729,26.547-28.728c0.203,0,0.409,0.003,0.613,0.01
			c3.626,0.136,4.882,0.972,5.018,1.188c0,0,0,0,0,0c-0.004,0,0.937,2.048-0.895,9.012l-2.625,9.98l10.32,0.03l27.433,0.081
			l0.609,0.002l-8.656,20.557l-9.322,0.111l-26.967,0.322l-5.232,0.062l-2.029,4.823c-2.061,4.899-4.779,8.523-8.312,11.078
			C144.744,397.718,141.176,398.795,136.895,398.795L136.895,398.795z M254.246,356.068l6.939-16.419l13.138,0.057
			c0.642,0.04,1.087,0.119,1.377,0.19c0.008,0.174,0.009,0.401-0.009,0.687c-0.183,2.186-1.099,4.618-2.721,7.232
			c-1.626,2.616-3.694,4.615-6.319,6.108c-2.575,1.467-5.287,2.181-8.295,2.186L254.246,356.068L254.246,356.068z M453.645,301.929
			h-15.725h-31.557h-4.258l-2.371,3.537l-37.636,56.143l7.087-50.592l1.273-9.087h-9.176h-29.789h-7.364l-0.59,7.341l-9.426,117.215
			l-0.693,8.62h8.648h30.109h4.05l2.391-3.269l85.744-117.215L453.645,301.929L453.645,301.929z"/>
	</g>
</g>
<g id="Layer_1">
</g>
</svg>
