<?xml version="1.0" encoding="iso-8859-1"?>
<!-- Generator: Adobe Illustrator 27.6.1, SVG Export Plug-In . SVG Version: 6.00 Build 0)  -->
<svg version="1.1" xmlns="http://www.w3.org/2000/svg" xmlns:xlink="http://www.w3.org/1999/xlink" x="0px" y="0px"
	 viewBox="0 0 510.4 510.075" style="enable-background:new 0 0 510.4 510.075;" xml:space="preserve">
<g id="Startup_Booster">
	<g>
		<path style="fill:#BDBDBD;stroke:#1D1D1D;stroke-width:12;stroke-miterlimit:10;" d="M372.01,224.115
			c0.414,0,0.832,0.091,1.224,0.279c0.922,0.425,1.567,1.304,1.651,2.317c0,0-1.076,0.928,0.971,9.467
			c2.552,10.665,9.177,25.631,26.15,39.209c33.085,26.475,56.747,65.336,53.288,108.882c0,50.157-40.64,90.811-90.79,90.811
			c-50.151,0-90.805-40.654-90.805-90.811h0.326c0-16.299,4.62-34.177,14.258-48.23c16.306-23.789,37.232-57.053,37.232-57.053
			s13.464,12.685,12.232,27.524c-1.056,12.706-0.035,16.781,6.583,17.298c0.148,0.011,0.296,0.017,0.444,0.017
			c4.945,0,9.546-6.543,0.058-34.677c-9.078-27.006,4.705-46.777,16.908-58.611c5.357-5.201,8.645-5.91,8.645-5.91
			C370.871,224.289,371.437,224.115,372.01,224.115 M354.519,398.817c-15.71,0-28.933-10.659-32.831-25.15
			c-4.507,7.518-7.115,16.34-7.115,25.751c0,27.665,22.421,50.093,50.093,50.093c27.665,0,50.079-22.428,50.079-50.093
			c0-19.671-11.338-36.672-27.821-44.863c1.027,3.238,1.595,6.696,1.595,10.289C388.52,383.602,373.298,398.817,354.519,398.817
			 M372.01,208.115c-2.804,0-5.533,0.615-8.033,1.797c-3.252,1.254-7.913,3.835-13.383,9.146
			c-9.336,9.054-16.13,18.901-20.187,29.261c-1.337,3.414-2.378,6.868-3.123,10.352l-4.956-4.669l-10.357,16.464
			c-0.208,0.33-20.95,33.278-36.886,56.526c-8.027,11.704-13.52,26.187-15.831,41.276h-1.555v16
			c0,28.531,11.109,55.354,31.282,75.528c20.172,20.173,46.994,31.283,75.523,31.283c28.529,0,55.348-11.11,75.516-31.285
			c20.017-20.022,31.108-46.596,31.272-74.889c3.322-44.745-18.262-89.181-59.29-122.012
			c-13.588-10.871-18.693-22.542-20.582-30.424l-0.591-7.088c-0.558-6.697-4.694-12.618-10.803-15.475
			C377.532,208.734,374.762,208.115,372.01,208.115L372.01,208.115z M354.519,414.817c18.27,0,34.282-9.844,43.007-24.504
			c0.8,2.916,1.22,5.972,1.22,9.106c0,18.799-15.288,34.093-34.079,34.093c-15.295,0-28.27-10.123-32.575-24.021
			C338.895,412.914,346.538,414.817,354.519,414.817L354.519,414.817z"/>
	</g>
	<rect y="0" style="fill:none;" width="510.4" height="510.4"/>
	<path style="fill:#BDBDBD;" d="M253.991,22.612c-124.237,0-224.949,100.713-224.949,224.949
		c0,124.235,100.713,224.949,224.949,224.949S478.94,371.796,478.94,247.562C478.94,123.325,378.227,22.612,253.991,22.612z"/>
	<g>
		<path style="fill:#1D1D1D;" d="M196.435,210.621c-3.416,4.655-2.912,10.849,1.141,13.819l48.839,37.678l0.68,0.39l0.305,0.17
			c4.223,2.352,9.815,1.105,13.542-2.998l0.326-0.311l59.859-70.821c3.409-3.82,3.466-9.319,0.149-12.267
			c-3.323-2.955-8.773-2.246-12.167,1.573l-55.954,59.773l-43.198-30.083C205.917,204.569,199.858,205.95,196.435,210.621z"/>
		<path style="fill:#1D1D1D;" d="M81.897,238.534c-0.219,2.962-0.276,5.98-0.276,8.993c0,3.075,0.056,6.038,0.276,9h35.758
			c-0.32-2.962-0.383-5.973-0.383-9c0-3.011,0.063-6.03,0.383-8.993H81.897z"/>
		<path style="fill:#1D1D1D;" d="M174.396,94.68c-4.457,2.254-8.801,4.749-13.017,7.484l17.829,30.96l1.311-0.886
			c3.38-2.141,6.831-4.16,10.332-5.945l1.368-0.659L174.396,94.68z"/>
		<path style="fill:#1D1D1D;" d="M108.607,154.942c-2.735,4.217-5.23,8.553-7.483,13.011l30.96,17.822l7.49-13.003L108.607,154.942z
			"/>
		<path style="fill:#1D1D1D;" d="M139.574,322.231l-0.9-1.311c-2.134-3.33-4.153-6.775-5.938-10.339l-0.715-1.36l-30.896,17.822
			c2.197,4.458,4.748,8.794,7.483,13.01L139.574,322.231z"/>
		<path style="fill:#1D1D1D;" d="M180.519,362.758l-1.311-0.893l-17.829,30.967c4.216,2.735,8.56,5.286,13.017,7.547l17.823-30.96
			l-1.368-0.659C187.35,366.981,183.9,364.961,180.519,362.758z"/>
		<path style="fill:#1D1D1D;" d="M346.503,102.163c-4.216-2.735-8.504-5.23-12.947-7.484l-17.893,30.897l13.01,7.546
			L346.503,102.163z"/>
		<path style="fill:#1D1D1D;" d="M262.961,111.219V75.511c-2.962-0.269-5.973-0.326-9-0.326c-3.012,0-6.024,0.056-8.993,0.326
			v35.708v0.376h17.992V111.219z"/>
		<path style="fill:#1D1D1D;" d="M253.991,22.612c-124.302,0-224.949,100.647-224.949,224.949
			c0,124.231,100.647,224.878,224.949,224.949c13.428,0,26.63-1.233,39.407-3.48c-11.104-6.895-20.897-15.675-29.026-25.837
			c-3.416,0.219-6.895,0.29-10.382,0.29c-54.204-0.071-103.036-21.911-138.594-57.4c-35.482-35.481-57.33-84.39-57.33-138.523
			c0-54.203,21.846-103.043,57.329-138.595c35.559-35.488,84.391-57.329,138.595-57.329c54.133,0,102.972,21.84,138.532,57.329
			c35.48,35.553,57.322,84.391,57.392,138.595c0,12.848-1.304,25.397-3.628,37.515c8.418,13.138,14.59,26.999,18.431,41.222
			c9.219-24.534,14.223-51.015,14.223-78.737C478.869,123.259,378.222,22.612,253.991,22.612z"/>
		<g>
			<path style="fill:#1D1D1D;" d="M364.509,483.079c-54.481,0-98.805-44.326-98.805-98.811v-8h0.658
				c1.352-16.315,6.771-32.278,15.328-44.755c16.03-23.387,36.85-56.457,37.058-56.788l5.179-8.232l7.079,6.67
				c0.176,0.166,1.401,1.337,3.079,3.312c-1.452-18.474,6.026-36.104,22.091-51.682c4.914-4.771,8.759-6.736,11.007-7.542
				c1.496-0.748,3.141-1.138,4.832-1.138c1.588,0,3.186,0.359,4.625,1.038c3.521,1.646,5.903,5.05,6.223,8.897l0.337,4.061
				l-0.364,0.313c0.15,0.921,0.397,2.188,0.805,3.89c2.179,9.104,8,22.532,23.368,34.827c39.017,31.221,59.52,73.283,56.29,115.447
				C463.126,438.925,418.875,483.079,364.509,483.079z M323.117,392.692c-0.357,2.215-0.539,4.464-0.539,6.727
				c0,23.211,18.883,42.094,42.093,42.094c23.203,0,42.08-18.883,42.08-42.094c0-10.628-3.91-20.539-10.724-28.109
				c-3.121,20.086-20.544,35.508-41.504,35.508C342.236,406.817,330.908,401.451,323.117,392.692z"/>
			<path style="fill:#BDBDBD;" d="M372.015,224.115c0.414,0,0.832,0.091,1.224,0.279c0.922,0.425,1.567,1.304,1.651,2.317
				c0,0-1.076,0.928,0.971,9.467c2.552,10.665,9.177,25.631,26.15,39.209c33.085,26.475,56.747,65.336,53.288,108.882
				c0,50.157-40.64,90.811-90.79,90.811c-50.151,0-90.805-40.654-90.805-90.811h0.326c0-16.299,4.62-34.177,14.258-48.23
				c16.306-23.789,37.232-57.053,37.232-57.053s13.464,12.685,12.232,27.524c-1.056,12.706-0.035,16.781,6.583,17.298
				c0.148,0.011,0.296,0.017,0.444,0.017c4.945,0,9.547-6.543,0.058-34.677c-9.078-27.006,4.706-46.777,16.908-58.611
				c5.357-5.201,8.645-5.91,8.645-5.91C370.875,224.289,371.442,224.115,372.015,224.115 M354.524,398.817
				c-15.71,0-28.933-10.659-32.831-25.15c-4.507,7.518-7.115,16.34-7.115,25.751c0,27.665,22.421,50.093,50.093,50.093
				c27.665,0,50.079-22.428,50.079-50.093c0-19.671-11.338-36.672-27.821-44.863c1.027,3.238,1.595,6.696,1.595,10.289
				C388.525,383.602,373.303,398.817,354.524,398.817 M372.015,208.115c-2.804,0-5.532,0.615-8.033,1.797
				c-3.252,1.254-7.913,3.835-13.383,9.146c-9.336,9.054-16.13,18.901-20.187,29.261c-1.337,3.414-2.378,6.868-3.123,10.352
				l-4.956-4.669l-10.357,16.464c-0.208,0.33-20.95,33.278-36.886,56.526c-8.027,11.704-13.52,26.187-15.831,41.276h-1.555v16
				c0,28.531,11.109,55.354,31.282,75.528c20.172,20.173,46.994,31.283,75.523,31.283c28.529,0,55.348-11.11,75.516-31.285
				c20.017-20.022,31.108-46.596,31.272-74.889c3.322-44.745-18.262-89.181-59.29-122.012
				c-13.591-10.873-18.694-22.545-20.583-30.428l-0.59-7.084c-0.558-6.7-4.697-12.623-10.81-15.479
				C377.531,208.733,374.765,208.115,372.015,208.115L372.015,208.115z M354.524,414.817c18.27,0,34.282-9.844,43.007-24.504
				c0.8,2.916,1.22,5.972,1.22,9.106c0,18.799-15.288,34.093-34.079,34.093c-15.295,0-28.269-10.123-32.575-24.021
				C338.899,412.914,346.543,414.817,354.524,414.817L354.524,414.817z"/>
		</g>
	</g>
</g>
<g id="Layer_1">
</g>
</svg>
