<?xml version="1.0" encoding="iso-8859-1"?>
<!-- Generator: Adobe Illustrator 27.7.0, SVG Export Plug-In . SVG Version: 6.00 Build 0)  -->
<svg version="1.1" xmlns="http://www.w3.org/2000/svg" xmlns:xlink="http://www.w3.org/1999/xlink" x="0px" y="0px"
	 viewBox="0 0 512 512" style="enable-background:new 0 0 512 512;" xml:space="preserve">
<g id="tool_x5F_sine_x5F_attributes">
	<g id="Layer_2_00000116918612869327741400000013598196891203198119_">
		<g id="E449_Sine_sound_wave">
			<g>
				<path style="fill:#AE9DD9;" d="M360.553,351.11c-17.552,0-31.686-12.092-43.209-36.968
					c-8.046-17.374-14.172-39.428-20.096-60.755c-4.943-17.787-10.056-36.18-15.72-49.69c-7.474-17.824-12.428-18.727-13.345-18.727
					c-0.354,0-0.696-0.011-1.032-0.034c-0.335,0.022-0.678,0.034-1.031,0.034c-0.917,0-5.871,0.903-13.345,18.727
					c-5.664,13.509-10.776,31.903-15.72,49.691c-5.923,21.325-12.048,43.377-20.095,60.753
					c-11.524,24.877-25.658,36.969-43.209,36.969c-17.552,0-31.686-12.092-43.209-36.968c-8.047-17.377-14.172-39.43-20.096-60.755
					c-4.944-17.788-10.058-36.183-15.72-49.69c-7.473-17.824-12.427-18.727-13.344-18.727c-10.119,0-18.045-9.444-18.045-21.5
					s7.926-21.5,18.045-21.5c17.552,0,31.686,12.092,43.209,36.968c7.994,17.25,14.112,39.239,20.029,60.504l0.066,0.237
					c4.946,17.795,10.061,36.194,15.721,49.698c7.474,17.829,12.427,18.732,13.344,18.732s5.871-0.903,13.344-18.732
					c5.661-13.505,10.775-31.903,15.72-49.696l0.07-0.251c5.917-21.261,12.034-43.245,20.026-60.493
					c11.523-24.875,25.657-36.967,43.209-36.967c0.354,0,0.698,0.011,1.035,0.034c0.337-0.022,0.681-0.034,1.028-0.034
					c17.552,0,31.686,12.092,43.209,36.967c7.991,17.245,14.107,39.226,20.022,60.483l0.072,0.258
					c4.946,17.795,10.06,36.194,15.721,49.699c7.474,17.829,12.428,18.732,13.345,18.732s5.87-0.903,13.344-18.732
					c5.66-13.503,10.775-31.903,15.722-49.697l0.061-0.219c5.918-21.272,12.038-43.269,20.034-60.525
					c11.523-24.875,25.657-36.967,43.209-36.967c10.118,0,18.045,9.444,18.045,21.5s-7.927,21.5-18.045,21.5
					c-0.917,0-5.872,0.903-13.345,18.727c-5.663,13.508-10.775,31.902-15.721,49.691c-5.922,21.324-12.047,43.375-20.095,60.753
					C392.238,339.019,378.104,351.11,360.553,351.11z"/>
				<path style="fill:#1D1D1D;" d="M452.922,149.47c5.822,0,10.545,6.27,10.545,14c0,7.73-4.723,14-10.545,14
					c-15.743,0-26.19,37.57-36.291,73.91c-5.853,21.07-11.909,42.84-19.674,59.61c-10.169,21.95-22.077,32.62-36.404,32.62
					c-14.327,0-26.235-10.67-36.404-32.62c-7.766-16.77-13.822-38.54-19.674-59.61c-10.101-36.34-20.548-73.91-36.291-73.91
					c-0.346,0-0.693-0.02-1.032-0.07c-0.339,0.05-0.685,0.07-1.032,0.07c-15.743,0-26.19,37.57-36.291,73.91
					c-5.853,21.07-11.909,42.84-19.674,59.61c-10.169,21.95-22.077,32.62-36.404,32.62c-14.327,0-26.235-10.67-36.404-32.62
					c-7.766-16.77-13.822-38.54-19.674-59.61c-10.101-36.34-20.548-73.91-36.291-73.91c-5.823,0-10.545-6.27-10.545-14
					c0-7.73,4.723-14,10.545-14c14.327,0,26.235,10.67,36.404,32.62c7.766,16.76,13.814,38.54,19.674,59.6
					c10.101,36.34,20.548,73.92,36.291,73.92c15.743,0,26.19-37.58,36.291-73.92c5.86-21.06,11.909-42.84,19.674-59.6
					c10.169-21.95,22.077-32.62,36.404-32.62c0.346,0,0.693,0.02,1.032,0.07c0.339-0.05,0.685-0.07,1.032-0.07
					c14.326,0,26.235,10.67,36.404,32.62c7.766,16.76,13.814,38.54,19.674,59.6c10.101,36.34,20.548,73.92,36.291,73.92
					c15.743,0,26.19-37.58,36.291-73.92c5.86-21.06,11.909-42.84,19.674-59.6C426.686,160.14,438.595,149.47,452.922,149.47
					 M452.922,134.47c-10.937,0-20.953,4.006-29.771,11.907c-7.616,6.824-14.237,16.443-20.243,29.407
					c-8.249,17.802-14.45,40.087-20.447,61.638l-0.068,0.246c-4.243,15.263-8.628,31.042-13.298,43.469
					c-3.744,9.965-6.7,15.067-8.542,17.607c-1.842-2.54-4.798-7.641-8.542-17.607c-4.67-12.427-9.055-28.206-13.297-43.465
					l-0.07-0.251c-5.997-21.551-12.198-43.835-20.447-61.638c-6.005-12.963-12.627-22.582-20.243-29.406
					c-8.818-7.901-18.834-11.907-29.771-11.907c-0.346,0-0.69,0.008-1.032,0.023c-0.342-0.015-0.686-0.023-1.032-0.023
					c-10.937,0-20.953,4.006-29.771,11.907c-7.616,6.824-14.237,16.443-20.243,29.407c-8.249,17.802-14.45,40.088-20.447,61.64
					l-0.068,0.244c-4.243,15.264-8.628,31.043-13.298,43.469c-3.744,9.965-6.7,15.067-8.542,17.607
					c-1.842-2.54-4.798-7.641-8.542-17.607c-4.669-12.426-9.055-28.205-13.297-43.465l-0.069-0.248
					c-5.997-21.552-12.198-43.837-20.448-61.641c-6.005-12.963-12.627-22.582-20.242-29.406
					c-8.818-7.901-18.834-11.907-29.771-11.907c-7.529,0-14.614,3.673-19.437,10.076c-3.939,5.229-6.108,11.95-6.108,18.924
					s2.169,13.695,6.108,18.924c4.478,5.946,10.906,9.537,17.829,10.02c1.301,1.264,4.971,5.739,10.151,19.523
					c4.671,12.43,9.056,28.205,13.296,43.46c6.004,21.615,12.213,43.968,20.515,61.896c6.007,12.966,12.628,22.585,20.244,29.409
					c8.818,7.901,18.834,11.907,29.771,11.907c10.937,0,20.953-4.006,29.771-11.907c7.616-6.824,14.237-16.443,20.243-29.407
					c8.303-17.93,14.512-40.283,20.517-61.901c4.24-15.253,8.624-31.029,13.296-43.458c4.552-12.112,7.937-17.036,9.574-18.91
					c1.637,1.874,5.022,6.799,9.574,18.91c4.671,12.429,9.056,28.204,13.296,43.46c6.004,21.615,12.213,43.968,20.515,61.896
					c6.007,12.966,12.628,22.585,20.244,29.409c8.818,7.901,18.834,11.907,29.771,11.907c10.937,0,20.953-4.006,29.771-11.907
					c7.616-6.824,14.237-16.443,20.243-29.407c8.303-17.931,14.512-40.284,20.517-61.901c4.24-15.253,8.625-31.028,13.296-43.458
					c5.18-13.784,8.85-18.259,10.151-19.523c6.923-0.483,13.351-4.075,17.829-10.02c3.939-5.229,6.108-11.949,6.108-18.923
					s-2.169-13.694-6.108-18.923C467.535,138.143,460.451,134.47,452.922,134.47L452.922,134.47z"/>
			</g>
		</g>
	</g>
	<g style="display:none;">
		<g style="display:inline;">
			<path style="fill:#BDBDBD;" d="M282.581,423.409c-1.064,0-1.915,0-2.979,0c-23.836-1.064-45.118-12.982-61.505-34.902
				c-19.367-25.751-26.815-55.759-35.541-90.235c-6.172-24.9-13.195-52.992-25.964-84.702
				C128.075,142.275,62.313,85.452,61.675,84.814l-6.385-5.533l22.133-25.964l6.385,5.533c2.979,2.554,72.571,62.356,104.494,141.95
				c13.62,34.051,20.856,63.207,27.454,89.171c8.087,32.136,14.472,57.674,29.582,77.892c10.215,13.408,22.559,20.856,35.754,21.495
				c0.638,0,1.064,0,1.703,0c14.472,0,30.22-8.3,42.989-22.559c10.854-12.344,21.282-28.092,32.348-44.692
				c19.154-28.943,39.159-58.951,65.335-77.04c21.069-14.472,47.884-19.579,64.271-19.579h9.364l-0.213,34.051h-8.938
				c-12.556,0-31.497,4.256-45.118,13.62c-20.856,14.259-38.946,41.5-56.184,67.676c-11.705,17.664-22.984,34.477-35.328,48.523
				C331.742,411.065,306.843,423.409,282.581,423.409z"/>
			<path style="fill:#1D1D1D;" d="M78.275,65.447c2.979,2.554,70.869,60.866,102.153,138.545
				c13.408,33.413,20.643,62.356,27.028,88.107c8.3,33.2,14.897,59.376,31.072,81.084c11.705,15.536,26.39,24.049,42.138,24.9
				c0.638,0,1.277,0,1.915,0c17.026,0,34.902-9.151,49.161-25.325c11.279-12.769,21.92-28.731,33.2-45.756
				c18.728-28.305,38.095-57.461,63.207-74.699c19.367-13.408,44.054-18.09,59.376-18.09c0.213,0,0.426,0,0.638,0l-0.213,17.026
				c-0.213,0-0.213,0-0.426,0c-14.046,0-34.69,4.682-50.012,15.11c-22.133,15.323-40.648,42.989-58.525,70.017
				c-11.492,17.451-22.559,34.051-34.689,47.671c-17.664,19.792-40.223,31.072-62.143,31.072c-0.851,0-1.703,0-2.554,0
				c-21.282-0.851-40.223-11.705-55.12-31.497c-18.302-24.474-25.538-53.418-34.051-87.043
				c-6.172-25.113-13.408-53.418-26.39-85.766C135.098,136.742,67.847,79.068,67.208,78.429L78.275,65.447 M76.36,41.399
				L65.293,54.381L54.226,67.363L43.16,80.345l12.982,11.067c0.638,0.638,64.91,56.184,92.576,125.35
				c12.556,31.284,19.579,59.164,25.538,83.638c8.513,33.838,16.387,65.974,36.818,93.215c18.09,24.049,41.5,37.243,68.102,38.307
				c1.064,0,2.128,0,3.405,0c26.815,0,54.056-13.408,74.699-36.818c12.982-14.472,24.261-31.497,36.179-49.374
				c17.026-25.538,34.477-51.928,54.056-65.335c12.131-8.3,29.369-12.131,40.223-12.131h0.213l17.026,0.213l0.213-17.025
				l0.213-17.026l0.213-17.026l-17.026-0.213h-0.851c-18.515,0-46.395,5.533-69.166,21.069
				c-27.666,18.941-48.097,49.587-67.676,79.169c-10.854,16.387-21.282,31.923-31.71,43.841
				c-11.067,12.556-24.474,19.579-36.605,19.579c-0.426,0-0.851,0-1.277,0c-7.449-0.213-18.515-3.618-29.369-18.09
				c-14.259-18.941-20.005-42.351-28.305-74.912c-6.597-26.177-13.833-55.759-27.666-90.235
				C163.403,116.098,92.108,55.019,89.129,52.466L76.36,41.399L76.36,41.399z"/>
		</g>
		<g style="display:inline;">
			<path style="fill:#DF6E41;" d="M72.742,447.883l2.554-8.087c4.044-13.62,41.074-134.076,74.061-169.404
				c20.218-21.92,50.651-34.902,81.084-34.902c3.831,0,7.874,0.213,11.705,0.638c37.031,4.256,69.592,21.92,108.75,59.164
				c2.767,2.554,5.32,5.108,7.874,7.449l1.064,1.064c24.9,23.836,30.22,28.943,50.651,28.943c6.597,0,14.685-0.638,22.559-1.277
				l61.079-4.895l2.767,34.051l-61.079,4.895c-10.002,0.851-17.877,1.064-24.261,1.064c-33.413,0-45.33-9.79-75.125-38.095
				l-1.064-1.064c-2.341-2.341-5.108-4.895-7.874-7.449c-42.138-39.797-68.741-47.671-89.384-50.012
				c-2.554-0.213-5.108-0.426-7.874-0.426c-20.643,0-42.138,9.151-55.971,24.049c-6.385,6.81-20.643,27.454-43.202,88.32
				c-13.408,35.754-22.984,67.464-22.984,67.889l-2.554,8.087L72.742,447.883z"/>
			<path style="fill:#1D1D1D;" d="M230.228,244.003c3.618,0,7.023,0.213,10.641,0.638c35.115,4.044,66.187,21.069,103.856,56.823
				c3.192,2.979,6.172,5.959,8.938,8.513c25.538,24.474,32.561,31.284,56.61,31.284c6.385,0,13.833-0.426,23.197-1.277l52.566-4.044
				l1.277,17.026l-52.566,4.044c-9.151,0.638-17.026,1.064-23.623,1.064c-30.646,0-40.648-8.513-69.166-35.754
				c-2.767-2.554-5.746-5.533-8.938-8.513c-43.841-41.5-72.146-49.8-94.066-52.353c-2.979-0.426-5.959-0.426-8.726-0.426
				c-22.984,0-46.607,10.002-62.143,26.815c-11.918,12.982-27.454,44.479-44.905,91.087c-13.408,35.754-23.197,68.102-23.197,68.315
				l-16.387-4.895c1.703-5.32,40.01-131.522,72.146-165.999C174.256,255.92,202.561,244.003,230.228,244.003 M230.228,226.977
				c-32.774,0-65.335,14.046-87.256,37.669c-34.264,36.818-71.72,158.976-75.976,172.809l-4.895,16.387l16.387,4.895l16.387,4.895
				l16.387,4.895l4.895-16.174c0.426-1.277,9.79-32.561,22.984-67.251c22.984-61.505,36.818-80.233,41.5-85.553
				c12.131-13.195,31.284-21.282,49.587-21.282c2.341,0,4.682,0.213,6.81,0.426c19.154,2.128,44.266,9.577,84.489,47.671
				c2.979,2.767,5.746,5.533,8.513,8.087l0.426,0.426c30.22,28.731,43.841,40.436,80.871,40.436c6.81,0,14.685-0.426,25.113-1.277
				l52.566-4.044l17.026-1.277l-1.277-17.026l-1.277-17.026l-1.277-17.026l-17.026,1.277l-52.566,4.044
				c-7.661,0.638-15.536,1.064-21.92,1.064c-16.6,0-19.367-2.341-44.905-26.39l-0.638-0.638c-2.554-2.554-5.32-5.108-8.3-7.874
				c-40.648-38.52-74.699-56.823-113.645-61.292C238.74,227.19,234.484,226.977,230.228,226.977L230.228,226.977z"/>
		</g>
	</g>
	<g style="display:none;">
		<path style="display:inline;fill:none;stroke:#BDBDBD;stroke-width:8;stroke-miterlimit:10;" d="M72.742,72.258
			c0,0,68.953,58.738,99.599,135.14s28.943,130.458,59.377,171.106s75.764,34.69,106.622,0s56.823-92.789,94.704-118.966
			c18.09-12.344,41.074-16.813,55.333-16.6"/>
		<path style="display:inline;fill:none;stroke:#DF6E41;stroke-width:8;stroke-miterlimit:10;" d="M91.47,444.904
			c0,0,38.946-129.181,70.23-162.807c19.367-20.856,49.8-32.136,78.105-28.943c28.518,3.405,57.674,15.323,98.961,54.482
			s42.777,44.905,95.343,40.861s0,0,52.566-4.044"/>
	</g>
	<rect x="1.234" y="1.602" style="display:none;fill:none;" width="510.766" height="510.766"/>
	<g>
		<polygon style="fill-rule:evenodd;clip-rule:evenodd;fill:#BDBDBD;" points="52.311,495.342 52.311,462.355 19.324,462.355 
			19.324,428.304 52.311,428.304 52.311,18.627 86.362,18.627 86.362,428.304 496.039,428.304 496.039,462.355 86.362,462.355 
			86.362,495.342 		"/>
		<path style="fill:#1D1D1D;" d="M77.849,27.14v409.464h409.677v17.026H77.849v33.2H60.824v-33.2H27.837v-17.026h32.987V27.14
			H77.849 M94.875,10.115H77.849H60.824H43.798V27.14v392.438H27.837H10.811v17.026v17.026v17.026h17.026h15.961v16.174v17.026
			h17.026h17.026h17.026v-17.026v-16.174h392.651h17.026v-17.026v-17.026v-17.026h-17.026H94.875V27.14V10.115L94.875,10.115z"/>
	</g>
	
		<rect x="258.107" y="12.243" style="opacity:0.5;fill-rule:evenodd;clip-rule:evenodd;fill:#AE9DD9;enable-background:new    ;" width="18.09" height="489.484"/>
</g>
<g id="Layer_1">
</g>
</svg>
