<?xml version="1.0" encoding="iso-8859-1"?>
<!-- Generator: Adobe Illustrator 27.7.0, SVG Export Plug-In . SVG Version: 6.00 Build 0)  -->
<svg version="1.1" xmlns="http://www.w3.org/2000/svg" xmlns:xlink="http://www.w3.org/1999/xlink" x="0px" y="0px"
	 viewBox="0 0 512 512" style="enable-background:new 0 0 512 512;" xml:space="preserve">
<g id="tool_x5F_connect_x5F_attributes">
	<polygon style="fill:#AE9DD9;stroke:#1D1D1D;stroke-width:20;stroke-linejoin:round;stroke-miterlimit:10;" points="
		251.785,290.254 164.939,290.256 164.932,232.27 251.785,232.27 251.785,186.845 347.068,261.265 251.788,335.681 	"/>
	<g>
		<path style="fill:#BDBDBD;" d="M44.861,193.055c-4.694,0-8.5-3.806-8.5-8.5v-67.795c0-4.694,3.806-8.5,8.5-8.5h67.795
			c4.694,0,8.5,3.806,8.5,8.5v67.795c0,4.694-3.806,8.5-8.5,8.5H44.861z"/>
		<path style="fill:#1D1D1D;" d="M112.657,116.759v67.796H44.861v-67.796H112.657 M112.657,99.759H44.861c-9.389,0-17,7.611-17,17
			v67.796c0,9.389,7.611,17,17,17h67.796c9.389,0,17-7.611,17-17v-67.796C129.657,107.37,122.046,99.759,112.657,99.759
			L112.657,99.759z"/>
	</g>
	<g>
		<path style="fill:#BDBDBD;" d="M98.993,302.909c-4.694,0-8.5-3.806-8.5-8.5v-67.796c0-4.694,3.806-8.5,8.5-8.5h67.795
			c4.694,0,8.5,3.806,8.5,8.5v67.796c0,4.694-3.806,8.5-8.5,8.5H98.993z"/>
		<path style="fill:#1D1D1D;" d="M166.788,226.613v67.796H98.993v-67.796H166.788 M166.788,209.613H98.993c-9.389,0-17,7.611-17,17
			v67.796c0,9.389,7.611,17,17,17h67.796c9.389,0,17-7.611,17-17v-67.796C183.788,217.224,176.177,209.613,166.788,209.613
			L166.788,209.613z"/>
	</g>
	<g>
		<path style="fill:#BDBDBD;" d="M42.233,410.646c-4.694,0-8.5-3.806-8.5-8.5v-67.796c0-4.694,3.806-8.5,8.5-8.5h67.796
			c4.694,0,8.5,3.806,8.5,8.5v67.796c0,4.694-3.806,8.5-8.5,8.5H42.233z"/>
		<path style="fill:#1D1D1D;" d="M110.029,334.35v67.796H42.234V334.35H110.029 M110.029,317.35H42.234c-9.389,0-17,7.611-17,17
			v67.796c0,9.389,7.611,17,17,17h67.796c9.389,0,17-7.611,17-17V334.35C127.029,324.962,119.418,317.35,110.029,317.35
			L110.029,317.35z"/>
	</g>
	<g>
		<path style="fill:#AE9DD9;" d="M390.723,197.055c-4.694,0-8.5-3.806-8.5-8.5v-67.795c0-4.694,3.806-8.5,8.5-8.5h67.796
			c4.694,0,8.5,3.806,8.5,8.5v67.795c0,4.694-3.806,8.5-8.5,8.5H390.723z"/>
		<path style="fill:#1D1D1D;" d="M458.518,120.759v67.796h-67.796v-67.796H458.518 M458.518,103.759h-67.796
			c-9.389,0-17,7.611-17,17v67.796c0,9.389,7.611,17,17,17h67.796c9.389,0,17-7.611,17-17v-67.796
			C475.518,111.37,467.907,103.759,458.518,103.759L458.518,103.759z"/>
	</g>
	<g>
		<path style="fill:#AE9DD9;" d="M390.723,299.055c-4.694,0-8.5-3.806-8.5-8.5v-67.795c0-4.694,3.806-8.5,8.5-8.5h67.796
			c4.694,0,8.5,3.806,8.5,8.5v67.795c0,4.694-3.806,8.5-8.5,8.5H390.723z"/>
		<path style="fill:#1D1D1D;" d="M458.518,222.759v67.796h-67.796v-67.796H458.518 M458.518,205.759h-67.796
			c-9.389,0-17,7.611-17,17v67.796c0,9.389,7.611,17,17,17h67.796c9.389,0,17-7.611,17-17v-67.796
			C475.518,213.37,467.907,205.759,458.518,205.759L458.518,205.759z"/>
	</g>
	<g>
		<path style="fill:#AE9DD9;" d="M390.723,401.055c-4.694,0-8.5-3.806-8.5-8.5v-67.796c0-4.694,3.806-8.5,8.5-8.5h67.796
			c4.694,0,8.5,3.806,8.5,8.5v67.796c0,4.694-3.806,8.5-8.5,8.5H390.723z"/>
		<path style="fill:#1D1D1D;" d="M458.518,324.759v67.796h-67.796v-67.796H458.518 M458.518,307.759h-67.796
			c-9.389,0-17,7.611-17,17v67.796c0,9.389,7.611,17,17,17h67.796c9.389,0,17-7.611,17-17v-67.796
			C475.518,315.37,467.907,307.759,458.518,307.759L458.518,307.759z"/>
	</g>
</g>
<g id="Layer_1">
</g>
</svg>
