<?xml version="1.0" encoding="iso-8859-1"?>
<!-- Generator: Adobe Illustrator 27.7.0, SVG Export Plug-In . SVG Version: 6.00 Build 0)  -->
<svg version="1.1" xmlns="http://www.w3.org/2000/svg" xmlns:xlink="http://www.w3.org/1999/xlink" x="0px" y="0px"
	 viewBox="0 0 512 512" style="enable-background:new 0 0 512 512;" xml:space="preserve">
<g id="tool_x5F_create_x5F_fk">
	<g>
		<polygon style="fill:#AE9DD9;" points="344.04,455.85 344.04,391.87 280.06,391.87 280.06,344.34 344.04,344.34 344.04,280.35 
			391.58,280.35 391.58,344.34 455.56,344.34 455.56,391.87 391.58,391.87 391.58,455.85 		"/>
		<path style="fill:#1D1D1D;" d="M383.58,288.35v63.99h63.98v31.53h-63.98v63.98h-31.54v-63.98h-63.98v-31.53h63.98v-63.99H383.58
			 M399.58,272.35h-16h-31.54h-16v16v47.99h-47.98h-16v16v31.53v16h16h47.98v47.98v16h16h31.54h16v-16v-47.98h47.98h16v-16v-31.53
			v-16h-16h-47.98v-47.99V272.35L399.58,272.35z"/>
	</g>
	<g>
		<g>
			<g>
				<path style="fill-rule:evenodd;clip-rule:evenodd;fill:#BDBDBD;" d="M307.94,179.207c-38.161,2.572-70.237-28.467-68.698-66.894
					c1.308-32.663,27.288-59.601,59.903-61.799c38.161-2.572,70.237,28.467,68.698,66.894
					C366.535,150.071,340.556,177.008,307.94,179.207z"/>
				<g>
					<path style="fill:#1D1D1D;" d="M302.245,61.477c30.647-0.745,55.896,24.58,54.5,55.737
						c-1.178,26.294-21.927,48.076-48.132,50.53c-31.053,2.908-57.574-21.081-58.319-51.728
						C249.58,86.62,272.572,62.198,302.245,61.477 M301.706,39.291c-43.512,1.058-77.628,38.927-73.239,83.048
						c3.662,36.815,34.162,65.867,71.111,67.736c44.282,2.24,80.449-33.676,79.391-77.187
						C377.959,71.29,343.303,38.28,301.706,39.291L301.706,39.291z"/>
				</g>
			</g>
			<g>
				<path style="fill-rule:evenodd;clip-rule:evenodd;fill:#BDBDBD;" d="M74.691,368.909c-2.773,0.067-5.851-0.968-7.846-3.139
					c-3.693-3.517-4.389-9.328-1.724-13.832l130.742-214.897c1.874-2.82,4.6-4.829,7.921-5.187c0.277-0.007,0.832-0.02,1.109-0.027
					c3.051-0.074,5.851,0.968,7.846,3.139l78.116,74.409c2.557,2.435,3.747,5.736,3.273,9.077c-0.196,3.335-2.064,6.432-4.796,8.164
					L80.197,367.11C78.838,368.253,76.633,368.861,74.691,368.909z"/>
				<g>
					<path style="fill:#1D1D1D;" d="M205.441,142.912l78.116,74.409L74.422,357.816L205.441,142.912 M204.902,120.727
						c-0.832,0.02-1.664,0.04-2.496,0.061c-6.635,0.994-12.649,4.747-16.119,10.381L55.268,346.072
						c-5.331,9.009-3.945,20.352,3.725,27.658c4.268,4.336,10.145,6.413,15.969,6.271c4.16-0.101,8.293-1.312,11.837-3.895
						l209.136-140.495c5.459-3.74,9.193-9.935,9.863-16.611c0.67-6.676-1.988-13.271-6.817-17.871l-78.394-74.402
						C216.326,122.669,210.726,120.585,204.902,120.727L204.902,120.727z"/>
				</g>
			</g>
		</g>
	</g>
</g>
<g id="Layer_1">
</g>
</svg>
