<?xml version="1.0" encoding="iso-8859-1"?>
<!-- Generator: Adobe Illustrator 28.0.0, SVG Export Plug-In . SVG Version: 6.00 Build 0)  -->
<svg version="1.1" xmlns="http://www.w3.org/2000/svg" xmlns:xlink="http://www.w3.org/1999/xlink" x="0px" y="0px"
	 viewBox="0 0 512 512" style="enable-background:new 0 0 512 512;" xml:space="preserve">
<g id="tool_x5F_ribbon">
	<g>
		<g>
			<path style="fill-rule:evenodd;clip-rule:evenodd;fill:#AE9DD9;" d="M82.606,359.193c25.583-15.489,80.403-56.56,94.325-131.394
				c16.881-90.845,46.293-132.09,62.826-148.972h178.209c-67.35,89.801-78.837,160.98-80.577,181.168
				c-9.05,97.632-21.754,127.566-63,179.253L82.606,359.193z"/>
		</g>
		<g>
			<path style="fill:#1D1D1D;" d="M405.218,85.789c-61.259,85.972-72.049,153.67-73.79,173.51
				c-8.702,93.107-20.71,123.563-58.301,171.422L98.399,357.627c7.135-5.047,15.315-11.312,23.842-18.969
				c33.24-30.456,54.82-68.395,62.652-109.814c11.834-63.696,33.24-115.557,58.823-143.229h161.502 M433.063,71.866H237.625
				c1.566,0-43.856,32.718-66.48,154.715C153.567,320.558,67.769,360.238,67.769,360.238l209.709,87.538
				c45.771-56.734,58.649-88.756,67.699-187.085C353.704,168.802,432.367,73.084,433.063,71.866L433.063,71.866z"/>
		</g>
	</g>
	<path style="fill:none;stroke:#1D1D1D;stroke-width:15;stroke-miterlimit:10;" d="M180.681,221.53
		c69.735,13.347,87.012,17.944,154.808,30.82"/>
	<g>
		<g>
			
				<rect x="392.128" y="49.73" transform="matrix(0.7071 -0.7071 0.7071 0.7071 67.6346 320.9393)" style="fill-rule:evenodd;clip-rule:evenodd;fill:#999999;" width="58.194" height="58.194"/>
			<path style="fill:#1D1D1D;" d="M421.225,46.033l32.794,32.794l-32.794,32.794l-32.794-32.794L421.225,46.033 M421.225,29.323
				l-8.355,8.355l-32.794,32.794l-8.355,8.355l8.355,8.355l32.794,32.794l8.355,8.355l8.355-8.355l32.794-32.794l8.355-8.355
				l-8.355-8.355l-32.794-32.794L421.225,29.323L421.225,29.323z"/>
		</g>
		<g>
			
				<rect x="412.437" y="70.144" transform="matrix(0.7071 -0.7071 0.7071 0.7071 67.5608 320.9699)" style="fill-rule:evenodd;clip-rule:evenodd;fill:#1D1D1D;" width="17.576" height="17.576"/>
		</g>
	</g>
	<g>
		<g>
			
				<rect x="309.83" y="226.903" transform="matrix(0.7071 -0.7071 0.7071 0.7071 -81.75 314.638)" style="fill-rule:evenodd;clip-rule:evenodd;fill:#999999;" width="58.194" height="58.194"/>
			<path style="fill:#1D1D1D;" d="M338.927,223.206L371.721,256l-32.794,32.794L306.132,256L338.927,223.206 M338.927,206.495
				l-8.355,8.355l-32.794,32.794L289.422,256l8.355,8.355l32.794,32.794l8.355,8.355l8.355-8.355l32.794-32.794l8.355-8.355
				l-8.355-8.355l-32.794-32.794L338.927,206.495L338.927,206.495z"/>
		</g>
		<g>
			
				<rect x="330.138" y="247.316" transform="matrix(0.7071 -0.7071 0.7071 0.7071 -81.8239 314.6685)" style="fill-rule:evenodd;clip-rule:evenodd;fill:#1D1D1D;" width="17.576" height="17.576"/>
		</g>
	</g>
	<g>
		<g>
			
				<rect x="249.88" y="404.777" transform="matrix(0.7071 -0.7071 0.7071 0.7071 -225.0847 324.3454)" style="fill-rule:evenodd;clip-rule:evenodd;fill:#999999;" width="58.194" height="58.194"/>
			<path style="fill:#1D1D1D;" d="M278.977,401.08l32.794,32.794l-32.794,32.794l-32.794-32.794L278.977,401.08 M278.977,384.369
				l-8.355,8.355l-32.794,32.794l-8.355,8.355l8.355,8.355l32.794,32.794l8.355,8.355l8.355-8.355l32.794-32.794l8.355-8.355
				l-8.355-8.355l-32.794-32.794L278.977,384.369L278.977,384.369z"/>
		</g>
		<g>
			
				<rect x="270.189" y="425.19" transform="matrix(0.7071 -0.7071 0.7071 0.7071 -225.1586 324.3759)" style="fill-rule:evenodd;clip-rule:evenodd;fill:#1D1D1D;" width="17.576" height="17.576"/>
		</g>
	</g>
</g>
<g id="Layer_1">
</g>
</svg>
