<?xml version="1.0" encoding="iso-8859-1"?>
<!-- Generator: Adobe Illustrator 27.7.0, SVG Export Plug-In . SVG Version: 6.00 Build 0)  -->
<svg version="1.1" xmlns="http://www.w3.org/2000/svg" xmlns:xlink="http://www.w3.org/1999/xlink" x="0px" y="0px"
	 viewBox="0 0 512 512" style="enable-background:new 0 0 512 512;" xml:space="preserve">
<g id="tool_x5F_retarget_x5F_assistant">
	<g>
		<path style="fill:#AE9DD9;" d="M244.412,496.022c-24.691,0-44.78-20.084-44.78-44.77v-80.87h-15.62v80.87
			c0,24.686-20.088,44.77-44.78,44.77c-24.802,0-44.98-20.084-44.98-44.77v-192.03h-27.18c-22.263-0.066-40.35-18.275-40.35-40.59
			v-100.38c0-22.249,18.101-40.35,40.35-40.35c10.777,0,20.909,4.197,28.531,11.819s11.819,17.754,11.819,28.531v51.42h47.266
			c-20.491-12.52-34.195-35.099-34.195-60.82c0-39.276,31.949-71.23,71.22-71.23c39.276,0,71.229,31.954,71.229,71.23
			c0,25.721-13.706,48.3-34.2,60.82h120.841c24.687,0,44.771,20.088,44.771,44.78c0,24.686-20.084,44.77-44.771,44.77h-60.4v192.03
			C289.182,475.938,269.098,496.022,244.412,496.022z"/>
		<path style="fill:#2B2B2B;" d="M191.712,47.623c33.71,0,61.23,27.52,61.23,61.23c0,33.92-27.52,61.22-61.23,61.22
			c-33.7,0-61.22-27.52-61.22-61.22C130.492,75.143,158.012,47.623,191.712,47.623 M67.072,87.903c8.38,0,15.97,3.4,21.46,8.89
			s8.89,13.08,8.89,21.46v61.42h252.16c19.2,0,34.77,15.58,34.77,34.78c0,19.2-15.57,34.77-34.77,34.77h-70.4v202.03
			c0,19.2-15.57,34.77-34.77,34.77s-34.78-15.57-34.78-34.77v-90.87h-35.62v90.87c0,19.2-15.58,34.77-34.78,34.77
			c-19.2,0-34.98-15.57-34.98-34.77v-202.03h-37.18c-16.73-0.05-30.35-13.86-30.35-30.59v-100.38
			C36.722,101.493,50.302,87.903,67.072,87.903 M191.712,27.623c-40.02,0-73.374,29.102-80.017,67.256
			c-2.339-4.451-5.364-8.571-9.021-12.228c-9.51-9.51-22.154-14.748-35.602-14.748c-27.763,0-50.35,22.587-50.35,50.35v100.38
			c0,27.812,22.56,50.507,50.29,50.59l0.03,0h0.03h17.18v182.03c0,30.2,24.664,54.77,54.98,54.77
			c24.878,0,45.935-16.666,52.59-39.418c6.655,22.752,27.712,39.418,52.59,39.418c30.2,0,54.77-24.57,54.77-54.77v-182.03h50.4
			c30.2,0,54.77-24.57,54.77-54.77c0-30.206-24.57-54.78-54.77-54.78h-94.549c11.199-13.923,17.909-31.604,17.909-50.82
			C272.942,64.062,236.502,27.623,191.712,27.623L191.712,27.623z M117.422,159.673v-17.997c2.877,6.487,6.582,12.532,10.977,17.997
			H117.422L117.422,159.673z"/>
	</g>
	<g>
		<polygon style="fill:#BDBDBD;" points="355.613,259.163 355.613,186.997 283.447,186.997 283.447,114.694 355.613,114.694 
			355.613,42.528 427.916,42.528 427.916,114.694 500.082,114.694 500.082,186.997 427.916,186.997 427.916,259.163 		"/>
		<path style="fill:#2B2B2B;" d="M417.916,52.528v72.166h72.166v52.303h-72.166v72.166h-52.303v-72.166h-72.166v-52.303h72.166
			V52.528H417.916 M437.916,32.528h-20h-52.303h-20v20v52.166h-52.166h-20v20v52.303v20h20h52.166v52.166v20h20h52.303h20v-20
			v-52.166h52.166h20v-20v-52.303v-20h-20h-52.166V52.528V32.528L437.916,32.528z"/>
	</g>
</g>
<g id="Layer_1">
</g>
</svg>
