<?xml version="1.0" encoding="iso-8859-1"?>
<!-- Generator: Adobe Illustrator 27.7.0, SVG Export Plug-In . SVG Version: 6.00 Build 0)  -->
<svg version="1.1" xmlns="http://www.w3.org/2000/svg" xmlns:xlink="http://www.w3.org/1999/xlink" x="0px" y="0px"
	 viewBox="0 0 512 512" style="enable-background:new 0 0 512 512;" xml:space="preserve">
<g id="tool_x5F_game_x5F_fbx_x5F_exporter">
	<g>
		<rect x="7.942" y="-5.126" style="fill:none;" width="512" height="512"/>
		<g>
			<path style="fill:#AE9DD9;" d="M186.23,501.24c-18.345,0-33.27-14.925-33.27-33.271v-216H83.49
				c-32.956,0-58.771-24.937-58.771-56.77c0-14.752,5.307-26.644,17.208-38.557c11.101-11.101,25.86-17.213,41.562-17.213h84.18
				v-39.34c0-2.058,0.07-4.085,0.208-6.026c3.139-48.47,41.351-85.054,88.882-85.054c46.573,0,82.693,35.789,85.886,85.098
				c0.135,1.892,0.204,3.919,0.204,5.982v39.34h82.771c33.504,0,58.77,23.976,58.77,55.77c0,15.038-5.629,27.978-17.209,39.56
				c-11.099,11.098-25.858,17.21-41.561,17.21h-63.16v216c0,18.346-14.925,33.271-33.27,33.271H186.23z"/>
			<path style="fill:#2B2B2B;" d="M256.76,16.01c44.58,0,76.06,34.69,78.9,78.55c0.13,1.83,0.19,3.67,0.19,5.53v46.34h89.77
				c28.59,0,51.77,20.18,51.77,48.77c0,14.3-5.79,25.24-15.16,34.61s-22.31,15.16-36.61,15.16h-70.16v223
				c0,14.51-11.76,26.27-26.27,26.27H186.23c-14.51,0-26.27-11.76-26.27-26.27v-223H83.49c-28.59,0-51.77-21.18-51.77-49.77
				c0-14.3,5.8-24.24,15.16-33.61c9.37-9.37,22.32-15.16,36.61-15.16h91.18v-46.34c0-1.86,0.06-3.7,0.19-5.53
				C177.7,50.7,212.18,16.01,256.76,16.01 M256.76,2.01c-25.039,0-48.609,9.516-66.366,26.794
				c-17.404,16.935-27.88,39.947-29.502,64.802c-0.148,2.092-0.223,4.274-0.223,6.485v32.34H83.49
				c-17.572,0-34.089,6.84-46.509,19.26c-8.271,8.28-19.26,21.793-19.26,43.51c0,35.759,28.89,63.77,65.77,63.77h62.47v209
				c0,22.205,18.065,40.27,40.27,40.27h142.96c22.205,0,40.27-18.065,40.27-40.27v-209h56.16c17.572,0,34.089-6.84,46.51-19.26
				c12.96-12.96,19.26-27.52,19.26-44.509c0-17.605-6.991-33.732-19.685-45.41c-12.169-11.195-28.536-17.36-46.085-17.36h-75.77
				v-32.34c0-2.211-0.075-4.392-0.223-6.484c-1.626-24.936-11.476-47.855-27.74-64.54C304.881,11.619,281.752,2.01,256.76,2.01
				L256.76,2.01z"/>
		</g>
		<path style="fill:#1D1D1D;" d="M174.67,94.56h0.19c-0.13,1.83-0.19,3.67-0.19,5.53V94.56z"/>
		<path style="fill:#1D1D1D;" d="M342.85,94.56v5.53c0-1.86-0.06-3.7-0.19-5.53H342.85z"/>
		<path style="fill:none;stroke:#1D1D1D;stroke-width:26;stroke-miterlimit:10;" d="M218.6,465.621h-15.015
			c-5.667,0-10.261-4.594-10.261-10.261V220.115c0-5.667-4.594-10.261-10.261-10.261H75.477c-5.716,0-10.33-4.67-10.26-10.385
			l0.146-12.062c0.068-5.618,4.642-10.137,10.26-10.137h362.9c5.667,0,10.261,4.594,10.261,10.261v13.062
			c0,5.667-4.594,10.261-10.261,10.261H331.511c-5.666,0-10.26,4.593-10.261,10.259l-0.04,234.248
			c-0.001,5.666-4.595,10.259-10.261,10.259h-15.716c-5.666,0-10.259-4.592-10.261-10.258l-0.042-123.133
			c-0.002-5.665-4.594-10.256-10.258-10.258l-35.494-0.012c-5.667-0.002-10.262,4.59-10.264,10.257l-0.051,123.147
			C228.859,461.029,224.266,465.621,218.6,465.621z M255.602,44.508c-29.17,0-52.818,23.647-52.818,52.818
			s23.647,52.818,52.818,52.818s52.818-23.647,52.818-52.818S284.772,44.508,255.602,44.508z"/>
		<path style="fill:#BDBDBD;" d="M218.663,465.621h-15.015c-5.667,0-10.261-4.594-10.261-10.261V220.115
			c0-5.667-4.594-10.261-10.261-10.261H75.539c-5.716,0-10.33-4.67-10.26-10.385l0.146-12.062
			c0.068-5.618,4.642-10.137,10.26-10.137h362.9c5.667,0,10.261,4.594,10.261,10.261v13.062c0,5.667-4.594,10.261-10.261,10.261
			H331.573c-5.666,0-10.26,4.593-10.261,10.259l-0.04,234.248c-0.001,5.666-4.595,10.259-10.261,10.259h-15.716
			c-5.666,0-10.259-4.592-10.261-10.258l-0.042-123.133c-0.002-5.665-4.594-10.256-10.258-10.258l-35.494-0.012
			c-5.667-0.002-10.262,4.59-10.264,10.257l-0.051,123.147C228.922,461.029,224.328,465.621,218.663,465.621z M255.664,44.508
			c-29.17,0-52.818,23.647-52.818,52.818s23.647,52.818,52.818,52.818s52.818-23.647,52.818-52.818S284.835,44.508,255.664,44.508z"
			/>
		<circle style="fill:#AE9DD9;stroke:#1D1D1D;stroke-width:17;stroke-miterlimit:10;" cx="328.894" cy="258" r="56.759"/>
		<g>
			<polygon style="fill:#BDBDBD;" points="372.055,433.48 331.069,472.688 320.262,248.385 485.091,400.899 428.709,407.075 
				459.457,473.045 402.805,499.453 			"/>
			<path style="fill:#1D1D1D;" d="M329.753,268.747L465.637,394.48l-49.643,5.438l32.168,69.015l-41.244,19.225l-32.169-69.016
				l-36.086,34.521L329.753,268.747 M310.771,228.022l2.002,41.543l8.91,184.915l1.794,37.235l26.938-25.769l18.947-18.125
				l22.149,47.518l7.182,15.408l15.408-7.182l41.244-19.225l15.408-7.182l-7.182-15.408l-22.148-47.516l26.065-2.855l37.056-4.059
				l-27.362-25.318L341.298,256.269L310.771,228.022L310.771,228.022z"/>
		</g>
	</g>
</g>
<g id="Layer_1">
</g>
</svg>
