<?xml version="1.0" encoding="iso-8859-1"?>
<!-- Generator: Adobe Illustrator 27.7.0, SVG Export Plug-In . SVG Version: 6.00 Build 0)  -->
<svg version="1.1" xmlns="http://www.w3.org/2000/svg" xmlns:xlink="http://www.w3.org/1999/xlink" x="0px" y="0px"
	 viewBox="0 0 512 512" style="enable-background:new 0 0 512 512;" xml:space="preserve">
<g id="tool_x5F_morphing_x5F_attributes">
	<g>
		<rect x="46.347" y="212.267" style="fill:#BDBDBD;" width="256.256" height="256.255"/>
		<path style="fill:#1D1D1D;" d="M294.102,220.766v239.255H54.847V220.766H294.102 M311.102,203.766h-17H54.847h-17v17v239.255v17
			h17h239.255h17v-17V220.766V203.766L311.102,203.766z"/>
	</g>
	<g>
		<rect x="70.613" y="236.533" style="fill:#474747;" width="207.723" height="207.723"/>
	</g>
	<g>
		<path style="fill:#AE9DD9;" d="M186.891,398.557c-35.968,0-65.23-29.262-65.23-65.229v-143.25c0-35.968,29.262-65.23,65.23-65.23
			H330.14c35.968,0,65.23,29.262,65.23,65.23v143.25c0,35.968-29.263,65.229-65.23,65.229H186.891z"/>
		<path style="fill:#1D1D1D;" d="M330.14,131.348c32.436,0,58.73,26.294,58.73,58.73v143.249c0,32.436-26.294,58.73-58.73,58.73
			H186.89c-32.436,0-58.73-26.294-58.73-58.73V190.078c0-32.436,26.294-58.73,58.73-58.73H330.14 M330.14,118.348H186.89
			c-39.552,0-71.73,32.178-71.73,71.73v143.249c0,39.552,32.178,71.73,71.73,71.73H330.14c39.552,0,71.73-32.178,71.73-71.73
			V190.078C401.87,150.526,369.692,118.348,330.14,118.348L330.14,118.348z"/>
	</g>
	<g>
		<circle style="fill:#3D3D3D;" cx="345.942" cy="167.018" r="87.621"/>
	</g>
	<g>
		<path style="fill:#BDBDBD;" d="M345.942,308.051c-77.766,0-141.033-63.267-141.033-141.032
			c0-77.766,63.268-141.033,141.033-141.033s141.032,63.267,141.032,141.033C486.975,244.784,423.708,308.051,345.942,308.051z
			 M345.942,73.329c-51.66,0-93.689,42.029-93.689,93.689s42.029,93.689,93.689,93.689s93.688-42.029,93.688-93.689
			S397.603,73.329,345.942,73.329z"/>
		<path style="fill:#1D1D1D;" d="M345.942,32.985c74.024,0,134.033,60.009,134.033,134.033s-60.009,134.033-134.033,134.033
			s-134.033-60.009-134.033-134.033S271.918,32.985,345.942,32.985 M345.942,267.708c55.609,0,100.689-45.08,100.689-100.689
			c0-55.609-45.08-100.689-100.689-100.689c-55.609,0-100.689,45.08-100.689,100.689
			C245.253,222.627,290.333,267.708,345.942,267.708 M345.942,18.985c-39.541,0-76.715,15.398-104.675,43.358
			c-27.96,27.96-43.358,65.134-43.358,104.675s15.398,76.715,43.358,104.675c27.96,27.96,65.134,43.358,104.675,43.358
			c39.541,0,76.715-15.398,104.675-43.358s43.358-65.134,43.358-104.675s-15.398-76.715-43.358-104.675
			C422.657,34.384,385.483,18.985,345.942,18.985L345.942,18.985z M345.942,253.708c-47.801,0-86.689-38.889-86.689-86.689
			s38.889-86.689,86.689-86.689s86.689,38.889,86.689,86.689S393.743,253.708,345.942,253.708L345.942,253.708z"/>
	</g>
</g>
<g id="Layer_1">
</g>
</svg>
