<?xml version="1.0" encoding="iso-8859-1"?>
<!-- Generator: Adobe Illustrator 27.6.1, SVG Export Plug-In . SVG Version: 6.00 Build 0)  -->
<svg version="1.1" xmlns="http://www.w3.org/2000/svg" xmlns:xlink="http://www.w3.org/1999/xlink" x="0px" y="0px"
	 viewBox="0 0 510.187 509.861" style="enable-background:new 0 0 510.187 509.861;" xml:space="preserve">
<g id="Render_Calculator">
	<rect y="0" style="fill:none;" width="510.187" height="510.187"/>
	<g>
		<g id="XMLID_92_">
			<rect x="33.162" y="33.162" style="fill:#BDBDBD;" width="444.075" height="444.075"/>
		</g>
		<g>
			<polygon style="fill:#1D1D1D;" points="482.126,105.864 407.724,32.524 328.433,31.887 404.748,107.99 328.433,184.305 
				407.724,183.667 482.126,110.328 416.865,107.99 			"/>
			<polygon style="fill:#1D1D1D;" points="264.659,107.99 330.133,105.864 255.731,32.524 176.44,31.887 252.755,107.99 
				176.44,184.305 255.731,183.667 330.133,110.328 			"/>
			<polygon style="fill:#1D1D1D;" points="115.855,107.99 181.329,105.864 106.927,32.524 27.635,31.887 103.951,107.99 
				27.635,184.305 106.927,183.667 181.329,110.328 			"/>
		</g>
		<g id="XMLID_83_">
			<path style="fill:#1D1D1D;" d="M467.671,42.516v425.156H42.516V42.516H467.671 M484.677,25.509H25.509v459.168h459.168V25.509
				L484.677,25.509z"/>
		</g>
		
			<line style="fill:none;stroke:#1D1D1D;stroke-width:8;stroke-linecap:round;stroke-miterlimit:10;" x1="34.65" y1="182.179" x2="475.536" y2="182.179"/>
		
			<line style="fill:none;stroke:#1D1D1D;stroke-width:8;stroke-linecap:round;stroke-miterlimit:10;" x1="34.65" y1="107.777" x2="475.536" y2="107.777"/>
	</g>
	
		<circle style="display:none;fill-rule:evenodd;clip-rule:evenodd;fill:#BDBDBD;stroke:#1D1D1D;stroke-width:8;stroke-miterlimit:10;" cx="361.382" cy="366.909" r="120.532"/>
	
		<circle style="display:none;fill-rule:evenodd;clip-rule:evenodd;fill:#BDBDBD;stroke:#1D1D1D;stroke-width:8;stroke-miterlimit:10;" cx="361.382" cy="366.909" r="69.088"/>
	<circle style="display:none;fill-rule:evenodd;clip-rule:evenodd;fill:#1D1D1D;" cx="361.382" cy="366.909" r="26.785"/>
	<path style="fill:#8E8D8D;stroke:#1D1D1D;stroke-width:11;stroke-linecap:round;stroke-linejoin:round;stroke-miterlimit:10;" d="
		M362.172,246.293c-65.937,0-119.389,53.452-119.389,119.389c0,65.936,53.452,119.389,119.389,119.389
		s119.389-53.453,119.389-119.389C481.561,299.744,428.109,246.293,362.172,246.293z"/>
	<path style="fill:#1D1D1D;" d="M418.508,354.609h-45.395v-69.182c0-5.906-4.832-10.737-10.737-10.737l0,0
		c-5.906,0-10.737,4.832-10.737,10.737v79.577c0,0.031,0.005,0.061,0.005,0.092s-0.005,0.061-0.005,0.091
		c0,5.818,4.76,10.578,10.578,10.578h56.292c5.818,0,10.578-4.76,10.578-10.578C429.086,359.369,424.325,354.609,418.508,354.609z"
		/>
</g>
<g id="Layer_1">
</g>
</svg>
