<?xml version="1.0" encoding="iso-8859-1"?>
<!-- Generator: Adobe Illustrator 27.7.0, SVG Export Plug-In . SVG Version: 6.00 Build 0)  -->
<svg version="1.1" xmlns="http://www.w3.org/2000/svg" xmlns:xlink="http://www.w3.org/1999/xlink" x="0px" y="0px"
	 viewBox="0 0 512 512" style="enable-background:new 0 0 512 512;" xml:space="preserve">
<g id="maya_x5F_to_x5F_discord">
	<rect x="0" style="fill:none;" width="512" height="512"/>
	<g id="discord">
		<g id="Discord_Logos">
			<g id="Discord_Logo_-_Large_-_White">
				<g>
					<path style="fill:#BDBDBD;" d="M153.1,414.736c-0.965,0-1.941-0.141-2.899-0.431c-39.771-12.051-76.885-30.682-110.309-55.377
						c-2.284-1.688-3.743-4.267-4.013-7.095c-8.518-89.382,12.587-170.184,64.522-247.023c1.028-1.521,2.456-2.73,4.125-3.494
						c28.658-13.109,58.94-22.442,90.006-27.739c0.563-0.096,1.126-0.143,1.684-0.143c3.577,0,6.938,1.923,8.726,5.121
						c3.041,5.439,5.901,11.037,8.541,16.715c14.066-1.791,28.317-2.697,42.466-2.697s28.398,0.906,42.464,2.697
						c2.638-5.675,5.499-11.274,8.543-16.717c1.787-3.196,5.148-5.119,8.725-5.119c0.554,0,1.112,0.046,1.671,0.141
						c31.051,5.253,61.316,14.564,89.956,27.676c1.651,0.756,3.065,1.948,4.091,3.447c25.156,36.782,43.392,75.603,54.2,115.384
						c11.375,41.869,14.915,86.212,10.52,131.797c-0.272,2.821-1.729,5.396-4.009,7.081c-33.437,24.723-70.578,43.345-110.393,55.35
						c-0.953,0.287-1.925,0.427-2.886,0.427c-3.104,0-6.099-1.448-8.02-4.025c-9.005-12.084-17.035-25.021-23.868-38.453
						c-0.652-1.282-1.013-2.674-1.076-4.079c-22.746,6.279-46.357,9.527-69.869,9.527c-23.535,0-47.169-3.254-69.936-9.546
						c-0.066,1.401-0.426,2.789-1.077,4.067c-6.839,13.434-14.867,26.379-23.86,38.475
						C159.205,413.284,156.206,414.736,153.1,414.736z M326.421,227.677c-15.782,0-28.145,14.267-28.145,32.48
						c0,17.817,12.626,32.313,28.145,32.313c15.479,0,27.827-14.263,28.113-32.471c0.146-9.236-3.245-18.062-9.301-24.213
						C340.085,230.557,333.404,227.677,326.421,227.677z M185.511,227.677c-15.501,0-28.112,14.57-28.112,32.48
						c0,17.817,12.641,32.313,28.178,32.313c15.497,0,27.861-14.263,28.146-32.471c0.145-9.193-3.25-17.998-9.313-24.157
						C199.227,230.577,192.515,227.677,185.511,227.677z"/>
					<path style="fill:#1D1D1D;" d="M315.684,83.435c30.204,5.11,59.608,14.157,87.461,26.908
						c47.982,70.155,71.822,149.28,63.02,240.575c-32.421,23.972-68.73,42.177-107.333,53.817
						c-8.693-11.664-16.378-24.046-22.974-37.012c12.565-4.696,24.693-10.487,36.245-17.305c-3.001-2.034-5.969-4.301-8.869-6.669
						c-33.961,15.971-70.597,23.956-107.233,23.956s-73.273-7.985-107.233-23.956c-2.868,2.201-5.835,4.468-8.869,6.669
						c11.529,6.808,23.635,12.588,36.178,17.272c-6.604,12.972-14.289,25.364-22.974,37.045
						c-38.571-11.687-74.852-29.901-107.267-53.85c-7.502-78.724,7.502-158.583,62.853-240.475
						c27.881-12.754,57.304-21.822,87.527-26.975c4.131,7.389,7.871,14.991,11.203,22.774c16.086-2.424,32.309-3.636,48.532-3.636
						c16.223,0,32.445,1.212,48.532,3.636C307.812,98.426,311.551,90.824,315.684,83.435 M326.421,302.47
						c21.307,0,37.745-18.973,38.112-42.313c0.367-23.341-16.638-42.48-38.112-42.48c-21.473,0-38.145,19.139-38.145,42.48
						C288.276,283.498,305.481,302.47,326.421,302.47 M185.577,302.47c21.307,0,37.778-18.973,38.145-42.313
						c0.367-23.341-16.772-42.48-38.212-42.48c-21.44,0-38.112,19.139-38.112,42.48C147.399,283.498,164.671,302.47,185.577,302.47
						 M196.22,63.435c-1.116,0-2.241,0.093-3.367,0.286c-31.921,5.443-63.038,15.033-92.485,28.503
						c-3.34,1.528-6.194,3.945-8.251,6.988c-53.288,78.841-74.94,161.785-66.193,253.572c0.539,5.654,3.457,10.813,8.025,14.188
						c34.346,25.376,72.483,44.522,113.352,56.905c1.914,0.58,3.867,0.861,5.798,0.861c6.214,0,12.211-2.902,16.052-8.068
						c8.588-11.551,16.327-23.848,23.036-36.599c20.9,5.041,42.395,7.636,63.813,7.636c21.391,0,42.862-2.589,63.737-7.618
						c6.708,12.757,14.455,25.054,23.058,36.598c3.841,5.153,9.832,8.05,16.038,8.05c1.923,0,3.865-0.278,5.772-0.853
						c40.917-12.337,79.087-31.476,113.45-56.884c4.559-3.371,7.473-8.518,8.017-14.162c4.512-46.792,0.87-92.34-10.823-135.378
						c-11.102-40.863-29.807-80.701-55.596-118.407c-2.051-2.999-4.88-5.382-8.183-6.894c-29.43-13.474-60.535-23.044-92.45-28.443
						c-1.117-0.189-2.235-0.281-3.342-0.281c-7.153,0-13.874,3.845-17.449,10.237c-1.989,3.555-3.903,7.176-5.732,10.841
						c-12.141-1.289-24.382-1.94-36.549-1.94c-12.168,0-24.408,0.651-36.55,1.94c-1.828-3.664-3.741-7.283-5.728-10.837
						C210.096,67.282,203.372,63.435,196.22,63.435L196.22,63.435z M326.421,282.47c-9.836,0-18.145-10.218-18.145-22.313
						c0-12.395,8.14-22.48,18.145-22.48c5.489,0,9.385,2.787,11.686,5.125c4.188,4.255,6.531,10.466,6.428,17.041
						C344.336,272.531,336.379,282.47,326.421,282.47L326.421,282.47z M185.577,282.47c-9.854,0-18.179-10.218-18.179-22.313
						c0-12.395,8.125-22.48,18.112-22.48c5.516,0,9.447,2.817,11.774,5.181c4.196,4.262,6.543,10.453,6.441,16.985
						C203.526,272.531,195.554,282.47,185.577,282.47L185.577,282.47z"/>
				</g>
			</g>
		</g>
	</g>
</g>
<g id="Layer_1">
</g>
</svg>
