<?xml version="1.0" encoding="iso-8859-1"?>
<!-- Generator: Adobe Illustrator 27.7.0, SVG Export Plug-In . SVG Version: 6.00 Build 0)  -->
<svg version="1.1" xmlns="http://www.w3.org/2000/svg" xmlns:xlink="http://www.w3.org/1999/xlink" x="0px" y="0px"
	 viewBox="0 0 512 512" style="enable-background:new 0 0 512 512;" xml:space="preserve">
<g id="rig_x5F_auto_x5F_rigger">
	<rect x="0" style="fill:none;" width="512" height="512"/>
	<g>
		<path style="fill-rule:evenodd;clip-rule:evenodd;fill:#BDBDBD;" d="M308.693,475.2c-19.2,0-34.773-15.573-34.773-34.773V349.56
			h-35.627v90.867c0,19.2-15.573,34.773-34.773,34.773s-34.987-15.573-34.987-34.773V238.4h-70.4
			c-19.2,0-34.773-15.573-34.773-34.773s15.573-34.773,34.773-34.773h315.733c19.2,0,34.773,15.573,34.773,34.773
			S433.067,238.4,413.867,238.4h-70.4v202.027C343.467,459.627,327.893,475.2,308.693,475.2z M256,159.253
			c-33.707,0-61.227-27.52-61.227-61.227S222.293,36.8,256,36.8s61.227,27.52,61.227,61.227
			C317.227,131.947,289.707,159.253,256,159.253z"/>
		<path style="fill:#1D1D1D;" d="M256,45.547c29.013,0,52.693,23.467,52.693,52.693c0,29.013-23.68,52.693-52.693,52.693
			c-29.013,0-52.693-23.467-52.693-52.693S226.987,45.547,256,45.547 M413.867,177.173c14.507,0,26.24,11.733,26.24,26.24
			c0,14.507-11.733,26.24-26.24,26.24h-78.933v210.56c0,14.507-11.733,26.24-26.24,26.24s-26.24-11.733-26.24-26.24v-96.4H229.76
			v96.4c0,14.507-11.733,26.24-26.24,26.24s-26.24-11.733-26.24-26.24v-210.56H98.133c-14.507,0-26.24-11.733-26.24-26.24
			c-0.213-14.507,11.52-26.24,26.24-26.24H413.867 M256,28.48c-38.4,0-69.76,31.36-69.76,69.76c0,26.88,15.36,50.347,37.76,61.867
			H98.133c-23.893,0-43.307,19.413-43.307,43.307S74.24,246.72,98.133,246.72H160v193.493c0,23.893,19.413,43.307,43.307,43.307
			s43.307-19.413,43.307-43.307V360.88h18.56v79.333c0,23.893,19.413,43.307,43.307,43.307c23.893,0,43.307-19.413,43.307-43.307
			V246.72h61.867c23.893,0,43.307-19.413,43.307-43.307s-19.413-43.307-43.307-43.307H287.787c22.4-11.52,37.76-34.987,37.76-61.867
			C325.76,59.627,294.4,28.48,256,28.48L256,28.48z"/>
	</g>
	<g>
		<rect x="215.522" y="225.664" style="fill-rule:evenodd;clip-rule:evenodd;fill:#937CD8;" width="79.379" height="79.379"/>
		<path style="fill:#1D1D1D;" d="M287.401,233.163v64.38h-64.38v-64.38H287.401 M302.401,218.163h-15h-64.38h-15v15v64.38v15h15
			h64.38h15v-15v-64.38V218.163L302.401,218.163z"/>
	</g>
</g>
<g id="Layer_1">
</g>
</svg>
