<?xml version="1.0" encoding="iso-8859-1"?>
<!-- Generator: Adobe Illustrator 27.7.0, SVG Export Plug-In . SVG Version: 6.00 Build 0)  -->
<svg version="1.1" xmlns="http://www.w3.org/2000/svg" xmlns:xlink="http://www.w3.org/1999/xlink" x="0px" y="0px"
	 viewBox="0 0 512 512" style="enable-background:new 0 0 512 512;" xml:space="preserve">
<g id="tool_x5F_rig_x5F_interface">
	<g>
		<g>
			<path style="fill:#937CD8;" d="M241.731,469.553c-6.806,0-13.287-2.994-17.781-8.215c-4.447-5.164-6.414-12.011-5.396-18.784
				l10.101-67.206c1.6-10.642-2.784-21.224-11.441-27.617l-37.471-27.671L162.7,359.886c-9.221,21.546-30.309,35.469-53.726,35.469
				c-3.597,0-7.221-0.337-10.772-1.002l-48.409-9.054c-6.248-1.168-11.757-4.935-15.113-10.333
				c-3.357-5.399-4.297-12.007-2.58-18.128c2.738-9.761,11.728-16.578,21.861-16.578c0.337,0,0.676,0.008,1.015,0.022l47.977,2.127
				c0.171,0.008,0.342,0.012,0.513,0.012c5.035-0.001,9.436-3.228,10.952-8.03l16.425-52.029c1.546-4.897,3.511-9.697,5.837-14.267
				l38.464-75.545l-23.481-8.018c-1.2-0.41-2.447-0.617-3.709-0.617c-3.408,0-6.618,1.497-8.807,4.108l-25.023,29.845
				c-4.478,5.341-11.015,8.404-17.935,8.404c-10.241,0-19.243-6.522-22.4-16.23c-3.18-9.777-1.979-18.09,3.572-24.709l26.893-32.076
				c11.138-13.284,27.467-20.903,44.799-20.903c3.746,0,7.513,0.364,11.196,1.083c52.618,10.264,93.156,26.847,131.442,53.769
				c1.868,1.313,3.799,1.925,6.078,1.925c5.827,0,12.835-4.099,19.018-7.715c2.174-1.271,4.226-2.472,6.255-3.527
				c3.343-1.738,7.084-2.657,10.819-2.657c10.214,0,19.198,6.523,22.356,16.231c3.559,10.943,0.552,21.596-7.849,27.8
				c-18.044,13.329-35.369,19.808-52.966,19.808c-6.486,0-13.049-0.919-19.505-2.73l-23.033-6.462l-29.268,57.483l37.008,31.028
				c15.497,12.994,23.258,33.491,20.254,53.492l-11.458,76.227c-2.155,14.354-15.375,18.655-20.352,20.274
				C246.658,469.158,244.197,469.553,241.731,469.553z M256.155,150.881c-21.593-0.001-40.59-13.807-47.273-34.354
				c-8.48-26.072,5.832-54.182,31.904-62.662c4.998-1.626,10.175-2.45,15.388-2.45c21.593,0,40.591,13.806,47.274,34.354
				c4.107,12.629,3.052,26.103-2.975,37.938c-6.025,11.835-16.3,20.616-28.93,24.723c-4.998,1.626-10.175,2.45-15.386,2.45
				C256.157,150.881,256.156,150.881,256.155,150.881z"/>
			<path style="fill:#474747;" d="M256.173,57.416c18.424,0,35.561,11.741,41.568,30.21c7.469,22.962-5.092,47.632-28.054,55.1
				c-4.493,1.461-9.049,2.156-13.532,2.156c-18.424,0-35.561-11.741-41.568-30.21c-7.469-22.962,5.092-47.632,28.054-55.1
				C247.135,58.11,251.691,57.416,256.173,57.416 M149.05,138.354c3.336,0,6.701,0.319,10.047,0.972
				c48.073,9.377,89.329,24.794,129.14,52.788c3.061,2.152,6.268,3.017,9.529,3.017c9.721,0,19.911-7.69,28.041-11.919
				c2.594-1.349,5.348-1.981,8.051-1.981c7.288,0,14.211,4.591,16.65,12.087c2.511,7.72,1.19,16.024-5.707,21.118
				c-15.04,11.109-31.489,18.634-49.401,18.634c-5.807,0-11.769-0.791-17.884-2.507l-27.769-7.791l-33.665,66.12l40.666,34.095
				c14.006,11.744,20.89,29.929,18.175,48.003l-11.458,76.226c-1.364,9.078-8.447,12.913-16.275,15.46
				c-1.838,0.598-3.672,0.877-5.46,0.877c-10.236,0-18.887-9.163-17.243-20.107l10.101-67.206
				c1.926-12.812-3.388-25.637-13.81-33.335L177.21,310.73l-20.027,46.796c-8.373,19.566-27.536,31.828-48.21,31.828
				c-3.198,0-6.433-0.294-9.669-0.899l-48.409-9.054c-9.647-1.804-15.671-11.493-13.02-20.943
				c2.03-7.238,8.627-12.199,16.084-12.198c0.248,0,0.498,0.006,0.748,0.017l47.977,2.127c0.261,0.012,0.52,0.017,0.779,0.017
				c7.597,0,14.368-4.922,16.673-12.224l16.425-52.029c1.45-4.593,3.277-9.058,5.462-13.35l41.603-81.711l-30.028-10.253
				c-1.853-0.633-3.759-0.939-5.648-0.939c-5.078,0-10.02,2.217-13.405,6.253l-25.023,29.845c-3.574,4.263-8.48,6.259-13.337,6.259
				c-7.137,0-14.167-4.313-16.695-12.086c-2.146-6.599-2.27-13.352,2.464-18.999l26.893-32.076
				C118.925,145.095,133.706,138.354,149.05,138.354 M256.173,45.416c-5.843,0-11.645,0.923-17.243,2.744
				c-29.218,9.503-45.257,41.005-35.754,70.223c3.193,9.818,8.896,18.263,16.263,24.72c-17.861-6.35-37.004-11.452-58.044-15.555
				c-4.061-0.792-8.214-1.194-12.345-1.194c-19.111,0-37.115,8.401-49.396,23.048L72.76,181.478
				c-4.79,5.714-9.491,15.629-4.68,30.42c3.964,12.186,15.259,20.374,28.106,20.374c8.699,0,16.912-3.845,22.533-10.549
				l25.023-29.845c1.046-1.247,2.58-1.963,4.209-1.963c0.601,0,1.196,0.099,1.769,0.295l16.935,5.782l-35.325,69.381
				c-2.477,4.865-4.568,9.973-6.212,15.182l-16.425,52.03c-0.724,2.295-2.826,3.836-5.23,3.836c-0.083,0-0.166-0.002-0.25-0.006
				l-47.974-2.127c-0.427-0.019-0.853-0.028-1.276-0.028c-12.815,0-24.181,8.617-27.642,20.957
				c-2.171,7.738-0.982,16.091,3.261,22.917c4.243,6.825,11.207,11.586,19.107,13.063l48.408,9.054
				c3.914,0.732,7.909,1.103,11.875,1.103c25.821,0,49.075-15.35,59.242-39.107l14.062-32.858l31.373,23.168
				c6.864,5.069,10.34,13.46,9.072,21.898l-10.101,67.206c-1.277,8.503,1.195,17.101,6.782,23.591
				c5.635,6.545,13.773,10.299,22.327,10.299c3.097,0,6.183-0.493,9.172-1.465c5.372-1.747,21.722-7.065,24.43-25.088l11.458-76.225
				c1.637-10.898,0.44-22.104-3.461-32.408c-3.902-10.305-10.427-19.494-18.87-26.574l-33.351-27.962l24.87-48.846l18.297,5.134
				c6.983,1.96,14.091,2.953,21.126,2.953c18.926,0,37.418-6.863,56.531-20.982c10.545-7.788,14.373-21.001,9.988-34.482
				c-3.964-12.187-15.241-20.376-28.061-20.376c-4.695,0-9.394,1.153-13.589,3.335c-2.161,1.124-4.375,2.419-6.516,3.671
				c-5.251,3.071-11.786,6.893-15.987,6.893c-1.038,0-1.774-0.234-2.628-0.833c-13.95-9.81-28.189-18.271-43.169-25.571
				c1.384,0.103,2.78,0.155,4.186,0.155c5.844,0,11.645-0.923,17.243-2.744c14.154-4.604,25.668-14.443,32.421-27.707
				c6.753-13.264,7.937-28.363,3.333-42.517C301.664,60.887,280.372,45.416,256.173,45.416L256.173,45.416z"/>
		</g>
		<g>
			<path style="fill:#937CD8;" d="M303.263,467.229c-6.805,0-13.285-2.994-17.779-8.214c-4.447-5.164-6.414-12.011-5.397-18.783
				l10.102-67.207c1.6-10.642-2.784-21.224-11.441-27.617l-37.47-27.671l-17.044,39.826c-9.22,21.546-30.309,35.468-53.726,35.468
				c-3.596,0-7.22-0.337-10.771-1.001l-48.41-9.054c-6.249-1.168-11.757-4.935-15.114-10.333
				c-3.356-5.399-4.296-12.007-2.579-18.129c2.737-9.76,11.726-16.577,21.859-16.577c0.337,0,0.677,0.008,1.017,0.022l47.975,2.127
				c0.171,0.008,0.342,0.012,0.513,0.012c5.035-0.001,9.436-3.228,10.952-8.03l16.425-52.03c1.545-4.895,3.51-9.694,5.837-14.266
				l38.464-75.545l-23.481-8.017c-1.2-0.41-2.448-0.618-3.709-0.618c-3.408,0-6.618,1.498-8.806,4.108l-25.023,29.846
				c-4.478,5.341-11.015,8.404-17.935,8.404c-10.241,0-19.243-6.522-22.401-16.23c-3.18-9.776-1.978-18.09,3.572-24.709
				l26.894-32.076c11.138-13.284,27.466-20.903,44.798-20.903c3.746,0,7.513,0.364,11.196,1.083
				c52.617,10.263,93.155,26.846,131.443,53.769c1.867,1.313,3.799,1.925,6.078,1.925c5.826,0,12.834-4.099,19.017-7.714
				c2.174-1.271,4.227-2.472,6.256-3.528c3.343-1.738,7.084-2.657,10.819-2.657c10.214,0,19.197,6.523,22.355,16.231
				c3.561,10.943,0.554,21.596-7.848,27.8c-18.044,13.328-35.369,19.808-52.966,19.808c-6.486,0-13.049-0.918-19.505-2.73
				l-23.033-6.462l-29.268,57.483l37.008,31.028c15.498,12.993,23.259,33.49,20.255,53.492l-11.458,76.227
				c-2.158,14.355-15.377,18.654-20.354,20.273C308.189,466.835,305.728,467.229,303.263,467.229z M317.688,148.559
				c-21.593-0.001-40.591-13.807-47.274-34.354c-8.479-26.072,5.832-54.182,31.904-62.662c4.998-1.626,10.175-2.45,15.387-2.45
				c21.594,0,40.592,13.806,47.275,34.354c8.479,26.072-5.832,54.182-31.904,62.662c-4.998,1.625-10.174,2.45-15.385,2.45
				C317.689,148.559,317.688,148.559,317.688,148.559z"/>
			<path style="fill:#474747;" d="M317.705,55.093c18.424,0,35.561,11.741,41.568,30.21c7.469,22.962-5.092,47.632-28.054,55.1
				c-4.493,1.461-9.049,2.156-13.532,2.156c-18.424,0-35.561-11.741-41.568-30.21c-7.469-22.962,5.092-47.632,28.054-55.1
				C308.667,55.787,313.223,55.093,317.705,55.093 M210.582,136.031c3.336,0,6.701,0.319,10.048,0.972
				c48.073,9.377,89.329,24.794,129.14,52.788c3.061,2.152,6.268,3.017,9.529,3.017c9.721,0,19.911-7.69,28.041-11.919
				c2.594-1.349,5.348-1.981,8.051-1.981c7.288,0,14.211,4.591,16.65,12.087c2.511,7.72,1.19,16.024-5.707,21.118
				c-15.04,11.109-31.489,18.634-49.401,18.634c-5.807,0-11.769-0.791-17.884-2.507l-27.769-7.791l-33.665,66.12l40.666,34.095
				c14.006,11.744,20.89,29.929,18.175,48.003l-11.458,76.226c-1.364,9.078-8.447,12.913-16.275,15.46
				c-1.838,0.598-3.672,0.877-5.46,0.877c-10.236,0-18.887-9.163-17.243-20.107l10.101-67.206
				c1.926-12.812-3.388-25.637-13.81-33.335l-43.569-32.174l-20.027,46.796c-8.374,19.567-27.534,31.828-48.21,31.828
				c-3.197,0-6.434-0.294-9.669-0.899l-48.409-9.054c-9.647-1.804-15.671-11.493-13.02-20.943
				c2.03-7.238,8.627-12.199,16.084-12.198c0.248,0,0.498,0.005,0.748,0.017l47.977,2.127c0.261,0.012,0.52,0.017,0.779,0.017
				c7.597,0,14.368-4.922,16.673-12.224l16.425-52.029c1.45-4.593,3.277-9.058,5.462-13.35l41.603-81.711l-30.028-10.253
				c-1.853-0.633-3.759-0.939-5.648-0.939c-5.078,0-10.02,2.217-13.405,6.253l-25.023,29.845c-3.574,4.263-8.48,6.259-13.337,6.259
				c-7.137,0-14.167-4.313-16.695-12.086c-2.146-6.599-2.27-13.352,2.464-18.999l26.893-32.076
				C180.457,142.773,195.238,136.031,210.582,136.031 M317.705,43.093c-5.844,0-11.645,0.923-17.243,2.744
				c-14.154,4.604-25.667,14.443-32.421,27.707c-6.753,13.264-7.937,28.363-3.333,42.517c3.193,9.818,8.895,18.263,16.263,24.72
				c-17.861-6.35-37.004-11.451-58.044-15.555c-4.061-0.792-8.214-1.194-12.345-1.194c-19.111,0-37.115,8.401-49.396,23.049
				l-26.893,32.076c-4.79,5.713-9.491,15.629-4.68,30.42c3.964,12.186,15.259,20.374,28.106,20.374
				c8.699,0,16.912-3.845,22.533-10.549l25.023-29.845c1.046-1.248,2.58-1.963,4.209-1.963c0.601,0,1.196,0.099,1.769,0.295
				l16.935,5.782l-35.325,69.381c-2.477,4.865-4.568,9.973-6.212,15.182l-16.425,52.029c-0.724,2.295-2.826,3.836-5.23,3.836
				c-0.083,0-0.166-0.002-0.25-0.006l-47.974-2.127c-0.428-0.019-0.855-0.028-1.28-0.028c-12.811-0.001-24.177,8.617-27.638,20.957
				c-2.171,7.738-0.982,16.091,3.261,22.917c4.243,6.825,11.207,11.586,19.107,13.063l48.408,9.054
				c3.914,0.732,7.909,1.103,11.875,1.103c25.821,0,49.075-15.35,59.242-39.107l14.062-32.858l31.373,23.168
				c6.864,5.07,10.341,13.461,9.072,21.898l-10.101,67.206c-1.278,8.503,1.195,17.101,6.782,23.591
				c5.635,6.545,13.773,10.299,22.327,10.299c3.096,0,6.182-0.493,9.171-1.465c5.373-1.748,21.723-7.066,24.43-25.089l11.458-76.225
				c1.637-10.898,0.44-22.104-3.461-32.408c-3.902-10.305-10.427-19.494-18.87-26.574l-33.352-27.962l24.87-48.846l18.297,5.134
				c6.983,1.96,14.091,2.953,21.126,2.953c18.926,0,37.418-6.863,56.531-20.982c10.545-7.788,14.373-21.001,9.988-34.482
				c-3.964-12.187-15.241-20.376-28.061-20.376c-4.695,0-9.394,1.153-13.589,3.335c-2.161,1.124-4.375,2.419-6.516,3.671
				c-5.251,3.071-11.786,6.893-15.987,6.893c-1.038,0-1.775-0.234-2.628-0.833c-13.95-9.81-28.189-18.271-43.169-25.571
				c1.384,0.103,2.78,0.155,4.186,0.155c5.844,0,11.645-0.923,17.243-2.744c14.154-4.604,25.668-14.443,32.421-27.707
				c6.753-13.263,7.937-28.363,3.333-42.517C363.195,58.564,341.904,43.093,317.705,43.093L317.705,43.093z"/>
		</g>
		<g>
			<path style="fill:#BDBDBD;" d="M364.959,467.229c-6.805,0-13.285-2.994-17.779-8.214c-4.447-5.164-6.414-12.011-5.397-18.783
				l10.102-67.207c1.6-10.642-2.784-21.224-11.441-27.617l-37.471-27.671l-17.043,39.826c-9.222,21.546-30.311,35.468-53.727,35.468
				c-3.596,0-7.22-0.337-10.771-1.001l-48.41-9.054c-6.249-1.168-11.757-4.935-15.114-10.333
				c-3.356-5.399-4.296-12.007-2.579-18.129c2.737-9.76,11.726-16.577,21.859-16.577c0.337,0,0.677,0.008,1.017,0.022l47.975,2.127
				c0.171,0.008,0.342,0.012,0.513,0.012c5.035-0.001,9.436-3.228,10.952-8.03l16.425-52.03c1.545-4.893,3.509-9.692,5.838-14.266
				l38.464-75.545l-23.481-8.017c-1.2-0.41-2.447-0.618-3.709-0.618c-3.408,0-6.618,1.498-8.808,4.109l-25.022,29.845
				c-4.478,5.341-11.015,8.404-17.935,8.404c-10.241,0-19.243-6.522-22.401-16.23c-3.18-9.776-1.978-18.09,3.572-24.709
				l26.894-32.076c11.138-13.284,27.466-20.903,44.798-20.903c3.746,0,7.513,0.364,11.196,1.083
				c52.616,10.263,93.154,26.846,131.442,53.769c1.867,1.313,3.799,1.925,6.078,1.925c5.826,0,12.834-4.099,19.017-7.714
				c2.174-1.271,4.227-2.472,6.256-3.528c3.343-1.738,7.084-2.657,10.819-2.657c10.214,0,19.197,6.523,22.355,16.231
				c3.561,10.943,0.554,21.596-7.848,27.8c-18.044,13.328-35.369,19.808-52.966,19.808c-6.486,0-13.049-0.918-19.505-2.73
				l-23.033-6.462l-29.268,57.483l37.008,31.028c15.498,12.993,23.259,33.49,20.255,53.492l-11.458,76.227
				c-2.158,14.355-15.377,18.654-20.354,20.273C369.886,466.835,367.424,467.229,364.959,467.229z M379.384,148.559
				c-21.593-0.001-40.591-13.807-47.274-34.354c-8.479-26.072,5.832-54.182,31.904-62.662c4.998-1.626,10.175-2.45,15.387-2.45
				c21.594,0,40.592,13.806,47.275,34.354c8.479,26.072-5.832,54.182-31.904,62.662c-4.998,1.625-10.174,2.45-15.385,2.45
				C379.386,148.559,379.385,148.559,379.384,148.559z"/>
			<path style="fill:#474747;" d="M379.401,55.093c18.424,0,35.561,11.741,41.568,30.21c7.469,22.962-5.092,47.632-28.054,55.1
				c-4.493,1.461-9.049,2.156-13.532,2.156c-18.424,0-35.561-11.741-41.568-30.21c-7.469-22.962,5.092-47.632,28.054-55.1
				C370.363,55.787,374.919,55.093,379.401,55.093 M272.278,136.031c3.336,0,6.701,0.319,10.048,0.972
				c48.073,9.377,89.329,24.794,129.14,52.788c3.061,2.152,6.268,3.017,9.529,3.017c9.721,0,19.911-7.69,28.041-11.919
				c2.594-1.349,5.348-1.981,8.051-1.981c7.288,0,14.211,4.591,16.65,12.087c2.511,7.72,1.19,16.024-5.707,21.118
				c-15.04,11.109-31.489,18.634-49.401,18.634c-5.807,0-11.769-0.791-17.884-2.507l-27.769-7.791l-33.665,66.12l40.666,34.095
				c14.006,11.744,20.89,29.929,18.175,48.003l-11.458,76.226c-1.364,9.078-8.447,12.913-16.275,15.46
				c-1.838,0.598-3.672,0.877-5.46,0.877c-10.236,0-18.887-9.163-17.243-20.107l10.101-67.206
				c1.926-12.812-3.388-25.637-13.81-33.335l-43.569-32.174l-20.027,46.796c-8.374,19.567-27.534,31.828-48.21,31.828
				c-3.197,0-6.434-0.294-9.669-0.899l-48.409-9.054c-9.647-1.804-15.671-11.493-13.02-20.943
				c2.03-7.238,8.627-12.199,16.084-12.198c0.248,0,0.498,0.005,0.748,0.017l47.977,2.127c0.261,0.012,0.52,0.017,0.779,0.017
				c7.597,0,14.368-4.922,16.673-12.224l16.425-52.029c1.45-4.593,3.277-9.058,5.462-13.35l41.603-81.711l-30.028-10.253
				c-1.853-0.633-3.759-0.939-5.648-0.939c-5.078,0-10.02,2.217-13.405,6.253l-25.023,29.845c-3.574,4.263-8.48,6.259-13.337,6.259
				c-7.137,0-14.167-4.313-16.695-12.086c-2.146-6.599-2.27-13.352,2.464-18.999l26.893-32.076
				C242.153,142.773,256.934,136.031,272.278,136.031 M379.401,43.093c-5.844,0-11.645,0.923-17.243,2.744
				c-14.154,4.604-25.667,14.443-32.421,27.707c-6.753,13.264-7.937,28.363-3.333,42.517c3.193,9.818,8.895,18.263,16.263,24.72
				c-17.861-6.35-37.004-11.451-58.044-15.555c-4.061-0.792-8.214-1.194-12.345-1.194c-19.111,0-37.115,8.401-49.396,23.049
				l-26.893,32.076c-4.79,5.713-9.491,15.629-4.68,30.42c3.964,12.186,15.259,20.374,28.106,20.374
				c8.699,0,16.912-3.845,22.533-10.549l25.023-29.845c1.046-1.248,2.58-1.963,4.209-1.963c0.601,0,1.196,0.099,1.769,0.295
				l16.935,5.782l-35.325,69.381c-2.477,4.865-4.568,9.973-6.212,15.182l-16.425,52.029c-0.724,2.295-2.826,3.836-5.23,3.836
				c-0.083,0-0.166-0.002-0.25-0.006l-47.974-2.127c-0.428-0.019-0.855-0.028-1.28-0.028c-12.811-0.001-24.177,8.617-27.638,20.957
				c-2.171,7.738-0.982,16.091,3.261,22.917c4.243,6.825,11.207,11.586,19.107,13.063l48.408,9.054
				c3.914,0.732,7.909,1.103,11.875,1.103c25.821,0,49.075-15.35,59.242-39.107l14.062-32.858l31.373,23.168
				c6.864,5.07,10.341,13.461,9.072,21.898l-10.101,67.206c-1.278,8.503,1.195,17.101,6.782,23.591
				c5.635,6.545,13.773,10.299,22.327,10.299c3.096,0,6.182-0.493,9.171-1.465c5.373-1.748,21.723-7.066,24.43-25.089l11.458-76.225
				c1.637-10.898,0.44-22.104-3.461-32.408c-3.902-10.305-10.427-19.494-18.87-26.574l-33.352-27.962l24.87-48.846l18.297,5.134
				c6.983,1.96,14.091,2.953,21.126,2.953c18.926,0,37.418-6.863,56.531-20.982c10.545-7.788,14.373-21.001,9.988-34.482
				c-3.964-12.187-15.241-20.376-28.061-20.376c-4.695,0-9.394,1.153-13.589,3.335c-2.161,1.124-4.375,2.419-6.516,3.671
				c-5.251,3.071-11.786,6.893-15.987,6.893c-1.038,0-1.775-0.234-2.628-0.833c-13.95-9.81-28.189-18.271-43.169-25.571
				c1.384,0.103,2.78,0.155,4.186,0.155c5.844,0,11.645-0.923,17.243-2.744c14.154-4.604,25.668-14.443,32.421-27.707
				c6.753-13.263,7.937-28.363,3.333-42.517C424.892,58.564,403.601,43.093,379.401,43.093L379.401,43.093z"/>
		</g>
	</g>
</g>
<g id="Layer_1">
</g>
</svg>
