<?xml version="1.0" encoding="UTF-8"?>
<svg id="Layer_1" xmlns="http://www.w3.org/2000/svg" version="1.1" xmlns:xlink="http://www.w3.org/1999/xlink" viewBox="0 0 512 512">
  <!-- Generator: Adobe Illustrator 29.2.1, SVG Export Plug-In . SVG Version: 2.1.0 Build 116)  -->
  <defs>
    <style>
      .st0 {
        fill: #dee32d;
      }

      .st1 {
        fill: #663695;
      }

      .st2 {
        fill: #b466ff;
      }

      .st3 {
        fill: #231f20;
      }

      .st4 {
        fill: #e6d7ff;
      }
    </style>
  </defs>
  <g>
    <rect class="st4" x="397.9" y="92" width="64.5" height="328"/>
    <path class="st3" d="M470,427.5h-79.5V84.5h79.5v343ZM405.5,412.5h49.5V99.5h-49.5v313Z"/>
  </g>
  <g>
    <rect class="st2" x="215.9" y="92" width="129.1" height="328"/>
    <path class="st3" d="M352.5,427.5h-144V84.5h144v343ZM223.5,412.5h114V99.5h-114v313Z"/>
  </g>
  <g>
    <rect class="st1" x="8.9" y="92" width="154" height="328"/>
    <path class="st3" d="M170.5,427.5H1.5V84.5h169v343ZM16.5,412.5h139V99.5H16.5v313Z"/>
  </g>
  <g>
    <path class="st0" d="M171.7,204.8c0-4-2.3-6-6-7-55.6-10.3-56.9-9.6-67.9-67.5-.7-4-3-6.3-7-6.3s-6.3,2.3-7,6.3c-11.6,57.6-13,55.9-67.9,67.5-3.7,1-6,3-6,7s2.3,6,6,7c54.9,11.6,56.2,9.6,67.9,67.5.7,3.7,3,6.3,7,6.3s6.3-2.7,7-6.3c11.6-57.9,12.3-57.2,67.9-67.5,3.7-1,6-3,6-7ZM278.9,349.6c0-5.3-3.4-8.9-8.4-9.5-74.6-10.1-74.6-12.6-89.4-89.7-.8-5-4.2-8.7-9.5-8.7s-8.7,3.6-9.5,8.7c-10.6,77.1-13.1,79.9-89.1,89.7-5,.6-8.7,4.2-8.7,9.5s3.6,8.7,8.9,9.2c74.9,9.2,74.6,13.1,88.8,89.7,1.1,5,4.5,8.7,9.5,8.7s8.7-3.6,9.5-9.8c12.3-76,14.2-79.3,88.8-88.6,5.6-.6,8.9-4.2,8.9-9.2ZM502.2,179.6c0-5.6-4.1-9.7-9.9-10.8-118.2-15.3-136.2-31.9-149.1-148.9-.6-6-5.2-10.1-10.8-10.1s-9.9,4.1-10.8,10.1c-12.9,117-30.9,133.6-149.1,148.9-5.8,1.1-9.7,5.2-9.7,10.8s3.9,9.7,9.7,10.6c118.2,15.3,136.2,32.2,149.1,148.9.9,6.3,5.2,10.4,10.8,10.4s10.1-4.1,10.8-10.4c15.3-116.5,31.1-132.7,149.1-148.9,5.8-.9,9.9-5,9.9-10.6Z"/>
    <path class="st3" d="M171.7,464.6c-8.3,0-14.9-5.7-16.8-14.5v-.3c0,0-.6-3.1-.6-3.1-6.5-34.8-10-53.9-19.5-63.6-9.3-9.5-27-12.6-62.2-16.9-9.2-1-15.6-7.8-15.6-16.7s6.3-15.9,15.3-16.9c37.8-4.9,55.3-8,64.6-17.4,9.9-9.9,12.9-29.4,17.9-65.8v-.2c1.5-8.8,8.4-14.9,16.9-14.9s15.4,6,16.9,14.8l.3,1.4c6.8,35.5,10.6,55.1,20.2,64.8,9.2,9.3,25.3,12.3,62.5,17.3,8.8,1,15,8,15,16.9s-6.3,15.7-15.6,16.7c-36.8,4.5-53.9,7.5-63.3,17.1-9.6,9.7-13.1,29.1-19,65.2-1.4,10.1-7.7,16.2-16.9,16.2ZM169.5,447c.4,1.8,1.1,2.7,2.2,2.7s1.6,0,2.1-3.3v-.2c6.6-40.4,10.3-60.3,23.2-73.4,13.4-13.6,35.1-16.8,72.2-21.4h.2c2.2-.2,2.2-1.1,2.2-1.8,0-1.6-.6-1.9-1.7-2h-.2c-37.8-5.1-58.1-8.4-71.2-21.7-12.8-13-16.6-32.9-24.2-72.5l-.3-1.7c-.4-2.4-1.4-2.4-2.1-2.4-1.4,0-1.9,1.2-2.1,2.3-5.5,39.6-8.9,60.9-22.1,74.2-13.3,13.5-34.4,16.7-73.4,21.8h-.1c-2,.2-2,1.4-2,2.1s0,1.5,2.2,1.8h.1c39.7,4.9,58.4,8.4,71.1,21.3,12.7,13,16.6,33.7,23.6,71.4l.5,2.9ZM332.3,356.9c-9.4,0-16.9-6.9-18.2-16.8v-.2c-12.3-110.6-26.6-126.7-136.3-141.4.9,1.9,1.3,4,1.3,6.3,0,7-4.2,12.2-11.5,14.2h-.6c0,.1-2.3.6-2.3.6-25.2,4.7-37.9,7-44.5,13.8-6.7,6.8-9.6,20.2-15.1,47.4-1.4,7.5-7,12.4-14.4,12.4s-12.9-4.9-14.4-12.4c-5.5-27.2-8.5-39.8-14.8-46.4-6.3-6.6-17.9-9.1-41-13.9-2-.4-4.1-.9-6.3-1.3h-.4c-7.3-2.1-11.5-7.3-11.5-14.3s4.2-12.2,11.5-14.2h.4c0-.1,5.4-1.3,5.4-1.3,23.5-5,35.3-7.4,41.7-14.1,6.3-6.6,9.4-19.2,14.9-46.3,1.3-7.7,6.8-12.4,14.4-12.4s13,4.8,14.4,12.5c5,26.3,7.9,40.4,14.8,47.3,6,6.1,17,8.6,37.6,12.5-1.5-2.6-2.3-5.7-2.3-9,0-9.1,6.4-16.4,15.8-18.2h.4c115.5-15,130.1-29.7,142.6-142.3v-.2c1.4-9.8,8.9-16.6,18.2-16.6s17.2,7.1,18.2,16.8c12.5,112.7,27.1,127.3,142.6,142.3h.4c9.6,1.8,16.1,9.1,16.1,18.2s-6.7,16.6-16.3,18c-114.5,15.7-127.8,29-142.8,142.4-1.1,9.8-8.7,17-18.2,17ZM329,338.1c.2,1.5.9,3.8,3.3,3.8s3.1-1.4,3.3-3.6v-.2c7.9-59.7,15.9-94.1,38.2-116.4,22.4-22.4,57.1-30.7,117.4-38.9,1.2-.2,3.4-.9,3.4-3.1s-2.4-3.1-3.6-3.4c-60.6-7.9-95.5-16-118.1-38.4-22.9-22.7-30.8-58.7-37.2-117.1-.2-2.2-1.5-3.5-3.3-3.5s-3.2,2.4-3.3,3.6c-6.5,58.3-14.3,94.2-37.2,116.9-22.6,22.4-57.6,30.6-118.1,38.4-2.3.5-3.4,1.6-3.4,3.4s0,2.6,3.3,3.1c59.3,7.7,95.7,16.1,118.3,38.5,22.9,22.7,30.8,58.6,37.2,116.9ZM19.1,204.8c1.6.3,3.1.7,4.6,1,25.3,5.3,39.3,8.3,48.8,18.3,9.3,9.7,12.8,24.6,18.3,52,5.6-27.7,8.9-43.2,18.8-53.2,10-10.1,24.2-12.7,52.4-18h.2s-.5-.1-.5-.1c-27.3-5.1-42.4-7.9-52.4-17.9-9.7-9.8-13-24.3-18.5-53.1-5.5,27.3-9.1,42.2-18.4,52-9.6,10-23.8,13-49.5,18.4l-3.8.8ZM164.7,204.1h0,0ZM90.2,130.8h0s0,0,0,0Z"/>
  </g>
</svg>