<?xml version="1.0" encoding="iso-8859-1"?>
<!-- Generator: Adobe Illustrator 27.7.0, SVG Export Plug-In . SVG Version: 6.00 Build 0)  -->
<svg version="1.1" xmlns="http://www.w3.org/2000/svg" xmlns:xlink="http://www.w3.org/1999/xlink" x="0px" y="0px"
	 viewBox="0 0 512 512" style="enable-background:new 0 0 512 512;" xml:space="preserve">
<g id="tool_x5F_morphing_x5F_utils">
	<g>
		<rect x="79.175" y="96.856" style="fill:#AE9DD9;" width="351.401" height="51.656"/>
		<path style="fill:#1D1D1D;" d="M418.576,108.856v27.656H91.175v-27.656H418.576 M442.576,84.856h-24H91.175h-24v24v27.656v24h24
			h327.401h24v-24v-27.656V84.856L442.576,84.856z"/>
	</g>
	<g>
		<rect x="79.175" y="232.932" style="fill:#AE9DD9;" width="351.401" height="51.656"/>
		<path style="fill:#1D1D1D;" d="M418.576,244.932v27.656H91.175v-27.656H418.576 M442.576,220.932h-24H91.175h-24v24v27.656v24h24
			h327.401h24v-24v-27.656V220.932L442.576,220.932z"/>
	</g>
	<g>
		<rect x="79.175" y="367.945" style="fill:#AE9DD9;" width="351.401" height="51.655"/>
		<path style="fill:#1D1D1D;" d="M418.576,379.945v27.656H91.175v-27.656H418.576 M442.576,355.945h-24H91.175h-24v24v27.656v24h24
			h327.401h24v-24v-27.656V355.945L442.576,355.945z"/>
	</g>
	<g>
		<circle style="fill:#BDBDBD;" cx="298.827" cy="122.266" r="54.451"/>
		<path style="fill:#1D1D1D;" d="M298.827,78.314c24.274,0,43.951,19.678,43.951,43.952s-19.678,43.952-43.951,43.952
			c-24.274,0-43.951-19.678-43.951-43.952S274.554,78.314,298.827,78.314 M298.827,57.314c-35.814,0-64.951,29.137-64.951,64.952
			s29.137,64.952,64.951,64.952s64.951-29.137,64.951-64.952S334.642,57.314,298.827,57.314L298.827,57.314z"/>
	</g>
	<g>
		<circle style="fill:#BDBDBD;" cx="388.516" cy="258.229" r="54.451"/>
		<path style="fill:#1D1D1D;" d="M388.516,214.277c24.274,0,43.951,19.678,43.951,43.951c0,24.274-19.678,43.951-43.951,43.951
			s-43.951-19.678-43.951-43.951C344.564,233.955,364.242,214.277,388.516,214.277 M388.516,193.277
			c-35.814,0-64.951,29.137-64.951,64.951s29.137,64.951,64.951,64.951s64.951-29.137,64.951-64.951S424.33,193.277,388.516,193.277
			L388.516,193.277z"/>
	</g>
	<g>
		<path style="fill:#BDBDBD;" d="M210.924,448.225c-30.025,0-54.452-24.427-54.452-54.452c0-30.024,24.427-54.451,54.452-54.451
			s54.452,24.427,54.452,54.451C265.376,423.798,240.949,448.225,210.924,448.225z"/>
		<path style="fill:#1D1D1D;" d="M210.924,349.821c24.274,0,43.952,19.678,43.952,43.951s-19.678,43.951-43.952,43.951
			c-24.274,0-43.952-19.678-43.952-43.951S186.651,349.821,210.924,349.821 M210.924,328.821c-35.814,0-64.952,29.137-64.952,64.951
			s29.137,64.951,64.952,64.951s64.952-29.137,64.952-64.951S246.739,328.821,210.924,328.821L210.924,328.821z"/>
	</g>
</g>
<g id="Layer_1">
</g>
</svg>
