<?xml version="1.0" encoding="iso-8859-1"?>
<!-- Generator: Adobe Illustrator 27.7.0, SVG Export Plug-In . SVG Version: 6.00 Build 0)  -->
<svg version="1.1" xmlns="http://www.w3.org/2000/svg" xmlns:xlink="http://www.w3.org/1999/xlink" x="0px" y="0px"
	 viewBox="0 0 512 512" style="enable-background:new 0 0 512 512;" xml:space="preserve">
<g id="tool_x5F_influence_x5F_joints">
	<rect x="0" style="fill:none;" width="512" height="512"/>
	<g>
		<g>
			<g>
				<path style="fill-rule:evenodd;clip-rule:evenodd;fill:#BDBDBD;" d="M318.295,153.705
					c-23.094,1.557-42.505-17.228-41.574-40.482c0.792-19.767,16.514-36.068,36.251-37.399
					c23.094-1.557,42.505,17.228,41.574,40.482C353.755,136.073,338.033,152.374,318.295,153.705z"/>
				<g>
					<path style="fill:#1D1D1D;" d="M314.849,82.458c18.547-0.451,33.826,14.875,32.982,33.73
						c-0.713,15.912-13.269,29.094-29.128,30.579c-18.792,1.76-34.842-12.757-35.293-31.304
						C282.978,97.674,296.892,82.895,314.849,82.458 M314.523,69.032c-26.332,0.64-46.978,23.557-44.322,50.258
						c2.216,22.279,20.674,39.861,43.034,40.992c26.798,1.356,48.685-20.379,48.045-46.711
						C360.668,88.397,339.696,68.42,314.523,69.032L314.523,69.032z"/>
				</g>
			</g>
			<g>
				<path style="fill-rule:evenodd;clip-rule:evenodd;fill:#BDBDBD;" d="M177.141,268.506c-1.678,0.041-3.541-0.586-4.748-1.9
					c-2.235-2.129-2.656-5.645-1.043-8.371l79.121-130.049c1.134-1.707,2.784-2.922,4.793-3.139
					c0.168-0.004,0.503-0.012,0.671-0.016c1.846-0.045,3.541,0.586,4.748,1.9l47.274,45.03c1.547,1.474,2.267,3.471,1.981,5.493
					c-0.119,2.018-1.249,3.893-2.903,4.94l-126.562,85.023C179.65,268.109,178.315,268.478,177.141,268.506z"/>
				<g>
					<path style="fill:#1D1D1D;" d="M256.266,131.74l47.273,45.03l-126.562,85.023L256.266,131.74 M255.94,118.315
						c-0.503,0.012-1.007,0.024-1.51,0.037c-4.016,0.601-7.655,2.873-9.755,6.282l-79.289,130.053
						c-3.226,5.452-2.387,12.316,2.254,16.738c2.583,2.624,6.14,3.881,9.664,3.795c2.517-0.061,5.018-0.794,7.163-2.357
						l126.562-85.023c3.303-2.263,5.563-6.013,5.969-10.053c0.406-4.04-1.203-8.031-4.125-10.815l-47.441-45.026
						C262.853,119.49,259.464,118.229,255.94,118.315L255.94,118.315z"/>
				</g>
			</g>
			<g>
				<path style="fill-rule:evenodd;clip-rule:evenodd;fill:#BDBDBD;" d="M162.679,316.044
					c-22.399,0.544-40.881-17.994-39.852-40.766c0.868-19.219,16.033-35.14,35.187-36.941c22.694-2.133,42.109,15.425,42.654,37.825
					C201.358,297.64,184.161,315.522,162.679,316.044z"/>
				<g>
					<path style="fill:#1D1D1D;" d="M160.95,244.887c18.547-0.451,33.826,14.875,32.982,33.73
						c-0.713,15.912-13.269,29.094-29.128,30.579c-18.792,1.76-34.842-12.757-35.293-31.304
						C129.078,260.103,143.16,245.319,160.95,244.887 M160.623,231.461c-26.332,0.64-46.978,23.557-44.322,50.258
						c2.216,22.279,20.674,39.861,43.034,40.992c26.798,1.356,48.685-20.379,48.045-46.711
						C206.769,250.826,185.965,230.845,160.623,231.461L160.623,231.461z"/>
				</g>
			</g>
			<g>
				<path style="fill-rule:evenodd;clip-rule:evenodd;fill:#BDBDBD;" d="M309.009,422.477c-1.175,0.029-2.526-0.274-3.717-0.917
					L175.24,342.271c-1.707-1.134-2.922-2.784-3.139-4.793c-0.217-2.01,0.406-4.04,1.711-5.583l45.198-47.278
					c1.31-1.375,2.972-2.087,4.65-2.128c0.168-0.004,0.503-0.012,0.671-0.016c2.018,0.119,3.893,1.249,4.94,2.903l85.023,126.562
					c1.743,2.644,1.494,6.177-0.803,8.416C312.349,421.724,310.687,422.436,309.009,422.477z"/>
				<g>
					<path style="fill:#1D1D1D;" d="M223.823,289.201l85.023,126.562l-130.053-79.289L223.823,289.201 M223.496,275.776
						c-3.524,0.086-6.848,1.51-9.472,4.092l-45.03,47.273c-2.784,2.922-4.196,6.987-3.595,11.002
						c0.601,4.016,2.873,7.655,6.282,9.755l130.053,79.289c2.218,1.457,4.752,2.067,7.269,2.006c3.524-0.086,6.848-1.51,9.304-4.088
						c4.421-4.641,4.925-11.538,1.438-16.827l-85.023-126.562c-2.263-3.303-6.013-5.563-10.053-5.969
						C224.503,275.751,224,275.763,223.496,275.776L223.496,275.776z"/>
				</g>
			</g>
		</g>
	</g>
	<g>
		<path style="fill:#AE9DD9;" d="M307.899,487.409c-30.156,0.002-60.542-20.999-72.206-30.028
			c-12.54-9.707-28.376-21.393-45.143-33.764l-0.203-0.149c-36.233-26.733-77.301-57.033-103.384-80.743
			c-26.649-24.227-35.808-58.104-26.485-97.97c3.503-14.979,22.718-42.379,34.579-52.026l153.605-137.41l0.193-0.16
			c12.654-10.464,37.097-24.544,53.316-28.83c6.535-1.728,13.174-2.603,19.732-2.603c22.802,0,44.035,10.234,63.11,30.417
			c25.832,27.335,27.531,61.772,20.508,84.884c-2.198,7.237-5.565,15.055-10.008,23.236c-10.641,19.601-25.111,36.984-43.011,51.667
			l-50.064,41.068c-8.072,6.438-12.728,12.784-13.161,17.911c-0.3,3.544,1.591,5.858,1.973,6.287
			c3.584,4.012,16.343,18.94,18.706,21.713l27.464,32.225c1.961,2.231,3.789,4.308,5.465,6.21
			c15.617,17.732,18.43,20.926,29.375,38.124c7.303,11.472,11.6,25.974,11.789,39.787c0.239,17.375-5.729,32.971-17.259,45.1
			c-19.264,20.266-37.002,24.669-57.709,25.045C308.683,487.405,308.289,487.409,307.899,487.409L307.899,487.409z M111.866,212.578
			l-0.289,0.231c-7.721,6.142-23.629,28.662-25.781,37.867c-7.148,30.562-0.871,55.058,18.657,72.809
			c25.093,22.812,65.591,52.692,101.322,79.055c16.956,12.51,32.964,24.32,45.833,34.281c19.891,15.396,40.949,24.588,56.331,24.588
			c0.224,0,0.444-0.002,0.666-0.006c15.672-0.284,26.058-2.986,39.342-16.962c15.874-16.699,10.121-40.853,2.381-53.014
			c-9.859-15.492-12.136-18.077-26.947-34.894c-1.697-1.927-5.676-6.45-5.676-6.45l-27.536-32.31
			c-3.633-4.263-15.194-17.772-18.312-21.262c-2.93-3.282-9.621-12.364-8.485-25.796c1.07-12.662,8.727-24.762,22.756-35.964
			l49.887-40.924c15.29-12.542,27.621-27.336,36.652-43.971c3.604-6.636,6.289-12.823,7.979-18.388
			c4.901-16.13,3.659-40.223-14.527-59.467c-13.982-14.794-28.839-22.296-44.155-22.296c-4.303,0-8.727,0.592-13.148,1.76
			c-11.849,3.131-33.279,15.435-43.203,23.576L111.866,212.578z"/>
		<path style="fill:#5B5B5B;" d="M321.905,28.726c17.338-0.001,38.362,6.51,59.476,28.851
			c24.361,25.779,25.973,58.227,19.357,79.996c-2.101,6.916-5.337,14.421-9.617,22.304c-10.331,19.029-24.391,35.915-41.788,50.187
			l-50.064,41.068c-9.236,7.365-14.414,14.75-14.973,21.354c-0.46,5.447,2.352,9.06,3.224,10.037
			c3.558,3.982,16.275,18.863,18.632,21.628l27.464,32.225c2.012,2.29,3.842,4.368,5.519,6.271
			c15.396,17.481,18.171,20.631,28.909,37.504c6.818,10.712,10.83,24.261,11.008,37.171c0.221,16.044-5.273,30.424-15.884,41.586
			c-18.128,19.071-34.17,23.128-54.176,23.491c-0.362,0.006-0.729,0.01-1.092,0.01c-28.589,0.002-57.81-20.207-69.146-28.982
			c-12.636-9.781-28.569-21.536-45.438-33.982c-36.139-26.663-77.1-56.885-102.989-80.42
			c-25.228-22.934-33.864-55.138-24.979-93.131c3.28-14.024,21.85-40.39,32.953-49.357L251.925,59.108l0.119-0.099
			c11.99-9.915,36.05-23.79,51.405-27.847C308.89,29.725,315.116,28.727,321.905,28.726 M307.939,466.408
			c0.256,0,0.508-0.002,0.762-0.007c16.676-0.303,28.447-3.343,42.87-18.517c17.85-18.776,11.559-45.656,2.975-59.143
			c-10.069-15.822-12.381-18.446-27.418-35.52c-1.691-1.92-3.539-4.018-5.571-6.331l-0.078-0.09l-27.504-32.271
			c-3.641-4.271-15.234-17.819-18.388-21.35c-2.499-2.799-8.205-10.547-7.232-22.043c0.95-11.241,7.98-22.168,20.893-32.479
			l49.938-40.966c15.792-12.954,28.535-28.246,37.876-45.451c3.766-6.935,6.581-13.436,8.369-19.32
			c5.31-17.474,3.979-43.555-15.678-64.354c-15.004-15.876-31.025-23.862-47.789-23.862c-4.751,0-9.561,0.641-14.426,1.926
			c-12.714,3.359-34.666,15.958-45.181,24.613L108.636,208.759l-0.181,0.145c-8.543,6.796-25.084,30.184-27.527,40.634
			c-7.592,32.46-0.809,58.584,20.162,77.647c25.284,22.986,65.896,52.949,101.726,79.385c16.945,12.502,32.95,24.312,45.732,34.205
			C269.344,456.872,291.468,466.408,307.939,466.408 M321.909,18.726v10l-0.001-10c-6.994,0-14.063,0.932-21.013,2.769
			c-16.855,4.453-42.162,19.008-55.223,29.808l-0.124,0.103l-0.147,0.122l-0.142,0.128L91.809,188.926
			c-12.7,10.391-32.439,38.613-36.199,54.69c-4.801,20.53-4.876,39.735-0.224,57.081c4.726,17.619,14.218,33.004,28.214,45.727
			c26.272,23.883,67.449,54.263,103.779,81.067l0.191,0.141c16.747,12.357,32.565,24.028,45.062,33.702
			c12.069,9.343,43.564,31.075,75.263,31.075c0.42,0,0.841-0.004,1.257-0.011c21.983-0.399,40.803-5.075,61.263-26.6
			c12.448-13.094,18.892-29.904,18.635-48.613c-0.203-14.715-4.785-30.17-12.571-42.403c-11.154-17.526-14.372-21.18-29.834-38.736
			c-1.668-1.893-3.478-3.949-5.467-6.213l-27.416-32.169c-2.369-2.779-15.162-17.748-18.785-21.804
			c-0.127-0.151-0.84-1.075-0.717-2.534c0.237-2.805,3.315-8.056,11.243-14.377l0.054-0.043l0.053-0.044l50.065-41.068
			c18.401-15.094,33.283-32.976,44.234-53.147c4.603-8.477,8.101-16.608,10.397-24.169c7.431-24.454,5.644-60.88-21.658-89.771
			C368.591,29.486,346.137,18.726,321.909,18.726L321.909,18.726z M268.865,78.84c9.573-7.827,29.992-19.572,41.227-22.54
			c4.005-1.058,7.999-1.595,11.871-1.595c13.887,0,27.521,6.975,40.522,20.731c16.716,17.688,17.871,39.791,13.377,54.578
			c-1.593,5.243-4.146,11.116-7.589,17.456c-8.722,16.065-20.642,30.361-35.43,42.492l-49.891,40.928
			c-15.11,12.081-23.373,25.338-24.562,39.406c-1.3,15.367,6.377,25.781,9.738,29.546c3.093,3.462,14.614,16.926,18.236,21.176
			l27.504,32.271l0.033,0.039l0.034,0.039l0.078,0.09c2.067,2.353,3.917,4.454,5.612,6.377
			c14.919,16.939,16.835,19.114,26.485,34.278c6.897,10.836,12.113,32.263-1.786,46.884c-12.138,12.77-21.216,15.143-35.804,15.408
			c-0.201,0.004-0.389,0.005-0.58,0.005c-14.099,0-34.511-9.021-53.271-23.542c-12.913-9.996-28.944-21.823-45.916-34.344
			c-35.643-26.298-76.032-56.097-100.936-78.737c-18.339-16.672-23.95-38.905-17.152-67.971
			c1.759-7.523,16.572-29.164,24.016-35.085l0.203-0.163l0.214-0.172l0.205-0.183L268.865,78.84L268.865,78.84z"/>
	</g>
</g>
<g id="Layer_1">
</g>
</svg>
