<?xml version="1.0" encoding="iso-8859-1"?>
<!-- Generator: Adobe Illustrator 27.7.0, SVG Export Plug-In . SVG Version: 6.00 Build 0)  -->
<svg version="1.1" xmlns="http://www.w3.org/2000/svg" xmlns:xlink="http://www.w3.org/1999/xlink" x="0px" y="0px"
	 viewBox="0 0 512 512" style="enable-background:new 0 0 512 512;" xml:space="preserve">
<g id="tool_x5F_add_x5F_inbetween">
	<g>
		<polygon style="fill:#BDBDBD;" points="115.14,258.33 115.14,64.05 294.91,64.05 294.91,114.54 165.62,114.54 165.62,258.33 		"/>
		<path style="fill:#1D1D1D;" d="M282.41,76.55v25.49H153.12v143.79h-25.48V76.55H282.41 M307.41,51.55h-25H127.64h-25v25v169.28v25
			h25h25.48h25v-25V127.04h104.29h25v-25V76.55V51.55L307.41,51.55z"/>
	</g>
	<g>
		<polygon style="fill:#BDBDBD;" points="115.14,447.664 115.14,253.384 165.62,253.384 165.62,397.174 294.91,397.174 
			294.91,447.664 		"/>
		<path style="fill:#1D1D1D;" d="M153.12,265.884v143.79h129.29v25.49H127.64v-169.28H153.12 M178.12,240.884h-25h-25.48h-25v25
			v169.28v25h25h154.77h25v-25v-25.49v-25h-25H178.12v-118.79V240.884L178.12,240.884z"/>
	</g>
	<g>
		<circle style="fill:#AE9DD9;" cx="140.84" cy="252.154" r="102.868"/>
		<path style="fill:#1D1D1D;" d="M140.84,159.285c51.29,0,92.868,41.579,92.868,92.868s-41.579,92.868-92.868,92.868
			c-51.29,0-92.868-41.578-92.868-92.868S89.55,159.285,140.84,159.285 M140.84,139.285c-30.148,0-58.492,11.74-79.81,33.058
			c-21.318,21.318-33.058,49.662-33.058,79.81s11.74,58.492,33.058,79.81c21.318,21.318,49.662,33.058,79.81,33.058
			c30.148,0,58.492-11.74,79.81-33.058c21.318-21.318,33.058-49.662,33.058-79.81s-11.74-58.492-33.058-79.81
			C199.332,151.026,170.988,139.285,140.84,139.285L140.84,139.285z"/>
	</g>
	<g>
		<rect x="215.175" y="367.024" style="fill:#BDBDBD;" width="233.569" height="106.946"/>
		<path style="fill:#1D1D1D;" d="M437.745,378.025v84.946H226.175v-84.946H437.745 M459.745,356.025h-22H226.175h-22v22v84.946v22
			h22h211.569h22v-22v-84.946V356.025L459.745,356.025z"/>
	</g>
	<g>
		<rect x="255.759" y="409.664" style="fill:#1D1D1D;" width="25.5" height="25.5"/>
	</g>
	<g>
		<rect x="215.175" y="35.667" style="fill:#BDBDBD;" width="233.569" height="106.946"/>
		<path style="fill:#1D1D1D;" d="M437.745,46.667v84.946H226.175V46.667H437.745 M459.745,24.667h-22H226.175h-22v22v84.946v22h22
			h211.569h22v-22V46.667V24.667L459.745,24.667z"/>
	</g>
	<g>
		<rect x="255.759" y="78.307" style="fill:#1D1D1D;" width="25.5" height="25.5"/>
	</g>
</g>
<g id="Layer_1">
</g>
</svg>
