<?xml version="1.0" encoding="iso-8859-1"?>
<!-- Generator: Adobe Illustrator 28.0.0, SVG Export Plug-In . SVG Version: 6.00 Build 0)  -->
<svg version="1.1" xmlns="http://www.w3.org/2000/svg" xmlns:xlink="http://www.w3.org/1999/xlink" x="0px" y="0px"
	 viewBox="0 0 512 512" style="enable-background:new 0 0 512 512;" xml:space="preserve">
<g id="tool_x5F_ribbon">
	<g>
		<path style="fill:#AE9DD9;" d="M148.713,467.553c-0.48,0.881-1.42,1.42-2.429,1.381c-1.001-0.045-1.9-0.641-2.312-1.554
			l-20.825-46.349c-0.496-1.094-1.65-1.717-2.831-1.532l-50.184,7.98c-0.993,0.152-1.993-0.264-2.573-1.088
			c-0.587-0.82-0.648-1.902-0.168-2.789l122.115-225.978c0.695-1.279,2.307-1.762,3.586-1.071l76.669,41.438
			c1.28,0.69,1.762,2.295,1.071,3.586L148.713,467.553z"/>
		<path style="opacity:0.38;fill:#937CD8;" d="M269.76,237.989l-76.669-41.438c-1.279-0.691-2.891-0.208-3.586,1.071l-88.86,164.624
			l68.214,68.213l101.974-188.884C271.523,240.285,271.04,238.68,269.76,237.989z"/>
		<path style="fill:#937CD8;" d="M366.374,467.553c0.471,0.881,1.408,1.42,2.419,1.381c1.005-0.045,1.902-0.641,2.324-1.554
			l20.825-46.349c0.483-1.094,1.644-1.717,2.823-1.532l50.187,7.98c0.994,0.152,1.993-0.264,2.575-1.088
			c0.583-0.82,0.646-1.902,0.163-2.789L325.581,197.623c-0.696-1.279-2.306-1.762-3.591-1.071L245.32,237.99
			c-1.285,0.69-1.761,2.295-1.071,3.586L366.374,467.553z"/>
		<path style="fill:#AE9DD9;" d="M45.208,294.119c0,23.928,19.245,29.636,37.142,24.563c14.375-4.08,158.24-45.686,158.24-45.686
			v-78.79c0,0-143.865-41.612-158.24-45.686c-17.897-5.074-37.142,0.628-37.142,24.557V294.119z"/>
		<path style="fill:#AE9DD9;" d="M481.944,294.119c0,23.928-16.37,29.636-34.266,24.563c-14.372-4.08-155.37-45.686-155.37-45.686
			v-78.79c0,0,140.997-41.612,155.37-45.686c17.896-5.074,34.266,0.628,34.266,24.557V294.119z"/>
		<path style="fill:#886CD8;" d="M298.055,274.185c0,6.454-0.757,13.295-7.199,13.295H230.18c-6.454,0-12.576-6.841-12.576-13.295
			v-81.669c0-6.459,6.122-8.474,12.576-8.474h60.676c6.443,0,7.199,2.015,7.199,8.474V274.185z"/>
	</g>
	<g>
		<path style="fill:#1D1D1D;" d="M459.054,146.816c12.902,0,22.89,7.57,22.89,26.262v121.042c0,18.694-9.991,26.267-22.895,26.267
			c-3.613,0-7.456-0.594-11.371-1.704c-6.17-1.752-35.68-10.42-67.351-19.743l67.362,124.662c0.483,0.887,0.421,1.97-0.163,2.789
			c-0.503,0.712-1.317,1.119-2.169,1.119c-0.135,0-0.27-0.01-0.406-0.031l-50.187-7.98c-0.138-0.022-0.277-0.032-0.414-0.032
			c-1.029,0-1.983,0.598-2.409,1.564l-20.825,46.349c-0.422,0.914-1.319,1.509-2.324,1.554c-0.035,0.001-0.069,0.002-0.103,0.002
			c-0.971,0-1.861-0.532-2.316-1.383L269.057,287.48H246.05l-77.191,142.979l-0.065-0.065l-20.081,37.159
			c-0.464,0.851-1.356,1.383-2.326,1.383c-0.034,0-0.069-0.001-0.103-0.002c-1.001-0.045-1.9-0.641-2.312-1.554l-20.825-46.349
			c-0.438-0.966-1.388-1.564-2.417-1.564c-0.137,0-0.276,0.011-0.414,0.032l-50.184,7.98c-0.135,0.021-0.271,0.031-0.406,0.031
			c-0.852,0-1.666-0.407-2.167-1.119c-0.587-0.82-0.648-1.902-0.168-2.789l64.392-119.159c-24.354,7.032-44.504,12.842-49.432,14.24
			c-3.916,1.11-7.894,1.704-11.724,1.704c-13.672,0-25.418-7.574-25.418-26.267V173.078c0-18.693,11.742-26.263,25.413-26.262
			c3.829,0,7.813,0.595,11.729,1.705c10.881,3.084,95.959,27.677,136.67,39.448c2.176-2.9,6.578-3.926,11.16-3.926h60.676
			c6.441,0,7.199,2.014,7.199,8.468c26.589-7.845,136.994-40.41,149.623-43.99C451.595,147.41,455.439,146.816,459.054,146.816
			 M459.054,130.816c-5.034,0-10.33,0.778-15.74,2.311c-11.119,3.152-95.301,27.966-136.45,40.103
			c-5.945-5.188-13.331-5.187-16.008-5.187H230.18c-5.659,0-10.18,1.001-13.782,2.512c-40.432-11.69-119.276-34.478-129.685-37.428
			c-5.407-1.533-10.821-2.311-16.09-2.311c-11.321-0.001-21.213,3.557-28.607,10.29c-5.843,5.32-12.808,15.185-12.808,31.972
			v121.042c0,25.281,16.645,42.267,41.419,42.267c5.267,0,10.679-0.777,16.087-2.31c1.93-0.548,6.231-1.782,12.864-3.692
			l-46.263,85.611c-3.354,6.196-2.886,13.904,1.192,19.649c3.489,4.927,9.174,7.866,15.22,7.866c0.942,0,1.892-0.072,2.823-0.215
			c0.032-0.005,0.063-0.01,0.095-0.015l40.094-6.375l16.639,37.032c2.921,6.466,9.118,10.661,16.186,10.98
			c0.04,0.002,0.079,0.003,0.119,0.005c0.236,0.009,0.471,0.013,0.706,0.013c6.831,0,13.105-3.727,16.375-9.726
			c0.009-0.017,0.018-0.033,0.027-0.05l19.27-35.658c0.317-0.462,0.61-0.943,0.88-1.442l72.656-134.58h3.922l92.767,171.654
			c3.25,6.047,9.532,9.801,16.405,9.801c0.235,0,0.469-0.004,0.704-0.013c0.039-0.002,0.079-0.003,0.118-0.005
			c7.013-0.315,13.195-4.467,16.133-10.835c0.022-0.048,0.044-0.097,0.066-0.145l16.639-37.031l40.089,6.374
			c0.032,0.005,0.064,0.01,0.096,0.015c0.931,0.142,1.881,0.214,2.822,0.214c6.033,0,11.712-2.93,15.204-7.841l0,0
			c4.101-5.761,4.565-13.5,1.182-19.716l-49.079-90.828c17.022,4.998,27.289,7.996,30.645,8.948
			c5.413,1.535,10.707,2.312,15.74,2.312c11.186,0,20.785-3.794,27.761-10.972c7.388-7.602,11.134-18.131,11.134-31.294V173.078
			c0-13.162-3.746-23.69-11.133-31.291C479.836,134.609,470.238,130.816,459.054,130.816L459.054,130.816z"/>
	</g>
	<g>
		<g>
			
				<rect x="216.729" y="55.616" transform="matrix(0.7071 -0.7071 0.7071 0.7071 7.0895 210.7325)" style="fill-rule:evenodd;clip-rule:evenodd;fill:#999999;" width="82.386" height="82.386"/>
			<path style="fill:#1D1D1D;" d="M257.921,50.382l46.427,46.427l-46.427,46.427l-46.427-46.427L257.921,50.382 M257.921,26.725
				l-11.829,11.829L199.666,84.98l-11.829,11.829l11.829,11.829l46.427,46.427l11.829,11.829l11.828-11.829l46.427-46.427
				l11.829-11.829L316.177,84.98L269.75,38.553L257.921,26.725L257.921,26.725z"/>
		</g>
		<g>
			
				<rect x="245.48" y="84.515" transform="matrix(0.7071 -0.7071 0.7071 0.7071 6.985 210.7758)" style="fill-rule:evenodd;clip-rule:evenodd;fill:#1D1D1D;" width="24.883" height="24.883"/>
		</g>
	</g>
	<g>
		<g>
			
				<rect x="340.634" y="66.81" transform="matrix(0.7071 -0.7071 0.7071 0.7071 40.1019 290.4315)" style="fill-rule:evenodd;clip-rule:evenodd;fill:#999999;" width="59.997" height="59.997"/>
			<path style="fill:#1D1D1D;" d="M370.633,62.998l33.81,33.81l-33.81,33.81l-33.81-33.81L370.633,62.998 M370.633,45.77
				l-8.614,8.614l-33.81,33.81l-8.614,8.614l8.614,8.614l33.81,33.81l8.614,8.614l8.614-8.614l33.81-33.81l8.614-8.614l-8.614-8.614
				l-33.81-33.81L370.633,45.77L370.633,45.77z"/>
		</g>
		<g>
			
				<rect x="361.572" y="87.856" transform="matrix(0.7071 -0.7071 0.7071 0.7071 40.0258 290.463)" style="fill-rule:evenodd;clip-rule:evenodd;fill:#1D1D1D;" width="18.121" height="18.121"/>
		</g>
	</g>
	<g>
		<g>
			
				<rect x="112.742" y="66.81" transform="matrix(0.7071 -0.7071 0.7071 0.7071 -26.6463 129.2871)" style="fill-rule:evenodd;clip-rule:evenodd;fill:#999999;" width="59.997" height="59.997"/>
			<path style="fill:#1D1D1D;" d="M142.74,62.998l33.81,33.81l-33.81,33.81l-33.81-33.81L142.74,62.998 M142.74,45.77l-8.614,8.614
				l-33.81,33.81l-8.614,8.614l8.614,8.614l33.81,33.81l8.614,8.614l8.614-8.614l33.81-33.81l8.614-8.614l-8.614-8.614l-33.81-33.81
				L142.74,45.77L142.74,45.77z"/>
		</g>
		<g>
			
				<rect x="133.68" y="87.856" transform="matrix(0.7071 -0.7071 0.7071 0.7071 -26.7224 129.3186)" style="fill-rule:evenodd;clip-rule:evenodd;fill:#1D1D1D;" width="18.121" height="18.121"/>
		</g>
	</g>
</g>
<g id="Layer_1">
</g>
</svg>
