<?xml version="1.0" encoding="iso-8859-1"?>
<!-- Generator: Adobe Illustrator 27.9.0, SVG Export Plug-In . SVG Version: 6.00 Build 0)  -->
<svg version="1.1" xmlns="http://www.w3.org/2000/svg" xmlns:xlink="http://www.w3.org/1999/xlink" x="0px" y="0px"
	 viewBox="0 0 512 512" style="enable-background:new 0 0 512 512;" xml:space="preserve">
<g id="tool_x5F_auto_x5F_rigger">
	<rect x="0" style="fill:none;" width="512" height="512"/>
	<g>
		<linearGradient id="SVGID_1_" gradientUnits="userSpaceOnUse" x1="46.0046" y1="256" x2="466.0146" y2="256">
			<stop  offset="0.0013" style="stop-color:#FFCB4B"/>
			<stop  offset="1" style="stop-color:#FFD748"/>
		</linearGradient>
		<path style="fill-rule:evenodd;clip-rule:evenodd;fill:url(#SVGID_1_);" d="M313.453,494.959
			c-20.931,0-37.908-16.977-37.908-37.908v-99.058h-38.838v99.058c0,20.931-16.977,37.908-37.908,37.908s-38.14-16.977-38.14-37.908
			V236.813H83.912c-20.931,0-37.908-16.977-37.908-37.908s16.977-37.908,37.908-37.908h344.194
			c20.931,0,37.908,16.977,37.908,37.908s-16.977,37.908-37.908,37.908h-76.746v220.238
			C351.361,477.982,334.384,494.959,313.453,494.959z M256.01,150.532c-36.745,0-66.746-30.001-66.746-66.746
			s30.001-66.746,66.746-66.746s66.746,30.001,66.746,66.746C322.755,120.764,292.755,150.532,256.01,150.532z"/>
		<path style="fill:#1D1D1D;" d="M256.01,26.576c31.629,0,57.443,25.582,57.443,57.443c0,31.629-25.815,57.443-57.443,57.443
			s-57.443-25.582-57.443-57.443S224.381,26.576,256.01,26.576 M428.107,170.068c15.814,0,28.605,12.791,28.605,28.605
			s-12.791,28.605-28.605,28.605h-86.049v229.54c0,15.814-12.791,28.605-28.605,28.605c-15.814,0-28.605-12.791-28.605-28.605
			v-105.09h-57.443v105.09c0,15.814-12.791,28.605-28.605,28.605s-28.605-12.791-28.605-28.605v-229.54H83.912
			c-15.814,0-28.605-12.791-28.605-28.605c-0.233-15.814,12.558-28.605,28.605-28.605H428.107 M256.01,7.971
			c-41.861,0-76.048,34.187-76.048,76.048c0,29.303,16.745,54.885,41.164,67.443H83.912c-26.047,0-47.21,21.163-47.21,47.21
			c0,26.047,21.163,47.21,47.21,47.21h67.443v210.935c0,26.047,21.163,47.21,47.21,47.21s47.21-21.163,47.21-47.21v-86.485h20.233
			v86.485c0,26.047,21.163,47.21,47.21,47.21s47.21-21.163,47.21-47.21V245.883h67.443c26.047,0,47.21-21.163,47.21-47.21
			s-21.163-47.21-47.21-47.21H290.662c24.419-12.558,41.164-38.14,41.164-67.443C332.058,41.925,297.871,7.971,256.01,7.971
			L256.01,7.971z"/>
	</g>
	<g>
		<rect x="210.792" y="222.929" style="fill-rule:evenodd;clip-rule:evenodd;fill:#999999;" width="86.535" height="86.535"/>
		<path style="fill:#1D1D1D;" d="M289.152,231.105v70.183h-70.183v-70.183H289.152 M305.504,214.753h-16.352h-70.183h-16.352v16.352
			v70.183v16.352h16.352h70.183h16.352v-16.352v-70.183V214.753L305.504,214.753z"/>
	</g>
</g>
<g id="Layer_1">
</g>
</svg>
