<?xml version="1.0" encoding="iso-8859-1"?>
<!-- Generator: Adobe Illustrator 27.7.0, SVG Export Plug-In . SVG Version: 6.00 Build 0)  -->
<svg version="1.1" xmlns="http://www.w3.org/2000/svg" xmlns:xlink="http://www.w3.org/1999/xlink" x="0px" y="0px"
	 viewBox="0 0 512 512" style="enable-background:new 0 0 512 512;" xml:space="preserve">
<g id="tool_x5F_make_x5F_ik_x5F_stretchy">
	<g>
		<g>
			<g>
				<path style="fill-rule:evenodd;clip-rule:evenodd;fill:#BDBDBD;" d="M333.278,132.901c-27.307,0-49.493-22.187-49.493-49.493
					s22.187-49.707,49.493-49.707s49.493,22.187,49.493,49.493S360.585,132.901,333.278,132.901z"/>
				<g>
					<path style="fill:#1D1D1D;" d="M333.278,42.234c22.613,0,40.96,18.347,40.96,40.96s-18.347,40.96-40.96,40.96
						c-22.613,0-40.96-18.347-40.96-40.96S310.451,42.234,333.278,42.234 M333.278,25.168c-32,0-58.027,26.027-58.027,58.027
						s26.027,58.027,58.027,58.027s58.027-26.027,58.027-58.027S365.278,25.168,333.278,25.168L333.278,25.168z"/>
				</g>
			</g>
			<g>
				<path style="fill-rule:evenodd;clip-rule:evenodd;fill:#BDBDBD;" d="M152.585,274.341c-2.133,0-4.48-0.853-5.973-2.56
					c-2.773-2.773-3.2-7.253-1.067-10.667L250.078,98.341c1.493-2.133,3.627-3.627,6.187-3.84c0.213,0,0.64,0,0.853,0
					c2.347,0,4.48,0.853,5.973,2.56l58.667,58.667c1.92,1.92,2.773,4.48,2.347,7.04c-0.213,2.56-1.707,4.907-3.84,6.187
					L156.851,273.061C155.785,273.914,154.078,274.341,152.585,274.341z"/>
				<g>
					<path style="fill:#1D1D1D;" d="M257.331,103.034l58.667,58.667L152.585,265.808L257.331,103.034 M257.331,85.968
						c-0.64,0-1.28,0-1.92,0c-5.12,0.64-9.813,3.413-12.587,7.68L138.078,256.421c-4.267,6.827-3.413,15.573,2.347,21.333
						c3.2,3.413,7.68,5.12,12.16,5.12c3.2,0,6.4-0.853,9.173-2.773l163.413-104.107c4.267-2.773,7.253-7.467,7.893-12.587
						c0.64-5.12-1.28-10.24-4.907-13.867l-58.88-58.667C266.078,87.674,261.811,85.968,257.331,85.968L257.331,85.968z"/>
				</g>
			</g>
			<g>
				<path style="fill-rule:evenodd;clip-rule:evenodd;fill:#BDBDBD;" d="M132.745,334.288c-27.307,0-49.493-22.187-49.493-49.493
					c0-27.307,22.187-49.493,49.493-49.493s49.493,22.187,49.493,49.493C182.451,312.101,160.051,334.288,132.745,334.288z"/>
				<g>
					<path style="fill:#1D1D1D;" d="M132.745,243.834c22.613,0,40.96,18.347,40.96,40.96c0,22.613-18.347,40.96-40.96,40.96
						s-40.96-18.347-40.96-40.96C91.785,262.181,110.131,243.834,132.745,243.834 M132.745,226.768
						c-32,0-58.027,26.027-58.027,58.027s26.027,58.027,58.027,58.027s58.027-26.027,58.027-58.027S164.958,226.768,132.745,226.768
						L132.745,226.768z"/>
				</g>
			</g>
			<g>
				<path style="fill-rule:evenodd;clip-rule:evenodd;fill:#BDBDBD;" d="M315.358,474.021c-1.493,0-3.2-0.427-4.693-1.28
					L147.891,367.994c-2.133-1.493-3.627-3.627-3.84-6.187c-0.213-2.56,0.64-5.12,2.347-7.04l58.88-58.667
					c1.707-1.707,3.84-2.56,5.973-2.56c0.213,0,0.64,0,0.853,0c2.56,0.213,4.907,1.707,6.187,3.84l104.107,163.413
					c2.133,3.413,1.707,7.893-1.28,10.667C319.625,473.168,317.491,474.021,315.358,474.021z"/>
				<g>
					<path style="fill:#1D1D1D;" d="M211.251,302.074l104.107,163.413L152.585,360.741L211.251,302.074 M211.251,285.008
						c-4.48,0-8.747,1.707-12.16,4.907l-58.667,58.667c-3.627,3.627-5.547,8.747-4.907,13.867c0.64,5.12,3.413,9.813,7.68,12.587
						l162.773,104.747c2.773,1.92,5.973,2.773,9.173,2.773c4.48,0,8.747-1.707,11.947-4.907c5.76-5.76,6.613-14.507,2.347-21.333
						L225.332,292.901c-2.773-4.267-7.467-7.253-12.587-7.893C212.531,285.008,211.891,285.008,211.251,285.008L211.251,285.008z"/>
				</g>
			</g>
		</g>
		<g>
			<path style="fill-rule:evenodd;clip-rule:evenodd;fill:#AE9CDB;" d="M333.278,477.434c-9.387,0-17.067-7.68-17.067-17.067V89.594
				c0-9.387,7.68-17.067,17.067-17.067c9.387,0,17.067,7.68,17.067,17.067v370.773C350.345,469.754,342.665,477.434,333.278,477.434
				z"/>
			<path style="fill:#1D1D1D;" d="M333.278,81.061c4.693,0,8.533,3.84,8.533,8.533v370.773c0,4.693-3.84,8.533-8.533,8.533
				s-8.533-3.84-8.533-8.533V89.594C324.745,84.901,328.585,81.061,333.278,81.061 M333.278,63.994c-14.08,0-25.6,11.52-25.6,25.6
				v370.773c0,14.08,11.52,25.6,25.6,25.6c14.08,0,25.6-11.52,25.6-25.6V89.594C358.878,75.514,347.358,63.994,333.278,63.994
				L333.278,63.994z"/>
		</g>
	</g>
</g>
<g id="Layer_1">
</g>
</svg>
