<?xml version="1.0" encoding="iso-8859-1"?>
<!-- Generator: Adobe Illustrator 27.7.0, SVG Export Plug-In . SVG Version: 6.00 Build 0)  -->
<svg version="1.1" xmlns="http://www.w3.org/2000/svg" xmlns:xlink="http://www.w3.org/1999/xlink" x="0px" y="0px"
	 viewBox="0 0 512 512" style="enable-background:new 0 0 512 512;" xml:space="preserve">
<g id="tool_x5F_crv_x5F_library">
	<path style="fill:none;stroke:#1D1D1D;stroke-width:36;stroke-linecap:round;stroke-linejoin:round;stroke-miterlimit:10;" d="
		M457.012,251.892c-8.31,104.379-95.844,186.788-202.323,186.788S60.675,356.271,52.365,251.892H36.08
		c8.349,113.341,103.171,203.03,218.608,203.03s210.26-89.689,218.607-203.03H457.012z M195.689,446.801h117.999
		c19.812-5.546,38.488-13.806,55.618-24.363h-35.205c-24.408,10.422-51.234,16.242-79.413,16.242s-55.005-5.82-79.413-16.243
		h-35.205C157.202,432.994,175.878,441.255,195.689,446.801z M453.658,215.346h24.364c4.489,0,8.121,3.636,8.121,8.121v24.363
		c0,4.485-3.632,8.121-8.121,8.121h-24.364c-4.489,0-8.121-3.636-8.121-8.121v-24.363
		C445.538,218.983,449.169,215.346,453.658,215.346z M469.901,231.589h-8.121v8.121h8.121V231.589z M39.476,239.71v-8.121h8.121
		v8.121H39.476 M31.354,255.952h24.364c4.485,0,8.121-3.636,8.121-8.121v-24.363c0-4.485-3.636-8.121-8.121-8.121H31.355
		c-4.485,0-8.121,3.636-8.121,8.121v24.363C23.234,252.316,26.87,255.952,31.354,255.952L31.354,255.952z M465.841,456.74H48.081
		v-19.878h417.76V456.74z M239.298,421.954h29.816c5.489,0,9.938,4.45,9.938,9.938v29.816c0,5.489-4.45,9.938-9.938,9.938h-29.816
		c-5.489,0-9.938-4.45-9.938-9.938v-29.816C229.36,426.403,233.81,421.954,239.298,421.954z M465.841,471.648
		c-13.723,0-24.847-11.124-24.847-24.847s11.124-24.847,24.847-24.847c13.723,0,24.847,11.124,24.847,24.847
		S479.563,471.648,465.841,471.648z M48.081,471.648c-13.723,0-24.847-11.124-24.847-24.847s11.124-24.847,24.847-24.847
		s24.847,11.124,24.847,24.847S61.803,471.648,48.081,471.648z M234.068,406.194h2.17c4.962,0,8.984-4.023,8.984-8.984V217.582
		c0-3.38-1.905-6.465-4.936-7.96c-12.071-5.961-19.797-19.329-16.926-34.267c2.274-11.828,11.612-21.643,23.348-24.355
		c20.624-4.765,38.945,10.768,38.945,30.579c0,12.379-7.199,22.981-17.608,28.084c-3.005,1.472-4.853,4.573-4.853,7.919V397.21
		c0,4.962,4.023,8.984,8.984,8.984h2.17c4.03,0,7.565-2.682,8.652-6.563l59.009-210.745c1.295-4.625,0.712-9.531-1.67-13.702
		c-8.296-14.52-29.244-52.544-50.191-101.422h-71.878c-20.948,48.879-41.895,86.903-50.19,101.422
		c-2.384,4.17-2.965,9.077-1.67,13.702l59.007,210.745C226.501,403.513,230.038,406.194,234.068,406.194z M245.223,397.21V217.582
		c0-3.38-1.905-6.465-4.936-7.96c-8.992-4.441-15.558-12.997-17.143-23.247l13.094,219.82
		C241.2,406.194,245.223,402.171,245.223,397.21z M209.284,28.839h89.847c4.962,0,8.984,4.023,8.984,8.984v26.954
		c0,4.962-4.023,8.984-8.984,8.984h-89.847c-4.962,0-8.984-4.023-8.984-8.984V37.824C200.299,32.862,204.322,28.839,209.284,28.839z
		 M272.176,37.825v26.954c0,4.962-4.023,8.984-8.984,8.984h35.939c4.962,0,8.984-4.023,8.984-8.984V37.825
		c0-4.962-4.023-8.984-8.984-8.984h-35.939C268.153,28.839,272.176,32.862,272.176,37.825z M270.151,98.041
		c8.234,26.44,19.536,57.852,25.289,73.557c2.434,6.643,3.241,13.716,2.398,20.74l-25.662,213.856h2.17
		c4.03,0,7.566-2.682,8.652-6.563l59.009-210.745c1.295-4.625,0.712-9.532-1.671-13.702c-8.295-14.52-29.244-52.545-50.19-101.422
		h-71.878c-2.645,6.172-5.289,12.169-7.91,17.969h51.225C265.528,91.732,268.979,94.276,270.151,98.041z"/>
	<path style="fill:#B0D9FB;" d="M457.012,251.892c-8.31,104.379-95.844,186.788-202.323,186.788S60.675,356.271,52.365,251.892
		H36.08c8.349,113.341,103.171,203.03,218.608,203.03s210.26-89.689,218.607-203.03H457.012z"/>
	<path style="fill:#3483C2;" d="M195.689,446.801h117.999c19.812-5.546,38.488-13.806,55.618-24.363h-35.205
		c-24.408,10.422-51.234,16.242-79.413,16.242s-55.005-5.82-79.413-16.243h-35.205C157.202,432.994,175.878,441.255,195.689,446.801
		z"/>
	<g>
		<path style="fill:#707487;" d="M453.658,215.346h24.364c4.489,0,8.121,3.636,8.121,8.121v24.363c0,4.485-3.632,8.121-8.121,8.121
			h-24.364c-4.489,0-8.121-3.636-8.121-8.121v-24.363C445.538,218.983,449.169,215.346,453.658,215.346z M469.901,231.589h-8.121
			v8.121h8.121V231.589z"/>
		<path style="fill:#707487;" d="M39.476,239.71v-8.121h8.121v8.121H39.476 M31.354,255.952h24.364c4.485,0,8.121-3.636,8.121-8.121
			v-24.363c0-4.485-3.636-8.121-8.121-8.121H31.355c-4.485,0-8.121,3.636-8.121,8.121v24.363
			C23.234,252.316,26.87,255.952,31.354,255.952L31.354,255.952z"/>
	</g>
	<rect x="48.081" y="436.862" style="fill:#42A5F5;" width="417.76" height="19.878"/>
	<g>
		<path style="fill:#BDBDBD;" d="M239.298,421.954h29.816c5.489,0,9.938,4.45,9.938,9.938v29.816c0,5.489-4.45,9.938-9.938,9.938
			h-29.816c-5.489,0-9.938-4.45-9.938-9.938v-29.816C229.36,426.403,233.81,421.954,239.298,421.954z"/>
		<circle style="fill:#BDBDBD;" cx="465.841" cy="446.801" r="24.847"/>
		<circle style="fill:#BDBDBD;" cx="48.081" cy="446.801" r="24.847"/>
	</g>
	<g>
		<path style="fill:#C7CFE2;" d="M234.068,406.194h2.17c4.962,0,8.984-4.023,8.984-8.984V217.582c0-3.38-1.905-6.465-4.936-7.96
			c-12.071-5.961-19.797-19.329-16.926-34.267c2.274-11.828,11.612-21.643,23.348-24.355c20.624-4.765,38.945,10.768,38.945,30.579
			c0,12.379-7.199,22.981-17.608,28.084c-3.005,1.472-4.853,4.573-4.853,7.919V397.21c0,4.962,4.023,8.984,8.984,8.984h2.17
			c4.03,0,7.565-2.682,8.652-6.563l59.009-210.745c1.295-4.625,0.712-9.531-1.67-13.702c-8.296-14.52-29.244-52.544-50.191-101.422
			h-71.878c-20.948,48.879-41.895,86.903-50.19,101.422c-2.384,4.17-2.965,9.077-1.67,13.702l59.007,210.745
			C226.501,403.513,230.038,406.194,234.068,406.194z"/>
		<path style="fill:#AFB9D2;" d="M245.223,397.21V217.582c0-3.38-1.905-6.465-4.936-7.96c-8.992-4.441-15.558-12.997-17.143-23.247
			l13.094,219.82C241.2,406.194,245.223,402.171,245.223,397.21z"/>
		<path style="fill:#42A5F5;" d="M209.284,28.839h89.847c4.962,0,8.984,4.023,8.984,8.984v26.954c0,4.962-4.023,8.984-8.984,8.984
			h-89.847c-4.962,0-8.984-4.023-8.984-8.984V37.824C200.299,32.862,204.322,28.839,209.284,28.839z"/>
		<path style="fill:#388DD1;" d="M272.176,37.825v26.954c0,4.962-4.023,8.984-8.984,8.984h35.939c4.962,0,8.984-4.023,8.984-8.984
			V37.825c0-4.962-4.023-8.984-8.984-8.984h-35.939C268.153,28.839,272.176,32.862,272.176,37.825z"/>
		<path style="fill:#AFB9D2;" d="M270.151,98.041c8.234,26.44,19.536,57.852,25.289,73.557c2.434,6.643,3.241,13.716,2.398,20.74
			l-25.662,213.856h2.17c4.03,0,7.566-2.682,8.652-6.563l59.009-210.745c1.295-4.625,0.712-9.532-1.671-13.702
			c-8.295-14.52-29.244-52.545-50.19-101.422h-71.878c-2.645,6.172-5.289,12.169-7.91,17.969h51.225
			C265.528,91.732,268.979,94.276,270.151,98.041z"/>
	</g>
</g>
<g id="Layer_1">
</g>
</svg>
