<?xml version="1.0" encoding="iso-8859-1"?>
<!-- Generator: Adobe Illustrator 27.6.1, SVG Export Plug-In . SVG Version: 6.00 Build 0)  -->
<svg version="1.1" xmlns="http://www.w3.org/2000/svg" xmlns:xlink="http://www.w3.org/1999/xlink" x="0px" y="0px"
	 viewBox="0 0 512 512" style="enable-background:new 0 0 512 512;" xml:space="preserve">
<g id="transfer_x5F_transforms">
	<rect style="fill-rule:evenodd;clip-rule:evenodd;fill:none;" width="512" height="512"/>
	<g>
		<polygon style="fill:#BDBDBD;stroke:#1D1D1D;stroke-width:16;stroke-linecap:round;stroke-linejoin:round;" points="
			470.029,90.108 367.913,433.135 97.898,433.135 200.019,90.108 		"/>
	</g>
	<g>
		<g>
			<path style="fill-rule:evenodd;clip-rule:evenodd;fill:#6BBE66;" d="M276.964,382.942c-9.5,0-9.5-12.264-9.5-16.294
				l-0.017-16.928h-6.028c-2.639,0-5.347,0.025-8.102,0.052c-2.89,0.026-5.832,0.055-8.8,0.055c-0.003,0-0.005,0-0.008,0
				c-15.826-0.001-32.409-0.782-46.474-6.45c-10.773-4.342-20.196-11.118-28.004-20.141l-2.925-3.379l2.4-3.77
				c5.125-8.052,9.537-17.299,13.111-27.486c0.021-0.064,0.073-0.219,0.125-0.39c2.781-9.533,3.679-12.654,4.29-14.779l5.12-17.812
				l6.358,17.063c8.909,23.907,17.283,27.805,59.735,27.805c2.779,0,5.787-0.019,9.22-0.057v-21
				c-0.097-6.501,1.008-10.604,3.583-13.218c1.639-1.663,3.824-2.578,6.154-2.578c3.565,0,7.105,1.963,11.468,6.364l43.974,42.15
				c2.828,2.716,6.07,6.457,6.057,11.35c-0.014,4.861-3.189,8.436-5.576,10.701l-44.598,42.386
				C283.837,381.041,280.379,382.942,276.964,382.942z M67.526,354.191c-6.813,0-12.698,0-16.686-3.598
				c-4.155-3.748-4.485-9.622-4.485-16.911v-16.654c-0.095-9.166,5.783-12.86,11.314-13.241l0.206-0.014l35.205,0.002
				c11.207,0,16.119-0.292,25.269-7.608c2.152-1.714,4.214-3.737,6.139-6.022c9.526-11.325,13.018-25.584,16.716-40.68
				c7.775-31.81,20.375-66.208,54.867-80.128c14.067-5.669,31.194-6.451,47.607-6.451c3.068,0,6.096,0.028,9.052,0.055
				c2.781,0.026,5.497,0.051,8.119,0.051h6.028l0.017-16.934c0-4.024,0-16.289,9.5-16.289c3.415,0,6.872,1.901,11.561,6.355
				l44.602,42.388c2.384,2.263,5.559,5.837,5.573,10.698c0.014,4.894-3.228,8.635-6.054,11.348L288.1,242.712
				c-4.362,4.4-7.901,6.364-11.467,6.365c-0.001,0-0.002,0-0.002,0c-2.33,0-4.516-0.915-6.153-2.577
				c-2.576-2.614-3.681-6.718-3.583-13.308l-0.001-20.911c-3.446-0.039-6.467-0.057-9.259-0.057
				c-30.042,0-42.208,2.347-50.067,9.659c-8.723,8.115-13.48,24.601-21.36,51.912c-1.094,3.79-2.249,7.794-3.485,12.021
				l-0.043,0.147l-0.05,0.145c-8.104,23.244-20.841,40.897-37.858,52.469c-16.1,10.945-32.133,15.615-53.609,15.615H67.526z
				 M132.511,231.516c-1.829-3.326-3.82-6.255-6.088-8.954c-1.921-2.281-3.984-4.305-6.126-6.011
				c-9.159-7.324-14.072-7.615-25.281-7.615L58.4,208.938l-0.205-0.014c-5.532-0.379-11.409-4.073-11.315-13.302l0-16.593
				c0-7.29,0.33-13.163,4.484-16.911c3.989-3.598,9.873-3.598,16.687-3.598H93.1c21.476,0,37.508,4.67,53.608,15.616
				c4.925,3.349,9.547,7.246,13.74,11.583l3.437,3.555l-2.833,4.053c-1.659,2.374-3.286,4.912-4.833,7.543
				c-4.861,8.319-9.03,18.001-12.735,29.584l-4.251,13.29L132.511,231.516z"/>
			<path style="fill:#1D1D1D;" d="M276.394,135.77c1.704,0,4.118,1.56,7.428,4.705l44.6,42.388c5.384,5.11,4.631,8.441-0.502,13.369
				l-44.03,42.205c-3.087,3.124-5.495,4.641-7.259,4.641c-2.63,0-3.833-3.366-3.737-9.796v-26.92
				c-5.478-0.084-10.553-0.137-15.261-0.137c-61.969,0-60.57,9.17-80.67,77.908c-7.985,22.905-20.099,38.966-35.566,49.483
				c-16.175,10.996-31.209,14.578-50.235,14.578H67.526c-13.551,0-15.171-0.639-15.171-14.509v-16.654
				c-0.046-4.449,1.734-6.981,5.726-7.255h32.122c0.994,0,1.951,0.002,2.876,0.002c11.761,0,18.252-0.314,29.018-8.922
				c2.464-1.962,4.791-4.243,6.981-6.844c10.38-12.342,14.076-27.285,17.954-43.118c7.506-30.707,19.46-63.148,51.285-75.992
				c13.113-5.285,29.745-6.015,45.361-6.015c5.955,0,11.761,0.106,17.171,0.106h12.023l0.023-22.928
				C272.894,139.227,273.857,135.77,276.394,135.77 M93.1,164.52c19.027,0,34.061,3.582,50.235,14.578
				c4.563,3.103,8.829,6.684,12.798,10.791c-1.802,2.578-3.491,5.224-5.087,7.939c-5.612,9.604-9.855,20.099-13.278,30.798
				c-1.894-3.445-4.106-6.776-6.753-9.924c-2.19-2.601-4.517-4.882-6.981-6.844c-10.766-8.608-17.256-8.922-29.017-8.922
				c-0.924,0-1.882,0.002-2.876,0.002H58.606c-3.992-0.274-5.772-2.806-5.726-7.255v-16.654c0-13.871,1.62-14.509,15.171-14.509
				H93.1 M277.201,269.635c1.765,0,4.172,1.517,7.259,4.641l44.03,42.205c5.133,4.928,5.886,8.259,0.502,13.369l-44.601,42.388
				c-3.31,3.145-5.724,4.705-7.428,4.705c-2.536,0-3.5-3.458-3.5-10.294l-0.023-22.928h-12.023c-5.41,0-11.109,0.106-16.911,0.106
				c-15.214,0-31.116-0.73-44.23-6.015c-10.585-4.266-18.958-10.7-25.711-18.502c5.316-8.35,9.901-17.863,13.711-28.722
				c0.068-0.205,0.137-0.411,0.205-0.639c2.943-10.084,3.787-13.027,4.403-15.171c10.098,27.099,21.566,31.711,65.36,31.711
				c4.687,0,9.752-0.053,15.217-0.137v-26.92C273.368,273.001,274.571,269.635,277.201,269.635 M276.394,123.77
				c-5.117,0-11.512,2.858-14.115,10.879c-0.958,2.951-1.385,6.471-1.385,11.415l-0.011,10.928h-0.035
				c-2.585,0-5.246-0.025-8.063-0.051c-2.951-0.027-6.003-0.055-9.107-0.055c-17.017,0-34.834,0.834-49.847,6.885
				c-10.55,4.258-19.851,10.644-27.814,19.076l-1.255-1.298c-4.478-4.632-9.417-8.795-14.678-12.374
				C132.911,157.501,115.87,152.52,93.1,152.52H68.051c-7.716,0-15.004,0-20.706,5.143c-6.466,5.833-6.466,14.446-6.466,21.366
				v16.598c-0.083,10.837,6.704,18.583,16.905,19.282l0.41,0.028h0.411h33.536l1.502-0.001l1.374-0.001
				c10.211,0,13.651,0,21.523,6.294c1.851,1.474,3.627,3.219,5.296,5.201c2.005,2.385,3.779,4.996,5.416,7.975l7.929,14.424
				c-3.598,14.681-6.814,27.379-15.288,37.455c-1.664,1.976-3.44,3.721-5.272,5.181c-7.891,6.309-11.331,6.309-21.542,6.309
				l-1.373-0.001l-1.502-0.001H58.081h-0.411l-0.41,0.028c-10.201,0.699-16.988,8.445-16.905,19.282v16.598
				c0,6.92,0,15.533,6.466,21.366c5.701,5.143,12.989,5.143,20.706,5.143h23.635c22.77,0,39.811-4.981,56.982-16.654
				c6.55-4.454,12.499-9.738,17.828-15.829c8.345,9.478,18.374,16.619,29.822,21.233c15.013,6.051,32.286,6.885,48.715,6.885
				c3.008,0,5.984-0.028,8.863-0.055c2.801-0.026,5.446-0.051,8.048-0.051h0.035l0.011,10.94c0,4.932,0.427,8.452,1.385,11.403
				c2.603,8.021,8.998,10.879,14.115,10.879c6.404,0,11.527-4.047,15.693-8.005l44.602-42.389c1.83-1.737,7.417-7.04,7.44-15.031
				c0.023-8.088-5.732-13.613-7.898-15.693l-43.926-42.106c-3.484-3.507-8.863-8.081-15.671-8.083l0,0c-0.001,0-0.003,0-0.004,0
				c-3.95,0-7.652,1.55-10.427,4.366c-4.837,4.908-5.386,11.924-5.31,17.515v14.964c-1.112,0.005-2.181,0.008-3.217,0.008
				c-18.356,0-32.214-0.772-40.187-4.542c-5.162-2.44-9.096-6.39-13.928-19.359l-5.977-16.04
				c4.424-14.131,8.247-23.379,13.501-28.268c6.472-6.023,18.074-8.056,45.978-8.056c1.05,0,2.134,0.003,3.261,0.008v14.964
				c-0.076,5.59,0.473,12.606,5.309,17.514c2.775,2.816,6.478,4.367,10.428,4.367c6.809,0,12.188-4.576,15.673-8.083l43.92-42.099
				c2.173-2.086,7.928-7.611,7.905-15.699c-0.023-7.991-5.61-13.294-7.446-15.036l-44.595-42.382
				C287.921,127.817,282.798,123.77,276.394,123.77L276.394,123.77z"/>
		</g>
	</g>
</g>
<g id="Layer_1">
</g>
</svg>
