<?xml version="1.0" encoding="iso-8859-1"?>
<!-- Generator: Adobe Illustrator 27.7.0, SVG Export Plug-In . SVG Version: 6.00 Build 0)  -->
<svg version="1.1" xmlns="http://www.w3.org/2000/svg" xmlns:xlink="http://www.w3.org/1999/xlink" x="0px" y="0px"
	 viewBox="0 0 512 512" style="enable-background:new 0 0 512 512;" xml:space="preserve">
<g id="scrollbar-up-down">
	<path style="fill:#BDBDBD;" d="M56,360.007c-10.112,0-19.227-6.09-23.097-15.433c-3.869-9.34-1.731-20.094,5.419-27.244l200-200
		c4.687-4.688,11.047-7.322,17.677-7.322c6.63,0,12.99,2.634,17.68,7.322l200,200c7.15,7.15,9.287,17.904,5.417,27.244
		c-3.87,9.343-12.983,15.433-23.097,15.433H56z"/>
	<path style="display:none;fill:#BDBDBD;" d="M456,110.007c10.112,0,19.227,6.09,23.097,15.433
		c3.869,9.34,1.731,20.094-5.419,27.244l-200,200c-4.687,4.688-11.047,7.322-17.677,7.322c-6.63,0-12.99-2.634-17.68-7.322l-200-200
		c-7.15-7.15-9.287-17.904-5.417-27.244c3.87-9.343,12.983-15.433,23.097-15.433H456z"/>
</g>
<g id="Layer_1">
</g>
</svg>
