<?xml version="1.0" encoding="utf-8"?>
<!-- Generator: Adobe Illustrator 27.7.0, SVG Export Plug-In . SVG Version: 6.00 Build 0)  -->
<svg version="1.1" id="Layer_1" xmlns="http://www.w3.org/2000/svg" xmlns:xlink="http://www.w3.org/1999/xlink" x="0px" y="0px"
	 viewBox="0 0 512 512" style="enable-background:new 0 0 512 512;" xml:space="preserve">
<style type="text/css">
	.st0{fill:#BDBDBD;}
	.st1{display:none;fill:#BDBDBD;}
</style>
<g id="scrollbar-up-down">
	<path class="st0" d="M131,456c0,10.1,6.1,19.2,15.4,23.1s20.1,1.7,27.2-5.4l200-200c4.7-4.7,7.3-11,7.3-17.7c0-6.6-2.6-13-7.3-17.7
		l-200-200c-7.1-7.1-17.9-9.3-27.2-5.4c-9.3,3.9-15.4,13-15.4,23.1V456z"/>
	<path class="st1" d="M381,56c0-10.1-6.1-19.2-15.4-23.1c-9.3-3.9-20.1-1.7-27.2,5.4l-200,200c-4.7,4.7-7.3,11-7.3,17.7
		c0,6.6,2.6,13,7.3,17.7l200,200c7.1,7.1,17.9,9.3,27.2,5.4c9.3-3.9,15.4-13,15.4-23.1V56L381,56z"/>
</g>
<g id="Layer_1_00000178915316149752790060000010632881543690719927_">
</g>
</svg>
