<?xml version="1.0" encoding="iso-8859-1"?>
<!-- Generator: Adobe Illustrator 27.9.0, SVG Export Plug-In . SVG Version: 6.00 Build 0)  -->
<svg version="1.1" xmlns="http://www.w3.org/2000/svg" xmlns:xlink="http://www.w3.org/1999/xlink" x="0px" y="0px"
	 viewBox="0 0 512 512" style="enable-background:new 0 0 512 512;" xml:space="preserve">
<g id="ui_x5F_add">
	<g>
		<polygon style="fill:#BDBDBD;" points="204.536,469.619 204.536,307.465 42.38,307.465 42.38,204.561 204.536,204.561 
			204.536,42.38 307.465,42.38 307.465,204.561 469.619,204.561 469.619,307.465 307.465,307.465 307.465,469.619 		"/>
		<path style="fill:#1D1D1D;" d="M295.969,53.877v162.18h162.155v79.912H295.969v162.155h-79.937V295.969H53.877v-79.912h162.155
			V53.877H295.969 M318.961,30.884h-22.992h-79.937h-22.992v22.992v139.188H53.877H30.884v22.992v79.912v22.992h22.992h139.163
			v139.163v22.992h22.992h79.937h22.992v-22.992V318.961h139.163h22.992v-22.992v-79.912v-22.992h-22.992H318.961V53.877V30.884
			L318.961,30.884z"/>
	</g>
</g>
<g id="Layer_1">
</g>
</svg>
