<?xml version="1.0" encoding="iso-8859-1"?>
<!-- Generator: Adobe Illustrator 27.9.0, SVG Export Plug-In . SVG Version: 6.00 Build 0)  -->
<svg version="1.1" xmlns="http://www.w3.org/2000/svg" xmlns:xlink="http://www.w3.org/1999/xlink" x="0px" y="0px"
	 viewBox="0 0 512 512" style="enable-background:new 0 0 512 512;" xml:space="preserve">
<g id="ui_x5F_delete">
	<sodipodi:namedview  bordercolor="#000000" borderopacity="0.25" id="namedview17474" pagecolor="#ffffff" showgrid="false">
		</sodipodi:namedview>
	<g id="path17470">
		<path style="fill-rule:evenodd;clip-rule:evenodd;fill:#C76365;" d="M363.272,418.36c-7.712,0-14.96-3.001-20.409-8.45
			l-87.082-87.082l-87.082,87.082c-5.162,5.161-12.441,8.122-19.972,8.122c-7.531,0-14.811-2.961-19.972-8.122l-26.446-26.446
			c-5.39-5.389-8.41-12.568-8.504-20.215c-0.094-7.597,2.846-14.947,8.067-20.167L188.954,256l-87.082-87.082
			c-5.22-5.22-8.161-12.571-8.066-20.167c0.094-7.646,3.114-14.826,8.504-20.215l26.445-26.446
			c5.161-5.162,12.441-8.122,19.972-8.122s14.811,2.96,19.973,8.123l87.082,87.082l87.082-87.082
			c5.449-5.449,12.697-8.45,20.409-8.45c7.713,0,14.961,3.001,20.41,8.451l26.446,26.445c11.013,11.013,10.816,29.128-0.438,40.382
			L322.609,256l87.082,87.082c11.254,11.254,11.45,29.369,0.438,40.382l-26.446,26.446
			C378.233,415.359,370.985,418.36,363.272,418.36z"/>
		<path style="fill:#1D1D1D;" d="M363.273,105.001c4.481,0,8.961,1.708,12.376,5.123l26.446,26.446
			c6.393,6.393,6.393,17.485-0.438,24.315L306.543,256l95.115,95.115c6.83,6.83,6.83,17.923,0.438,24.315l-26.446,26.446
			c-3.415,3.415-7.896,5.123-12.377,5.123c-4.481,0-8.961-1.708-12.376-5.123l-95.115-95.115l-95.115,95.115
			c-3.196,3.196-7.568,4.794-11.939,4.794s-8.743-1.598-11.939-4.794l-26.446-26.446c-6.83-6.83-6.83-17.923-0.438-24.315
			L205.02,256l-95.115-95.115c-6.393-6.393-6.393-17.485,0.438-24.315l26.446-26.446c3.196-3.196,7.568-4.794,11.939-4.794
			c4.372,0,8.742,1.598,11.939,4.795l95.115,95.115l95.115-95.115C354.312,106.708,358.792,105.001,363.273,105.001 M363.273,82.279
			c-10.747,0-20.848,4.183-28.443,11.778l-79.049,79.049l-79.049-79.049c-7.276-7.276-17.484-11.449-28.005-11.449
			c-10.521,0-20.729,4.173-28.005,11.449l-26.446,26.446c-7.498,7.498-11.699,17.48-11.83,28.107
			c-0.131,10.639,4.021,20.969,11.393,28.341L172.887,256l-79.049,79.049c-7.372,7.372-11.524,17.702-11.393,28.341
			c0.131,10.628,4.333,20.61,11.83,28.107l26.446,26.446c7.277,7.276,17.484,11.449,28.005,11.449
			c10.521,0,20.729-4.173,28.005-11.449l79.049-79.049l79.049,79.049c7.595,7.595,17.696,11.778,28.443,11.778
			c10.747,0,20.848-4.183,28.443-11.777l26.446-26.446c7.372-7.372,11.524-17.702,11.393-28.341
			c-0.131-10.628-4.333-20.61-11.831-28.107L338.675,256l79.049-79.049c7.498-7.498,11.699-17.48,11.831-28.107
			c0.131-10.639-4.021-20.969-11.393-28.341l-26.446-26.446C384.121,86.462,374.02,82.279,363.273,82.279L363.273,82.279z"/>
	</g>
	<rect x="0.854" y="0.752" style="fill:none;" width="512" height="512"/>
</g>
<g id="Layer_1">
</g>
</svg>
