<?xml version="1.0" encoding="iso-8859-1"?>
<!-- Generator: Adobe Illustrator 27.7.0, SVG Export Plug-In . SVG Version: 6.00 Build 0)  -->
<svg version="1.1" xmlns="http://www.w3.org/2000/svg" xmlns:xlink="http://www.w3.org/1999/xlink" x="0px" y="0px"
	 viewBox="0 0 512 512" style="enable-background:new 0 0 512 512;" xml:space="preserve">
<g id="ui_x5F_exclamation">
	<path style="fill-rule:evenodd;clip-rule:evenodd;fill:#FFCE81;" d="M256,70.511c0,0-27.197,9.46-34.029,23.65
		c-6.832,14.19-144,304.292-144,304.292s7.883,44.146,39.942,44.672s286.423,0,286.423,0s44.672-25.907,34.686-49.479
		c-9.985-23.572-160.818-318.93-160.818-318.93L256,70.511z"/>
	<path style="fill-rule:evenodd;clip-rule:evenodd;fill:#1D1D1D;" d="M272.547,101.056c-6.734-13.772-26.361-13.772-33.094,0
		L95.862,394.765c-5.982,12.235,2.927,26.508,16.547,26.508H399.59c13.62,0,22.53-14.272,16.547-26.508L272.547,101.056z
		 M206.359,84.877c20.199-41.316,79.083-41.316,99.282,0l143.591,293.709c17.945,36.708-8.78,79.524-49.642,79.524H112.409
		c-40.861,0-67.587-42.816-49.641-79.524L206.359,84.877z"/>
	<path style="fill:#1D1D1D;" d="M237.581,191.041c0-10.172,8.246-18.419,18.418-18.419c10.173,0,18.419,8.246,18.419,18.419v101.302
		c0,10.173-8.246,18.418-18.419,18.418c-10.173,0-18.418-8.246-18.418-18.418V191.041z"/>
	<path style="fill:#1D1D1D;" d="M283.628,366.017c0,15.258-12.368,27.628-27.628,27.628c-15.258,0-27.628-12.37-27.628-27.628
		s12.37-27.628,27.628-27.628C271.26,338.389,283.628,350.759,283.628,366.017z"/>
</g>
<g id="Layer_1">
</g>
</svg>
