<?xml version="1.0" encoding="iso-8859-1"?>
<!-- Generator: Adobe Illustrator 27.9.0, SVG Export Plug-In . SVG Version: 6.00 Build 0)  -->
<svg version="1.1" xmlns="http://www.w3.org/2000/svg" xmlns:xlink="http://www.w3.org/1999/xlink" x="0px" y="0px"
	 viewBox="0 0 512 512" style="enable-background:new 0 0 512 512;" xml:space="preserve">
<g id="ui_x5F_edit">
	<rect x="0.854" y="0.752" style="fill:none;" width="512" height="512"/>
	<g id="Page-1_00000004537611277515951620000001329006957377432713_">
		
			<g id="Dribbble-Light-Preview_00000133509975522100657220000000204386364779614378_" transform="translate(-339.000000, -560.000000)">
			<g id="icons_00000062877520133488196140000007790144783028268708_" transform="translate(56.000000, 160.000000)">
				<g id="settings-_x5B__x23_1433_x5D_">
					<path style="fill-rule:evenodd;clip-rule:evenodd;fill:#BDBDBD;" d="M676.547,859.081c-3.125,0-6.249-1.156-8.68-3.471
						L506.975,702.428l-47.831,45.562c-2.431,2.314-5.557,3.473-8.682,3.473c-3.125,0.001-6.25-1.156-8.681-3.472L324.343,636.166
						c-2.495-2.375-3.907-5.67-3.908-9.115c0-3.445,1.412-6.74,3.906-9.116l56.511-53.828c2.431-2.315,5.557-3.474,8.682-3.474
						s6.25,1.157,8.681,3.472l52.245,49.747l38.26-36.443l-51.435-48.976c-2.495-2.376-3.908-5.671-3.908-9.116
						c0-3.446,1.413-6.741,3.908-9.117l56.511-53.809c2.431-2.314,5.556-3.472,8.681-3.472c3.125,0,6.249,1.157,8.68,3.471
						l117.539,111.9c2.495,2.375,3.908,5.67,3.908,9.116c0.001,3.445-1.411,6.74-3.905,9.116l-46.94,44.712l159.981,152.333
						c2.495,2.376,3.907,5.671,3.907,9.116s-1.412,6.74-3.907,9.116l-56.512,53.81C682.797,857.924,679.672,859.081,676.547,859.081
						z"/>
					<path style="fill:#1D1D1D;" d="M502.477,465.507l117.539,111.9l-56.511,53.828l169.554,161.448l-56.511,53.809L506.973,685.045
						l-56.511,53.828L333.023,627.05l56.511-53.828l60.927,58.014l56.511-53.828l-61.007-58.091L502.477,465.507 M502.477,440.331
						c-6.25,0-12.499,2.314-17.361,6.943l-56.511,53.809c-4.991,4.752-7.815,11.342-7.815,18.233c0,6.891,2.825,13.481,7.815,18.233
						l41.862,39.861l-20.008,19.058l-43.563-41.48c-4.861-4.629-11.111-6.943-17.361-6.943c-6.251,0-12.503,2.316-17.364,6.947
						l-56.511,53.828c-4.989,4.752-7.813,11.342-7.812,18.232c0.001,6.89,2.825,13.479,7.815,18.231l117.438,111.824
						c4.861,4.629,11.111,6.943,17.361,6.943c6.251,0,12.503-2.315,17.364-6.946l39.151-37.292l152.21,144.915
						c4.861,4.628,11.111,6.942,17.36,6.942c6.25,0,12.499-2.314,17.361-6.943l56.511-53.809c4.991-4.752,7.815-11.342,7.815-18.233
						c0-6.891-2.825-13.481-7.815-18.233L600.011,631.232l37.369-35.595c4.989-4.753,7.813-11.343,7.812-18.233
						c-0.001-6.891-2.826-13.48-7.817-18.231l-117.539-111.9C514.976,442.645,508.726,440.331,502.477,440.331L502.477,440.331z"/>
				</g>
			</g>
		</g>
	</g>
</g>
<g id="Layer_1">
</g>
</svg>
