<?xml version="1.0" encoding="iso-8859-1"?>
<!-- Generator: Adobe Illustrator 27.9.0, SVG Export Plug-In . SVG Version: 6.00 Build 0)  -->
<svg version="1.1" xmlns="http://www.w3.org/2000/svg" xmlns:xlink="http://www.w3.org/1999/xlink" x="0px" y="0px"
	 viewBox="0 0 512 512" style="enable-background:new 0 0 512 512;" xml:space="preserve">
<g id="ui_x5F_new">
	<g>
		<path style="fill:#B2B2B2;" d="M141.756,454.897c-10.981,0-19.915-8.934-19.915-19.915V77.018
			c0-10.981,8.934-19.915,19.915-19.915h149.152c5.376,0,10.356,2.051,14.111,5.775l89.505,89.505
			c3.716,3.746,5.821,8.9,5.79,14.155v268.444c0,10.981-8.934,19.915-19.915,19.915H141.756z"/>
		<path style="fill:#1D1D1D;" d="M290.995,62.102c3.933,0,7.709,1.554,10.503,4.326l89.491,89.491
			c2.792,2.815,4.348,6.625,4.326,10.59v268.474c0,8.237-6.678,14.915-14.915,14.915H141.756c-8.237,0-14.915-6.678-14.915-14.915
			V77.018c0-8.237,6.678-14.915,14.915-14.915h149.152C290.937,62.102,290.966,62.102,290.995,62.102 M290.995,52.102l-0.135,0
			l-149.103,0c-13.738,0-24.915,11.177-24.915,24.915v357.965c0,13.738,11.177,24.915,24.915,24.915H380.4
			c13.738,0,24.915-11.177,24.915-24.915V166.538c0.03-6.565-2.603-13-7.226-17.661l-89.52-89.52
			C303.843,54.668,297.612,52.102,290.995,52.102L290.995,52.102z"/>
	</g>
	<path style="fill:#474747;" d="M301.498,66.428c-2.815-2.792-6.625-4.348-10.59-4.325v89.491c0,8.237,6.678,14.915,14.915,14.915
		h89.491c0.023-3.965-1.533-7.775-4.325-10.59L301.498,66.428z"/>
	<path style="fill:#1D1D1D;" d="M275.993,248.543h-74.576c-8.237,0-14.915-6.678-14.915-14.915c0-8.237,6.678-14.915,14.915-14.915
		h74.576c8.237,0,14.915,6.678,14.915,14.915C290.908,241.865,284.231,248.543,275.993,248.543z"/>
	<path style="fill:#1D1D1D;" d="M320.739,308.203H201.417c-8.237,0-14.915-6.678-14.915-14.915c0-8.237,6.678-14.915,14.915-14.915
		h119.322c8.237,0,14.915,6.678,14.915,14.915C335.654,301.526,328.976,308.203,320.739,308.203z"/>
	<path style="fill:#1D1D1D;" d="M320.739,367.864H201.417c-8.237,0-14.915-6.678-14.915-14.915s6.678-14.915,14.915-14.915h119.322
		c8.237,0,14.915,6.678,14.915,14.915S328.976,367.864,320.739,367.864z"/>
</g>
<g id="Layer_1">
</g>
</svg>
