<?xml version="1.0" encoding="iso-8859-1"?>
<!-- Generator: Adobe Illustrator 27.9.0, SVG Export Plug-In . SVG Version: 6.00 Build 0)  -->
<svg version="1.1" xmlns="http://www.w3.org/2000/svg" xmlns:xlink="http://www.w3.org/1999/xlink" x="0px" y="0px"
	 viewBox="0 0 512 512" style="enable-background:new 0 0 512 512;" xml:space="preserve">
<g id="ui_x5F_open">
	<g>
		<path style="fill:#1D1D1D;" d="M183.175,98.365c57.148,0,51.242,52.545,88.675,52.545h94.581c23.216,0,42.036,18.82,42.036,42.036
			h3.531c23.214,0,40.123,18.822,37.759,42.036l-16.005,136.617c-2.354,23.214-23.088,42.036-46.303,42.036h-21.018H114.215
			c-0.301,0-0.597-0.004-0.887-0.011c-22.806-0.472-41.149-19.106-41.149-42.025V140.401c0-23.216,18.82-42.036,42.036-42.036
			H183.175 M183.175,86.081h-68.96c-29.952,0-54.32,24.368-54.32,54.32v231.198c0,14.31,5.518,27.816,15.536,38.032
			c9.994,10.19,23.348,15.969,37.604,16.274c0.386,0.01,0.779,0.015,1.18,0.015h252.216h21.018c14.287,0,28.22-5.505,39.231-15.502
			c10.97-9.959,17.816-23.266,19.283-37.479l15.995-136.528l0.011-0.092l0.009-0.092c1.504-14.768-2.921-28.717-12.46-39.278
			c-7.852-8.693-18.334-14.153-30.052-15.777c-5.393-24.311-27.125-42.546-53.035-42.546H271.85
			c-10.234,0-15.009-5.627-23.997-17.332C236.443,106.433,220.816,86.081,183.175,86.081L183.175,86.081z"/>
	</g>
	<path style="fill:#828282;" d="M72.179,371.599c0,23.216,18.82,42.036,42.036,42.036h252.216c23.216,0,42.036-18.82,42.036-42.036
		V192.946c0-23.216-18.82-42.036-42.036-42.036H271.85c-37.433,0-31.527-52.545-88.675-52.545h-68.96
		c-23.216,0-42.036,18.82-42.036,42.036V371.599z"/>
	<path style="fill:#9B9B9B;stroke:#1D1D1D;stroke-width:10;stroke-miterlimit:10;" d="M411.998,192.946h-68.96
		c-57.148,0-56.57,52.545-94.003,52.545h-94.581c-23.214,0-43.949,18.822-46.303,42.036l-5.181,40.712l-5.507,43.36l-0.21-0.021
		c-1.219,6.379-7.062,10.499-13.662,10.499c-6.757,0-11.623-5.328-11.287-12.022c-0.021,0.525-0.126,1.019-0.126,1.545
		c0.033,20.736,15.221,38.333,35.731,41.395c1.86,0.399,3.899,0.641,6.305,0.641h273.234c23.214,0,43.949-18.822,46.303-42.036
		l16.005-136.617C452.121,211.768,435.212,192.946,411.998,192.946z"/>
</g>
<g id="Layer_1">
</g>
</svg>
