<?xml version="1.0" encoding="iso-8859-1"?>
<!-- Generator: Adobe Illustrator 27.9.0, SVG Export Plug-In . SVG Version: 6.00 Build 0)  -->
<svg version="1.1" xmlns="http://www.w3.org/2000/svg" xmlns:xlink="http://www.w3.org/1999/xlink" x="0px" y="0px"
	 viewBox="0 0 512 512" style="enable-background:new 0 0 512 512;" xml:space="preserve">
<g id="ui_x5F_toggle_x5F_disabled">
	<rect x="0.13" y="-0.106" style="fill:none;" width="512" height="512"/>
	<path id="path33450" style="fill:#63C77A;" d="M193.826,127.599c-16.932,0.215-33.899-0.334-50.808,0.656
		c-28.618,2.399-56.2,15.075-77.03,34.781c-27.629,26.2-42.718,65.086-39.432,103.08c2.576,33.327,18.835,65.33,44.291,87.011
		c21.1,18.151,48.332,29.247,76.144,30.745c66.936,0.435,133.876,0.28,200.812,0.085c13.182-0.213,26.582,0.296,39.416-3.27
		c40.129-9.239,74.877-39.097,89.637-77.596c11.492-28.85,12.122-61.873,1.286-91.018c-12.153-33.986-39.473-62.132-73.089-75.286
		c-14.129-5.506-29.219-9.143-44.462-8.78C305.006,127.552,249.415,127.64,193.826,127.599z M362.384,165.693
		c29.695-0.403,58.759,15.255,75.403,39.766c11.421,16.464,17.11,36.747,15.871,56.76c-1.183,35.355-25.466,68.423-58.529,80.815
		c-9.783,3.791-20.247,6.012-30.786,5.811c-9.961,0.64-19.892-0.789-29.354-3.86c-26.386-7.942-48.465-28.523-58.358-54.192
		c-11.839-29.469-6.68-64.853,13.023-89.778c15.998-20.762,41.2-34.07,67.374-35.18
		C358.813,165.736,360.599,165.693,362.384,165.693z"/>
	<path id="path23291_00000063622115161185164130000008827829295663149454_" style="fill:#1D1D1D;" d="M357.779,127.827H154.47l0,0
		c-33.932,0-66.51,13.473-90.463,37.497c-24.024,24.024-37.497,56.53-37.497,90.462s13.473,66.51,37.497,90.462
		c24.024,24.024,56.53,37.497,90.463,37.497h203.309l0,0c33.932,0,66.51-13.473,90.462-37.497
		c24.024-24.024,37.497-56.53,37.497-90.463s-13.473-66.51-37.497-90.462C424.29,141.3,391.712,127.827,357.779,127.827
		L357.779,127.827z M357.779,369.274H154.47l0,0c-40.562,0-78.059-21.671-98.304-56.744s-20.317-78.415,0-113.559
		s57.742-56.744,98.304-56.744h203.309l0,0c40.562,0,77.987,21.6,98.304,56.744c20.245,35.144,20.245,78.344,0,113.488
		s-57.742,56.744-98.304,56.744V369.274z"/>
	<path id="path23293" style="fill:#474747;" d="M454.251,257.367c0,50.886-41.251,92.138-92.138,92.138
		s-92.138-41.251-92.138-92.138s41.251-92.138,92.138-92.138S454.251,206.481,454.251,257.367"/>
</g>
<g id="Layer_1">
</g>
</svg>
