<?xml version="1.0" encoding="iso-8859-1"?>
<!-- Generator: Adobe Illustrator 27.9.0, SVG Export Plug-In . SVG Version: 6.00 Build 0)  -->
<svg version="1.1" xmlns="http://www.w3.org/2000/svg" xmlns:xlink="http://www.w3.org/1999/xlink" x="0px" y="0px"
	 viewBox="0 0 512 512" style="enable-background:new 0 0 512 512;" xml:space="preserve">
<g id="ui_x5F_trash">
	<path id="secondary_00000026868065496807101000000003446437438550528643_" style="fill:#BDBDBD;" d="M385.08,150.433v279.674
		c0,11.882-9.632,21.513-21.513,21.513H148.433c-11.882,0-21.513-9.632-21.513-21.513V150.433l0,0H385.08L385.08,150.433z"/>
	
		<path id="primary_00000137828468477158423790000003671045808787193266_" style="fill:none;stroke:#1D1D1D;stroke-width:36;stroke-linecap:round;stroke-linejoin:round;stroke-miterlimit:133.3333;" d="
		M342.054,146.433v-64.54c0-11.882-9.632-21.513-21.513-21.513H191.46c-11.882,0-21.513,9.632-21.513,21.513v64.54"/>
	
		<path id="primary-2_00000031178880776723724990000012583521957277926575_" style="fill:none;stroke:#1D1D1D;stroke-width:29;stroke-linecap:round;stroke-linejoin:round;stroke-miterlimit:133.3333;" d="
		M212.973,236.487v129.08 M299.027,236.487v129.08 M83.893,150.433h344.214 M385.08,430.107V150.433H126.92v279.674
		c0,11.882,9.632,21.513,21.513,21.513h215.134C375.448,451.62,385.08,441.989,385.08,430.107z"/>
	<rect x="0.854" y="0.752" style="fill:none;" width="512" height="512"/>
</g>
<g id="Layer_1">
</g>
</svg>
