<?xml version="1.0" encoding="iso-8859-1"?>
<!-- Generator: Adobe Illustrator 27.9.0, SVG Export Plug-In . SVG Version: 6.00 Build 0)  -->
<svg version="1.1" xmlns="http://www.w3.org/2000/svg" xmlns:xlink="http://www.w3.org/1999/xlink" x="0px" y="0px"
	 viewBox="0 0 512 512" style="enable-background:new 0 0 512 512;" xml:space="preserve">
<g id="ui_x5F_toggle_x5F_enabled">
	<rect x="0.13" y="-0.106" style="fill:none;" width="512" height="512"/>
	<path style="fill:#474747;" d="M357.562,374.015H154.438c-64.581,0-116.934-52.353-116.934-116.934v0
		c0-64.581,52.353-116.934,116.934-116.934h203.124c64.581,0,116.934,52.353,116.934,116.934v0
		C474.496,321.661,422.143,374.015,357.562,374.015z"/>
	<path id="path23291_00000041264142622325425350000000435805196864563857_" style="fill:#828282;" d="M357.779,127.827H154.47l0,0
		c-33.932,0-66.51,13.473-90.463,37.497c-24.024,24.024-37.497,56.53-37.497,90.462s13.473,66.51,37.497,90.462
		c24.024,24.024,56.53,37.497,90.463,37.497h203.309l0,0c33.932,0,66.51-13.473,90.462-37.497
		c24.024-24.024,37.497-56.53,37.497-90.463s-13.473-66.51-37.497-90.462C424.29,141.3,391.712,127.827,357.779,127.827
		L357.779,127.827z M357.779,369.274H154.47l0,0c-40.562,0-78.059-21.671-98.304-56.744s-20.317-78.415,0-113.559
		s57.742-56.744,98.304-56.744h203.309l0,0c40.562,0,77.987,21.6,98.304,56.744c20.245,35.144,20.245,78.344,0,113.488
		s-57.742,56.744-98.304,56.744V369.274z"/>
	<path id="path23293_00000054981632062640603370000017953759131360252301_" style="fill:#828282;" d="M249.78,255.786
		c0,50.899-41.275,92.102-92.102,92.102s-92.173-41.204-92.173-92.102s41.275-92.102,92.102-92.102S249.78,204.958,249.78,255.786"
		/>
</g>
<g id="Layer_1">
</g>
</svg>
