<?xml version="1.0" encoding="iso-8859-1"?>
<!-- Generator: Adobe Illustrator 27.9.0, SVG Export Plug-In . SVG Version: 6.00 Build 0)  -->
<svg version="1.1" xmlns="http://www.w3.org/2000/svg" xmlns:xlink="http://www.w3.org/1999/xlink" x="0px" y="0px"
	 viewBox="0 0 512 512" style="enable-background:new 0 0 512 512;" xml:space="preserve">
<g id="ui_x5F_templates">
	<path style="fill:#939393;" d="M322.876,81.069l-173.109,1.456l-32.519,21.566L112.34,368.39c0,0-43.977,12.346-40.75,45.905
		s40.75,36.187,40.75,36.187h225.752c0,0,40.939-2.714,40.992-38.934s0-270.088,0-270.088s63.306,13.839,61.622-29.606
		s-63.699-30.784-63.699-30.784H322.876z"/>
	<path style="fill:#999999;" d="M278.204,367.971l-177.625,2.138c0,0-37.85,19.935-31.543,45.687
		c6.307,25.752,56.759,37.314,56.759,37.314l185.518-2.102c0,0-12.088-10.617-16.818-41.571c-4.73-30.954,1.051-39.363,1.051-39.363
		L278.204,367.971z"/>
	<circle style="fill:#5B5B5B;" cx="413.401" cy="113.737" r="31.139"/>
	<path style="opacity:0.1;enable-background:new    ;" d="M256,368.39H153.385c-22.669,0-41.046-18.376-41.046-41.046V122.115
		c0-22.669,18.377-41.046,41.046-41.046h184.706c22.67,0,41.046,18.377,41.046,41.046v287.321c0,22.67-18.376,41.046-41.046,41.046
		s-41.046-18.376-41.046-41.046C297.046,386.766,278.67,368.39,256,368.39z"/>
	
		<path style="fill:none;stroke:#1D1D1D;stroke-width:19;stroke-linecap:round;stroke-linejoin:round;stroke-miterlimit:133.3333;" d="
		M399.66,81.069H194.431l0,0c-38.698,0-58.048,0-70.07,12.022c-12.022,12.022-12.022,31.371-12.022,70.07v71.83V368.39"/>
	
		<path style="fill:none;stroke:#1D1D1D;stroke-width:19;stroke-linecap:round;stroke-linejoin:round;stroke-miterlimit:133.3333;" d="
		M297.046,368.39v41.046c0,22.67,18.376,41.046,41.046,41.046l0,0c22.67,0,41.046-18.376,41.046-41.046V204.207v-92.353
		c0-17.002,13.783-30.784,30.784-30.784l0,0c17.001,0,30.784,13.783,30.784,30.784l0,0c0,17.002-13.783,30.784-30.784,30.784
		h-20.523"/>
	
		<path style="fill:none;stroke:#1D1D1D;stroke-width:19;stroke-linecap:round;stroke-linejoin:round;stroke-miterlimit:133.3333;" d="
		M338.092,450.482H112.34c-22.669,0-41.046-18.376-41.046-41.046l0,0c0-22.67,18.377-41.046,41.046-41.046h184.706"/>
	
		<path style="fill:none;stroke:#1D1D1D;stroke-width:19;stroke-linecap:round;stroke-linejoin:round;stroke-miterlimit:133.3333;" d="
		M194.431,171.161h102.615"/>
	
		<path style="fill:none;stroke:#1D1D1D;stroke-width:19.166;stroke-linecap:round;stroke-linejoin:round;stroke-miterlimit:133.3333;" d="
		M211.521,232.161h68.435"/>
	
		<path style="fill:none;stroke:#1D1D1D;stroke-width:19;stroke-linecap:round;stroke-linejoin:round;stroke-miterlimit:133.3333;" d="
		M194.431,293.253h102.615"/>
</g>
<g id="Layer_1">
</g>
</svg>
