<?xml version="1.0" encoding="iso-8859-1"?>
<!-- Generator: Adobe Illustrator 27.7.0, SVG Export Plug-In . SVG Version: 6.00 Build 0)  -->
<svg version="1.1" xmlns="http://www.w3.org/2000/svg" xmlns:xlink="http://www.w3.org/1999/xlink" x="0px" y="0px"
	 viewBox="0 0 512 512" style="enable-background:new 0 0 512 512;" xml:space="preserve">
<g id="util_x5F_joint_x5F_label_x5F_toggle">
	<g>
		<path style="fill:#BDBDBD;" d="M42.495,472.819V63.713h409.106v409.106H42.495z M417.776,438.994V97.538H76.32v341.456H417.776z"
			/>
		<path style="fill:#1D1D1D;" d="M445.494,69.82v396.892H48.603V69.82H445.494 M70.213,445.102h353.671V91.431H70.213V445.102
			 M457.709,57.606h-12.214H48.603H36.388V69.82v396.892v12.215h12.215h396.892h12.214v-12.215V69.82V57.606L457.709,57.606z
			 M82.427,103.645h329.242v329.242H82.427V103.645L82.427,103.645z"/>
	</g>
	<g>
		<path style="fill:#BDBDBD;stroke:#1D1D1D;stroke-width:10.4608;stroke-miterlimit:10;" d="M224.403,111.667
			c0,0,46.043-81.778,136.754-85.214s136.754,85.214,136.754,85.214s-68.721,72.157-136.754,72.157S224.403,111.667,224.403,111.667
			z"/>
		<g>
			<path style="fill:#3A3A3A;" d="M364.307,165.433c-33.273,0-60.344-27.07-60.344-60.344s27.07-60.344,60.344-60.344
				c33.274,0,60.345,27.07,60.345,60.344S397.581,165.433,364.307,165.433z"/>
			<path style="fill:#1D1D1D;" d="M364.307,47.797c31.591,0,57.293,25.701,57.293,57.293s-25.701,57.293-57.293,57.293
				s-57.293-25.701-57.293-57.293S332.715,47.797,364.307,47.797 M364.307,41.694c-35.012,0-63.395,28.383-63.395,63.395
				s28.383,63.395,63.395,63.395c35.012,0,63.395-28.383,63.395-63.395S399.319,41.694,364.307,41.694L364.307,41.694z"/>
		</g>
		<circle style="fill:#A0A0A0;" cx="381.401" cy="85.467" r="17.094"/>
	</g>
	<g>
		<g>
			<g>
				<path style="fill-rule:evenodd;clip-rule:evenodd;fill:#52A2AC;" d="M224.263,181.906c2.417,35.855-26.747,65.993-62.852,64.547
					c-30.69-1.229-55.999-25.639-58.065-56.283c-2.417-35.855,26.747-65.993,62.852-64.547
					C196.887,126.852,222.197,151.261,224.263,181.906z"/>
				<g>
					<path style="fill:#1D1D1D;" d="M113.646,187.257c-0.7-28.795,23.094-52.518,52.369-51.207
						c24.705,1.107,45.171,20.602,47.477,45.224c2.732,29.176-19.807,54.095-48.602,54.795
						C137.271,236.74,114.324,215.137,113.646,187.257 M92.801,187.763c0.994,40.883,36.575,72.937,78.03,68.813
						c34.59-3.441,61.887-32.098,63.643-66.815c2.105-41.606-31.641-75.588-72.523-74.594
						C122.867,116.118,91.851,148.679,92.801,187.763L92.801,187.763z"/>
				</g>
			</g>
			<g>
				<path style="fill-rule:evenodd;clip-rule:evenodd;fill:#52A2AC;" d="M402.501,401.06c0.063,2.606-0.909,5.497-2.949,7.372
					c-3.305,3.47-8.764,4.124-12.996,1.62L184.644,287.21c-2.65-1.761-4.537-4.322-4.874-7.442
					c-0.006-0.261-0.019-0.782-0.025-1.042c-0.07-2.866,0.909-5.497,2.949-7.372l69.912-73.396c2.288-2.402,5.389-3.52,8.529-3.075
					c3.133,0.185,6.044,1.939,7.67,4.506l132.006,196.499C401.885,397.165,402.457,399.237,402.501,401.06z"/>
				<g>
					<path style="fill:#1D1D1D;" d="M190.161,278.211l69.912-73.396l132.006,196.499L190.161,278.211 M169.316,278.718
						c0.019,0.782,0.038,1.563,0.057,2.345c0.934,6.234,4.46,11.884,9.754,15.145l201.918,123.103
						c8.465,5.009,19.122,3.707,25.986-3.5c4.074-4.01,6.025-9.532,5.892-15.004c-0.095-3.908-1.232-7.791-3.66-11.122
						L277.259,193.187c-3.514-5.129-9.335-8.637-15.607-9.267c-6.272-0.63-12.469,1.867-16.791,6.405l-69.906,73.657
						C171.141,267.984,169.183,273.246,169.316,278.718L169.316,278.718z"/>
				</g>
			</g>
		</g>
	</g>
</g>
<g id="Layer_1">
</g>
</svg>
