<?xml version="1.0" encoding="iso-8859-1"?>
<!-- Generator: Adobe Illustrator 27.7.0, SVG Export Plug-In . SVG Version: 6.00 Build 0)  -->
<svg version="1.1" xmlns="http://www.w3.org/2000/svg" xmlns:xlink="http://www.w3.org/1999/xlink" x="0px" y="0px"
	 viewBox="0 0 512 512" style="enable-background:new 0 0 512 512;" xml:space="preserve">
<g id="util_x5F_delete_x5F_display_x5F_layers">
	<g>
		<g>
			<polygon style="fill-rule:evenodd;clip-rule:evenodd;fill:#BDBDBD;" points="45.234,328.095 257.381,182.417 469.528,328.095 
				257.381,473.986 			"/>
		</g>
		<g>
			<path style="fill:#1D1D1D;" d="M257.381,192.61l197.282,135.485L257.381,463.58L60.1,328.095L257.381,192.61 M257.381,172.011
				L30.157,328.095l227.224,156.296l227.224-156.296L257.381,172.011L257.381,172.011z"/>
		</g>
	</g>
	<g>
		<polygon style="fill-rule:evenodd;clip-rule:evenodd;fill:#FF6A6A;" points="45.234,251.646 257.381,105.967 469.528,251.646 
			257.381,397.536 		"/>
		<path style="fill:#1D1D1D;" d="M257.381,116.16l197.282,135.485L257.381,387.131L60.1,251.646L257.381,116.16 M257.381,95.562
			L30.157,251.646l227.224,156.296l227.224-156.296L257.381,95.562L257.381,95.562z"/>
	</g>
	<g id="XMLID_106_">
		<polygon style="fill-rule:evenodd;clip-rule:evenodd;fill:#BDBDBD;" points="45.234,181.567 257.381,35.889 469.528,181.567 
			257.381,327.458 		"/>
		<g>
			<path style="fill:#1D1D1D;" d="M257.381,46.082l197.282,135.485L257.381,317.052L60.1,181.567L257.381,46.082 M257.381,25.483
				L30.157,181.567l227.224,156.296l227.224-156.296L257.381,25.483L257.381,25.483z"/>
		</g>
	</g>
	<rect x="2.338" style="fill:none;" width="509.662" height="509.662"/>
</g>
<g id="Layer_1">
</g>
</svg>
