<?xml version="1.0" encoding="iso-8859-1"?>
<!-- Generator: Adobe Illustrator 27.7.0, SVG Export Plug-In . SVG Version: 6.00 Build 0)  -->
<svg version="1.1" xmlns="http://www.w3.org/2000/svg" xmlns:xlink="http://www.w3.org/1999/xlink" x="0px" y="0px"
	 viewBox="0 0 512 512" style="enable-background:new 0 0 512 512;" xml:space="preserve">
<g id="delete_x5F_custom_x5F_attr">
	<g>
		<rect x="77.651" y="97.598" style="fill:#BDBDBD;" width="351.401" height="51.656"/>
		<path style="fill:#1D1D1D;" d="M417.052,109.598v27.656H89.651v-27.656H417.052 M441.052,85.598h-24H89.651h-24v24v27.656v24h24
			h327.401h24v-24v-27.656V85.598L441.052,85.598z"/>
	</g>
	<g>
		<rect x="77.651" y="233.673" style="fill:#FF6A6A;" width="351.401" height="51.656"/>
		<path style="fill:#1D1D1D;" d="M417.052,245.673v27.656H89.651v-27.656H417.052 M441.052,221.673h-24H89.651h-24v24v27.656v24h24
			h327.401h24v-24v-27.656V221.673L441.052,221.673z"/>
	</g>
	<g>
		<rect x="77.651" y="368.686" style="fill:#BDBDBD;" width="351.401" height="51.656"/>
		<path style="fill:#1D1D1D;" d="M417.052,380.686v27.656H89.651v-27.656H417.052 M441.052,356.686h-24H89.651h-24v24v27.656v24h24
			h327.401h24v-24v-27.656V356.686L441.052,356.686z"/>
	</g>
	<g>
		<polygon style="fill:#FF6A6A;" points="256,294.409 217.663,332.746 179.254,294.337 217.591,256 179.254,217.663 
			217.663,179.254 256,217.591 294.337,179.254 332.746,217.663 294.409,256 332.746,294.337 294.337,332.746 		"/>
		<path style="fill:#1D1D1D;" d="M294.337,189.879l27.785,27.785L283.785,256l38.337,38.337l-27.785,27.785L256,283.785
			l-38.337,38.337l-27.785-27.785L228.215,256l-38.337-38.337l27.785-27.785L256,228.215L294.337,189.879 M294.337,168.629
			l-10.625,10.625L256,206.966l-27.712-27.712l-10.625-10.625l-10.625,10.625l-27.785,27.785l-10.625,10.625l10.625,10.625
			L206.966,256l-27.712,27.712l-10.625,10.625l10.625,10.625l27.785,27.785l10.625,10.625l10.625-10.625L256,305.034l27.712,27.712
			l10.625,10.625l10.625-10.625l27.785-27.785l10.625-10.625l-10.625-10.625L305.034,256l27.712-27.712l10.625-10.625
			l-10.625-10.625l-27.785-27.785L294.337,168.629L294.337,168.629z"/>
	</g>
</g>
<g id="Layer_1">
</g>
</svg>
