<?xml version="1.0" encoding="iso-8859-1"?>
<!-- Generator: Adobe Illustrator 27.7.0, SVG Export Plug-In . SVG Version: 6.00 Build 0)  -->
<svg version="1.1" xmlns="http://www.w3.org/2000/svg" xmlns:xlink="http://www.w3.org/1999/xlink" x="0px" y="0px"
	 viewBox="0 0 512 512" style="enable-background:new 0 0 512 512;" xml:space="preserve">
<g id="util_x5F_delete_x5F_ns">
	<g>
		<g>
			<path style="fill:#BDBDBD;" d="M52.396,446.96V65.04h408.38v381.92H52.396z M412.396,398.58V113.24H100.776v285.34H412.396z"/>
			<path style="fill:#1D1D1D;" d="M450.776,75.04v361.92H62.396V75.04H450.776 M90.776,408.58h331.62V103.24H90.776V408.58
				 M470.776,55.04h-20H62.396h-20v20v361.92v20h20h388.38h20v-20V75.04V55.04L470.776,55.04z M110.776,123.24h291.62v265.34
				h-291.62V123.24L110.776,123.24z"/>
		</g>
	</g>
	<g>
		<g>
			<g>
				<rect x="214.948" y="141.439" style="fill:#BDBDBD;" width="47.183" height="228.417"/>
				<path style="fill:#1D1D1D;" d="M251.63,151.939v207.416h-26.182V151.939H251.63 M272.63,130.939h-21h-26.182h-21v21v207.416v21
					h21h26.182h21v-21V151.939V130.939L272.63,130.939z"/>
			</g>
			<g>
				<rect x="163.141" y="116.614" style="fill:#BDBDBD;" width="72.854" height="46.577"/>
				<path style="fill:#1D1D1D;" d="M225.495,127.114v25.577h-51.854v-25.577H225.495 M246.495,106.114h-21h-51.854h-21v21v25.577v21
					h21h51.854h21v-21v-25.577V106.114L246.495,106.114z"/>
			</g>
			<g>
				<rect x="241.177" y="116.614" style="fill:#BDBDBD;" width="72.854" height="46.577"/>
				<path style="fill:#1D1D1D;" d="M303.531,127.114v25.577h-51.854v-25.577H303.531 M324.531,106.114h-21h-51.854h-21v21v25.577v21
					h21h51.854h21v-21v-25.577V106.114L324.531,106.114z"/>
			</g>
			<g>
				<rect x="163.094" y="348.855" style="fill:#BDBDBD;" width="72.854" height="46.576"/>
				<path style="fill:#1D1D1D;" d="M225.448,359.355v25.577h-51.854v-25.577H225.448 M246.448,338.355h-21h-51.854h-21v21v25.577v21
					h21h51.854h21v-21v-25.577V338.355L246.448,338.355z"/>
			</g>
			<g>
				<rect x="241.13" y="348.855" style="fill:#BDBDBD;" width="72.854" height="46.576"/>
				<path style="fill:#1D1D1D;" d="M303.484,359.355v25.577H251.63v-25.577H303.484 M324.484,338.355h-21H251.63h-21v21v25.577v21
					h21h51.854h21v-21v-25.577V338.355L324.484,338.355z"/>
			</g>
		</g>
		<g>
			<g>
				<rect x="225.424" y="152.008" style="fill:#FF6A6A;" width="26.182" height="207.416"/>
			</g>
			<g>
				<rect x="173.617" y="127.184" style="fill:#FF6A6A;" width="51.854" height="25.577"/>
			</g>
			<g>
				<rect x="251.654" y="127.184" style="fill:#FF6A6A;" width="51.854" height="25.577"/>
			</g>
			<g>
				<rect x="173.57" y="359.424" style="fill:#FF6A6A;" width="51.854" height="25.577"/>
			</g>
			<g>
				<rect x="251.607" y="359.424" style="fill:#FF6A6A;" width="51.854" height="25.577"/>
			</g>
		</g>
	</g>
	<g>
		<g>
			<rect x="314.031" y="268.901" style="fill:#FF6A6A;" width="36.372" height="36.372"/>
			<path style="fill:#1D1D1D;" d="M342.904,276.402v21.372h-21.372v-21.372H342.904 M357.904,261.402h-15h-21.372h-15v15v21.372v15
				h15h21.372h15v-15v-21.372V261.402L357.904,261.402z"/>
		</g>
		<g>
			<rect x="314.031" y="197.901" style="fill:#FF6A6A;" width="36.372" height="36.373"/>
			<path style="fill:#1D1D1D;" d="M342.904,205.402v21.372h-21.372v-21.372H342.904 M357.904,190.402h-15h-21.372h-15v15v21.372v15
				h15h21.372h15v-15v-21.372V190.402L357.904,190.402z"/>
		</g>
	</g>
</g>
<g id="Layer_1">
</g>
</svg>
