<?xml version="1.0" encoding="iso-8859-1"?>
<!-- Generator: Adobe Illustrator 27.7.0, SVG Export Plug-In . SVG Version: 6.00 Build 0)  -->
<svg version="1.1" xmlns="http://www.w3.org/2000/svg" xmlns:xlink="http://www.w3.org/1999/xlink" x="0px" y="0px"
	 viewBox="0 0 512 512" style="enable-background:new 0 0 512 512;" xml:space="preserve">
<g id="util_x5F_delete_x5F_unused_x5F_nodes">
	<g>
		<g>
			<rect x="413.807" y="422.062" style="fill:#FF6A6A;" width="25.5" height="25.5"/>
			<path style="fill:#1D1D1D;" d="M435.807,425.562v18.5h-18.5v-12.5v-6h6H435.807 M442.807,418.562h-7h-12.5h-6h-7v7v6v12.5v7h7
				h18.5h7v-7v-18.5V418.562L442.807,418.562z"/>
		</g>
		<g>
			<path style="fill:#FF6A6A;" d="M390.205,447.562v-32h18.801v32H390.205z M366.604,447.562v-32h18.801v32H366.604z
				 M343.003,447.562v-32h18.801v32H343.003z M319.401,447.562v-32h18.801v32H319.401z M295.8,447.562v-32h18.801v32H295.8z
				 M272.198,447.562v-32h18.801v32H272.198z M248.598,447.562v-32h18.801v32H248.598z M224.996,447.562v-32h18.801v32H224.996z
				 M201.395,447.562v-32h18.801v32H201.395z M177.793,447.562v-32h18.801v32H177.793z M154.192,447.562v-32h18.801v32H154.192z
				 M130.591,447.562v-32h18.801v32H130.591z M106.989,447.562v-32h18.801v32H106.989z M83.388,447.562v-32h18.801v32H83.388z"/>
			<path style="fill:#1D1D1D;" d="M405.506,419.062v25h-11.801v-25H405.506 M381.904,419.062v25h-11.801v-25H381.904
				 M358.304,419.062v25h-11.801v-25H358.304 M334.702,419.062v25h-11.801v-25H334.702 M311.101,419.062v25H299.3v-25H311.101
				 M287.499,419.062v25h-11.801v-25H287.499 M263.898,419.062v25h-11.801v-25H263.898 M240.297,419.062v25h-11.801v-25H240.297
				 M216.695,419.062v25h-11.801v-25H216.695 M193.094,419.062v25h-11.801v-25H193.094 M169.493,419.062v25h-11.801v-25H169.493
				 M145.892,419.062v25h-11.801v-25H145.892 M122.29,419.062v25h-11.801v-25H122.29 M98.689,419.062v25H86.888v-25H98.689
				 M412.506,412.062h-7h-11.801h-4.801h-7h-11.801h-4.8h-7h-11.801h-4.801h-7h-11.801h-4.801h-7H299.3h-4.801h-7h-11.801h-4.8h-7
				h-11.801h-4.801h-7h-11.801h-4.801h-7h-11.801h-4.801h-7h-11.801h-4.8h-7h-11.801h-4.801h-7h-11.801h-4.801h-7h-11.801h-4.801h-7
				H86.888h-7v7v25v7h7h11.801h4.801h7h11.801h4.801h7h11.801h4.801h7h11.801h4.8h7h11.801h4.801h7h11.801h4.801h7h11.801h4.801h7
				h11.801h4.8h7h11.801h4.801h7h11.801h4.801h7h11.801h4.801h7h11.801h4.8h7h11.801h4.801h7h11.801h7v-7v-25V412.062
				L412.506,412.062z"/>
		</g>
		<g>
			<rect x="53.088" y="422.062" style="fill:#FF6A6A;" width="25.5" height="25.5"/>
			<path style="fill:#1D1D1D;" d="M75.088,425.562v6v12.5h-18.5v-18.5h12.5H75.088 M82.088,418.562h-7h-6h-12.5h-7v7v18.5v7h7h18.5
				h7v-7v-12.5v-6V418.562L82.088,418.562z"/>
		</g>
		<g>
			<path style="fill:#FF6A6A;" d="M53.088,417.262v-18.801h32v18.801H53.088z M53.088,393.66v-18.801h32v18.801H53.088z
				 M53.088,370.06v-18.801h32v18.801H53.088z M53.088,346.458v-18.801h32v18.801H53.088z M53.088,322.856v-18.801h32v18.801H53.088
				z M53.088,299.255v-18.801h32v18.801H53.088z M53.088,275.654v-18.801h32v18.801H53.088z M53.088,252.053v-18.801h32v18.801
				H53.088z M53.088,228.451V209.65h32v18.801H53.088z M53.088,204.85v-18.801h32v18.801H53.088z M53.088,181.249v-18.801h32v18.801
				H53.088z M53.088,157.647v-18.801h32v18.801H53.088z M53.088,134.046v-18.801h32v18.801H53.088z M53.088,110.444V91.644h32
				v18.801H53.088z"/>
			<path style="fill:#1D1D1D;" d="M81.588,95.144v11.801h-25V95.144H81.588 M81.588,118.745v11.801h-25v-11.801H81.588
				 M81.588,142.347v11.801h-25v-11.801H81.588 M81.588,165.948v11.801h-25v-11.801H81.588 M81.588,189.549v11.801h-25v-11.801
				H81.588 M81.588,213.15v11.801h-25V213.15H81.588 M81.588,236.752v11.801h-25v-11.801H81.588 M81.588,260.354v11.801h-25v-11.801
				H81.588 M81.588,283.954v11.801h-25v-11.801H81.588 M81.588,307.556v11.801h-25v-11.801H81.588 M81.588,331.157v11.801h-25
				v-11.801H81.588 M81.588,354.759v11.801h-25v-11.801H81.588 M81.588,378.359v11.801h-25v-11.801H81.588 M81.588,401.961v11.801
				h-25v-11.801H81.588 M88.588,88.144h-7h-25h-7v7v11.801v7v4.801v11.801v7v4.801v11.801v7v4.801v11.801v7v4.8v11.801v7v4.801
				v11.801v7v4.801v11.801v7v4.801v11.801v7v4.8v11.801v7v4.801v11.801v7v4.801v11.801v7v4.801v11.801v7v4.8v11.801v7v4.801v11.801
				v7h7h25h7v-7v-11.801v-7v-4.801v-11.801v-7v-4.8v-11.801v-7v-4.801v-11.801v-7v-4.801v-11.801v-7v-4.801v-11.801v-7v-4.8v-11.801
				v-7v-4.801v-11.801v-7v-4.801V213.15v-7v-4.801v-11.801v-7v-4.8v-11.801v-7v-4.801v-11.801v-7v-4.801v-11.801v-7v-4.801V95.144
				V88.144L88.588,88.144z"/>
		</g>
		<g>
			<rect x="53.088" y="61.343" style="fill:#FF6A6A;" width="25.5" height="25.5"/>
			<path style="fill:#1D1D1D;" d="M75.088,64.843v12.5v6h-1.54h-4.46h-12.5v-18.5H75.088 M82.088,57.843h-7h-18.5h-7v7v18.5v7h7
				h12.5h4.46h1.54h7v-7v-6v-12.5V57.843L82.088,57.843z"/>
		</g>
		<g>
			<path style="fill:#FF6A6A;" d="M390.206,93.343v-32h18.801v32H390.206z M366.604,93.343v-32h18.801v32H366.604z M343.003,93.343
				v-32h18.801v32H343.003z M319.401,93.343v-32h18.801v32H319.401z M295.801,93.343v-32h18.801v32H295.801z M272.199,93.343v-32
				H291v32H272.199z M248.598,93.343v-32h18.801v32H248.598z M224.996,93.343v-32h18.801v32H224.996z M201.396,93.343v-32h18.801v32
				H201.396z M177.794,93.343v-32h18.801v32H177.794z M154.192,93.343v-32h18.801v32H154.192z M130.591,93.343v-32h18.801v32
				H130.591z M106.99,93.343v-32h18.801v32H106.99z M83.389,93.343v-32h18.801v32H83.389z"/>
			<path style="fill:#1D1D1D;" d="M405.507,64.843v25h-11.801v-25H405.507 M381.905,64.843v25h-11.801v-25H381.905 M358.304,64.843
				v25h-11.801v-25H358.304 M334.702,64.843v25h-11.801v-25H334.702 M311.102,64.843v25h-11.801v-25H311.102 M287.5,64.843v25
				h-11.801v-25H287.5 M263.898,64.843v25h-11.801v-25H263.898 M240.297,64.843v25h-11.801v-25H240.297 M216.696,64.843v25h-11.801
				v-25H216.696 M193.095,64.843v25h-11.801v-25H193.095 M169.493,64.843v25h-11.801v-25H169.493 M145.892,64.843v25h-11.801v-25
				H145.892 M122.291,64.843v25H110.49v-25H122.291 M98.689,64.843v25H86.889v-25H98.689 M412.507,57.843h-7h-11.801h-4.801h-7
				h-11.801h-4.801h-7h-11.801h-4.801h-7h-11.801h-4.8h-7h-11.801H294.5h-7h-11.801h-4.801h-7h-11.801h-4.801h-7h-11.801h-4.8h-7
				h-11.801h-4.801h-7h-11.801h-4.801h-7h-11.801h-4.801h-7h-11.801h-4.8h-7H110.49h-4.801h-7H86.889h-7v7v25v7h7h11.801h4.801h7
				h11.801h4.8h7h11.801h4.801h7h11.801h4.801h7h11.801h4.801h7h11.801h4.8h7h11.801h4.801h7h11.801h4.801h7H287.5h4.801h7h11.801
				h4.8h7h11.801h4.801h7h11.801h4.801h7h11.801h4.801h7h11.801h7v-7v-25V57.843L412.507,57.843z"/>
		</g>
		<g>
			<rect x="413.807" y="61.343" style="fill:#FF6A6A;" width="25.5" height="25.5"/>
			<path style="fill:#1D1D1D;" d="M435.807,64.843v18.5h-12.5h-6v-6v-12.5H435.807 M442.807,57.843h-7h-18.5h-7v7v12.5v6v7h7h6h12.5
				h7v-7v-18.5V57.843L442.807,57.843z"/>
		</g>
		<g>
			<path style="fill:#FF6A6A;" d="M407.307,417.262v-18.801h32v18.801H407.307z M407.307,393.66v-18.801h32v18.801H407.307z
				 M407.307,370.059v-18.801h32v18.801H407.307z M407.307,346.457v-18.801h32v18.801H407.307z M407.307,322.856v-18.801h32v18.801
				H407.307z M407.307,299.255v-18.801h32v18.801H407.307z M407.307,275.653v-18.801h32v18.801H407.307z M407.307,252.052v-18.801
				h32v18.801H407.307z M407.307,228.451V209.65h32v18.801H407.307z M407.307,204.85v-18.801h32v18.801H407.307z M407.307,181.248
				v-18.801h32v18.801H407.307z M407.307,157.646v-18.801h32v18.801H407.307z M407.307,134.046v-18.801h32v18.801H407.307z
				 M407.307,110.444V91.644h32v18.801H407.307z"/>
			<path style="fill:#1D1D1D;" d="M435.807,95.144v11.801h-25V95.144H435.807 M435.807,118.745v11.801h-25v-11.801H435.807
				 M435.807,142.346v11.801h-25v-11.801H435.807 M435.807,165.947v11.801h-25v-11.801H435.807 M435.807,189.549v11.801h-25v-11.801
				H435.807 M435.807,213.15v11.801h-25V213.15H435.807 M435.807,236.751v11.801h-25v-11.801H435.807 M435.807,260.353v11.801h-25
				v-11.801H435.807 M435.807,283.954v11.801h-25v-11.801H435.807 M435.807,307.556v11.801h-25v-11.801H435.807 M435.807,331.156
				v11.801h-25v-11.801H435.807 M435.807,354.758v11.801h-25v-11.801H435.807 M435.807,378.359v11.801h-25v-11.801H435.807
				 M435.807,401.961v11.801h-25v-11.801H435.807 M442.807,88.144h-7h-25h-7v7v11.801v7v4.801v11.801v7v4.8v11.801v7v4.801v11.801v7
				v4.801v11.801v7v4.801v11.801v7v4.8v11.801v7v4.801v11.801v7v4.801v11.801v7v4.801v11.801v7v4.8v11.801v7v4.801v11.801v7v4.801
				v11.801v7v4.801v11.801v7h7h25h7v-7v-11.801v-7v-4.801v-11.801v-7v-4.801v-11.801v-7v-4.801v-11.801v-7v-4.8v-11.801v-7v-4.801
				v-11.801v-7v-4.801v-11.801v-7v-4.801v-11.801v-7v-4.8V213.15v-7v-4.801v-11.801v-7v-4.801v-11.801v-7v-4.801v-11.801v-7v-4.8
				v-11.801v-7v-4.801V95.144V88.144L442.807,88.144z"/>
		</g>
	</g>
	<g>
		<g>
			<polygon style="fill:#FF6A6A;" points="435.807,444.062 417.307,444.062 417.307,431.562 417.307,431.562 417.307,425.562 
				417.307,425.562 417.307,425.562 423.307,425.562 423.307,425.562 435.807,425.562 			"/>
		</g>
		<g>
			<path style="fill:#FF6A6A;" d="M405.506,444.062h-11.801v-25h11.801V444.062z M381.904,444.062h-11.801v-25h11.801V444.062z
				 M358.304,444.062h-11.801v-25h11.801V444.062z M334.702,444.062h-11.801v-25h11.801V444.062z M311.101,444.062H299.3v-25h11.801
				V444.062z M287.499,444.062h-11.801v-25h11.801V444.062z M263.898,444.062h-11.801v-25h11.801V444.062z M240.297,444.062h-11.801
				v-25h11.801V444.062z M216.695,444.062h-11.801v-25h11.801V444.062z M193.094,444.062h-11.801v-25h11.801V444.062z
				 M169.493,444.062h-11.801v-25h11.801V444.062z M145.892,444.062h-11.801v-25h11.801V444.062z M122.29,444.062h-11.801v-25
				h11.801V444.062z M98.688,444.062H86.888v-25h11.801V444.062z"/>
		</g>
		<g>
			<polygon style="fill:#FF6A6A;" points="75.088,444.062 56.588,444.062 56.588,425.562 69.088,425.562 69.088,425.562 
				75.088,425.562 75.088,425.562 75.088,425.562 75.088,431.562 75.088,431.562 			"/>
		</g>
		<g>
			<path style="fill:#FF6A6A;" d="M81.588,413.762h-25v-11.801h25V413.762z M81.588,390.16h-25v-11.801h25V390.16z M81.588,366.56
				h-25v-11.801h25V366.56z M81.588,342.958h-25v-11.801h25V342.958z M81.588,319.356h-25v-11.801h25V319.356z M81.588,295.755h-25
				v-11.801h25V295.755z M81.588,272.154h-25v-11.801h25V272.154z M81.588,248.553h-25v-11.801h25V248.553z M81.588,224.951h-25
				V213.15h25V224.951z M81.588,201.35h-25v-11.801h25V201.35z M81.588,177.749h-25v-11.801h25V177.749z M81.588,154.147h-25
				v-11.801h25V154.147z M81.588,130.546h-25v-11.801h25V130.546z M81.588,106.944h-25V95.144h25V106.944z"/>
		</g>
		<g>
			<polygon style="fill:#FF6A6A;" points="73.547,83.343 69.088,83.343 69.088,83.343 56.588,83.343 56.588,64.843 75.088,64.843 
				75.088,77.343 75.088,77.343 75.088,83.343 75.088,83.343 			"/>
		</g>
		<g>
			<path style="fill:#FF6A6A;" d="M405.507,89.843h-11.801v-25h11.801V89.843z M381.905,89.843h-11.801v-25h11.801V89.843z
				 M358.304,89.843h-11.801v-25h11.801V89.843z M334.702,89.843h-11.801v-25h11.801V89.843z M311.102,89.843h-11.801v-25h11.801
				V89.843z M287.5,89.843h-11.801v-25H287.5V89.843z M263.898,89.843h-11.801v-25h11.801V89.843z M240.297,89.843h-11.801v-25
				h11.801V89.843z M216.696,89.843h-11.801v-25h11.801V89.843z M193.095,89.843h-11.801v-25h11.801V89.843z M169.493,89.843
				h-11.801v-25h11.801V89.843z M145.892,89.843h-11.801v-25h11.801V89.843z M122.291,89.843H110.49v-25h11.801V89.843z
				 M98.689,89.843H86.889v-25h11.801V89.843z"/>
		</g>
		<g>
			<polygon style="fill:#FF6A6A;" points="423.307,83.343 417.307,83.343 417.307,83.343 417.307,83.343 417.307,77.343 
				417.307,77.343 417.307,64.843 435.807,64.843 435.807,83.343 423.307,83.343 			"/>
		</g>
		<g>
			<path style="fill:#FF6A6A;" d="M435.807,413.762h-25v-11.801h25V413.762z M435.807,390.16h-25v-11.801h25V390.16z
				 M435.807,366.559h-25v-11.801h25V366.559z M435.807,342.957h-25v-11.801h25V342.957z M435.807,319.356h-25v-11.801h25V319.356z
				 M435.807,295.755h-25v-11.801h25V295.755z M435.807,272.153h-25v-11.801h25V272.153z M435.807,248.552h-25v-11.801h25V248.552z
				 M435.807,224.951h-25V213.15h25V224.951z M435.807,201.35h-25v-11.801h25V201.35z M435.807,177.748h-25v-11.801h25V177.748z
				 M435.807,154.146h-25v-11.801h25V154.146z M435.807,130.546h-25v-11.801h25V130.546z M435.807,106.944h-25V95.144h25V106.944z"
				/>
		</g>
	</g>
	
		<rect x="89.007" y="232.618" style="fill:#BDBDBD;stroke:#1D1D1D;stroke-width:7;stroke-miterlimit:10;" width="202.336" height="67.27"/>
	
		<rect x="287.499" y="114.612" style="fill:#BDBDBD;stroke:#1D1D1D;stroke-width:5.4619;stroke-miterlimit:10;" width="169.391" height="48.921"/>
	<circle style="fill:#474747;stroke:#1D1D1D;stroke-width:7;stroke-miterlimit:10;" cx="127.109" cy="266.254" r="17.343"/>
	
		<rect x="193.094" y="332.924" style="fill:#BDBDBD;stroke:#1D1D1D;stroke-width:7;stroke-miterlimit:10;" width="202.336" height="67.27"/>
	<circle style="fill:#474747;stroke:#1D1D1D;stroke-width:7;stroke-miterlimit:10;" cx="231.196" cy="366.56" r="17.343"/>
</g>
<g id="Layer_1">
</g>
</svg>
