<?xml version="1.0" encoding="iso-8859-1"?>
<!-- Generator: Adobe Illustrator 27.7.0, SVG Export Plug-In . SVG Version: 6.00 Build 0)  -->
<svg version="1.1" xmlns="http://www.w3.org/2000/svg" xmlns:xlink="http://www.w3.org/1999/xlink" x="0px" y="0px"
	 viewBox="0 0 512 512" style="enable-background:new 0 0 512 512;" xml:space="preserve">
<g id="delete_x5F_nucleus_x5F_nodes">
	<rect y="2.454" style="fill:none;" width="509.546" height="509.546"/>
	<g>
		<g>
			<path style="fill-rule:evenodd;clip-rule:evenodd;fill:#BDBDBD;" d="M255.826,119.531c-20.647,0-37.445-16.798-37.445-37.445
				c0-20.649,16.798-37.449,37.445-37.449s37.445,16.8,37.445,37.449C293.271,102.733,276.473,119.531,255.826,119.531z"/>
			<path style="fill:#1D1D1D;" d="M255.826,53.131c15.989,0,28.953,12.966,28.953,28.957s-12.966,28.953-28.953,28.953
				c-15.983,0-28.953-12.962-28.953-28.953C226.873,66.094,239.843,53.131,255.826,53.131 M255.826,36.146
				c-25.329,0-45.938,20.609-45.938,45.942c0,25.331,20.607,45.938,45.938,45.938s45.938-20.607,45.938-45.938
				C301.764,56.755,281.157,36.146,255.826,36.146L255.826,36.146z"/>
		</g>
		<g>
			<path style="fill-rule:evenodd;clip-rule:evenodd;fill:#FF6A6A;" d="M111.073,438.018c-28.632,0-51.927-23.293-51.927-51.923
				c0-28.628,23.295-51.918,51.927-51.918c28.626,0,51.916,23.29,51.916,51.918C162.989,414.728,139.698,438.018,111.073,438.018z"
				/>
			<path style="fill:#1D1D1D;" d="M111.073,342.669c23.978,0,43.424,19.439,43.424,43.428c0,23.987-19.446,43.43-43.424,43.43
				c-23.991,0-43.437-19.443-43.437-43.43C67.636,362.109,87.081,342.669,111.073,342.669 M111.073,325.685
				c-33.316,0-60.422,27.101-60.422,60.413c0,33.314,27.106,60.415,60.422,60.415c33.309,0,60.409-27.101,60.409-60.415
				C171.481,352.786,144.382,325.685,111.073,325.685L111.073,325.685z"/>
		</g>
		<g>
			<path style="fill-rule:evenodd;clip-rule:evenodd;fill:#FF6A6A;" d="M67.636,206.391c-20.647,0-37.445-16.796-37.445-37.443
				c0-20.649,16.798-37.449,37.445-37.449c20.645,0,37.441,16.8,37.441,37.449C105.077,189.595,88.281,206.391,67.636,206.391z"/>
			<path style="fill:#1D1D1D;" d="M67.636,139.993c15.989,0,28.949,12.962,28.949,28.957c0,15.991-12.959,28.949-28.949,28.949
				c-15.993,0-28.953-12.957-28.953-28.949C38.685,152.955,51.645,139.993,67.636,139.993 M67.636,123.008
				c-25.329,0-45.938,20.609-45.938,45.942c0,25.329,20.607,45.933,45.938,45.933c25.327,0,45.933-20.607,45.933-45.933
				C113.569,143.617,92.965,123.008,67.636,123.008L67.636,123.008z"/>
		</g>
		<g>
			<path style="fill-rule:evenodd;clip-rule:evenodd;fill:#FF6A6A;" d="M342.684,191.916c-20.645,0-37.441-16.798-37.441-37.445
				c0-20.649,16.796-37.45,37.441-37.45c20.654,0,37.456,16.8,37.456,37.45C380.14,175.118,363.338,191.916,342.684,191.916z"/>
			<path style="fill:#1D1D1D;" d="M342.684,125.514c16.004,0,28.963,12.966,28.963,28.957c0,15.985-12.959,28.953-28.963,28.953
				c-15.983,0-28.949-12.966-28.949-28.953C313.738,138.48,326.702,125.514,342.684,125.514 M342.684,108.529
				c-25.327,0-45.933,20.609-45.933,45.942c0,25.329,20.605,45.938,45.933,45.938c25.337,0,45.948-20.607,45.948-45.938
				C388.633,129.138,368.022,108.529,342.684,108.529L342.684,108.529z"/>
		</g>
		<g>
			<path style="fill-rule:evenodd;clip-rule:evenodd;fill:#FF6A6A;" d="M320.98,423.543c-16.658,0-30.21-13.552-30.21-30.208
				c0-16.658,13.554-30.21,30.21-30.21s30.21,13.554,30.21,30.21C351.19,409.991,337.636,423.543,320.98,423.543z"/>
			<path style="fill:#1D1D1D;" d="M320.978,371.618c11.998,0,21.717,9.726,21.717,21.717c0,11.989-9.722,21.713-21.717,21.713
				c-11.987,0-21.717-9.724-21.717-21.713C299.26,381.344,308.991,371.618,320.978,371.618 M320.978,354.633
				c-21.341,0-38.702,17.363-38.702,38.702c0,21.339,17.363,38.698,38.702,38.698c21.341,0,38.702-17.361,38.702-38.698
				C359.682,371.996,342.319,354.633,320.978,354.633L320.978,354.633z"/>
		</g>
		<g>
			<path style="fill-rule:evenodd;clip-rule:evenodd;fill:#BDBDBD;" d="M444.027,249.824c-20.645,0-37.441-16.8-37.441-37.447
				s16.796-37.445,37.441-37.445c20.651,0,37.452,16.798,37.452,37.445C481.476,233.024,464.676,249.824,444.027,249.824z"/>
			<path style="fill:#1D1D1D;" d="M444.025,183.421c16,0,28.959,12.966,28.959,28.953c0,15.991-12.959,28.955-28.959,28.955
				c-15.987,0-28.946-12.964-28.946-28.955C415.078,196.387,428.038,183.421,444.025,183.421 M444.025,166.437
				c-25.327,0-45.931,20.607-45.931,45.938s20.605,45.94,45.931,45.94c25.333,0,45.944-20.609,45.944-45.94
				C489.969,187.046,469.36,166.437,444.025,166.437L444.025,166.437z"/>
		</g>
		<g>
			<path style="fill-rule:evenodd;clip-rule:evenodd;fill:#BDBDBD;" d="M154.49,105.058c-12.664,0-22.968-10.303-22.968-22.968
				s10.303-22.97,22.968-22.97c12.669,0,22.974,10.303,22.974,22.968S167.159,105.058,154.49,105.058z"/>
			<path style="fill:#1D1D1D;" d="M154.49,67.614c7.998,0,14.482,6.48,14.482,14.475s-6.486,14.477-14.482,14.477
				s-14.475-6.482-14.475-14.477S146.494,67.614,154.49,67.614 M154.49,50.63c-17.348,0-31.46,14.112-31.46,31.46
				s14.112,31.462,31.46,31.462c17.352,0,31.467-14.114,31.467-31.462S171.84,50.63,154.49,50.63L154.49,50.63z"/>
		</g>
		<g>
			<path style="fill-rule:evenodd;clip-rule:evenodd;fill:#BDBDBD;" d="M371.644,322.205c-12.662,0-22.964-10.306-22.964-22.968
				c0-12.662,10.303-22.968,22.964-22.968c12.664,0,22.968,10.306,22.968,22.968C394.611,311.899,384.308,322.205,371.644,322.205z"
				/>
			<path style="fill:#1D1D1D;" d="M371.644,284.762c8.002,0,14.477,6.482,14.477,14.477c0,7.998-6.473,14.475-14.477,14.475
				c-7.991,0-14.471-6.478-14.471-14.475S363.652,284.762,371.644,284.762 M371.644,267.777c-17.346,0-31.456,14.114-31.456,31.462
				s14.11,31.46,31.456,31.46c17.348,0,31.462-14.112,31.462-31.46C403.104,281.889,388.992,267.777,371.644,267.777
				L371.644,267.777z"/>
		</g>
		<g>
			<path style="fill-rule:evenodd;clip-rule:evenodd;fill:#BDBDBD;" d="M255.841,351.162c-36.621,0-66.413-29.789-66.413-66.404
				c0-36.611,29.794-66.396,66.413-66.396c36.611,0,66.394,29.785,66.394,66.396C322.235,321.373,292.452,351.162,255.841,351.162z"
				/>
			<path style="fill:#1D1D1D;" d="M255.841,226.852c31.97,0,57.901,25.932,57.901,57.904c0,31.982-25.932,57.912-57.901,57.912
				c-31.991,0-57.921-25.932-57.921-57.912C197.92,252.783,223.852,226.852,255.841,226.852 M255.841,209.867
				c-41.303,0-74.905,33.596-74.905,74.888c0,41.299,33.602,74.897,74.905,74.897c41.292,0,74.886-33.598,74.886-74.897
				C330.727,243.463,297.133,209.867,255.841,209.867L255.841,209.867z"/>
		</g>
		<g>
			<path style="fill-rule:evenodd;clip-rule:evenodd;fill:#BDBDBD;" d="M226.884,481.453c-20.649,0-37.447-16.8-37.447-37.45
				c0-20.647,16.798-37.445,37.447-37.445s37.452,16.798,37.452,37.445C264.335,464.653,247.533,481.453,226.884,481.453z"/>
			<path style="fill:#1D1D1D;" d="M226.884,415.053c15.989,0,28.957,12.959,28.957,28.953c0,15.991-12.97,28.957-28.957,28.957
				c-15.993,0-28.953-12.966-28.953-28.957C197.931,428.012,210.89,415.053,226.884,415.053 M226.884,398.068
				c-25.331,0-45.938,20.607-45.938,45.938c0,25.333,20.607,45.942,45.938,45.942c25.333,0,45.942-20.609,45.942-45.942
				C272.826,418.675,252.217,398.068,226.884,398.068L226.884,398.068z"/>
		</g>
		<g>
			<path style="fill-rule:evenodd;clip-rule:evenodd;fill:#BDBDBD;" d="M197.927,191.916c-12.664,0-22.97-10.306-22.97-22.974
				c0-12.664,10.306-22.968,22.97-22.968c12.664,0,22.968,10.303,22.968,22.968C220.892,181.61,210.589,191.916,197.927,191.916z"/>
			<path style="fill:#1D1D1D;" d="M197.927,154.467c7.991,0,14.475,6.484,14.475,14.475c0,7.996-6.484,14.482-14.475,14.482
				c-7.998,0-14.477-6.486-14.477-14.482C183.449,160.951,189.929,154.467,197.927,154.467 M197.927,137.482
				c-17.348,0-31.462,14.112-31.462,31.46c0,17.35,14.114,31.467,31.462,31.467s31.46-14.117,31.46-31.467
				C229.387,151.596,215.272,137.482,197.927,137.482L197.927,137.482z"/>
		</g>
		<g>
			<path style="fill-rule:evenodd;clip-rule:evenodd;fill:#BDBDBD;" d="M415.074,423.543c-12.666,0-22.97-10.306-22.97-22.968
				s10.306-22.968,22.97-22.968c12.664,0,22.968,10.306,22.968,22.968S427.738,423.543,415.074,423.543z"/>
			<path style="fill:#1D1D1D;" d="M415.074,386.098c7.998,0,14.477,6.48,14.477,14.477s-6.48,14.475-14.477,14.475
				c-7.991,0-14.477-6.478-14.477-14.475S407.083,386.098,415.074,386.098 M415.074,369.113c-17.348,0-31.462,14.114-31.462,31.462
				s14.114,31.46,31.462,31.46c17.348,0,31.462-14.112,31.462-31.46C446.534,383.227,432.422,369.113,415.074,369.113
				L415.074,369.113z"/>
		</g>
		<g>
			<path style="fill-rule:evenodd;clip-rule:evenodd;fill:#BDBDBD;" d="M125.537,293.254c-12.664,0-22.97-10.306-22.97-22.968
				c0-12.664,10.306-22.968,22.97-22.968s22.968,10.303,22.968,22.968C148.507,282.949,138.204,293.254,125.537,293.254z"/>
			<path style="fill:#1D1D1D;" d="M125.537,255.809c8.002,0,14.477,6.48,14.477,14.475c0,7.996-6.475,14.477-14.477,14.477
				c-7.991,0-14.477-6.482-14.477-14.477C111.062,262.289,117.546,255.809,125.537,255.809 M125.537,238.824
				c-17.348,0-31.462,14.112-31.462,31.46s14.114,31.462,31.462,31.462S157,287.632,157,270.284
				C157,252.936,142.885,238.824,125.537,238.824L125.537,238.824z"/>
		</g>
		<g>
			<path style="fill-rule:evenodd;clip-rule:evenodd;fill:#BDBDBD;" d="M371.644,76.101c-12.662,0-22.964-10.303-22.964-22.966
				c0-12.664,10.303-22.97,22.964-22.97c12.664,0,22.968,10.306,22.968,22.97C394.611,65.797,384.308,76.101,371.644,76.101z"/>
			<path style="fill:#1D1D1D;" d="M371.644,38.655c8.002,0,14.477,6.482,14.477,14.477s-6.473,14.473-14.477,14.473
				c-7.991,0-14.471-6.478-14.471-14.473S363.652,38.655,371.644,38.655 M371.644,21.67c-17.346,0-31.456,14.114-31.456,31.462
				c0,17.346,14.11,31.458,31.456,31.458c17.348,0,31.462-14.112,31.462-31.458C403.104,35.785,388.992,21.67,371.644,21.67
				L371.644,21.67z"/>
		</g>
	</g>
</g>
<g id="Layer_1">
</g>
</svg>
