<?xml version="1.0" encoding="iso-8859-1"?>
<!-- Generator: Adobe Illustrator 27.7.0, SVG Export Plug-In . SVG Version: 6.00 Build 0)  -->
<svg version="1.1" xmlns="http://www.w3.org/2000/svg" xmlns:xlink="http://www.w3.org/1999/xlink" x="0px" y="0px"
	 viewBox="0 0 512 512" style="enable-background:new 0 0 512 512;" xml:space="preserve">
<g id="util_x5F_lra_x5F_toggle">
	<g>
		<path style="fill:#BDBDBD;" d="M248.54,476.608c-41.316,0-81.154-15.249-112.182-42.939
			c-31.257-27.896-50.929-66.161-55.392-107.747c-4.799-44.73,8.149-88.706,36.46-123.824
			c28.312-35.119,68.538-57.103,113.268-61.902c6.008-0.644,12.101-0.971,18.109-0.971c30.863,0,61.154,8.537,87.6,24.687
			c24.99,15.261,45.583,36.685,59.743,62.109l5.351-1.958l26.256-9.295c0.449-0.159,0.914-0.236,1.375-0.236
			c1.063,0,2.106,0.412,2.89,1.182c1.124,1.104,1.521,2.753,1.021,4.248l-23.472,70.179c-0.402,1.203-1.337,2.154-2.533,2.578
			c-0.447,0.158-0.912,0.236-1.376,0.236c-0.775,0-1.545-0.219-2.215-0.646l-62.418-39.759c-1.336-0.851-2.066-2.393-1.878-3.966
			s1.262-2.899,2.761-3.411l28.041-9.575l0.374-0.137c-25.535-42.774-71.662-69.147-121.527-69.147
			c-5.045,0-10.162,0.274-15.208,0.815c-77.635,8.331-134.018,78.267-125.688,155.899c7.739,72.112,68.214,126.492,140.671,126.492
			c4.197,0,8.454-0.19,12.653-0.564c0.124-0.012,0.248-0.017,0.371-0.017c2.084,0,3.868,1.572,4.094,3.685l2.002,18.737
			c0.117,1.098-0.211,2.196-0.911,3.051c-0.7,0.854-1.713,1.392-2.812,1.491c-5.112,0.467-10.299,0.704-15.417,0.704
			C248.548,476.608,248.542,476.608,248.54,476.608z"/>
		<path style="fill:#1D1D1D;" d="M248.803,143.347c61.921,0,117.479,34.965,145.419,87.767l8.691-3.18l26.216-9.28l-23.472,70.179
			l-62.418-39.759l28.041-9.575l5.052-1.849c-25.114-45.489-73.603-75.455-127.537-75.458c-5.173,0-10.389,0.275-15.647,0.839
			c-79.895,8.574-137.92,80.543-129.347,160.438c8.009,74.633,71.335,130.175,144.77,130.175c4.309,0,8.649-0.191,13.018-0.581
			l2.002,18.737c-5.044,0.46-10.069,0.687-15.042,0.687c-82.924,0-154.441-62.719-163.485-147.004
			c-9.681-90.223,55.846-171.508,146.07-181.189C237.064,143.658,242.968,143.347,248.803,143.347 M248.803,135.103
			c-6.155,0-12.395,0.335-18.548,0.994c-23.157,2.485-45.152,9.449-65.376,20.7c-19.523,10.861-36.568,25.232-50.661,42.714
			c-14.093,17.482-24.52,37.188-30.992,58.572c-6.703,22.151-8.843,45.124-6.358,68.28c4.571,42.603,24.724,81.804,56.745,110.38
			c31.785,28.366,72.604,43.988,114.937,43.988c5.239,0,10.552-0.242,15.792-0.721c2.199-0.201,4.226-1.276,5.626-2.984
			c1.4-1.708,2.056-3.906,1.822-6.102l-2.002-18.737c-0.451-4.223-4.02-7.368-8.188-7.369c-0.245,0-0.492,0.011-0.741,0.033
			c-4.078,0.364-8.212,0.548-12.286,0.548c-70.346,0-129.059-52.797-136.573-122.81c-8.088-75.372,46.654-143.273,122.029-151.361
			c4.9-0.525,9.866-0.792,14.759-0.792c46.716,0.003,90.044,23.834,115.302,62.807l-23.513,8.029
			c-2.999,1.024-5.145,3.676-5.522,6.822c-0.376,3.146,1.084,6.23,3.756,7.932l62.418,39.759c1.34,0.853,2.879,1.291,4.429,1.291
			c0.927,0,1.857-0.156,2.752-0.473c2.392-0.847,4.261-2.749,5.066-5.156l23.471-70.179c1-2.989,0.208-6.286-2.04-8.495
			c-1.568-1.541-3.653-2.364-5.779-2.364c-0.922,0-1.851,0.155-2.75,0.473l-26.216,9.28c-0.027,0.01-0.054,0.019-0.081,0.029
			l-2.08,0.761c-14.429-24.705-34.861-45.544-59.449-60.559C311.458,143.848,280.424,135.103,248.803,135.103L248.803,135.103z"/>
	</g>
	<g>
		<polygon style="fill:#BDBDBD;" points="252.342,350.93 100.353,431.789 84.138,401.089 235.046,320.878 235.046,137.756 
			269.638,137.756 269.638,320.878 422.493,401.089 406.494,431.789 		"/>
		<path style="fill:#1D1D1D;" d="M260.99,146.404v179.663l150.044,78.697l-7.999,15.35l-150.692-78.913l-148.314,78.913
			l-8.216-15.35l147.882-78.697V146.404H260.99 M278.286,129.108H260.99h-17.296h-17.296v17.296v169.286L87.813,389.414
			l-15.35,8.216l8.216,15.35l8.216,15.35l8.216,15.35l15.35-8.216l140.315-74.589l142.477,74.806l15.35,7.999l7.999-15.35
			l7.999-15.35l7.999-15.35l-15.35-7.999l-140.747-73.725V146.404v-17.296H278.286z"/>
	</g>
	<g>
		<path style="fill-rule:evenodd;clip-rule:evenodd;fill:#52A2AC;" d="M252.342,160.241c-37.187,0-56.429-15.134-56.429-30.268
			v-2.378l56.429-92.534l56.429,92.534v2.378C308.771,144.89,289.529,160.241,252.342,160.241z"/>
		<path style="fill:#1D1D1D;" d="M252.342,51.491l47.78,78.481c0,11.891-21.404,21.62-47.78,21.62s-47.78-9.729-47.78-21.62
			L252.342,51.491 M252.342,18.413l-14.702,24.215l-47.997,78.265L187.05,125v4.756c0,12.756,8.864,23.998,24.215,30.917
			c11.242,4.973,25.728,7.783,40.862,7.783s29.62-2.811,40.862-7.783c15.35-6.918,24.215-18.161,24.215-30.917v-4.973l-2.594-4.108
			l-47.78-78.481L252.342,18.413L252.342,18.413z"/>
	</g>
	<g>
		<path style="fill-rule:evenodd;clip-rule:evenodd;fill:#52A2AC;" d="M35.276,446.707l55.564-93.183l2.162-1.081
			c2.811-1.513,5.837-2.162,9.08-2.162c14.485,0,31.782,14.918,43.889,38.268c6.486,12.323,10.378,25.296,11.026,36.322
			c1.081,18.161-6.702,25.079-11.459,27.674l-2.162,1.081L35.276,446.707z"/>
		<path style="fill:#1D1D1D;" d="M102.082,358.93c10.81,0,25.728,13.404,36.322,33.511c12.323,23.35,13.621,46.916,3.243,52.321
			l-91.669-5.837l47.132-78.913C98.623,359.362,100.353,358.93,102.082,358.93 M102.082,341.633c-4.756,0-9.08,1.081-12.972,3.243
			l-4.324,2.162l-2.594,4.108L35.06,430.06l-14.485,24.215l28.322,1.73l91.669,5.837l4.756,0.216l4.324-2.162
			c11.242-5.837,17.296-19.026,16.215-35.889c-0.649-12.323-4.973-26.377-12.107-39.781
			C137.107,352.876,116.136,341.633,102.082,341.633L102.082,341.633z"/>
	</g>
	<g>
		<path style="fill-rule:evenodd;clip-rule:evenodd;fill:#52A2AC;" d="M358.713,452.545c-4.756-2.594-12.756-9.513-11.459-27.674
			c0.649-11.026,4.54-23.998,11.026-36.322c12.107-23.134,29.403-38.268,43.889-38.268c3.243,0,6.27,0.649,9.08,2.162l2.162,1.081
			l55.564,93.183l-108.101,6.918L358.713,452.545z"/>
		<path style="fill:#1D1D1D;" d="M402.17,358.93c1.73,0,3.459,0.432,4.973,1.081l47.132,78.913l-91.669,5.837
			c-10.594-5.621-9.08-28.971,3.243-52.321C376.442,372.55,391.576,358.93,402.17,358.93 M402.17,341.633L402.17,341.633
			L402.17,341.633c-14.053,0-35.025,11.242-51.672,42.808c-7.135,13.404-11.459,27.674-12.107,39.781
			c-1.081,16.864,4.973,29.836,16.215,35.889l4.324,2.162l4.756-0.216l91.669-5.837l28.322-1.73l-14.485-24.215l-47.132-78.913
			l-2.594-4.108l-4.324-2.162C411.25,342.714,406.926,341.633,402.17,341.633L402.17,341.633z"/>
	</g>
	<g>
		<g>
			<rect x="208.886" y="264.882" style="fill-rule:evenodd;clip-rule:evenodd;fill:#52A2AC;" width="85.183" height="85.183"/>
			<path style="fill:#1D1D1D;" d="M285.637,273.53v67.887H217.75V273.53H285.637 M302.933,256.234h-17.296H217.75h-17.296v17.296
				v67.887v17.296h17.296h67.887h17.296v-17.296V273.53V256.234L302.933,256.234z"/>
		</g>
		<g>
			<rect x="238.722" y="294.502" style="fill-rule:evenodd;clip-rule:evenodd;fill:#1D1D1D;" width="25.728" height="25.728"/>
		</g>
	</g>
	<rect style="fill:none;" width="512" height="512"/>
</g>
<g id="Layer_1">
</g>
</svg>
