<?xml version="1.0" encoding="iso-8859-1"?>
<!-- Generator: Adobe Illustrator 27.7.0, SVG Export Plug-In . SVG Version: 6.00 Build 0)  -->
<svg version="1.1" xmlns="http://www.w3.org/2000/svg" xmlns:xlink="http://www.w3.org/1999/xlink" x="0px" y="0px"
	 viewBox="0 0 512 512" style="enable-background:new 0 0 512 512;" xml:space="preserve">
<g id="util_x5F_reload_x5F_file">
	<g>
		<path style="fill:#BCBCBC;" d="M47.161,454.864l-0.857-0.143c-7.186-1.198-14.92-6.873-14.92-16.504V115.063l0.092-0.691
			c1.011-7.583,7.022-15.258,16.554-15.258h154.164l49.172,53.27h174.502l0.539,0.056c7.462,0.772,15.202,6.585,15.559,16.202
			l0.008,0.214l-1.014,270.25l-0.14,0.838c-1.198,7.186-6.873,14.92-16.504,14.92H47.161z"/>
		<path style="fill:#1D1D1D;" d="M197.596,109.614l49.172,53.27h178.558c0,0,5.942,0.615,6.147,6.146l-1.011,269.187
			c0,0-1.024,6.146-6.147,6.146H48.03c0,0-6.147-1.024-6.147-6.146V115.761c0,0,0.82-6.147,6.147-6.147
			C48.645,109.614,197.596,109.614,197.596,109.614 M206.791,88.614h-9.195H48.03c-15.568,0-25.348,12.26-26.962,24.371
			l-0.184,1.382v1.394v322.457c0,15.042,11.92,24.898,23.694,26.861l1.714,0.286h1.738h376.286c15.042,0,24.898-11.92,26.861-23.694
			l0.279-1.675l0.006-1.698l1.01-269.187l0.002-0.428l-0.016-0.428c-0.578-15.602-13-25.019-24.971-26.258l-1.078-0.112h-1.083
			H255.963L213.027,95.37L206.791,88.614L206.791,88.614z"/>
	</g>
	<g>
		<g>
			<g>
				<rect x="133.046" y="60.627" style="fill-rule:evenodd;clip-rule:evenodd;fill:#52A2AC;" width="286.716" height="378.148"/>
				<path style="fill:#1D1D1D;stroke:#1D1D1D;stroke-width:3;stroke-miterlimit:10;" d="M411.196,69.192v361.018H141.611V69.192
					H411.196 M428.327,52.062H124.481V447.34h303.846L428.327,52.062L428.327,52.062z"/>
			</g>
			<rect x="177.37" y="147.134" style="fill-rule:evenodd;clip-rule:evenodd;fill:#1D1D1D;" width="198.281" height="17.13"/>
		</g>
		<rect x="177.37" y="200.451" style="fill-rule:evenodd;clip-rule:evenodd;fill:#1D1D1D;" width="198.281" height="17.13"/>
		<rect x="177.37" y="249.915" style="fill-rule:evenodd;clip-rule:evenodd;fill:#1D1D1D;" width="198.281" height="17.13"/>
		<rect x="177.37" y="303.018" style="fill-rule:evenodd;clip-rule:evenodd;fill:#1D1D1D;" width="198.281" height="17.13"/>
	</g>
	<g>
		<path style="fill:#BCBCBC;" d="M39.08,460.539c-2.973,0-5.754-1.468-7.431-3.923c-1.677-2.454-2.034-5.578-0.954-8.348
			l70.644-181.104c1.348-3.455,4.676-5.729,8.385-5.729h157.074l19.412-49.473c1.352-3.446,4.676-5.712,8.378-5.712h191.9
			c2.742,0,5.334,1.25,7.042,3.395c1.707,2.146,2.344,4.952,1.729,7.624l-54.403,236.291c-0.94,4.086-4.578,6.98-8.771,6.98H39.08z"
			/>
		<path style="fill:#1D1D1D;" d="M486.489,215.249l-54.404,236.29H39.08l70.643-181.105h163.211l21.653-55.186H486.489
			 M486.489,197.249H294.588c-7.404,0-14.052,4.533-16.756,11.425l-17.17,43.76H109.724c-7.417,0-14.074,4.549-16.769,11.459
			L22.311,444.998c-2.161,5.539-1.447,11.788,1.908,16.696c3.354,4.909,8.916,7.845,14.862,7.845h393.005
			c8.385,0,15.66-5.79,17.541-13.961l54.404-236.29c1.23-5.344-0.042-10.957-3.458-15.248
			C497.157,199.749,491.972,197.249,486.489,197.249L486.489,197.249z M486.489,233.249h0.005H486.489L486.489,233.249z"/>
	</g>
</g>
<g id="Layer_1">
</g>
</svg>
