<?xml version="1.0" encoding="iso-8859-1"?>
<!-- Generator: Adobe Illustrator 27.7.0, SVG Export Plug-In . SVG Version: 6.00 Build 0)  -->
<svg version="1.1" xmlns="http://www.w3.org/2000/svg" xmlns:xlink="http://www.w3.org/1999/xlink" x="0px" y="0px"
	 viewBox="0 0 512 512" style="enable-background:new 0 0 512 512;" xml:space="preserve">
<g id="util_x5F_pivot_x5F_top">
	<g id="Layer_3_00000048483577504904928720000011810783847657942159_">
		<g id="bg_00000090293066378876734460000007156154791393801888_">
			<g>
				
					<polygon style="fill-rule:evenodd;clip-rule:evenodd;fill:#BDBDBD;stroke:#1D1D1D;stroke-width:18.5774;stroke-linejoin:round;stroke-miterlimit:10;" points="
					38.44,267.267 224.602,139.039 410.774,267.276 224.452,395.593 				"/>
			</g>
			<g style="display:none;">
				
					<path style="display:inline;fill:#1D1D1D;stroke:#1D1D1D;stroke-width:18.5774;stroke-linejoin:round;stroke-miterlimit:10;" d="
					M224.611,148.151l172.946,119.125L224.452,386.481L51.656,267.267L224.611,148.151 M224.611,129.936l-8.51,5.865L43.146,254.918
					l-17.923,12.341l17.914,12.358l172.796,119.214l8.51,5.874l8.519-5.865l173.097-119.214l17.94-12.35l-17.94-12.358
					L233.113,135.793L224.611,129.936L224.611,129.936z"/>
			</g>
		</g>
		<g id="fg_00000039814386726926102610000012426852574827344530_">
			
				<line style="fill:none;stroke:#1D1D1D;stroke-width:10.6156;stroke-miterlimit:10;" x1="132.68" y1="203.352" x2="316.525" y2="331.28"/>
			
				<line style="fill:none;stroke:#1D1D1D;stroke-width:10.6156;stroke-miterlimit:10;" x1="317.091" y1="204.175" x2="132.114" y2="330.457"/>
		</g>
	</g>
	<polygon style="fill:#52A2AC;stroke:#1D1D1D;stroke-width:18.6666;stroke-miterlimit:10;" points="404.804,249.612 
		404.806,357.228 332.952,357.237 332.952,249.612 276.663,249.612 368.881,131.542 461.095,249.609 	"/>
</g>
<g id="Layer_1">
</g>
</svg>
