<?xml version="1.0" encoding="iso-8859-1"?>
<!-- Generator: Adobe Illustrator 27.7.0, SVG Export Plug-In . SVG Version: 6.00 Build 0)  -->
<svg version="1.1" xmlns="http://www.w3.org/2000/svg" xmlns:xlink="http://www.w3.org/1999/xlink" x="0px" y="0px"
	 viewBox="0 0 512 512" style="enable-background:new 0 0 512 512;" xml:space="preserve">
<g id="mod_x5F_copy_x5F_material">
	<g>
		<g>
			<path style="fill:#1D1D1D;" d="M250.818,232.34L432.19,357.255L250.621,482.367L69.445,357.452L250.818,232.34 M250.818,213.259
				l-8.852,6.098L60.593,344.272l-18.885,12.983l18.885,12.983L241.965,495.35l8.852,6.098l8.852-6.098l181.569-125.112
				l18.885-12.983l-18.885-12.983L259.867,219.357L250.818,213.259L250.818,213.259z"/>
		</g>
		<g>
			<g>
				<g>
					<polygon style="fill-rule:evenodd;clip-rule:evenodd;fill:#BDBDBD;" points="55.478,357.452 250.818,222.898 446.157,357.452 
						250.621,492.006 					"/>
				</g>
				<g>
					<path style="fill:#1D1D1D;" d="M250.818,232.34L432.19,357.255L250.621,482.367L69.445,357.452L250.818,232.34
						 M250.818,213.259l-8.852,6.098L60.593,344.272l-18.885,12.983l18.885,12.983L241.965,495.35l8.852,6.098l8.852-6.098
						l181.569-125.112l18.885-12.983l-18.885-12.983L259.867,219.357L250.818,213.259L250.818,213.259z"/>
				</g>
			</g>
			<g>
				
					<line style="fill:none;stroke:#1D1D1D;stroke-width:8;stroke-miterlimit:10;" x1="154.427" y1="290.372" x2="347.209" y2="424.532"/>
				
					<line style="fill:none;stroke:#1D1D1D;stroke-width:8;stroke-miterlimit:10;" x1="347.799" y1="291.158" x2="153.836" y2="423.745"/>
			</g>
		</g>
	</g>
	<g>
		<g>
			<path style="fill:#1D1D1D;" d="M252.617,145.111L433.99,270.026L252.42,395.137L71.244,270.222L252.617,145.111 M252.617,126.029
				l-8.852,6.098L62.392,257.042l-18.885,12.983l18.885,12.983l181.373,125.112l8.852,6.098l8.852-6.098l181.569-125.112
				l18.885-12.983l-18.885-12.983L261.666,132.127L252.617,126.029L252.617,126.029z"/>
		</g>
		<g>
			<g>
				<g>
					<polygon style="fill-rule:evenodd;clip-rule:evenodd;fill:#FF9931;" points="57.278,270.222 252.617,135.668 447.956,270.222 
						252.42,404.776 					"/>
				</g>
				<g>
					<polygon style="fill-rule:evenodd;clip-rule:evenodd;fill:#1D1D1D;" points="252.715,228.103 313.72,186.081 374.725,228.103 
						313.659,270.124 					"/>
					<polygon style="fill-rule:evenodd;clip-rule:evenodd;fill:#1D1D1D;" points="252.715,312.145 313.72,270.124 374.725,312.145 
						313.659,354.167 					"/>
					<polygon style="fill-rule:evenodd;clip-rule:evenodd;fill:#1D1D1D;" points="130.706,312.145 191.711,270.124 252.715,312.145 
						191.649,354.167 					"/>
					<polygon style="fill-rule:evenodd;clip-rule:evenodd;fill:#1D1D1D;" points="130.706,228.103 191.711,186.081 252.715,228.103 
						191.649,270.124 					"/>
				</g>
				<g>
					<path style="fill:#1D1D1D;" d="M252.617,145.111L433.99,270.026L252.42,395.137L71.244,270.222L252.617,145.111
						 M252.617,126.029l-8.852,6.098L62.392,257.042l-18.885,12.983l18.885,12.983l181.373,125.112l8.852,6.098l8.852-6.098
						l181.569-125.112l18.885-12.983l-18.885-12.983L261.666,132.127L252.617,126.029L252.617,126.029z"/>
				</g>
			</g>
		</g>
	</g>
	<polygon style="fill:#BDBDBD;stroke:#1D1D1D;stroke-width:13;stroke-linejoin:round;stroke-miterlimit:10;" points="
		446.215,105.012 446.216,181.485 395.156,181.491 395.156,105.012 355.156,105.012 420.688,21.109 486.216,105.01 	"/>
</g>
<g id="Layer_1">
</g>
</svg>
