<?xml version="1.0" encoding="iso-8859-1"?>
<!-- Generator: Adobe Illustrator 27.7.0, SVG Export Plug-In . SVG Version: 6.00 Build 0)  -->
<svg version="1.1" xmlns="http://www.w3.org/2000/svg" xmlns:xlink="http://www.w3.org/1999/xlink" x="0px" y="0px"
	 viewBox="0 0 512 512" style="enable-background:new 0 0 512 512;" xml:space="preserve">
<g id="util_x5F_reset_x5F_persp">
	<rect y="0.341" style="fill:none;" width="511.659" height="511.659"/>
	<rect y="0.341" style="fill:none;" width="511.659" height="511.659"/>
	<g>
		<g>
			<g>
				<polygon style="fill-rule:evenodd;clip-rule:evenodd;fill:#BDBDBD;" points="199.334,113.972 199.334,85.617 86.129,85.617 
					86.129,113.972 57.775,113.972 57.775,396.877 453.884,396.877 453.884,113.972 				"/>
			</g>
			<g>
				<polygon style="fill:none;stroke:#1D1D1D;stroke-width:17.0553;stroke-miterlimit:10;" points="199.334,113.972 199.334,85.617 
					86.129,85.617 86.129,113.972 57.775,113.972 57.775,396.877 453.884,396.877 453.884,113.972 				"/>
			</g>
		</g>
		<g>
			<path style="fill-rule:evenodd;clip-rule:evenodd;fill:#52A2AC;" d="M255.83,348.909c-51.592,0-93.378-41.999-93.378-93.378
				c0-51.592,41.999-93.378,93.378-93.378s93.378,41.999,93.378,93.378S307.422,348.909,255.83,348.909z"/>
			<path style="fill:#1D1D1D;" d="M255.83,170.468c46.902,0,84.85,37.948,84.85,84.85s-37.948,85.063-84.85,85.063
				s-84.85-37.948-84.85-84.85S208.927,170.468,255.83,170.468 M255.83,153.412c-56.283,0-101.905,45.836-101.905,101.905
				c0,56.283,45.836,101.905,101.905,101.905s101.905-45.836,101.905-101.905S312.112,153.412,255.83,153.412L255.83,153.412z"/>
		</g>
		<circle style="fill-rule:evenodd;clip-rule:evenodd;fill:#1D1D1D;" cx="255.83" cy="255.318" r="56.496"/>
		<g>
			<rect x="356.243" y="154.905" style="fill-rule:evenodd;clip-rule:evenodd;fill:#1D1D1D;" width="56.496" height="28.354"/>
		</g>
	</g>
</g>
<g id="Layer_1">
</g>
</svg>
