<?xml version="1.0" encoding="iso-8859-1"?>
<!-- Generator: Adobe Illustrator 27.7.0, SVG Export Plug-In . SVG Version: 6.00 Build 0)  -->
<svg version="1.1" xmlns="http://www.w3.org/2000/svg" xmlns:xlink="http://www.w3.org/1999/xlink" x="0px" y="0px"
	 viewBox="0 0 512 512" style="enable-background:new 0 0 512 512;" xml:space="preserve">
<g id="util_x5F_sel_x5F_non_x5F_unique">
	<polygon style="fill:#BDBDBD;stroke:#1D1D1D;stroke-width:22;stroke-miterlimit:10;" points="154.73,343.89 154.73,297.87 
		46.7,297.87 46.7,86.6 109.24,86.6 109.24,239.11 154.73,239.11 154.73,193.09 251.27,268.49 	"/>
	<g>
		<rect x="218.54" y="103.139" style="fill:#52A2AC;" width="247.825" height="64.409"/>
		<path style="fill:#1D1D1D;" d="M456.365,113.139v44.409H228.54v-44.409H456.365 M476.365,93.139h-20H228.54h-20v20v44.409v20h20
			h227.825h20v-20v-44.409V93.139L476.365,93.139z"/>
	</g>
	<g>
		<rect x="269.519" y="236.287" style="fill:#52A2AC;" width="196.847" height="64.409"/>
		<path style="fill:#1D1D1D;" d="M456.365,246.287v44.409H279.518v-44.409H456.365 M476.365,226.287h-20H279.518h-20v20v44.409v20
			h20h176.847h20v-20v-44.409V226.287L476.365,226.287z"/>
	</g>
	<g>
		<rect x="218.277" y="369.435" style="fill:#52A2AC;" width="248.088" height="64.408"/>
		<path style="fill:#1D1D1D;" d="M456.365,379.434v44.409H228.277v-44.409H456.365 M476.365,359.434h-20H228.277h-20v20v44.409v20
			h20h228.088h20v-20v-44.409V359.434L476.365,359.434z"/>
	</g>
	<rect style="fill:none;" width="512" height="512"/>
</g>
<g id="Layer_1">
</g>
</svg>
