<?xml version="1.0" encoding="iso-8859-1"?>
<!-- Generator: Adobe Illustrator 27.7.0, SVG Export Plug-In . SVG Version: 6.00 Build 0)  -->
<svg version="1.1" xmlns="http://www.w3.org/2000/svg" xmlns:xlink="http://www.w3.org/1999/xlink" x="0px" y="0px"
	 viewBox="0 0 512 512" style="enable-background:new 0 0 512 512;" xml:space="preserve">
<g id="util_x5F_unlock_x5F_trs">
	<g>
		<path style="fill:#52A2AC;" d="M213.073,280.104v-93.907c-0.349-29.003-23.43-52.672-51.45-52.672
			c-27.898,0-50.683,23.175-51.442,51.963l0.005,1.485v76.183H56.353v-76.183c0-59.861,47.224-108.562,105.27-108.562
			c27.831,0,54.089,11.136,73.937,31.356c19.737,20.108,30.853,46.875,31.306,75.384c0.025,0.61,0.027,1.209,0.027,1.821v93.131
			H213.073z"/>
		<path style="fill:#1D1D1D;" d="M161.623,85.927c53.379,0,96.906,44.467,97.73,99.443c0.024,0.539,0.024,1.065,0.024,1.603v85.615
			h-38.789v-86.391c-0.4-33.269-26.696-60.187-58.965-60.187c-32.512,0-58.977,27.344-58.977,60.964h0.024v68.667H63.869v-68.667
			C63.869,131.258,107.723,85.927,161.623,85.927 M161.623,70.896c-62.19,0-112.786,52.072-112.786,116.078v68.667v15.031h15.031
			h38.801h15.031v-15.031v-68.667v-1.535c0.777-24.62,20.181-44.398,43.922-44.398c23.899,0,43.591,20.293,43.934,45.254v86.293
			v15.031h15.031h38.789h15.031v-15.031v-85.615c0-0.565,0-1.254-0.029-2.028c-0.506-30.411-12.383-58.974-33.456-80.443
			C219.651,82.831,191.488,70.896,161.623,70.896L161.623,70.896z"/>
	</g>
	<g>
		<linearGradient id="SVGID_1_" gradientUnits="userSpaceOnUse" x1="296.6458" y1="333.6465" x2="296.6458" y2="598.2057">
			<stop  offset="0" style="stop-color:#BDBDBD"/>
			<stop  offset="0.2711" style="stop-color:#898989"/>
		</linearGradient>
		<rect x="168.486" y="240.72" style="fill:url(#SVGID_1_);" width="256.32" height="185.854"/>
		<path style="fill:#1D1D1D;" d="M416.306,249.22v168.853h-239.32V249.22H416.306 M433.306,232.22h-17h-239.32h-17v17v168.853v17h17
			h239.32h17v-17V249.22V232.22L433.306,232.22z"/>
	</g>
	<path style="fill:#1D1D1D;" d="M322.402,313.953c0,14.225-11.531,55.873-25.756,55.873s-25.756-41.648-25.756-55.873
		c0-14.225,11.531-25.756,25.756-25.756S322.402,299.728,322.402,313.953z"/>
</g>
<g id="Layer_1">
</g>
</svg>
