<?xml version="1.0" encoding="iso-8859-1"?>
<!-- Generator: Adobe Illustrator 27.7.0, SVG Export Plug-In . SVG Version: 6.00 Build 0)  -->
<svg version="1.1" xmlns="http://www.w3.org/2000/svg" xmlns:xlink="http://www.w3.org/1999/xlink" x="0px" y="0px"
	 viewBox="0 0 512 512" style="enable-background:new 0 0 512 512;" xml:space="preserve">
<g id="util_x5F_unhide_x5F_trs">
	<g>
		<path style="fill:#BDBDBD;stroke:#1D1D1D;stroke-width:12.7827;stroke-miterlimit:10;" d="M88.826,136.392
			c0,0,56.262-99.929,167.107-104.127s167.108,104.127,167.108,104.127s-83.974,88.172-167.108,88.172
			S88.826,136.392,88.826,136.392z"/>
		<g>
			
				<ellipse transform="matrix(0.3827 -0.9239 0.9239 0.3827 41.783 319.2431)" style="fill:#3A3A3A;" cx="259.782" cy="128.355" rx="73.738" ry="73.738"/>
			<path style="fill:#1D1D1D;" d="M259.782,58.346c38.603,0,70.009,31.406,70.009,70.009c0,38.603-31.406,70.009-70.009,70.009
				c-38.603,0-70.009-31.406-70.009-70.009C189.773,89.752,221.179,58.346,259.782,58.346 M259.782,50.89
				c-42.783,0-77.466,34.683-77.466,77.466s34.683,77.466,77.466,77.466s77.466-34.683,77.466-77.466S302.565,50.89,259.782,50.89
				L259.782,50.89z"/>
		</g>
		<circle style="fill:#A0A0A0;" cx="280.67" cy="104.377" r="20.888"/>
	</g>
	<g>
		<path style="fill:#52A2AC;" d="M97.883,307.178c-3.664,0-6.634-2.97-6.634-6.634v-31.61c0-3.664,2.97-6.634,6.634-6.634h316.101
			c3.664,0,6.634,2.97,6.634,6.634v31.61c0,3.664-2.97,6.634-6.634,6.634H97.883z"/>
		<path style="fill:#1D1D1D;" d="M413.984,268.934v31.61H97.883v-31.61H413.984 M413.984,255.666H97.883
			c-7.328,0-13.268,5.94-13.268,13.268v31.61c0,7.328,5.94,13.268,13.268,13.268h316.101c7.328,0,13.268-5.94,13.268-13.268v-31.61
			C427.251,261.606,421.311,255.666,413.984,255.666L413.984,255.666z"/>
	</g>
	<g>
		<path style="fill:#52A2AC;" d="M97.883,388.111c-3.664,0-6.634-2.97-6.634-6.634v-31.61c0-3.664,2.97-6.634,6.634-6.634h316.101
			c3.664,0,6.634,2.97,6.634,6.634v31.61c0,3.664-2.97,6.634-6.634,6.634H97.883z"/>
		<path style="fill:#1D1D1D;" d="M413.984,349.867v31.61H97.883v-31.61H413.984 M413.984,336.599H97.883
			c-7.328,0-13.268,5.94-13.268,13.268v31.61c0,7.328,5.94,13.268,13.268,13.268h316.101c7.328,0,13.268-5.94,13.268-13.268v-31.61
			C427.251,342.54,421.311,336.599,413.984,336.599L413.984,336.599z"/>
	</g>
	<g>
		<path style="fill:#52A2AC;" d="M97.883,469.044c-3.664,0-6.634-2.97-6.634-6.634V430.8c0-3.664,2.97-6.634,6.634-6.634h316.101
			c3.664,0,6.634,2.97,6.634,6.634v31.61c0,3.664-2.97,6.634-6.634,6.634H97.883z"/>
		<path style="fill:#1D1D1D;" d="M413.984,430.8v31.61H97.883V430.8H413.984 M413.984,417.532H97.883
			c-7.328,0-13.268,5.94-13.268,13.268v31.61c0,7.328,5.94,13.268,13.268,13.268h316.101c7.328,0,13.268-5.94,13.268-13.268V430.8
			C427.251,423.473,421.311,417.532,413.984,417.532L413.984,417.532z"/>
	</g>
</g>
<g id="Layer_1">
</g>
</svg>
