<?xml version="1.0" encoding="iso-8859-1"?>
<!-- Generator: Adobe Illustrator 27.7.0, SVG Export Plug-In . SVG Version: 6.00 Build 0)  -->
<svg version="1.1" xmlns="http://www.w3.org/2000/svg" xmlns:xlink="http://www.w3.org/1999/xlink" x="0px" y="0px"
	 viewBox="0 0 512 512" style="enable-background:new 0 0 512 512;" xml:space="preserve">
<g id="util_x5F_pivot_x5F_bottom">
	<g id="Layer_3_00000135678979389544793560000008830234072148298670_">
		<g id="bg_00000116914319370511433800000007476025191695975302_">
			<g>
				
					<polygon style="fill-rule:evenodd;clip-rule:evenodd;fill:#BDBDBD;stroke:#1D1D1D;stroke-width:18.5774;stroke-linejoin:round;stroke-miterlimit:10;" points="
					38.44,267.263 224.602,139.035 410.774,267.272 224.452,395.588 				"/>
			</g>
			<g style="display:none;">
				
					<path style="display:inline;fill:#1D1D1D;stroke:#1D1D1D;stroke-width:18.5774;stroke-linejoin:round;stroke-miterlimit:10;" d="
					M224.611,148.147l172.946,119.125L224.452,386.477L51.656,267.263L224.611,148.147 M224.611,129.932l-8.51,5.865L43.146,254.913
					l-17.923,12.341l17.914,12.358l172.796,119.214l8.51,5.874l8.519-5.865l173.097-119.214l17.94-12.35l-17.94-12.358
					L233.113,135.788L224.611,129.932L224.611,129.932z"/>
			</g>
		</g>
		<g id="fg_00000176044232814339958020000009778946362717905550_">
			
				<line style="fill:none;stroke:#1D1D1D;stroke-width:10.6156;stroke-miterlimit:10;" x1="132.68" y1="203.348" x2="316.525" y2="331.275"/>
			
				<line style="fill:none;stroke:#1D1D1D;stroke-width:10.6156;stroke-miterlimit:10;" x1="317.091" y1="204.171" x2="132.114" y2="330.453"/>
		</g>
	</g>
	<polygon style="fill:#52A2AC;stroke:#1D1D1D;stroke-width:18.6666;stroke-miterlimit:10;" points="332.955,239.162 
		332.952,131.546 404.806,131.538 404.806,239.162 461.095,239.162 368.877,357.232 276.663,239.165 	"/>
</g>
<g id="Layer_1">
</g>
</svg>
