<?xml version="1.0" encoding="iso-8859-1"?>
<!-- Generator: Adobe Illustrator 27.7.0, SVG Export Plug-In . SVG Version: 6.00 Build 0)  -->
<svg version="1.1" xmlns="http://www.w3.org/2000/svg" xmlns:xlink="http://www.w3.org/1999/xlink" x="0px" y="0px"
	 viewBox="0 0 512 512" style="enable-background:new 0 0 512 512;" xml:space="preserve">
<g id="util_x5F_hud_x5F_toggle">
	<g>
		<path style="fill:#BDBDBD;" d="M52.55,459.45V52.55h406.9v406.9H52.55z M408.7,408.7V103.3H103.31v305.4H408.7z"/>
		<path style="fill:#1D1D1D;" d="M446.95,65.05v381.9H65.05V65.05H446.95 M90.81,421.2H421.2V90.8H90.81V421.2 M471.95,40.05h-25
			H65.05h-25v25v381.9v25h25h381.9h25v-25V65.05V40.05L471.95,40.05z M115.81,115.8H396.2v280.4H115.81V115.8L115.81,115.8z"/>
	</g>
	<g>
		<path style="fill:#52A2AC;" d="M242.784,351.06c-3.314,0-6-2.687-6-6v-24.7c0-3.313,2.686-6,6-6h127.964c3.313,0,6,2.687,6,6v24.7
			c0,3.313-2.687,6-6,6H242.784z M166.485,351.06c-3.313,0-6-2.687-6-6v-24.7c0-3.313,2.687-6,6-6h51.153c3.314,0,6,2.687,6,6v24.7
			c0,3.313-2.686,6-6,6H166.485z M242.784,300.06c-3.314,0-6-2.687-6-6v-24.7c0-3.313,2.686-6,6-6h127.964c3.313,0,6,2.687,6,6v24.7
			c0,3.313-2.687,6-6,6H242.784z M141.784,300.06c-3.314,0-6-2.687-6-6v-24.7c0-3.313,2.686-6,6-6h75.854c3.314,0,6,2.687,6,6v24.7
			c0,3.313-2.686,6-6,6H141.784z M242.784,249.06c-3.314,0-6-2.686-6-6v-24.701c0-3.313,2.686-6,6-6h127.964c3.313,0,6,2.687,6,6
			v24.701c0,3.314-2.687,6-6,6H242.784z M166.485,249.06c-3.313,0-6-2.686-6-6v-24.701c0-3.313,2.687-6,6-6h51.153
			c3.314,0,6,2.687,6,6v24.701c0,3.314-2.686,6-6,6H166.485z M242.784,198.06c-3.314,0-6-2.686-6-6v-24.701c0-3.313,2.686-6,6-6
			h127.964c3.313,0,6,2.687,6,6v24.701c0,3.314-2.687,6-6,6H242.784z M141.784,198.06c-3.314,0-6-2.686-6-6v-24.701
			c0-3.313,2.686-6,6-6h75.854c3.314,0,6,2.687,6,6v24.701c0,3.314-2.686,6-6,6H141.784z"/>
		<path style="fill:#1D1D1D;" d="M370.748,167.359v24.701H242.784v-24.701H370.748 M217.638,167.359v24.701h-75.854v-24.701H217.638
			 M370.748,218.359v24.701H242.784v-24.701H370.748 M217.638,218.359v24.701h-51.153v-24.701H217.638 M370.748,269.359v24.701
			H242.784v-24.701H370.748 M217.638,269.359v24.701h-75.854v-24.701H217.638 M370.748,320.359v24.701H242.784v-24.701H370.748
			 M217.638,320.359v24.701h-51.153v-24.701H217.638 M370.748,155.359H242.784c-6.627,0-12,5.373-12,12v24.701
			c0,6.627,5.373,12,12,12h127.964c6.627,0,12-5.373,12-12v-24.701C382.748,160.732,377.375,155.359,370.748,155.359
			L370.748,155.359z M217.638,155.359h-75.854c-6.627,0-12,5.373-12,12v24.701c0,6.627,5.373,12,12,12h75.854
			c6.627,0,12-5.373,12-12v-24.701C229.638,160.732,224.266,155.359,217.638,155.359L217.638,155.359z M370.748,206.359H242.784
			c-6.627,0-12,5.373-12,12v24.701c0,6.627,5.373,12,12,12h127.964c6.627,0,12-5.373,12-12v-24.701
			C382.748,211.732,377.375,206.359,370.748,206.359L370.748,206.359z M217.638,206.359h-51.153c-6.627,0-12,5.373-12,12v24.701
			c0,6.627,5.373,12,12,12h51.153c6.627,0,12-5.373,12-12v-24.701C229.638,211.732,224.266,206.359,217.638,206.359L217.638,206.359
			z M370.748,257.359H242.784c-6.627,0-12,5.373-12,12v24.701c0,6.627,5.373,12,12,12h127.964c6.627,0,12-5.373,12-12v-24.701
			C382.748,262.732,377.375,257.359,370.748,257.359L370.748,257.359z M217.638,257.359h-75.854c-6.627,0-12,5.373-12,12v24.701
			c0,6.627,5.373,12,12,12h75.854c6.627,0,12-5.373,12-12v-24.701C229.638,262.732,224.266,257.359,217.638,257.359L217.638,257.359
			z M370.748,308.359H242.784c-6.627,0-12,5.373-12,12v24.701c0,6.627,5.373,12,12,12h127.964c6.627,0,12-5.373,12-12v-24.701
			C382.748,313.732,377.375,308.359,370.748,308.359L370.748,308.359z M217.638,308.359h-51.153c-6.627,0-12,5.373-12,12v24.701
			c0,6.627,5.373,12,12,12h51.153c6.627,0,12-5.373,12-12v-24.701C229.638,313.732,224.266,308.359,217.638,308.359L217.638,308.359
			z"/>
	</g>
	<rect x="0.285" style="fill:none;" width="511.715" height="511.715"/>
</g>
<g id="Layer_1">
</g>
</svg>
