<?xml version="1.0" encoding="iso-8859-1"?>
<!-- Generator: Adobe Illustrator 27.7.0, SVG Export Plug-In . SVG Version: 6.00 Build 0)  -->
<svg version="1.1" xmlns="http://www.w3.org/2000/svg" xmlns:xlink="http://www.w3.org/1999/xlink" x="0px" y="0px"
	 viewBox="0 0 512 512" style="enable-background:new 0 0 512 512;" xml:space="preserve">
<g id="util_x5F_remove_x5F_ref">
	<rect x="0" y="2.336" style="fill:none;" width="512" height="507.329"/>
	<g>
		
			<rect x="69.531" y="151.196" transform="matrix(0.7071 -0.7071 0.7071 0.7071 -129.9571 198.2524)" style="fill:#C8DEF3;" width="209.605" height="209.605"/>
		<g>
			<polygon style="fill:#B8D9DD;" points="174.333,107.786 26.119,256.001 174.333,256.001 			"/>
			<polygon style="fill:#88BFC6;" points="322.547,256.001 174.333,107.786 174.333,256.001 			"/>
			<polygon style="fill:#44868F;" points="174.333,404.215 322.547,256.001 174.333,256.001 			"/>
			<polygon style="fill:#52A2AC;" points="174.333,256.001 26.119,256.001 174.333,404.215 			"/>
		</g>
		
			<rect x="69.531" y="151.196" transform="matrix(0.7071 -0.7071 0.7071 0.7071 -129.9571 198.2524)" style="fill:none;stroke:#1D1D1D;stroke-width:11.5204;stroke-miterlimit:9.9999;" width="209.605" height="209.605"/>
	</g>
	<g>
		
			<rect x="241.531" y="151.196" transform="matrix(0.7071 -0.7071 0.7071 0.7071 -79.5795 319.8748)" style="fill:#C8DEF3;" width="209.605" height="209.605"/>
		<g>
			<polygon style="fill:#CFCFCF;" points="346.333,107.786 198.119,256.001 346.333,256.001 			"/>
			<polygon style="fill:#ADADAD;" points="494.547,256.001 346.333,107.786 346.333,256.001 			"/>
			<polygon style="fill:#7A7A7A;" points="346.333,404.215 494.547,256.001 346.333,256.001 			"/>
			<polygon style="fill:#8F8F8F;" points="346.333,256.001 198.119,256.001 346.333,404.215 			"/>
		</g>
		
			<rect x="241.531" y="151.196" transform="matrix(0.7071 -0.7071 0.7071 0.7071 -79.5795 319.8748)" style="fill:none;stroke:#1D1D1D;stroke-width:11.5204;stroke-miterlimit:9.9999;" width="209.605" height="209.605"/>
	</g>
</g>
<g id="Layer_1">
</g>
</svg>
