<?xml version="1.0" encoding="iso-8859-1"?>
<!-- Generator: Adobe Illustrator 27.7.0, SVG Export Plug-In . SVG Version: 6.00 Build 0)  -->
<svg version="1.1" xmlns="http://www.w3.org/2000/svg" xmlns:xlink="http://www.w3.org/1999/xlink" x="0px" y="0px"
	 viewBox="0 0 512 512" style="enable-background:new 0 0 512 512;" xml:space="preserve">
<g id="util_x5F_move_x5F_origin">
	<g>
		<g>
			<path style="fill:#1D1D1D;" d="M307.225,207.153v96.815h-96.811v-96.815H307.225 M322.876,191.501h-15.651h-96.811h-15.651
				v15.651v96.815v15.651h15.651h96.811h15.651v-15.651v-96.815V191.501L322.876,191.501z"/>
		</g>
		<g>
			<path style="fill:#1D1D1D;" d="M184.255,85.522v95.471H88.78V85.522H184.255 M199.906,69.871h-15.651H88.78H73.128v15.651v95.471
				v15.651H88.78h95.475h15.651v-15.651V85.522L199.906,69.871L199.906,69.871z"/>
		</g>
		<g>
			<path style="fill:#1D1D1D;" d="M184.255,207.153v96.815H88.78v-96.815H184.255 M199.906,191.501h-15.651H88.78H73.128v15.651
				v96.815v15.651H88.78h95.475h15.651v-15.651v-96.815L199.906,191.501L199.906,191.501z"/>
		</g>
		<g>
			<path style="fill:#1D1D1D;" d="M184.255,330.127v95.471H88.78v-95.471H184.255 M199.906,314.476h-15.651H88.78H73.128v15.651
				v95.471v15.651H88.78h95.475h15.651v-15.651v-95.471L199.906,314.476L199.906,314.476z"/>
		</g>
		<g>
			<path style="fill:#1D1D1D;" d="M307.225,85.522v95.471h-96.811V85.522H307.225 M322.876,69.871h-15.651h-96.811h-15.651v15.651
				v95.471v15.651h15.651h96.811h15.651v-15.651V85.522V69.871L322.876,69.871z"/>
		</g>
		<g>
			<path style="fill:#1D1D1D;" d="M428.859,207.153v96.815h-95.475v-96.815H428.859 M444.511,191.501h-15.651h-95.475h-15.651
				v15.651v96.815v15.651h15.651h95.475h15.651v-15.651v-96.815V191.501L444.511,191.501z"/>
		</g>
		<g>
			<path style="fill:#1D1D1D;" d="M428.859,85.522v95.471h-95.475V85.522H428.859 M444.511,69.871h-15.651h-95.475h-15.651v15.651
				v95.471v15.651h15.651h95.475h15.651v-15.651V85.522V69.871L444.511,69.871z"/>
		</g>
		<g>
			<path style="fill:#1D1D1D;" d="M307.225,330.127v95.471h-96.811v-95.471H307.225 M322.876,314.476h-15.651h-96.811h-15.651
				v15.651v95.471v15.651h15.651h96.811h15.651v-15.651v-95.471V314.476L322.876,314.476z"/>
		</g>
		<g>
			<path style="fill:#1D1D1D;" d="M428.859,330.127v95.471h-95.475v-95.471H428.859 M444.511,314.476h-15.651h-95.475h-15.651
				v15.651v95.471v15.651h15.651h95.475h15.651v-15.651v-95.471V314.476L444.511,314.476z"/>
		</g>
		<g>
			<g>
				<linearGradient id="SVGID_1_" gradientUnits="userSpaceOnUse" x1="258.8188" y1="255.5601" x2="258.8188" y2="671.5571">
					<stop  offset="0" style="stop-color:#BDBDBD"/>
					<stop  offset="0.0591" style="stop-color:#52A2AC"/>
				</linearGradient>
				<path style="fill:url(#SVGID_1_);" d="M50.818,463.559V47.562h416.001v415.997H50.818z M417.058,413.797v-71.868h-71.872v71.868
					H417.058z M295.424,413.797v-71.868h-73.208v71.868H295.424z M172.453,413.797v-71.868h-71.872v71.868H172.453z
					 M417.058,292.167v-73.212h-71.872v73.212H417.058z M295.424,292.167v-73.212h-73.208v73.212H295.424z M172.453,292.167v-73.212
					h-71.872v73.212H172.453z M417.058,169.192V97.324h-71.872v71.868H417.058z M295.424,169.192V97.324h-73.208v71.868H295.424z
					 M172.453,169.192V97.324h-71.872v71.868H172.453z"/>
				<path style="fill:#2B2B2B;" d="M462.844,51.538v408.046H54.795V51.538H462.844 M341.21,173.168h79.824v-79.82H341.21V173.168
					 M218.239,173.168h81.16v-79.82h-81.16V173.168 M96.605,173.168h79.824v-79.82H96.605V173.168 M341.21,296.142h79.824v0v-81.164
					H341.21V296.142 M218.239,296.142h81.16v0v-81.164h-81.16V296.142 M96.605,296.142h79.824v0v-81.164H96.605V296.142
					 M341.21,417.773h79.824v-79.82H341.21V417.773 M218.239,417.773h81.16v-79.82h-81.16V417.773 M96.605,417.773h79.824v-79.82
					H96.605V417.773 M470.796,43.586h-7.952H54.795h-7.952v7.952v408.046v7.952h7.952h408.05h7.952v-7.952V51.538V43.586
					L470.796,43.586z M349.162,101.3h63.92v63.916h-63.92V101.3L349.162,101.3z M226.191,101.3h65.256v63.916h-65.256V101.3
					L226.191,101.3z M104.557,101.3h63.92v63.916h-63.92V101.3L104.557,101.3z M349.162,222.93h63.92v65.26l-63.92,0V222.93
					L349.162,222.93z M226.191,222.93h65.256v65.26l-65.256,0V222.93L226.191,222.93z M104.557,222.93h63.92v65.26l-63.92,0V222.93
					L104.557,222.93z M349.162,345.905h63.92v63.916h-63.92V345.905L349.162,345.905z M226.191,345.905h65.256v63.916h-65.256
					V345.905L226.191,345.905z M104.557,345.905h63.92v63.916h-63.92V345.905L104.557,345.905z"/>
			</g>
			<path style="fill:#1D1D1D;" d="M455.019,59.363v26.159v95.471v26.159v96.815v26.159v95.471v26.159h-26.159h-95.475h-26.159
				h-96.811h-26.159H88.78H62.62v-26.159v-95.471v-26.159v-96.815v-26.159V85.522V59.363H88.78h95.475h26.159h96.811h26.159h95.475
				H455.019 M333.384,180.994h95.475V85.522h-95.475V180.994 M210.414,180.994h96.811V85.522h-96.811V180.994 M88.78,180.994h95.475
				V85.522H88.78V180.994 M333.384,303.968h95.475v-96.815h-95.475V303.968 M210.414,303.968h96.811v-96.815h-96.811V303.968
				 M88.78,303.968h95.475v-96.815H88.78V303.968 M333.384,425.598h95.475v-95.471h-95.475V425.598 M210.414,425.598h96.811v-95.471
				h-96.811V425.598 M88.78,425.598h95.475v-95.471H88.78V425.598 M470.67,43.712h-15.651h-26.159h-95.475h-26.159h-96.811h-26.159
				H88.78H62.62H46.969v15.651v26.159v95.471v26.159v96.815v26.159v95.471v26.159v15.651H62.62H88.78h95.475h26.159h96.811h26.159
				h95.475h26.159h15.651v-15.651v-26.159v-95.471v-26.159v-96.815v-26.159V85.522V59.363V43.712L470.67,43.712z M349.036,101.174
				h64.172v64.168h-64.172V101.174L349.036,101.174z M226.065,101.174h65.509v64.168h-65.509V101.174L226.065,101.174z
				 M104.431,101.174h64.172v64.168h-64.172V101.174L104.431,101.174z M349.036,222.804h64.172v65.513h-64.172V222.804
				L349.036,222.804z M226.065,222.804h65.509v65.513h-65.509V222.804L226.065,222.804z M104.431,222.804h64.172v65.513h-64.172
				V222.804L104.431,222.804z M349.036,345.779h64.172v64.168h-64.172V345.779L349.036,345.779z M226.065,345.779h65.509v64.168
				h-65.509V345.779L226.065,345.779z M104.431,345.779h64.172v64.168h-64.172V345.779L104.431,345.779z"/>
		</g>
	</g>
</g>
<g id="Layer_1">
</g>
</svg>
