<?xml version="1.0" encoding="iso-8859-1"?>
<!-- Generator: Adobe Illustrator 27.8.1, SVG Export Plug-In . SVG Version: 6.00 Build 0)  -->
<svg version="1.1" xmlns="http://www.w3.org/2000/svg" xmlns:xlink="http://www.w3.org/1999/xlink" x="0px" y="0px"
	 viewBox="0 0 512 512" style="enable-background:new 0 0 512 512;" xml:space="preserve">
<g id="util_x5F_rivet">
	<g id="geo">
		<g id="bg_00000161613181883928606860000014651602886277594024_">
			<g>
				
					<polygon style="fill-rule:evenodd;clip-rule:evenodd;fill:#BDBDBD;stroke:#1D1D1D;stroke-width:24.2676;stroke-linejoin:round;stroke-miterlimit:10;" points="
					45.55,233.461 255.99,39.892 466.44,233.474 255.82,427.176 				"/>
			</g>
			<g style="display:none;">
				
					<path style="display:inline;fill:#1D1D1D;stroke:#1D1D1D;stroke-width:24.2676;stroke-linejoin:round;stroke-miterlimit:10;" d="
					M256,53.647l195.5,179.827L255.82,413.422L60.49,233.461L256,53.647 M256,26.151l-9.62,8.854L50.87,214.818l-20.26,18.629
					l20.25,18.656l195.33,179.961l9.62,8.867l9.63-8.854l195.67-179.961l20.28-18.642l-20.28-18.656L265.61,34.991L256,26.151
					L256,26.151z"/>
			</g>
		</g>
		<g id="fg_00000148653585093284083640000013825626642384707219_">
			
				<line style="fill:none;stroke:#1D1D1D;stroke-width:13.8672;stroke-miterlimit:10;" x1="152.08" y1="136.977" x2="359.9" y2="330.092"/>
			
				<line style="fill:none;stroke:#1D1D1D;stroke-width:13.8672;stroke-miterlimit:10;" x1="360.54" y1="138.219" x2="151.44" y2="328.85"/>
		</g>
	</g>
	<g>
		<g>
			<g>
				<g>
					<path style="fill:#EEEEEE;" d="M244.714,269.606c-13.667,0-24.786-11.119-24.786-24.786v-22.572
						c0-13.667,11.119-24.786,24.786-24.786h22.572c13.667,0,24.786,11.119,24.786,24.786v22.572
						c0,13.667-11.119,24.786-24.786,24.786H244.714z"/>
					<path style="fill:#1D1D1D;" d="M267.286,210.962c6.23,0,11.286,5.056,11.286,11.286v22.572c0,6.23-5.056,11.286-11.286,11.286
						h-22.572c-6.23,0-11.286-5.056-11.286-11.286v-22.572c0-6.23,5.056-11.286,11.286-11.286H267.286 M267.286,183.962h-22.572
						c-21.111,0-38.286,17.175-38.286,38.286v22.572c0,21.111,17.175,38.286,38.286,38.286h22.572
						c21.111,0,38.286-17.175,38.286-38.286v-22.572C305.572,201.137,288.397,183.962,267.286,183.962L267.286,183.962z"/>
				</g>
				<g>
					<path style="fill:#937CD8;" d="M59.056,466.715c-7.691,0-14.922-2.995-20.36-8.433c-11.227-11.227-11.227-29.494,0-40.721
						l94.07-94.071h-20.001c-15.876,0-28.793-12.917-28.793-28.793c0-15.875,12.914-28.79,28.786-28.79h89.521
						c0.94,0,1.898,0.048,2.847,0.143c0.366,0.035,0.765,0.092,1.163,0.156l0.239,0.034c0.447,0.062,0.893,0.128,1.337,0.215
						c0.462,0.092,0.884,0.195,1.304,0.305l0.289,0.072c0.391,0.095,0.78,0.194,1.166,0.312c0.437,0.133,0.838,0.273,1.238,0.42
						l0.258,0.092c0.395,0.139,0.788,0.282,1.176,0.442c0.397,0.165,0.777,0.342,1.155,0.524l0.221,0.104
						c0.396,0.184,0.789,0.372,1.176,0.578c0.364,0.195,0.712,0.4,1.058,0.612l0.25,0.149c0.382,0.224,0.76,0.452,1.13,0.701
						c0.369,0.247,0.735,0.517,1.098,0.792l0.215,0.16c0.326,0.236,0.647,0.478,0.961,0.736c0.675,0.555,1.351,1.163,1.984,1.79
						c0.037,0.035,0.073,0.071,0.109,0.107c0.654,0.655,1.291,1.359,1.893,2.093c0.247,0.3,0.487,0.621,0.723,0.947l0.147,0.197
						c0.272,0.357,0.54,0.72,0.79,1.093c0.266,0.398,0.488,0.766,0.705,1.136l0.16,0.268c0.206,0.339,0.407,0.68,0.595,1.03
						c0.202,0.374,0.395,0.774,0.581,1.178l0.118,0.249c0.182,0.378,0.359,0.758,0.52,1.147c0.151,0.363,0.292,0.747,0.426,1.133
						l0.102,0.282c0.15,0.41,0.295,0.823,0.422,1.244c0.117,0.384,0.22,0.784,0.317,1.186l0.064,0.255
						c0.111,0.428,0.216,0.855,0.303,1.294c0.086,0.428,0.157,0.891,0.22,1.354l0.036,0.249c0.063,0.392,0.119,0.783,0.158,1.183
						c0.094,0.958,0.141,1.917,0.14,2.845v89.498c0,15.876-12.917,28.793-28.793,28.793s-28.793-12.917-28.793-28.793v-20.002
						l-94.07,94.071C73.978,463.72,66.747,466.715,59.056,466.715z"/>
					<path style="fill:#1D1D1D;" d="M112.759,276.797c0.002,0,0.004,0,0.006,0h89.514c0.59,0,1.18,0.031,1.768,0.089
						c0.264,0.026,0.522,0.076,0.783,0.113c0.316,0.045,0.634,0.082,0.948,0.144c0.3,0.06,0.592,0.142,0.886,0.216
						c0.272,0.068,0.545,0.128,0.813,0.209c0.289,0.087,0.567,0.195,0.85,0.297c0.269,0.096,0.539,0.185,0.803,0.294
						c0.264,0.109,0.517,0.237,0.774,0.359c0.273,0.128,0.547,0.249,0.814,0.392c0.247,0.132,0.481,0.282,0.721,0.425
						c0.262,0.156,0.526,0.304,0.781,0.474c0.264,0.177,0.514,0.374,0.768,0.565c0.213,0.16,0.432,0.308,0.639,0.478
						c0.452,0.372,0.888,0.764,1.302,1.177c0.003,0.003,0.007,0.006,0.01,0.009c0.003,0.003,0.005,0.006,0.008,0.009
						c0.414,0.414,0.806,0.849,1.177,1.302c0.17,0.207,0.318,0.425,0.477,0.639c0.191,0.254,0.388,0.504,0.565,0.768
						c0.17,0.255,0.319,0.52,0.475,0.782c0.143,0.239,0.293,0.473,0.425,0.719c0.143,0.267,0.264,0.542,0.393,0.815
						c0.122,0.257,0.25,0.509,0.359,0.773c0.109,0.264,0.197,0.535,0.294,0.803c0.102,0.282,0.21,0.561,0.297,0.85
						c0.081,0.269,0.141,0.541,0.209,0.813c0.075,0.294,0.157,0.585,0.217,0.885c0.063,0.314,0.1,0.632,0.145,0.948
						c0.038,0.262,0.087,0.519,0.113,0.783c0.058,0.587,0.089,1.177,0.088,1.767v89.515c0,9.888-8.015,17.903-17.903,17.903
						c-9.888,0-17.903-8.015-17.903-17.903v-46.293L71.715,450.581c-3.496,3.496-8.078,5.244-12.659,5.244
						s-9.164-1.748-12.659-5.244c-6.991-6.991-6.991-18.327,0-25.319L159.058,312.6h-46.293c-9.888,0-17.903-8.015-17.903-17.903
						C94.862,284.811,102.874,276.797,112.759,276.797 M202.279,255.016h-89.514c-10.605,0-20.57,4.128-28.064,11.624
						c-7.493,7.494-11.619,17.459-11.619,28.057c0,19.892,14.711,36.412,33.825,39.252l-75.911,75.912
						c-7.495,7.495-11.623,17.461-11.623,28.061s4.128,20.566,11.623,28.061c7.495,7.495,17.461,11.623,28.061,11.623
						c10.6,0,20.566-4.128,28.061-11.623l75.911-75.911c2.84,19.114,19.361,33.825,39.252,33.825
						c21.882,0,39.684-17.802,39.684-39.684v-89.515c0.002-1.261-0.063-2.585-0.193-3.905c-0.08-0.812-0.185-1.475-0.238-1.808
						l-0.002-0.018c-0.055-0.402-0.157-1.149-0.337-2.05c-0.162-0.819-0.343-1.511-0.44-1.883l-0.009-0.035l-0.005-0.022
						c-0.085-0.35-0.242-1.002-0.482-1.796c-0.244-0.808-0.488-1.472-0.619-1.829l-0.032-0.087l-0.012-0.036
						c-0.116-0.332-0.332-0.95-0.638-1.691c-0.33-0.796-0.623-1.404-0.781-1.731l-0.02-0.042l-0.022-0.046
						c-0.162-0.35-0.463-1.001-0.879-1.775c-0.364-0.679-0.701-1.232-0.882-1.529l-0.037-0.061l-0.025-0.043
						c-0.192-0.327-0.548-0.934-1.025-1.649c-0.511-0.763-0.953-1.345-1.191-1.658l-0.015-0.02c-0.2-0.276-0.599-0.826-1.126-1.466
						c-0.771-0.94-1.6-1.86-2.453-2.723c-0.052-0.053-0.103-0.105-0.155-0.157l0,0c-0.065-0.065-0.131-0.13-0.197-0.194
						c-0.856-0.843-1.754-1.651-2.686-2.417c-0.634-0.521-1.176-0.915-1.449-1.113l-0.036-0.027
						c-0.313-0.238-0.896-0.68-1.632-1.174c-0.743-0.496-1.354-0.854-1.682-1.047l-0.048-0.028l-0.031-0.019
						c-0.306-0.187-0.876-0.534-1.605-0.924c-0.737-0.394-1.372-0.689-1.714-0.847l-0.056-0.026l-0.04-0.019
						c-0.328-0.158-0.938-0.452-1.706-0.77c-0.773-0.319-1.406-0.54-1.745-0.659l-0.05-0.018l-0.058-0.021
						c-0.353-0.129-1.009-0.37-1.824-0.616c-0.78-0.237-1.432-0.394-1.782-0.478l-0.026-0.006l-0.04-0.01
						c-0.372-0.097-1.063-0.277-1.921-0.447c-0.885-0.175-1.61-0.274-2-0.327l-0.036-0.005c-0.382-0.061-1.018-0.16-1.798-0.237
						C204.876,255.082,203.563,255.016,202.279,255.016L202.279,255.016z"/>
				</g>
				<g>
					<path style="fill:#937CD8;" d="M452.924,466.714c-7.691,0-14.922-2.995-20.36-8.435l-94.07-94.069v20.001
						c0,15.876-12.917,28.793-28.793,28.793c-15.877,0-28.794-12.917-28.794-28.793v-89.516c0-0.924,0.048-1.875,0.141-2.828
						c0.04-0.4,0.094-0.779,0.155-1.157c0.004-0.033,0.049-0.336,0.049-0.336c0.059-0.424,0.123-0.848,0.206-1.269
						c0.094-0.475,0.201-0.91,0.315-1.346l0.051-0.202c0.1-0.415,0.206-0.829,0.331-1.239c0.114-0.378,0.258-0.79,0.409-1.201
						l0.094-0.262c0.137-0.393,0.279-0.783,0.439-1.17c0.166-0.4,0.343-0.78,0.525-1.157l0.104-0.223
						c0.186-0.398,0.375-0.795,0.583-1.185c0.192-0.358,0.395-0.7,0.602-1.04l0.126-0.21c0.232-0.398,0.471-0.793,0.729-1.179
						c0.236-0.354,0.516-0.734,0.801-1.109l0.145-0.193c0.233-0.323,0.472-0.642,0.729-0.954c0.55-0.671,1.141-1.327,1.751-1.947
						c0.05-0.052,0.22-0.222,0.256-0.258c0.631-0.624,1.305-1.23,2.003-1.803c0.307-0.25,0.607-0.477,0.913-0.698l0.25-0.187
						c0.359-0.271,0.722-0.538,1.098-0.79c0.354-0.237,0.731-0.466,1.113-0.69l0.258-0.153c0.351-0.214,0.703-0.422,1.066-0.615
						c0.353-0.188,0.746-0.378,1.144-0.562l0.266-0.126c0.378-0.183,0.76-0.359,1.15-0.52c0.355-0.147,0.735-0.286,1.117-0.42
						l0.268-0.096c0.419-0.154,0.841-0.302,1.272-0.432c0.369-0.113,0.785-0.22,1.204-0.32l0.193-0.049
						c0.436-0.114,0.871-0.222,1.315-0.31c0.424-0.086,0.884-0.156,1.344-0.219l0.287-0.042c0.378-0.061,0.756-0.114,1.14-0.153
						c0.977-0.095,1.928-0.143,2.852-0.143h89.514c15.877,0,28.794,12.917,28.794,28.794c0,15.876-12.917,28.793-28.794,28.793
						h-20.001l94.071,94.069c5.438,5.438,8.434,12.669,8.434,20.36s-2.995,14.922-8.435,20.36
						C467.846,463.719,460.615,466.714,452.924,466.714z"/>
					<path style="fill:#1D1D1D;" d="M399.214,276.794c9.888,0,17.903,8.015,17.903,17.903c0,9.888-8.015,17.903-17.903,17.903
						h-46.293l112.663,112.661c6.992,6.992,6.992,18.328,0,25.319c-3.496,3.496-8.078,5.244-12.659,5.244s-9.164-1.748-12.659-5.244
						L327.603,337.918v46.293c0,9.888-8.015,17.903-17.903,17.903s-17.903-8.015-17.903-17.903v-89.516
						c0-0.589,0.031-1.179,0.089-1.767c0.026-0.265,0.076-0.522,0.113-0.783c0.046-0.316,0.083-0.634,0.145-0.948
						c0.06-0.3,0.142-0.591,0.216-0.885c0.068-0.271,0.128-0.545,0.209-0.813c0.087-0.289,0.195-0.567,0.297-0.85
						c0.096-0.269,0.185-0.539,0.294-0.803c0.11-0.263,0.237-0.516,0.359-0.773c0.128-0.273,0.25-0.548,0.393-0.815
						c0.132-0.246,0.282-0.48,0.425-0.719c0.156-0.262,0.304-0.527,0.475-0.782c0.176-0.264,0.373-0.513,0.563-0.766
						c0.16-0.214,0.308-0.433,0.479-0.641c0.369-0.45,0.759-0.881,1.168-1.292c0.006-0.006,0.012-0.013,0.018-0.019
						c0.006-0.006,0.013-0.012,0.019-0.018c0.411-0.41,0.843-0.8,1.292-1.168c0.208-0.17,0.427-0.319,0.641-0.479
						c0.253-0.19,0.502-0.386,0.766-0.563c0.255-0.17,0.52-0.319,0.782-0.475c0.239-0.143,0.473-0.293,0.719-0.425
						c0.267-0.143,0.542-0.264,0.815-0.393c0.257-0.122,0.509-0.25,0.773-0.359c0.264-0.109,0.534-0.197,0.803-0.294
						c0.282-0.102,0.561-0.21,0.85-0.297c0.269-0.081,0.541-0.141,0.813-0.209c0.295-0.075,0.585-0.157,0.885-0.216
						c0.314-0.063,0.632-0.1,0.948-0.145c0.262-0.038,0.519-0.087,0.783-0.113c0.588-0.058,1.178-0.089,1.768-0.089H399.214
						 M399.214,255.013H309.7c-1.284,0-2.597,0.065-3.902,0.194c-0.814,0.08-1.477,0.185-1.811,0.239l-0.017,0.002
						c-0.403,0.055-1.152,0.157-2.056,0.339c-0.836,0.167-1.508,0.343-1.873,0.438L300,256.235l-0.019,0.005
						c-0.351,0.085-1.006,0.243-1.802,0.484c-0.803,0.243-1.469,0.487-1.827,0.618l-0.087,0.032l-0.032,0.011
						c-0.332,0.116-0.95,0.332-1.691,0.638c-0.795,0.329-1.404,0.623-1.732,0.781l-0.042,0.02l-0.046,0.021
						c-0.35,0.162-1.001,0.463-1.775,0.879c-0.682,0.365-1.236,0.703-1.534,0.885l-0.038,0.023l-0.058,0.034
						c-0.327,0.192-0.937,0.55-1.653,1.028c-0.755,0.506-1.335,0.946-1.647,1.182l-0.031,0.023
						c-0.264,0.191-0.801,0.581-1.427,1.093c-0.948,0.778-1.843,1.582-2.685,2.41c-0.045,0.044-0.09,0.088-0.135,0.132
						c-0.034,0.033-0.067,0.067-0.101,0.1c-0.078,0.078-0.156,0.158-0.234,0.238c-0.83,0.844-1.632,1.737-2.386,2.656
						c-0.515,0.626-0.916,1.179-1.117,1.457l-0.015,0.02c-0.236,0.31-0.67,0.881-1.158,1.61v0c-0.499,0.743-0.867,1.371-1.064,1.708
						l-0.029,0.049l-0.023,0.038c-0.181,0.297-0.518,0.85-0.896,1.555c-0.412,0.771-0.706,1.405-0.864,1.746l-0.028,0.06
						l-0.021,0.044c-0.153,0.317-0.437,0.907-0.744,1.642c-0.01,0.024-0.02,0.049-0.03,0.073c-0.312,0.756-0.534,1.39-0.653,1.73
						l-0.018,0.051l-0.021,0.057c-0.129,0.353-0.37,1.009-0.616,1.824c-0.236,0.778-0.393,1.427-0.477,1.776l-0.008,0.032
						l-0.01,0.04c-0.096,0.37-0.276,1.058-0.445,1.911c-0.173,0.876-0.27,1.582-0.323,1.961l-0.009,0.066
						c-0.061,0.381-0.162,1.028-0.24,1.824c-0.128,1.294-0.193,2.607-0.193,3.891v89.516c0,21.882,17.802,39.684,39.684,39.684
						c19.892,0,36.412-14.71,39.252-33.825l75.911,75.911c7.495,7.495,17.461,11.623,28.061,11.623
						c10.6,0,20.566-4.128,28.061-11.623c7.495-7.495,11.623-17.461,11.623-28.061c0-10.6-4.128-20.566-11.623-28.061l-75.911-75.91
						c19.114-2.84,33.824-19.36,33.824-39.252C438.898,272.815,421.096,255.013,399.214,255.013L399.214,255.013z"/>
				</g>
				<g style="display:none;">
					<path style="display:inline;fill:#937CD8;" d="M309.696,216.073c-0.925,0-1.878-0.047-2.83-0.141
						c-0.401-0.04-0.782-0.094-1.161-0.155c-0.021-0.003-0.309-0.045-0.309-0.045c-0.441-0.061-0.883-0.128-1.321-0.215
						c-0.434-0.086-0.859-0.191-1.284-0.301l-0.264-0.066c-0.399-0.096-0.799-0.199-1.192-0.319
						c-0.409-0.124-0.812-0.265-1.215-0.413l-0.265-0.095c-0.392-0.137-0.781-0.279-1.165-0.438
						c-0.416-0.173-0.789-0.347-1.16-0.526l-0.241-0.114c-0.393-0.182-0.782-0.369-1.165-0.574c-0.363-0.195-0.71-0.399-1.054-0.608
						l-0.236-0.142c-0.38-0.222-0.756-0.45-1.126-0.697c-0.4-0.269-0.763-0.536-1.121-0.809l-0.133-0.101
						c-0.393-0.284-0.713-0.524-1.025-0.781c-0.686-0.562-1.363-1.173-2.002-1.805c-0.008-0.007-0.113-0.112-0.157-0.158
						c-0.634-0.638-1.252-1.323-1.838-2.038c-0.239-0.289-0.484-0.616-0.723-0.946l-0.155-0.208
						c-0.268-0.353-0.531-0.71-0.779-1.079c-0.268-0.401-0.49-0.769-0.708-1.141l-0.164-0.275c-0.207-0.339-0.408-0.681-0.596-1.032
						c-0.212-0.396-0.4-0.791-0.585-1.188l-0.098-0.208c-0.183-0.378-0.36-0.759-0.521-1.148c-0.163-0.394-0.302-0.772-0.436-1.154
						l-0.099-0.276c-0.152-0.415-0.299-0.833-0.428-1.259c-0.114-0.379-0.214-0.766-0.308-1.154l-0.074-0.294
						c-0.109-0.421-0.213-0.844-0.299-1.274c-0.093-0.475-0.16-0.922-0.221-1.371l-0.032-0.219c-0.064-0.405-0.123-0.81-0.162-1.223
						c-0.091-0.906-0.139-1.864-0.139-2.805V97.763c0-15.876,12.917-28.793,28.793-28.793s28.793,12.917,28.793,28.793v20.002
						l94.071-94.071c5.438-5.438,12.669-8.433,20.36-8.433s14.922,2.995,20.36,8.433c5.438,5.438,8.434,12.669,8.434,20.36
						s-2.995,14.922-8.435,20.361l-94.073,94.071h20.002c15.876,0,28.793,12.917,28.793,28.793
						c0,15.876-12.917,28.793-28.793,28.793H309.696z"/>
					<path style="display:inline;fill:#1D1D1D;" d="M452.924,26.151c4.582,0,9.164,1.748,12.659,5.244
						c6.991,6.991,6.991,18.327,0,25.319L352.918,169.376h46.293c9.888,0,17.903,8.015,17.903,17.903s-8.015,17.903-17.903,17.903
						h-89.516c-0.589,0-1.179-0.031-1.767-0.089c-0.265-0.026-0.522-0.076-0.783-0.113c-0.316-0.046-0.634-0.083-0.948-0.145
						c-0.3-0.06-0.591-0.142-0.885-0.217c-0.271-0.068-0.545-0.127-0.813-0.209c-0.289-0.087-0.567-0.196-0.85-0.297
						c-0.269-0.096-0.539-0.185-0.803-0.294c-0.264-0.11-0.516-0.238-0.773-0.359c-0.273-0.128-0.548-0.25-0.815-0.393
						c-0.246-0.132-0.48-0.282-0.719-0.425c-0.262-0.156-0.527-0.304-0.782-0.475c-0.264-0.177-0.514-0.374-0.768-0.565
						c-0.213-0.159-0.431-0.307-0.639-0.477c-0.453-0.372-0.888-0.764-1.302-1.177c-0.002-0.003-0.006-0.005-0.009-0.008
						c-0.003-0.003-0.006-0.007-0.009-0.01c-0.414-0.414-0.805-0.849-1.177-1.302c-0.17-0.207-0.319-0.426-0.478-0.639
						c-0.19-0.254-0.388-0.504-0.565-0.768c-0.17-0.255-0.318-0.519-0.474-0.781c-0.143-0.24-0.294-0.474-0.425-0.721
						c-0.143-0.267-0.264-0.541-0.392-0.814c-0.122-0.257-0.25-0.51-0.359-0.774c-0.109-0.264-0.197-0.535-0.294-0.803
						c-0.102-0.282-0.21-0.561-0.297-0.85c-0.081-0.269-0.141-0.542-0.209-0.813c-0.075-0.295-0.157-0.586-0.217-0.886
						c-0.062-0.315-0.099-0.632-0.144-0.948c-0.038-0.262-0.087-0.519-0.113-0.784c-0.058-0.587-0.089-1.177-0.089-1.767V97.763
						c0-9.888,8.015-17.903,17.903-17.903c9.888,0,17.903,8.015,17.903,17.903v46.294L440.265,31.394
						C443.76,27.899,448.342,26.151,452.924,26.151 M452.924,4.37c-10.6,0-20.566,4.128-28.061,11.623l-75.912,75.912
						c-2.84-19.114-19.361-33.825-39.252-33.825c-21.882,0-39.684,17.802-39.684,39.684v89.516c0,1.284,0.065,2.597,0.194,3.904
						c0.079,0.806,0.184,1.471,0.238,1.807l0.002,0.018c0.053,0.391,0.153,1.118,0.325,1.99c0.174,0.876,0.354,1.568,0.451,1.94
						l0.012,0.045l0.005,0.019c0.084,0.35,0.241,1,0.481,1.792c0.245,0.809,0.488,1.472,0.618,1.828l0.032,0.087l0.013,0.038
						c0.116,0.332,0.332,0.95,0.638,1.691c0.328,0.792,0.621,1.4,0.779,1.726l0.021,0.045l0.024,0.051
						c0.158,0.341,0.452,0.976,0.854,1.727c0.378,0.708,0.719,1.267,0.902,1.568l0.022,0.036l0.041,0.069
						c0.192,0.327,0.549,0.936,1.027,1.653c0.51,0.762,0.952,1.343,1.189,1.655l0.019,0.025c0.197,0.271,0.595,0.82,1.12,1.459
						c0.783,0.952,1.602,1.862,2.44,2.711c0.114,0.117,0.229,0.232,0.346,0.346c0.863,0.852,1.78,1.677,2.727,2.454
						c0.627,0.515,1.174,0.913,1.448,1.111l0.019,0.014c0.313,0.237,0.894,0.679,1.63,1.172c0.73,0.49,1.355,0.856,1.691,1.053
						l0.052,0.03l0.036,0.022c0.297,0.181,0.851,0.519,1.556,0.897c0.769,0.411,1.402,0.705,1.742,0.862l0.06,0.028l0.048,0.023
						c0.316,0.152,0.905,0.436,1.638,0.742c0.028,0.012,0.055,0.023,0.083,0.034c0.753,0.311,1.385,0.532,1.724,0.65l0.051,0.018
						l0.055,0.02c0.353,0.129,1.009,0.37,1.825,0.616c0.778,0.236,1.43,0.393,1.781,0.478l0.025,0.006l0.035,0.009
						c0.371,0.097,1.061,0.277,1.916,0.447c0.875,0.173,1.583,0.271,1.964,0.323l0.065,0.009c0.381,0.061,1.028,0.163,1.824,0.241
						c1.297,0.128,2.609,0.193,3.892,0.193h89.516c21.882,0,39.684-17.802,39.684-39.684c0-19.892-14.71-36.412-33.824-39.252
						l75.914-75.912c15.473-15.473,15.473-40.649,0-56.122C473.49,8.498,463.524,4.37,452.924,4.37L452.924,4.37z"/>
				</g>
				<g style="display:none;">
					<path style="display:inline;fill:#937CD8;" d="M112.765,216.072c-15.876,0-28.793-12.917-28.793-28.793
						c0-15.876,12.917-28.793,28.793-28.793h20.002L38.696,64.414c-11.227-11.227-11.226-29.494,0-40.72
						c5.438-5.438,12.669-8.434,20.36-8.434s14.922,2.995,20.36,8.434l94.071,94.07V97.763c0-15.876,12.917-28.793,28.793-28.793
						c7.691,0,14.922,2.995,20.36,8.434c5.438,5.438,8.433,12.669,8.432,20.361v89.514c0,0.929-0.048,1.884-0.142,2.839
						c-0.038,0.388-0.094,0.778-0.156,1.167l-0.035,0.239c-0.062,0.456-0.13,0.911-0.22,1.363c-0.089,0.447-0.195,0.878-0.307,1.308
						l-0.061,0.242c-0.098,0.404-0.201,0.807-0.322,1.206c-0.121,0.399-0.265,0.812-0.416,1.223l-0.091,0.256
						c-0.138,0.393-0.28,0.784-0.44,1.17c-0.16,0.388-0.336,0.766-0.517,1.141l-0.119,0.25c-0.183,0.395-0.371,0.786-0.576,1.171
						c-0.189,0.354-0.396,0.704-0.608,1.053l-0.15,0.252c-0.22,0.374-0.444,0.744-0.687,1.108c-0.259,0.387-0.531,0.756-0.809,1.122
						l-0.155,0.208c-0.233,0.321-0.471,0.638-0.725,0.947c-1.188,1.448-2.537,2.798-4.001,4c-0.294,0.243-0.619,0.486-0.947,0.724
						l-0.213,0.159c-0.365,0.277-0.734,0.549-1.115,0.803c-0.353,0.236-0.727,0.462-1.103,0.684l-0.276,0.165
						c-0.338,0.206-0.679,0.407-1.029,0.594c-0.39,0.208-0.778,0.395-1.17,0.576l-0.243,0.115c-0.378,0.182-0.759,0.359-1.147,0.52
						c-0.377,0.156-0.756,0.294-1.138,0.428l-0.275,0.099c-0.411,0.15-0.824,0.296-1.246,0.423c-0.389,0.118-0.789,0.221-1.19,0.318
						l-0.256,0.064c-0.427,0.111-0.854,0.216-1.29,0.303c-0.452,0.089-0.904,0.158-1.357,0.22l-0.249,0.036
						c-0.392,0.063-0.785,0.119-1.184,0.158c-0.941,0.093-1.896,0.141-2.829,0.141H112.765z"/>
					<path style="display:inline;fill:#1D1D1D;" d="M59.056,26.151c4.582,0,9.164,1.748,12.659,5.244l112.663,112.662V97.763
						c0-9.888,8.015-17.903,17.903-17.903c9.888,0,17.903,8.015,17.901,17.903v89.516c0,0.59-0.031,1.18-0.089,1.768
						c-0.026,0.264-0.076,0.522-0.113,0.783c-0.045,0.316-0.082,0.634-0.144,0.948c-0.06,0.3-0.142,0.592-0.216,0.886
						c-0.068,0.272-0.128,0.545-0.209,0.813c-0.087,0.289-0.196,0.567-0.297,0.85c-0.096,0.269-0.185,0.539-0.294,0.803
						c-0.109,0.264-0.238,0.517-0.359,0.774c-0.128,0.273-0.249,0.547-0.392,0.814c-0.132,0.247-0.282,0.481-0.426,0.721
						c-0.156,0.262-0.304,0.526-0.474,0.781c-0.177,0.265-0.374,0.515-0.566,0.77c-0.159,0.212-0.307,0.43-0.477,0.637
						c-0.749,0.913-1.586,1.75-2.498,2.498c-0.206,0.17-0.425,0.317-0.637,0.477c-0.255,0.19-0.504,0.389-0.77,0.566
						c-0.255,0.17-0.519,0.318-0.781,0.474c-0.24,0.143-0.474,0.294-0.721,0.425c-0.267,0.143-0.541,0.264-0.814,0.392
						c-0.257,0.122-0.51,0.25-0.774,0.359c-0.264,0.109-0.535,0.197-0.803,0.294c-0.282,0.102-0.561,0.21-0.85,0.297
						c-0.269,0.081-0.542,0.141-0.813,0.209c-0.295,0.075-0.586,0.157-0.886,0.217c-0.315,0.062-0.632,0.099-0.948,0.144
						c-0.261,0.038-0.519,0.087-0.783,0.113c-0.587,0.058-1.177,0.089-1.766,0.089h-89.516c-9.888,0-17.903-8.015-17.903-17.903
						c0-9.887,8.015-17.903,17.903-17.903h46.294L46.397,56.713c-6.991-6.991-6.991-18.327,0-25.319
						C49.892,27.899,54.474,26.151,59.056,26.151 M59.056,4.37c-10.6,0-20.566,4.128-28.061,11.623
						C23.5,23.488,19.372,33.454,19.372,44.054c0,10.6,4.128,20.566,11.623,28.061l75.911,75.911
						c-19.114,2.84-33.825,19.361-33.825,39.252c0,21.882,17.802,39.684,39.684,39.684h89.516c1.284,0,2.598-0.065,3.904-0.194
						c0.812-0.08,1.477-0.185,1.81-0.239l0.019-0.003c0.389-0.053,1.113-0.152,1.98-0.323c0.881-0.175,1.573-0.355,1.945-0.452
						l0.044-0.011l0.02-0.005c0.349-0.084,1-0.241,1.792-0.481c0.809-0.245,1.471-0.487,1.827-0.618l0.087-0.032l0.041-0.014
						c0.333-0.116,0.951-0.333,1.695-0.64c0.784-0.325,1.395-0.619,1.724-0.777l0.042-0.02l0.05-0.023
						c0.342-0.158,0.977-0.453,1.729-0.854c0.707-0.377,1.269-0.72,1.571-0.904l0.034-0.021l0.066-0.039
						c0.328-0.192,0.938-0.55,1.656-1.03c0.743-0.496,1.326-0.939,1.64-1.177l0.037-0.028c0.32-0.232,0.861-0.627,1.493-1.148
						c2-1.646,3.844-3.493,5.483-5.492c0.508-0.618,0.899-1.156,1.093-1.425l0.02-0.027c0.243-0.32,0.695-0.915,1.2-1.67
						c0.478-0.715,0.835-1.325,1.028-1.653l0.028-0.048l0.019-0.031c0.187-0.306,0.534-0.875,0.923-1.604
						c0.397-0.742,0.69-1.376,0.848-1.717l0.026-0.055l0.019-0.039c0.158-0.327,0.451-0.936,0.768-1.701
						c0.322-0.78,0.542-1.411,0.661-1.751l0.018-0.05l0.021-0.057c0.13-0.354,0.371-1.012,0.618-1.83
						c0.235-0.776,0.392-1.428,0.477-1.778l0.007-0.028l0.01-0.037c0.097-0.372,0.277-1.064,0.447-1.923
						c0.174-0.882,0.273-1.607,0.326-1.996l0.005-0.039c0.061-0.381,0.16-1.019,0.237-1.799c0.128-1.303,0.194-2.616,0.194-3.9
						V97.763c0.002-10.597-4.125-20.564-11.621-28.06c-7.495-7.496-17.461-11.624-28.061-11.624
						c-19.892,0-36.412,14.711-39.252,33.825L87.117,15.993C79.622,8.498,69.656,4.37,59.056,4.37L59.056,4.37z"/>
				</g>
			</g>
		</g>
	</g>
</g>
<g id="Layer_1">
</g>
</svg>
