<?xml version="1.0" encoding="iso-8859-1"?>
<!-- Generator: Adobe Illustrator 27.7.0, SVG Export Plug-In . SVG Version: 6.00 Build 0)  -->
<svg version="1.1" xmlns="http://www.w3.org/2000/svg" xmlns:xlink="http://www.w3.org/1999/xlink" x="0px" y="0px"
	 viewBox="0 0 512 512" style="enable-background:new 0 0 512 512;" xml:space="preserve">
<g id="util_x5F_convert_x5F_loc">
	<g>
		<polygon style="fill:#52A2AC;" points="233.771,475.435 233.771,293.037 105.701,372.277 84.56,338.105 217.81,255.656 
			84.56,173.207 105.701,139.034 233.771,218.274 233.771,36.566 278.23,36.566 278.23,218.274 406.3,139.034 427.44,173.207 
			294.189,255.656 427.44,338.105 406.3,372.277 278.23,293.037 278.23,475.435 		"/>
		<path style="fill:#2B2B2B;" d="M271.013,43.783v187.444l132.946-82.257l13.547,21.897l-137.033,84.789l137.033,84.789
			l-13.547,21.897l-132.946-82.257v188.133h-30.025V280.084l-132.946,82.257l-13.547-21.897l137.033-84.789L94.494,170.867
			l13.547-21.897l132.946,82.257V43.783H271.013 M285.448,29.348h-14.435h-30.025h-14.435v14.435v161.538l-110.916-68.627
			l-12.276-7.595l-7.595,12.276l-13.547,21.897l-7.594,12.275l12.274,7.595l117.194,72.514L86.899,328.17l-12.274,7.595
			l7.594,12.275l13.547,21.897l7.595,12.276l12.276-7.595l110.916-68.627v162.227v14.435h14.435h30.025h14.435v-14.435V305.99
			l110.916,68.627l12.276,7.595l7.595-12.276l13.547-21.897l7.594-12.275l-12.274-7.595l-117.194-72.514l117.194-72.514
			l12.274-7.595l-7.594-12.275l-13.547-21.897l-7.595-12.276l-12.276,7.595l-110.916,68.627V43.783V29.348L285.448,29.348z"/>
	</g>
</g>
<g id="Layer_1">
</g>
</svg>
