<?xml version="1.0" encoding="iso-8859-1"?>
<!-- Generator: Adobe Illustrator 27.7.0, SVG Export Plug-In . SVG Version: 6.00 Build 0)  -->
<svg version="1.1" xmlns="http://www.w3.org/2000/svg" xmlns:xlink="http://www.w3.org/1999/xlink" x="0px" y="0px"
	 viewBox="0 0 512 512" style="enable-background:new 0 0 512 512;" xml:space="preserve">
<g id="util_x5F_resource_x5F_browser">
	<g>
		<path style="fill:#BDBDBD;" d="M235.119,451.214V235.868h214.982v215.346H235.119z M399.354,401.42V285.651H285.877V401.42
			H399.354z"/>
		<path style="fill:#1D1D1D;" d="M438.602,247.368v192.346H246.619V247.368H438.602 M274.377,412.92h136.477V274.152H274.377V412.92
			 M461.602,224.368h-23H246.619h-23v23v192.346v23h23h191.982h23v-23V247.368V224.368L461.602,224.368z M297.377,297.152h90.477
			v92.768h-90.477V297.152L297.377,297.152z"/>
	</g>
	<g>
		<path style="fill:#52A2AC;" d="M247.388,373.842c-59.742,0-111.138-42.551-122.208-101.176l-3.377-17.888l17.604,4.633
			c8.171,2.15,16.631,3.24,25.145,3.24c54.321,0,98.515-44.193,98.515-98.515c0-7.54-0.854-15.048-2.536-22.316l-4.107-17.735
			l17.78,3.909c27.248,5.991,52.003,21.271,69.705,43.024c17.964,22.075,27.857,49.934,27.857,78.445
			C371.766,318.046,315.97,373.842,247.388,373.842z"/>
		<path style="fill:#1D1D1D;" d="M271.734,139.226c50.637,11.133,88.532,56.256,88.532,110.238
			c0,62.341-50.537,112.878-112.878,112.878c-55.14,0-101.038-39.539-110.907-91.81c8.962,2.358,18.369,3.62,28.071,3.62
			c60.76,0,110.015-49.255,110.015-110.015C274.567,155.569,273.587,147.23,271.734,139.226 M241.116,108.945l8.21,35.468
			c1.487,6.423,2.241,13.059,2.241,19.724c0,47.98-39.035,87.015-87.015,87.015c-7.525,0-15-0.963-22.218-2.862l-35.208-9.265
			l6.755,35.775c12.094,64.053,68.242,110.543,133.508,110.543c36.294,0,70.417-14.134,96.081-39.798
			c25.664-25.664,39.798-59.786,39.798-96.081c0-31.147-10.81-61.584-30.438-85.704c-19.335-23.76-46.381-40.451-76.156-46.997
			L241.116,108.945L241.116,108.945z"/>
	</g>
	<g>
		<path style="fill:#BDBDBD;" d="M164.552,285.651c-67.004,0-121.515-54.511-121.515-121.515
			c0-67.004,54.511-121.515,121.515-121.515c67.003,0,121.515,54.511,121.515,121.515
			C286.066,231.14,231.555,285.651,164.552,285.651z M164.552,92.99c-39.23,0-71.146,31.916-71.146,71.146
			s31.916,71.146,71.146,71.146s71.146-31.916,71.146-71.146S203.782,92.99,164.552,92.99z"/>
		<path style="fill:#1D1D1D;" d="M164.552,54.122c60.76,0,110.015,49.255,110.015,110.015s-49.255,110.015-110.015,110.015
			S54.537,224.896,54.537,164.137S103.792,54.122,164.552,54.122 M164.552,246.783c45.644,0,82.646-37.002,82.646-82.646
			S210.196,81.49,164.552,81.49c-45.644,0-82.646,37.002-82.646,82.646S118.907,246.783,164.552,246.783 M164.552,31.122
			c-35.53,0-68.933,13.836-94.056,38.959c-25.123,25.123-38.959,58.526-38.959,94.056s13.836,68.933,38.959,94.056
			c25.123,25.123,58.526,38.959,94.056,38.959s68.933-13.836,94.056-38.959s38.959-58.526,38.959-94.056
			s-13.836-68.933-38.959-94.056C233.484,44.958,200.081,31.122,164.552,31.122L164.552,31.122z M164.552,223.783
			c-32.889,0-59.646-26.757-59.646-59.646s26.757-59.646,59.646-59.646s59.646,26.757,59.646,59.646
			S197.441,223.783,164.552,223.783L164.552,223.783z"/>
	</g>
</g>
<g id="Layer_1">
</g>
</svg>
