<?xml version="1.0" encoding="iso-8859-1"?>
<!-- Generator: Adobe Illustrator 27.7.0, SVG Export Plug-In . SVG Version: 6.00 Build 0)  -->
<svg version="1.1" xmlns="http://www.w3.org/2000/svg" xmlns:xlink="http://www.w3.org/1999/xlink" x="0px" y="0px"
	 viewBox="0 0 512 512" style="enable-background:new 0 0 512 512;" xml:space="preserve">
<g id="util_x5F_reset_x5F_transforms">
	<g>
		<g>
			<polygon style="fill:#FFBB63;" points="259.05,310.062 252.95,310.062 100.167,436.098 70.337,399.653 232.649,265.752 
				232.649,53.158 279.666,53.158 279.666,266.005 441.662,399.653 411.833,436.098 			"/>
			<path style="fill:#1D1D1D;" d="M275.238,57.586v210.507l160.203,132.169l-24.219,29.591l-150.581-124.22h-9.281l-150.581,124.22
				l-24.219-29.591L237.078,267.84V57.586H275.238 M284.095,48.729h-8.857h-38.16h-8.857v8.857v206.078L70.923,393.43l-6.806,5.614
				l5.588,6.827l24.219,29.591l5.631,6.88l6.859-5.658L254.541,314.49h2.917l148.127,122.195l6.859,5.658l5.631-6.88l24.219-29.591
				l5.588-6.827l-6.805-5.614L284.095,263.918V57.586V48.729L284.095,48.729z"/>
		</g>
		<g>
			<path style="fill:#BDBDBD;" d="M254.895,407.1c-68.718,0-124.625-56.122-124.625-125.105s55.906-125.105,124.625-125.105
				c68.719,0,124.626,56.122,124.626,125.105S323.613,407.1,254.895,407.1z M254.895,196.875c-46.736,0-84.758,38.185-84.758,85.12
				c0,46.936,38.022,85.119,84.758,85.119c46.736,0,84.759-38.184,84.759-85.119C339.653,235.059,301.631,196.875,254.895,196.875z"
				/>
			<path style="fill:#1D1D1D;" d="M254.895,161.95c66.033,0,119.564,53.746,119.564,120.044s-53.531,120.044-119.564,120.044
				s-119.564-53.746-119.564-120.044S188.861,161.95,254.895,161.95 M254.895,372.174c49.606,0,89.82-40.375,89.82-90.181
				s-40.214-90.181-89.82-90.181c-49.606,0-89.82,40.375-89.82,90.181S205.289,372.174,254.895,372.174 M254.895,151.828
				c-34.648,0-67.22,13.545-91.716,38.139c-24.485,24.584-37.97,57.266-37.97,92.027c0,34.761,13.485,67.444,37.97,92.027
				c24.496,24.594,57.068,38.139,91.716,38.139s67.22-13.545,91.716-38.139c24.485-24.584,37.97-57.266,37.97-92.027
				c0-34.761-13.485-67.444-37.97-92.027C322.115,165.372,289.543,151.828,254.895,151.828L254.895,151.828z M254.895,362.052
				c-43.945,0-79.698-35.914-79.698-80.058s35.752-80.058,79.698-80.058s79.698,35.914,79.698,80.058
				S298.84,362.052,254.895,362.052L254.895,362.052z"/>
		</g>
		<g>
			<path style="fill:#BDBDBD;" d="M254.895,324.376c-24.859,0-45.083-20.297-45.083-45.245c0-24.947,20.224-45.244,45.083-45.244
				c24.859,0,45.084,20.296,45.084,45.244C299.979,304.079,279.754,324.376,254.895,324.376z"/>
			<path style="fill:#1D1D1D;" d="M254.895,238.948c22.104,0,40.022,17.991,40.022,40.183c0,22.193-17.919,40.183-40.022,40.183
				c-22.104,0-40.022-17.991-40.022-40.183C214.872,256.939,232.791,238.948,254.895,238.948 M254.895,228.826
				c-27.65,0-50.144,22.567-50.144,50.305c0,27.738,22.495,50.305,50.144,50.305s50.144-22.567,50.144-50.305
				C305.039,251.393,282.544,228.826,254.895,228.826L254.895,228.826z"/>
		</g>
	</g>
</g>
<g id="Layer_1">
</g>
</svg>
