<?xml version="1.0" encoding="iso-8859-1"?>
<!-- Generator: Adobe Illustrator 27.7.0, SVG Export Plug-In . SVG Version: 6.00 Build 0)  -->
<svg version="1.1" xmlns="http://www.w3.org/2000/svg" xmlns:xlink="http://www.w3.org/1999/xlink" x="0px" y="0px"
	 viewBox="0 0 512 512" style="enable-background:new 0 0 512 512;" xml:space="preserve">
<g id="util_x5F_joint_x5F_to_x5F_label">
	<g>
		
			<ellipse transform="matrix(0.3827 -0.9239 0.9239 0.3827 123.66 432.7782)" style="fill:#52A2AC;" cx="385.679" cy="123.854" rx="93.325" ry="93.324"/>
		<path style="fill:#1D1D1D;" d="M385.679,40.029c46.295,0,83.825,37.53,83.825,83.825s-37.53,83.825-83.825,83.825
			s-83.825-37.53-83.825-83.825S339.384,40.029,385.679,40.029 M385.679,21.029c-56.698,0-102.825,46.127-102.825,102.825
			s46.127,102.825,102.825,102.825s102.825-46.127,102.825-102.825S442.377,21.029,385.679,21.029L385.679,21.029z"/>
	</g>
	<polygon style="fill:#BDBDBD;stroke:#1D1D1D;stroke-width:20;stroke-miterlimit:10;" points="285.15,277.176 203.62,358.71 
		149.176,304.278 230.715,222.74 188.069,180.094 347.387,160.508 327.8,319.821 	"/>
	<g>
		<circle style="fill:#BDBDBD;" cx="127.109" cy="384" r="93.325"/>
		<path style="fill:#1D1D1D;" d="M127.109,300.175c46.295,0,83.825,37.53,83.825,83.825s-37.53,83.825-83.825,83.825
			S43.285,430.295,43.285,384S80.814,300.175,127.109,300.175 M127.109,281.175c-56.698,0-102.825,46.127-102.825,102.825
			s46.127,102.825,102.825,102.825S229.934,440.698,229.934,384S183.807,281.175,127.109,281.175L127.109,281.175z"/>
	</g>
</g>
<g id="Layer_1">
</g>
</svg>
