<?xml version="1.0" encoding="iso-8859-1"?>
<!-- Generator: Adobe Illustrator 27.7.0, SVG Export Plug-In . SVG Version: 6.00 Build 0)  -->
<svg version="1.1" xmlns="http://www.w3.org/2000/svg" xmlns:xlink="http://www.w3.org/1999/xlink" x="0px" y="0px"
	 viewBox="0 0 512 512" style="enable-background:new 0 0 512 512;" xml:space="preserve">
<g id="util_x5F_reset_x5F_jnt_x5F_display">
	<g>
		<g>
			<g>
				<path style="fill-rule:evenodd;clip-rule:evenodd;fill:#52A2AC;" d="M334.025,133.333c-27.307,0-49.493-22.187-49.493-49.493
					s22.187-49.707,49.493-49.707s49.493,22.187,49.493,49.493S361.332,133.333,334.025,133.333z"/>
				<g>
					<path style="fill:#1D1D1D;" d="M334.025,42.667c22.613,0,40.96,18.347,40.96,40.96s-18.347,40.96-40.96,40.96
						c-22.613,0-40.96-18.347-40.96-40.96S311.198,42.667,334.025,42.667 M334.025,25.6c-32,0-58.027,26.027-58.027,58.027
						s26.027,58.027,58.027,58.027s58.027-26.027,58.027-58.027S366.025,25.6,334.025,25.6L334.025,25.6z"/>
				</g>
			</g>
			<g>
				<path style="fill-rule:evenodd;clip-rule:evenodd;fill:#52A2AC;" d="M153.332,274.773c-2.133,0-4.48-0.853-5.973-2.56
					c-2.773-2.773-3.2-7.253-1.067-10.667L250.825,98.773c1.493-2.133,3.627-3.627,6.187-3.84c0.213,0,0.64,0,0.853,0
					c2.347,0,4.48,0.853,5.973,2.56l58.667,58.667c1.92,1.92,2.773,4.48,2.347,7.04c-0.213,2.56-1.707,4.907-3.84,6.187
					L157.598,273.493C156.532,274.347,154.825,274.773,153.332,274.773z"/>
				<g>
					<path style="fill:#1D1D1D;" d="M258.078,103.467l58.667,58.667L153.332,266.24L258.078,103.467 M258.078,86.4
						c-0.64,0-1.28,0-1.92,0c-5.12,0.64-9.813,3.413-12.587,7.68L138.825,256.853c-4.267,6.827-3.413,15.573,2.347,21.333
						c3.2,3.413,7.68,5.12,12.16,5.12c3.2,0,6.4-0.853,9.173-2.773l163.413-104.107c4.267-2.773,7.253-7.467,7.893-12.587
						c0.64-5.12-1.28-10.24-4.907-13.867l-58.88-58.667C266.825,88.107,262.558,86.4,258.078,86.4L258.078,86.4z"/>
				</g>
			</g>
			<g>
				<path style="fill-rule:evenodd;clip-rule:evenodd;fill:#BDBDBD;" d="M133.492,334.72c-27.307,0-49.493-22.187-49.493-49.493
					s22.187-49.493,49.493-49.493s49.493,22.187,49.493,49.493C183.198,312.533,160.798,334.72,133.492,334.72z"/>
				<g>
					<path style="fill:#1D1D1D;" d="M133.492,244.267c22.613,0,40.96,18.347,40.96,40.96s-18.347,40.96-40.96,40.96
						s-40.96-18.347-40.96-40.96S110.878,244.267,133.492,244.267 M133.492,227.2c-32,0-58.027,26.027-58.027,58.027
						s26.027,58.027,58.027,58.027s58.027-26.027,58.027-58.027S165.705,227.2,133.492,227.2L133.492,227.2z"/>
				</g>
			</g>
			<g>
				<path style="fill-rule:evenodd;clip-rule:evenodd;fill:#BDBDBD;" d="M316.105,474.453c-1.493,0-3.2-0.427-4.693-1.28
					L148.638,368.427c-2.133-1.493-3.627-3.627-3.84-6.187c-0.213-2.56,0.64-5.12,2.347-7.04l58.88-58.667
					c1.707-1.707,3.84-2.56,5.973-2.56c0.213,0,0.64,0,0.853,0c2.56,0.213,4.907,1.707,6.187,3.84l104.107,163.413
					c2.133,3.413,1.707,7.893-1.28,10.667C320.372,473.6,318.238,474.453,316.105,474.453z"/>
				<g>
					<path style="fill:#1D1D1D;" d="M211.998,302.507L316.105,465.92L153.332,361.173L211.998,302.507 M211.998,285.44
						c-4.48,0-8.747,1.707-12.16,4.907l-58.667,58.667c-3.627,3.627-5.547,8.747-4.907,13.867c0.64,5.12,3.413,9.813,7.68,12.587
						l162.773,104.747c2.773,1.92,5.973,2.773,9.173,2.773c4.48,0,8.747-1.707,11.947-4.907c5.76-5.76,6.613-14.507,2.347-21.333
						L226.079,293.333c-2.773-4.267-7.467-7.253-12.587-7.893C213.278,285.44,212.638,285.44,211.998,285.44L211.998,285.44z"/>
				</g>
			</g>
		</g>
	</g>
</g>
<g id="Layer_1">
</g>
</svg>
