<?xml version="1.0" encoding="iso-8859-1"?>
<!-- Generator: Adobe Illustrator 27.7.0, SVG Export Plug-In . SVG Version: 6.00 Build 0)  -->
<svg version="1.1" xmlns="http://www.w3.org/2000/svg" xmlns:xlink="http://www.w3.org/1999/xlink" x="0px" y="0px"
	 viewBox="0 0 512 512" style="enable-background:new 0 0 512 512;" xml:space="preserve">
<g id="util_x5F_convert_x5F_joint_x5F_mesh">
	<path style="display:none;fill:#666666;" d="M267.66,366.68c-1.79,0.01-2.85,0.02-2.85,0.02l-0.01-0.04
		C265.92,366.67,266.88,366.68,267.66,366.68z"/>
	<path style="display:none;fill:#666666;" d="M267.95,366.68c0.55-0.01,1.15-0.01,1.81-0.01l-0.01,0.03
		C269.75,366.7,269.1,366.69,267.95,366.68z"/>
	<path style="display:none;fill:#666666;" d="M274.74,337.01l-0.01,0.05c-2.64-0.13-5.13-0.19-7.45-0.2
		C270.02,336.85,272.52,336.91,274.74,337.01z"/>
	<g>
		<linearGradient id="SVGID_1_" gradientUnits="userSpaceOnUse" x1="257.8074" y1="104.896" x2="257.8074" y2="433.4344">
			<stop  offset="0.7542" style="stop-color:#BDBDBD"/>
			<stop  offset="0.7771" style="stop-color:#52A2AC"/>
		</linearGradient>
		<path style="fill:url(#SVGID_1_);" d="M313.273,470.771c-3.289,0-6.403-0.41-9.521-1.254c-7.676-2.095-19.773-8.468-19.589-16.661
			c0.049-1.972,0.917-3.819,2.578-5.501c2.233-2.233,6.341-3.564,12.025-5.407c14.188-4.599,26.873-9.698,26.239-21.425
			c-1.275-23.617-21.793-26.39-25.894-26.706c-4.818-0.372-14.249-0.579-27.355-0.601v54.048h-30.489v-54.038
			c-8.733,0.037-18.85,0.177-24.268,0.591c-4.098,0.316-24.616,3.089-25.891,26.705c-0.633,11.728,12.05,16.827,26.239,21.426
			c5.685,1.843,9.792,3.174,12.009,5.391c1.678,1.698,2.545,3.546,2.594,5.507c0.185,8.204-11.913,14.577-19.582,16.67
			c-3.125,0.846-6.241,1.256-9.533,1.256c-4.139,0-7.862-0.676-10.581-1.169c-7.394-1.347-14.396-3.941-21.409-7.931
			c-5.794-3.299-34.737-20.96-35.547-44.818c-0.779-22.836,27.314-40.822,83.5-53.458c7.337-1.652,14.878-2.85,22.467-3.569v-61.359
			c-0.351-0.002-0.708-0.003-1.069-0.003c-15.459,0-31.467,1.703-47.579,5.063c-19.46,4.054-35.014,9.733-48.737,14.745
			c-12.204,4.456-22.743,8.305-32.587,9.624c-1.302,0.177-2.543,0.267-3.683,0.267c-7.601,0-12.229-4.044-13.032-11.386
			c-0.88-8.013,7.29-15.746,25.711-24.335c17.106-7.976,36.331-13.497,41.816-15c20.862-5.718,42.831-8.617,65.293-8.617
			c4.575,0,9.223,0.121,13.866,0.361v-58.049c-2.37-0.062-4.722-0.093-7.114-0.093c-15.693,0-31.939,1.372-48.285,4.078
			c-22.674,3.751-40.844,9.352-56.875,14.292c-14.177,4.37-26.42,8.143-37.731,9.246c-1.195,0.117-2.341,0.176-3.405,0.176
			c-11.959,0-14.455-7.676-14.878-12.252c-0.787-8.524,8.792-16.47,30.144-25.007c19.927-7.967,42.243-13.268,48.607-14.703
			c21.507-4.849,44.018-7.308,66.908-7.308c7.454,0,15.047,0.262,22.629,0.78v-57.814c-4.402-0.174-8.704-0.26-13.055-0.26
			c-16.599,0-33.769,1.268-51.035,3.769c-24.383,3.531-43.906,8.85-61.131,13.542c-15.189,4.139-28.307,7.712-40.389,8.727
			c-1.224,0.104-2.401,0.157-3.493,0.157c-12.001,0-15.209-6.452-15.788-11.864c-0.896-8.37,9.36-16.05,32.274-24.169
			c21.365-7.57,45.266-12.564,52.083-13.915c22.726-4.511,46.494-6.798,70.644-6.798c9.83,0,19.864,0.38,29.89,1.13V38.417h30.489
			v54.634c10.894-0.885,21.794-1.333,32.466-1.333c24.155,0,47.929,2.288,70.66,6.8c6.814,1.35,30.716,6.345,52.081,13.915
			c22.915,8.119,33.17,15.799,32.274,24.169c-0.578,5.412-3.786,11.863-15.786,11.863c-0.001,0-0.001,0-0.002,0
			c-1.093,0-2.269-0.053-3.496-0.157c-12.078-1.014-25.196-4.588-40.386-8.727c-17.225-4.693-36.748-10.012-61.131-13.542
			c-17.261-2.5-34.436-3.768-51.049-3.768c-6.247,0-11.552,0.179-15.632,0.37v57.925c8.621-0.667,17.25-1.005,25.714-1.005
			c22.879,0,45.392,2.46,66.913,7.312c6.365,1.435,28.682,6.736,48.608,14.703c21.353,8.537,30.931,16.483,30.144,25.006
			c-0.424,4.577-2.919,12.253-14.878,12.253c-1.063,0-2.21-0.059-3.406-0.176c-11.312-1.103-23.56-4.877-37.741-9.248
			c-16.03-4.94-34.199-10.539-56.864-14.29c-16.344-2.706-32.603-4.077-48.323-4.077c-3.391,0-6.745,0.062-10.166,0.189v58.122
			c5.666-0.355,11.336-0.535,16.909-0.535c22.475,0,44.458,2.901,65.341,8.622c5.484,1.503,24.709,7.024,41.815,15
			c18.422,8.589,26.592,16.322,25.712,24.336c-0.803,7.341-5.432,11.385-13.032,11.385c-1.14,0-2.38-0.09-3.688-0.268
			c-9.839-1.318-20.378-5.167-32.582-9.623c-13.723-5.012-29.276-10.691-48.736-14.745c-16.126-3.36-32.122-5.063-47.545-5.063
			c-1.388,0-2.778,0.014-4.194,0.041v61.054c8.622,0.67,17.202,1.957,25.558,3.837c55.561,12.495,83.335,30.481,82.551,53.459
			c-0.845,24.896-31.146,42.852-34.598,44.816c-7.014,3.991-14.016,6.585-21.406,7.931
			C321.132,470.096,317.401,470.771,313.273,470.771z"/>
		<path style="fill:#2B2B2B;" d="M267.781,42.394v54.992c12.944-1.19,25.104-1.691,36.441-1.691c28.938,0,52.493,3.271,69.886,6.724
			c27.695,5.487,82.653,19.959,81.177,33.761c-0.627,5.874-4.771,8.31-11.835,8.31c-0.996,0-2.05-0.048-3.16-0.142
			c-24.901-2.09-54.765-15.506-101.283-22.242c-20.772-3.009-38.257-3.809-51.616-3.809c-8.127,0-14.728,0.296-19.609,0.571v66.023
			c10.47-0.946,20.374-1.353,29.689-1.353c27.381,0,49.646,3.519,66.039,7.214c25.798,5.816,76.996,21.072,75.667,35.465
			c-0.565,6.11-4.386,8.643-10.92,8.643c-0.949,0-1.956-0.053-3.018-0.157c-23.185-2.261-51.028-16.335-94.342-23.503
			c-19.821-3.281-36.425-4.131-48.973-4.131c-5.524,0-10.263,0.165-14.142,0.359v66.193c7.278-0.57,14.241-0.825,20.882-0.824
			c27.086,0,48.775,4.23,64.294,8.481c22.185,6.077,66.102,21.618,64.625,35.067c-0.604,5.524-3.767,7.842-9.079,7.842
			c-0.98,0-2.033-0.079-3.156-0.231c-20.004-2.681-43.746-16.551-81.04-24.321c-20.494-4.27-37.05-5.147-48.359-5.147
			c-3.134,0-5.867,0.067-8.167,0.149v68.64c8.395,0.477,18.107,1.624,28.661,3.999c33.341,7.497,80.37,22.454,79.45,49.444
			c-0.648,19.084-21.357,35.102-32.591,41.497c-5.032,2.863-11.735,5.941-20.152,7.475c-2.925,0.529-6.207,1.105-9.874,1.105
			c-2.628,0-5.453-0.296-8.484-1.116c-7.702-2.102-16.767-7.691-16.653-12.734c0.023-0.897,0.466-1.818,1.431-2.794
			c5.373-5.373,40.6-7.759,39.407-29.842c-1.193-22.095-17.914-29.558-29.558-30.456c-6.553-0.507-19.732-0.614-30.001-0.614
			c-0.554,0-1.1,0-1.636,0.001v54.049h-22.538V389.24c-10.031,0.011-22.299,0.136-28.547,0.613
			c-11.644,0.897-28.365,8.361-29.558,30.456c-1.193,22.083,34.034,24.469,39.407,29.842c0.966,0.977,1.409,1.897,1.431,2.794
			c0.114,5.044-8.951,10.633-16.653,12.734c-3.031,0.821-5.858,1.116-8.487,1.116c-3.668,0-6.952-0.576-9.87-1.105
			c-8.418-1.534-15.12-4.612-20.152-7.475c-11.235-6.395-32.892-22.413-33.54-41.497c-0.92-26.991,47.058-41.947,80.398-49.444
			c9.281-2.09,17.914-3.226,25.571-3.794v-68.935c-1.544-0.035-3.23-0.057-5.054-0.057c-11.308,0-27.879,0.872-48.383,5.147
			c-37.294,7.77-61.036,21.64-81.04,24.321c-1.124,0.152-2.176,0.231-3.156,0.231c-5.311,0-8.474-2.318-9.079-7.842
			c-1.477-13.45,42.44-28.99,64.625-35.067c15.508-4.25,37.177-8.476,64.246-8.476c5.707,0,11.66,0.188,17.84,0.604v-66.114
			c-3.233-0.13-6.94-0.223-11.089-0.223c-12.543,0-29.133,0.853-48.936,4.131c-43.326,7.168-71.157,21.243-94.342,23.503
			c-1.062,0.104-2.069,0.157-3.018,0.157c-6.533,0-10.355-2.533-10.92-8.643c-1.329-14.393,49.869-29.649,75.667-35.465
			c16.389-3.695,38.651-7.211,66.033-7.21c8.394,0,17.272,0.331,26.605,1.087v-65.898c-4.545-0.229-10.258-0.436-17.032-0.436
			c-13.358,0-30.838,0.802-51.603,3.809c-46.518,6.736-76.383,20.152-101.283,22.242c-1.111,0.094-2.164,0.142-3.16,0.142
			c-7.063,0-11.207-2.436-11.835-8.31c-1.477-13.802,53.482-28.274,81.177-33.761c17.394-3.452,40.932-6.722,69.871-6.721
			c10.579,0,21.882,0.437,33.866,1.462V42.394H267.781 M266.52,355.638l0.011-0.057c-2.338-0.105-4.949-0.172-7.797-0.172
			c-0.224,0-0.45,0-0.677,0.001C260.693,355.422,263.521,355.49,266.52,355.638 M255.251,389.308c0,0,1.204-0.011,3.237-0.023
			c-0.886,0-1.977-0.011-3.249-0.023L255.251,389.308 M260.863,389.308l0.011-0.034c-0.75,0-1.431,0-2.056,0.011
			C260.125,389.297,260.863,389.308,260.863,389.308 M275.733,34.442h-7.952h-22.538h-7.952v7.952v46.195
			c-8.698-0.561-17.383-0.844-25.915-0.844c-24.407,0-48.436,2.312-71.419,6.874c-6.88,1.363-31.018,6.407-52.635,14.067
			c-25.275,8.955-36.039,17.696-34.9,28.34c0.495,4.634,3.409,15.416,19.741,15.416c1.204,0,2.493-0.057,3.831-0.171
			c12.438-1.044,25.718-4.662,41.096-8.852c17.115-4.663,36.514-9.948,60.656-13.444c17.077-2.473,34.055-3.727,50.464-3.727
			c3.033,0,6.043,0.042,9.08,0.128v49.74c-6.256-0.349-12.501-0.525-18.654-0.525c-23.182,0-45.987,2.491-67.782,7.405
			c-6.437,1.451-29.01,6.814-49.209,14.89c-9.226,3.689-16.515,7.404-21.664,11.043c-7.865,5.559-11.554,11.622-10.963,18.02
			c0.919,9.934,7.962,15.863,18.838,15.863c1.191,0,2.467-0.066,3.791-0.195c11.709-1.142,24.131-4.97,38.514-9.403
			c15.911-4.904,33.944-10.462,56.353-14.169c16.134-2.67,32.161-4.024,47.638-4.024c1.052,0,2.096,0.006,3.137,0.018v49.993
			c-3.314-0.121-6.618-0.182-9.888-0.182c-22.816-0.001-45.138,2.946-66.347,8.759c-5.56,1.523-25.056,7.124-42.445,15.231
			c-12.7,5.921-29.418,15.305-27.983,28.373c1.022,9.345,7.371,14.926,16.983,14.926c1.318,0,2.738-0.102,4.223-0.303
			c10.263-1.375,20.991-5.293,33.414-9.829c13.595-4.965,29.004-10.592,48.181-14.587c14.842-3.094,29.581-4.76,43.862-4.959v53.785
			c-6.538,0.749-13.025,1.844-19.366,3.272c-22.682,5.101-41.142,11.178-54.866,18.062c-21.579,10.825-32.255,24.085-31.733,39.411
			c0.881,25.971,31.437,44.655,37.553,48.137c7.412,4.216,14.823,6.959,22.661,8.387c2.874,0.521,6.801,1.234,11.296,1.234
			c3.648,0,7.104-0.456,10.565-1.393c7.913-2.159,22.781-9.235,22.525-20.589c-0.053-2.089-0.742-5.186-3.726-8.205
			c-2.925-2.925-7.414-4.38-13.627-6.394c-13.14-4.259-23.977-8.511-23.495-17.429c1.069-19.793,17.284-22.575,22.229-22.956
			c3.833-0.293,10.667-0.481,19.984-0.555v46.063v7.952h7.952h22.538h7.952v-7.952v-46.084c10.937,0.053,18.848,0.25,23.072,0.576
			c4.946,0.381,21.162,3.163,22.231,22.956c0.482,8.918-10.356,13.17-23.495,17.429c-6.213,2.014-10.701,3.469-13.594,6.362
			c-3.016,3.051-3.705,6.149-3.758,8.215c-0.256,11.377,14.612,18.453,22.509,20.608c3.477,0.941,6.931,1.397,10.577,1.397
			c4.483,0,8.417-0.712,11.29-1.232c7.846-1.43,15.258-4.173,22.668-8.388c5.957-3.391,35.708-21.643,36.607-48.139
			c0.522-15.323-9.98-28.575-31.216-39.388c-13.637-6.944-31.952-13.028-54.436-18.084c-7.354-1.654-14.877-2.86-22.453-3.6v-53.477
			c0.072,0,0.143,0,0.215,0c15.152,0,30.876,1.676,46.737,4.98c19.177,3.995,34.586,9.622,48.181,14.587
			c12.423,4.536,23.151,8.454,33.425,9.831c1.473,0.199,2.894,0.301,4.212,0.301c9.612,0,15.961-5.581,16.983-14.929
			c1.435-13.065-15.284-22.448-27.984-28.37c-17.389-8.108-36.885-13.708-42.445-15.231c-21.225-5.815-43.564-8.763-66.394-8.763
			c-4.269,0-8.594,0.104-12.93,0.31v-50.063c2.066-0.048,4.121-0.071,6.19-0.071c15.505,0,31.545,1.354,47.674,4.024
			c22.4,3.707,40.433,9.264,56.343,14.167c14.388,4.434,26.814,8.263,38.526,9.405c1.323,0.129,2.599,0.195,3.79,0.195
			c10.877,0,17.919-5.93,18.838-15.862c0.591-6.4-3.098-12.463-10.963-18.022c-5.149-3.639-12.438-7.354-21.664-11.043
			c-20.199-8.076-42.772-13.439-49.209-14.89c-21.807-4.916-44.614-7.409-67.788-7.409c-7.163,0-14.443,0.239-21.737,0.712v-49.841
			c3.349-0.12,7.269-0.209,11.657-0.209c16.423,0,33.405,1.254,50.476,3.727c24.143,3.496,43.542,8.781,60.657,13.444
			c15.377,4.19,28.658,7.808,41.101,8.852c1.333,0.113,2.622,0.17,3.825,0.17c16.332,0,19.247-10.782,19.742-15.418
			c1.139-10.643-9.625-19.383-34.9-28.338c-21.618-7.659-45.755-12.704-52.638-14.067c-22.982-4.562-47.016-6.875-71.432-6.875
			c-9.375,0-18.924,0.342-28.489,1.019V42.394V34.442L275.733,34.442z"/>
	</g>
	<path style="display:none;fill:#666666;" d="M264.8,366.66c1.12,0.01,2.08,0.02,2.86,0.02c-1.79,0.01-2.85,0.02-2.85,0.02
		L264.8,366.66z"/>
	<path style="display:none;fill:#666666;" d="M267.95,366.68c0.55-0.01,1.15-0.01,1.81-0.01l-0.01,0.03
		C269.75,366.7,269.1,366.69,267.95,366.68z"/>
	<path style="display:none;fill:#666666;" d="M274.74,337.01l-0.01,0.05c-2.64-0.13-5.13-0.19-7.45-0.2
		C270.02,336.85,272.52,336.91,274.74,337.01z"/>
</g>
<g id="Layer_1">
</g>
</svg>
