<?xml version="1.0" encoding="iso-8859-1"?>
<!-- Generator: Adobe Illustrator 27.6.1, SVG Export Plug-In . SVG Version: 6.00 Build 0)  -->
<svg version="1.1" xmlns="http://www.w3.org/2000/svg" xmlns:xlink="http://www.w3.org/1999/xlink" x="0px" y="0px"
	 viewBox="0 0 512 512" style="enable-background:new 0 0 512 512;" xml:space="preserve">
<g id="world_x5F_space_x5F_baker">
	<g>
		<polygon style="fill:#BDBDBD;" points="254.272,353.067 104.299,432.853 88.299,402.56 237.205,323.413 237.205,142.72 
			271.339,142.72 271.339,323.413 422.165,402.56 406.379,432.853 		"/>
		<path style="fill:#1D1D1D;" d="M262.805,151.253v177.28l148.053,77.653l-7.893,15.147l-148.693-77.867l-146.347,77.867
			l-8.107-15.147l145.92-77.653v-177.28H262.805 M279.872,134.187h-17.067h-17.067h-17.067v17.067v167.04L91.925,391.04
			l-15.147,8.107l8.107,15.147l8.107,15.147l8.107,15.147l15.147-8.107l138.453-73.6l140.587,73.813l15.147,7.893l7.893-15.147
			l7.893-15.147l7.893-15.147l-15.147-7.893l-138.88-72.747V151.253v-17.067H279.872z"/>
	</g>
	<g>
		<path style="fill-rule:evenodd;clip-rule:evenodd;fill:#6BBE66;" d="M254.272,164.907c-36.693,0-55.68-14.933-55.68-29.867v-2.347
			l55.68-91.307l55.68,91.307v2.347C309.952,149.76,290.965,164.907,254.272,164.907z"/>
		<path style="fill:#1D1D1D;" d="M254.272,57.6l47.147,77.44c0,11.733-21.12,21.333-47.147,21.333s-47.147-9.6-47.147-21.333
			L254.272,57.6 M254.272,24.96l-14.507,23.893l-47.36,77.227l-2.56,4.053v4.693c0,12.587,8.747,23.68,23.893,30.507
			c11.093,4.907,25.387,7.68,40.32,7.68c14.933,0,29.227-2.773,40.32-7.68c15.147-6.827,23.893-17.92,23.893-30.507v-4.907
			l-2.56-4.053l-47.147-77.44L254.272,24.96L254.272,24.96z"/>
	</g>
	<g>
		<path style="fill-rule:evenodd;clip-rule:evenodd;fill:#6BBE66;" d="M40.085,447.573l54.827-91.947l2.133-1.067
			c2.773-1.493,5.76-2.133,8.96-2.133c14.293,0,31.36,14.72,43.307,37.76c6.4,12.16,10.24,24.96,10.88,35.84
			c1.067,17.92-6.613,24.747-11.307,27.307l-2.133,1.067L40.085,447.573z"/>
		<path style="fill:#1D1D1D;" d="M106.005,360.96c10.667,0,25.387,13.227,35.84,33.067c12.16,23.04,13.44,46.293,3.2,51.627
			l-90.453-5.76l46.507-77.867C102.592,361.387,104.299,360.96,106.005,360.96 M106.005,343.893c-4.693,0-8.96,1.067-12.8,3.2
			l-4.267,2.133l-2.56,4.053l-46.507,77.867L25.579,455.04l27.947,1.707l90.453,5.76l4.693,0.213l4.267-2.133
			c11.093-5.76,17.067-18.773,16-35.413c-0.64-12.16-4.907-26.027-11.947-39.253C140.565,354.987,119.872,343.893,106.005,343.893
			L106.005,343.893z"/>
	</g>
	<g>
		<path style="fill-rule:evenodd;clip-rule:evenodd;fill:#6BBE66;" d="M359.232,453.333c-4.693-2.56-12.587-9.387-11.307-27.307
			c0.64-10.88,4.48-23.68,10.88-35.84c11.947-22.827,29.013-37.76,43.307-37.76c3.2,0,6.187,0.64,8.96,2.133l2.133,1.067
			l54.827,91.947L361.365,454.4L359.232,453.333z"/>
		<path style="fill:#1D1D1D;" d="M402.112,360.96c1.707,0,3.413,0.427,4.907,1.067l46.507,77.867l-90.453,5.76
			c-10.453-5.547-8.96-28.587,3.2-51.627C376.725,374.4,391.659,360.96,402.112,360.96 M402.112,343.893L402.112,343.893
			L402.112,343.893c-13.867,0-34.56,11.093-50.987,42.24c-7.04,13.227-11.307,27.307-11.947,39.253
			c-1.067,16.64,4.907,29.44,16,35.413l4.267,2.133l4.693-0.213l90.453-5.76l27.947-1.707l-14.293-23.893l-46.507-77.867
			l-2.56-4.053l-4.267-2.133C411.072,344.96,406.805,343.893,402.112,343.893L402.112,343.893z"/>
	</g>
	<g>
		<g>
			<rect x="211.392" y="268.16" style="fill-rule:evenodd;clip-rule:evenodd;fill:#6BBE66;" width="84.053" height="84.053"/>
			<path style="fill:#1D1D1D;" d="M287.125,276.693v66.987h-66.987v-66.987H287.125 M304.192,259.627h-17.067h-66.987h-17.067
				v17.067v66.987v17.067h17.067h66.987h17.067V343.68v-66.987V259.627L304.192,259.627z"/>
		</g>
		<g>
			<rect x="240.832" y="297.387" style="fill-rule:evenodd;clip-rule:evenodd;fill:#1D1D1D;" width="25.387" height="25.387"/>
		</g>
	</g>
	<rect x="-1.515" style="fill:none;" width="512" height="512"/>
</g>
<g id="Layer_1">
</g>
</svg>
