<?xml version="1.0" encoding="iso-8859-1"?>
<!-- Generator: Adobe Illustrator 27.6.1, SVG Export Plug-In . SVG Version: 6.00 Build 0)  -->
<svg version="1.1" xmlns="http://www.w3.org/2000/svg" xmlns:xlink="http://www.w3.org/1999/xlink" x="0px" y="0px"
	 viewBox="0 0 32 32" style="enable-background:new 0 0 32 32;" xml:space="preserve">
<g id="abr_x5F_create_x5F_proxy">
	<g>
		<g style="opacity:0.8;">
			<path d="M10.6,31.671c-2.706,0-4.921-2.139-5.044-4.815C2.88,26.732,0.74,24.517,0.74,21.811c0-2.784,2.265-5.05,5.05-5.05
				c0.327,0,0.65,0.017,0.962,0.033c0.816,0.043,1.588,0.083,2.164-0.203c1.179-0.585,2.249-1.354,3.18-2.285l2.222-2.222
				c0.931-0.931,1.7-2.001,2.285-3.18c0.286-0.577,0.246-1.348,0.203-2.164c-0.016-0.312-0.033-0.635-0.033-0.962
				c0-2.784,2.265-5.05,5.05-5.05c2.706,0,4.921,2.139,5.044,4.815c2.676,0.123,4.815,2.339,4.815,5.044
				c0,2.784-2.265,5.05-5.05,5.05c-0.327,0-0.65-0.017-0.962-0.033c-0.816-0.043-1.587-0.083-2.164,0.203
				c-1.179,0.586-2.249,1.354-3.18,2.285l-2.222,2.222c-0.931,0.931-1.7,2.001-2.285,3.18c-0.286,0.576-0.246,1.347-0.203,2.164
				c0.016,0.312,0.033,0.635,0.033,0.962C15.65,29.405,13.384,31.671,10.6,31.671z M6.694,24.675c0.273,0,0.539,0.108,0.737,0.305
				c0.254,0.254,0.359,0.621,0.278,0.97c-0.05,0.218-0.076,0.443-0.076,0.67c0,1.636,1.331,2.966,2.966,2.966
				s2.966-1.331,2.966-2.966c0-0.272-0.015-0.554-0.03-0.853c-0.053-1-0.112-2.133,0.417-3.199c0.686-1.382,1.587-2.636,2.678-3.727
				l2.222-2.222c1.091-1.091,2.345-1.992,3.727-2.678c1.066-0.529,2.2-0.47,3.199-0.417c0.298,0.016,0.58,0.03,0.853,0.03
				c1.636,0,2.966-1.331,2.966-2.966s-1.331-2.966-2.966-2.966c-0.226,0-0.452,0.025-0.67,0.076c-0.35,0.081-0.717-0.024-0.97-0.278
				c-0.254-0.254-0.359-0.62-0.279-0.97c0.05-0.219,0.076-0.444,0.076-0.67c0-1.636-1.331-2.966-2.966-2.966
				c-1.636,0-2.966,1.331-2.966,2.966c0,0.272,0.015,0.554,0.031,0.853c0.053,1,0.112,2.134-0.417,3.2
				c-0.686,1.382-1.587,2.636-2.678,3.727L13.57,15.78c-1.091,1.091-2.345,1.992-3.727,2.678c-1.066,0.529-2.2,0.47-3.2,0.417
				c-0.298-0.016-0.58-0.031-0.853-0.031c-1.636,0-2.966,1.331-2.966,2.966c0,1.636,1.331,2.966,2.966,2.966
				c0.226,0,0.452-0.026,0.67-0.076C6.538,24.684,6.616,24.675,6.694,24.675z"/>
		</g>
		<g>
			<g>
				<path style="fill:#FFFFFF;" d="M10.4,31.471c-2.706,0-4.921-2.139-5.044-4.815C2.68,26.532,0.54,24.317,0.54,21.611
					c0-2.784,2.265-5.05,5.05-5.05c0.327,0,0.65,0.017,0.962,0.033c0.816,0.043,1.588,0.083,2.164-0.203
					c1.179-0.585,2.249-1.354,3.18-2.285l2.222-2.222c0.931-0.931,1.7-2.001,2.285-3.18c0.286-0.577,0.246-1.348,0.203-2.164
					c-0.016-0.312-0.033-0.635-0.033-0.962c0-2.784,2.265-5.05,5.05-5.05c2.706,0,4.921,2.139,5.044,4.815
					c2.676,0.123,4.815,2.339,4.815,5.044c0,2.784-2.265,5.05-5.05,5.05c-0.327,0-0.65-0.017-0.962-0.033
					c-0.816-0.043-1.587-0.083-2.164,0.203c-1.179,0.586-2.249,1.354-3.18,2.285l-2.222,2.222c-0.931,0.931-1.7,2.001-2.285,3.18
					c-0.286,0.576-0.246,1.347-0.203,2.164c0.016,0.312,0.033,0.635,0.033,0.962C15.45,29.205,13.184,31.471,10.4,31.471z
					 M6.494,24.475c0.273,0,0.539,0.108,0.737,0.305c0.254,0.254,0.359,0.621,0.278,0.97c-0.05,0.218-0.076,0.443-0.076,0.67
					c0,1.636,1.331,2.966,2.966,2.966s2.966-1.331,2.966-2.966c0-0.272-0.015-0.554-0.03-0.853c-0.053-1-0.112-2.133,0.417-3.199
					c0.686-1.382,1.587-2.636,2.678-3.727l2.222-2.222c1.091-1.091,2.345-1.992,3.727-2.678c1.066-0.529,2.2-0.47,3.199-0.417
					c0.298,0.016,0.58,0.03,0.853,0.03c1.636,0,2.966-1.331,2.966-2.966s-1.331-2.966-2.966-2.966c-0.226,0-0.452,0.025-0.67,0.076
					c-0.35,0.081-0.717-0.024-0.97-0.278c-0.254-0.254-0.359-0.62-0.279-0.97c0.05-0.219,0.076-0.444,0.076-0.67
					c0-1.636-1.331-2.966-2.966-2.966c-1.636,0-2.966,1.331-2.966,2.966c0,0.272,0.015,0.554,0.031,0.853
					c0.053,1,0.112,2.134-0.417,3.2c-0.686,1.382-1.587,2.636-2.678,3.727L13.37,15.58c-1.091,1.091-2.345,1.992-3.727,2.678
					c-1.066,0.529-2.2,0.47-3.2,0.417c-0.298-0.016-0.58-0.031-0.853-0.031c-1.636,0-2.966,1.331-2.966,2.966
					c0,1.636,1.331,2.966,2.966,2.966c0.226,0,0.452-0.026,0.67-0.076C6.338,24.484,6.416,24.475,6.494,24.475z"/>
			</g>
		</g>
	</g>
</g>
<g id="Layer_1">
</g>
</svg>
