<?xml version="1.0" encoding="iso-8859-1"?>
<!-- Generator: Adobe Illustrator 27.6.1, SVG Export Plug-In . SVG Version: 6.00 Build 0)  -->
<svg version="1.1" xmlns="http://www.w3.org/2000/svg" xmlns:xlink="http://www.w3.org/1999/xlink" x="0px" y="0px"
	 viewBox="0 0 454.252 428.552" style="enable-background:new 0 0 454.252 428.552;" xml:space="preserve">
<g id="Rigging_Hammer">
	<g>
		<g style="opacity:0.8;">
			<path d="M15.672,389.91l28.123,28.123c15.485,15.129,33.106,13.883,48.769-3.382l186.357-202.909
				c7.653,5.34,14.773,5.162,23.494,3.382l19.045-3.916l12.638,12.637l-0.89,9.434c-1.246,9.789,1.601,17.265,10.678,26.342
				l14.953,14.773c9.077,9.255,21.179,9.789,29.901,1.068l59.272-59.27c8.719-8.722,8.187-20.647-0.89-29.902l-14.953-14.951
				c-9.077-9.078-16.732-12.282-26.344-10.858l-9.609,1.068l-12.106-12.103l5.34-20.825c2.493-10.323-0.179-18.689-11.391-29.725
				L334.098,55.11C269.487-9.144,186.721-7.187,130.119,49.948c-7.831,7.831-8.543,18.511-3.559,26.342
				c4.093,6.764,12.815,10.858,24.741,7.832c27.589-6.942,55.177-4.806,82.232,13.527l-11.392,28.835
				c-4.272,10.679-3.916,19.4,0.356,27.41L19.054,341.141C1.967,356.982,0.009,374.247,15.672,389.91z M158.421,57.067
				c48.591-36.31,109.108-30.437,152.894,13.349l47.878,47.524c4.273,4.272,4.809,7.653,3.562,12.994l-6.762,28.478l28.655,28.656
				l17.443-1.602c5.162-0.534,6.762-0.178,11.034,3.916l11.217,11.392l-50.017,50.193l-11.391-11.391
				c-4.093-4.094-4.451-5.696-3.915-10.858l1.6-17.621l-28.477-28.478l-29.548,5.696c-5.162,1.068-7.831,1.068-12.281-3.382
				l-39.514-39.692c-4.272-4.272-4.806-6.764-2.492-12.46l17.444-41.649c-29.19-27.945-67.814-43.43-105.015-31.505
				c-1.602,0.534-2.67,0.178-3.204-0.534C156.997,59.203,156.997,58.314,158.421,57.067z M38.81,377.095
				c-9.077-9.077-5.874-14.596,0.178-20.113l199.884-184.398l22.248,22.426L76.188,394.182c-5.517,6.052-12.459,7.831-19.934,0.534
				L38.81,377.095z"/>
		</g>
		<g>
			<path style="fill:#FFFFFF;" d="M10.672,382.91l28.123,28.123c15.485,15.129,33.106,13.883,48.769-3.382l186.357-202.909
				c7.653,5.34,14.773,5.162,23.494,3.382l19.045-3.916l12.638,12.637l-0.89,9.434c-1.246,9.789,1.601,17.265,10.678,26.342
				l14.953,14.773c9.077,9.255,21.179,9.789,29.901,1.068l59.272-59.27c8.719-8.722,8.187-20.647-0.89-29.902l-14.953-14.951
				c-9.077-9.078-16.732-12.282-26.344-10.858l-9.609,1.068l-12.106-12.103l5.34-20.825c2.493-10.323-0.179-18.689-11.391-29.725
				L329.098,48.11c-64.612-64.254-147.377-62.297-203.979-5.162c-7.831,7.831-8.543,18.511-3.559,26.342
				c4.093,6.764,12.815,10.858,24.741,7.832c27.589-6.942,55.177-4.806,82.232,13.527l-11.392,28.835
				c-4.272,10.679-3.916,19.4,0.356,27.41L14.054,334.141C-3.033,349.982-4.991,367.247,10.672,382.91z M153.421,50.067
				c48.591-36.31,109.108-30.437,152.894,13.349l47.878,47.524c4.273,4.272,4.809,7.653,3.562,12.994l-6.762,28.478l28.655,28.656
				l17.443-1.602c5.162-0.534,6.762-0.178,11.034,3.916l11.217,11.392l-50.017,50.193l-11.391-11.391
				c-4.093-4.094-4.451-5.696-3.915-10.858l1.6-17.621l-28.477-28.478l-29.548,5.696c-5.162,1.068-7.831,1.068-12.281-3.382
				l-39.514-39.692c-4.272-4.272-4.806-6.764-2.492-12.46l17.444-41.649c-29.19-27.945-67.814-43.43-105.015-31.505
				c-1.602,0.534-2.67,0.178-3.204-0.534C151.997,52.203,151.997,51.314,153.421,50.067z M33.81,370.095
				c-9.077-9.077-5.874-14.596,0.178-20.113l199.884-184.398l22.248,22.426L71.188,387.182c-5.517,6.052-12.459,7.831-19.934,0.534
				L33.81,370.095z"/>
		</g>
	</g>
</g>
<g id="Layer_1">
</g>
</svg>
