<?xml version="1.0" encoding="iso-8859-1"?>
<!-- Generator: Adobe Illustrator 27.6.1, SVG Export Plug-In . SVG Version: 6.00 Build 0)  -->
<svg version="1.1" xmlns="http://www.w3.org/2000/svg" xmlns:xlink="http://www.w3.org/1999/xlink" x="0px" y="0px"
	 viewBox="0 0 435.728 437.728" style="enable-background:new 0 0 435.728 437.728;" xml:space="preserve">
<g id="Rigging_Bone">
	<g>
		<g style="opacity:0.8;">
			<path d="M142.25,437.728c-37.666,0-68.508-29.78-70.221-67.03C34.779,368.984,5,338.144,5,300.478
				c0-38.761,31.535-70.296,70.296-70.296c4.554,0,9.049,0.236,13.395,0.465c11.363,0.597,22.1,1.161,30.124-2.822
				c16.418-8.15,31.312-18.854,44.27-31.812l30.931-30.93c12.957-12.957,23.659-27.85,31.81-44.265
				c3.983-8.025,3.42-18.762,2.822-30.127c-0.229-4.347-0.465-8.842-0.465-13.396C228.182,38.535,259.717,7,298.478,7
				c37.666,0,68.507,29.779,70.22,67.029c37.25,1.713,67.03,32.555,67.03,70.221c0,38.761-31.535,70.296-70.296,70.296
				c-4.554,0-9.048-0.236-13.394-0.464c-11.359-0.597-22.096-1.161-30.121,2.821c-16.419,8.151-31.313,18.854-44.269,31.811
				l-30.932,30.932c-12.961,12.961-23.665,27.857-31.813,44.274c-3.982,8.023-3.419,18.757-2.821,30.121
				c0.228,4.345,0.464,8.838,0.464,13.391C212.546,406.192,181.011,437.728,142.25,437.728z M87.88,340.349
				c3.803,0,7.505,1.498,10.256,4.25c3.533,3.534,4.996,8.639,3.873,13.508c-0.7,3.036-1.055,6.173-1.055,9.325
				c0,22.771,18.525,41.296,41.296,41.296s41.296-18.525,41.296-41.296c0-3.792-0.206-7.715-0.424-11.869
				c-0.732-13.919-1.561-29.695,5.805-44.536c9.551-19.24,22.095-36.697,37.284-51.887l30.931-30.931
				c15.183-15.185,32.639-27.729,51.882-37.281c14.841-7.366,30.62-6.539,44.536-5.806c4.155,0.218,8.08,0.424,11.872,0.424
				c22.771,0,41.296-18.525,41.296-41.296s-18.525-41.296-41.296-41.296c-3.152,0-6.289,0.354-9.325,1.055
				c-4.867,1.128-9.975-0.341-13.508-3.873c-3.535-3.533-5.001-8.637-3.881-13.507c0.699-3.042,1.055-6.182,1.055-9.333
				c0-22.771-18.525-41.296-41.295-41.296c-22.771,0-41.296,18.525-41.296,41.296c0,3.793,0.206,7.718,0.425,11.873
				c0.732,13.922,1.562,29.702-5.808,44.544c-9.551,19.238-22.094,36.692-37.278,51.877l-30.93,30.929
				c-15.186,15.187-32.641,27.729-51.881,37.281c-14.842,7.368-30.62,6.541-44.542,5.807c-4.155-0.219-8.079-0.425-11.872-0.425
				C52.525,259.182,34,277.707,34,300.478c0,22.77,18.525,41.295,41.296,41.295c3.151,0,6.291-0.355,9.333-1.055
				C85.707,340.47,86.798,340.349,87.88,340.349z"/>
		</g>
		<g>
			<path style="fill:#FFFFFF;" d="M137.25,430.728c-37.666,0-68.508-29.78-70.221-67.03C29.779,361.984,0,331.144,0,293.478
				c0-38.761,31.535-70.296,70.296-70.296c4.554,0,9.049,0.236,13.395,0.465c11.363,0.597,22.1,1.161,30.124-2.822
				c16.418-8.15,31.312-18.854,44.27-31.812l30.931-30.93c12.957-12.957,23.659-27.85,31.81-44.265
				c3.983-8.025,3.42-18.762,2.822-30.127c-0.229-4.347-0.465-8.842-0.465-13.396C223.182,31.535,254.717,0,293.478,0
				c37.666,0,68.507,29.779,70.22,67.029c37.25,1.713,67.03,32.555,67.03,70.221c0,38.761-31.535,70.296-70.296,70.296
				c-4.554,0-9.048-0.236-13.394-0.464c-11.359-0.597-22.096-1.161-30.121,2.821c-16.419,8.151-31.313,18.854-44.269,31.811
				l-30.932,30.932c-12.961,12.961-23.665,27.857-31.813,44.274c-3.982,8.023-3.419,18.757-2.821,30.121
				c0.228,4.345,0.464,8.838,0.464,13.391C207.546,399.192,176.011,430.728,137.25,430.728z M82.88,333.349
				c3.803,0,7.505,1.498,10.256,4.25c3.533,3.534,4.996,8.639,3.873,13.508c-0.7,3.036-1.055,6.173-1.055,9.325
				c0,22.771,18.525,41.296,41.296,41.296s41.296-18.525,41.296-41.296c0-3.792-0.206-7.715-0.424-11.869
				c-0.732-13.919-1.561-29.695,5.805-44.536c9.551-19.24,22.095-36.697,37.284-51.887l30.931-30.931
				c15.183-15.185,32.639-27.729,51.882-37.281c14.841-7.366,30.62-6.539,44.536-5.806c4.155,0.218,8.08,0.424,11.872,0.424
				c22.771,0,41.296-18.525,41.296-41.296s-18.525-41.296-41.296-41.296c-3.152,0-6.289,0.354-9.325,1.055
				c-4.867,1.128-9.975-0.341-13.508-3.873c-3.535-3.533-5.001-8.637-3.881-13.507c0.699-3.042,1.055-6.182,1.055-9.333
				c0-22.771-18.525-41.296-41.295-41.296c-22.771,0-41.296,18.525-41.296,41.296c0,3.793,0.206,7.718,0.425,11.873
				c0.732,13.922,1.562,29.702-5.808,44.544c-9.551,19.238-22.094,36.692-37.278,51.877l-30.93,30.929
				c-15.186,15.187-32.641,27.729-51.881,37.281c-14.842,7.368-30.62,6.541-44.542,5.807c-4.155-0.219-8.079-0.425-11.872-0.425
				C47.525,252.182,29,270.707,29,293.478c0,22.77,18.525,41.295,41.296,41.295c3.151,0,6.291-0.355,9.333-1.055
				C80.707,333.47,81.798,333.349,82.88,333.349z"/>
		</g>
	</g>
</g>
<g id="Layer_1">
</g>
</svg>
