<?xml version="1.0" encoding="iso-8859-1"?>
<!-- Generator: Adobe Illustrator 27.6.1, SVG Export Plug-In . SVG Version: 6.00 Build 0)  -->
<svg version="1.1" xmlns="http://www.w3.org/2000/svg" xmlns:xlink="http://www.w3.org/1999/xlink" x="0px" y="0px"
	 viewBox="0 0 512 512" style="enable-background:new 0 0 512 512;" xml:space="preserve">
<g id="attributes_x5F_to_x5F_python">
	<g>
		<rect x="21.861" y="55.356" style="fill:#BDBDBD;" width="282.126" height="47.72"/>
		<path style="fill:#1D1D1D;" d="M292.988,66.357v25.72H32.861v-25.72H292.988 M314.988,44.357h-22H32.861h-22v22v25.72v22h22
			h260.126h22v-22v-25.72V44.357L314.988,44.357z"/>
	</g>
	<g>
		<rect x="68.669" y="220.81" style="fill:#BDBDBD;" width="282.126" height="47.72"/>
		<path style="fill:#1D1D1D;" d="M339.796,231.81v25.72H79.669v-25.72H339.796 M361.796,209.81h-22H79.669h-22v22v25.72v22h22
			h260.127h22v-22v-25.72V209.81L361.796,209.81z"/>
	</g>
	<g>
		<rect x="45.916" y="386.264" style="fill:#BDBDBD;" width="282.126" height="47.721"/>
		<path style="fill:#1D1D1D;" d="M317.042,397.264v25.72H56.916v-25.72H317.042 M339.042,375.264h-22H56.916h-22v22v25.72v22h22
			h260.126h22v-22v-25.72V375.264L339.042,375.264z"/>
	</g>
	<g>
		<rect x="188.29" y="31.953" style="fill:#BDBDBD;" width="282.127" height="116.957"/>
		<path style="fill:#1D1D1D;" d="M459.417,42.952v94.957H199.29V42.952H459.417 M481.417,20.952h-22H199.29h-22v22v94.957v22h22
			h260.127h22v-22V42.952V20.952L481.417,20.952z"/>
	</g>
	<g>
		<rect x="188.392" y="197.521" style="fill:#BDBDBD;" width="282.127" height="116.957"/>
		<path style="fill:#1D1D1D;" d="M459.518,208.521v94.957H199.392v-94.957H459.518 M481.518,186.521h-22H199.392h-22v22v94.957v22
			h22h260.127h22v-22v-94.957V186.521L481.518,186.521z"/>
	</g>
	<g>
		<rect x="188.29" y="363.09" style="fill:#BDBDBD;" width="282.127" height="116.957"/>
		<path style="fill:#1D1D1D;" d="M459.417,374.09v94.957H199.29V374.09H459.417 M481.417,352.09h-22H199.29h-22v22v94.957v22h22
			h260.127h22v-22V374.09V352.09L481.417,352.09z"/>
	</g>
	<rect x="222.613" y="397.264" style="fill:#1D1D1D;" width="213.684" height="47.499"/>
	<rect x="324.843" y="232.25" style="fill:#1D1D1D;" width="111.352" height="47.499"/>
	<rect x="222.511" y="66.357" style="fill:#1D1D1D;" width="213.684" height="47.499"/>
	<g>
		<path style="fill:#6BBE66;" d="M343.435,318.818c-35.93,0-65.16-29.23-65.16-65.161c0-35.93,29.23-65.161,65.16-65.161
			s65.161,29.231,65.161,65.161C408.596,289.588,379.364,318.818,343.435,318.818z"/>
		<path style="fill:#1D1D1D;" d="M343.435,198.497c30.464,0,55.161,24.696,55.161,55.161s-24.696,55.161-55.161,55.161
			c-30.464,0-55.161-24.696-55.161-55.161S312.971,198.497,343.435,198.497 M343.435,178.497c-41.444,0-75.161,33.717-75.161,75.161
			s33.717,75.161,75.161,75.161c41.444,0,75.161-33.717,75.161-75.161S384.879,178.497,343.435,178.497L343.435,178.497z"/>
	</g>
</g>
<g id="Layer_1">
</g>
</svg>
