<?xml version="1.0" encoding="iso-8859-1"?>
<!-- Generator: Adobe Illustrator 27.6.1, SVG Export Plug-In . SVG Version: 6.00 Build 0)  -->
<svg version="1.1" xmlns="http://www.w3.org/2000/svg" xmlns:xlink="http://www.w3.org/1999/xlink" x="0px" y="0px"
	 viewBox="0 0 511.547 511.445" style="enable-background:new 0 0 511.547 511.445;" xml:space="preserve">
<g id="color_x5F_manager">
	<rect y="0" style="fill:none;" width="511.547" height="511.445"/>
	<path style="fill:#BDBDBD;" d="M111.673,216.263v197.121c0,0,29.89,61.531,142.74,57.354s149.323-59.86,149.323-59.86
		l2.784-214.105c0,0-67.099,56.241-156.194,54.849C161.231,250.23,111.673,216.263,111.673,216.263z"/>
	<path style="fill:#6BBE66;" d="M256,141.182c0,0-148.411,9.281-148.411,51.229S211.744,249.552,256,247.153
		s150.055-18.361,146.714-58.825C399.373,147.864,256,141.182,256,141.182z"/>
	<path style="fill:#BDBDBD;" d="M107.589,220.439c0,0,31.632-46.218,147.601-46.218s147.601,37.308,147.601,37.308l-2.119-27.842
		c0,0-29.858-42.505-144.673-42.505s-148.411,46.96-148.411,46.96V220.439z"/>
	<path style="fill:#1D1D1D;" d="M409.809,177.607c2.52,2.038,3.985,5.104,3.988,8.345v8.05c0,0.48,0,0.96,0,1.44
		c0,0.48,0,0.96,0,1.44v211.43c-0.01,1.366-0.273,2.718-0.775,3.988c-3.418,10.43-9.25,19.906-17.022,27.656
		c-8.731,8.592-18.889,15.601-30.02,20.715c-31.09,14.77-71.486,22.376-111.66,22.155c-40.174-0.222-79.979-7.754-110.589-23.004
		c-10.353-4.951-19.753-11.688-27.767-19.902c-7.791-8.083-13.494-17.944-16.616-28.727c-0.307-1.068-0.457-2.175-0.443-3.286
		V206.408c-0.462-1.176-0.7-2.429-0.702-3.692c0-82.932,40.839-136.362,93.013-159.883c20.079-9.006,41.836-13.662,63.842-13.662
		c21.982-0.065,43.723,4.567,63.769,13.588C365.241,63.695,402.498,108.595,409.809,177.607z M121.318,161.508
		c8.646-5.583,17.932-10.107,27.656-13.477c27.693-9.97,65.689-16.136,107.377-16.136s79.646,6.166,107.376,16.136
		c8.265,2.916,16.229,6.626,23.779,11.077c-10.967-49.331-40.432-81.936-76.101-97.998c-35.866-16.098-76.902-16.098-112.767,0
		C162.119,77.653,131.952,111.143,121.318,161.508z M392.048,197.805c0-1.809,0-3.692,0-5.391
		c-2.511-8.566-15.582-17.096-35.374-24.222c-25.404-9.157-60.778-14.77-100.139-14.77s-74.772,5.649-100.176,14.77
		c-22.302,7.976-36.001,17.687-36.001,27.14s13.699,19.312,35.817,27.287c25.404,9.157,60.815,14.77,100.176,14.77
		s74.735-5.649,100.139-14.77c20.345-7.385,33.564-16.099,35.558-24.924L392.048,197.805z M120.358,228.563v178.013
		c2.268,6.904,6.053,13.212,11.077,18.462c6.317,6.389,13.702,11.625,21.822,15.471c27.73,13.81,64.286,20.715,101.062,20.825
		c36.777,0.111,74.292-6.388,102.355-19.902c8.891-4.046,17.012-9.606,24.001-16.431c5.195-5.211,9.157-11.519,11.594-18.462
		V228.563c-8.921,5.906-18.547,10.67-28.653,14.179c-27.73,9.97-65.689,16.136-107.377,16.136s-79.683-6.166-107.377-16.136
		C138.798,239.245,129.219,234.48,120.358,228.563z"/>
	<path style="fill-rule:evenodd;clip-rule:evenodd;fill:#6BBE66;" d="M392.381,228.563c-86.92,36.925-173.545,39.029-259.099,7.385
		l5.797,22.856c4.837,19.016,10.487,43.165,25.847,43.94c21.564,1.108,52.47-55.387,56.495,20.567l2.695,50.919
		c0,20.788,14.105,32.604,27.73,32.604c31.607,0,22.376-37.257,20.604-55.387c-0.947-10.038-1.243-20.128-0.886-30.204
		c-0.628-46.71,42.315-51.177,42.648-9.6c0,19.164,17.096,29.023,30.869,24.703c29.909-9.453,14.068-52.95,24.149-76.84
		C374.428,247.528,382.357,236.931,392.381,228.563z"/>
</g>
<g id="Layer_1">
</g>
</svg>
