<?xml version="1.0" encoding="iso-8859-1"?>
<!-- Generator: Adobe Illustrator 27.7.0, SVG Export Plug-In . SVG Version: 6.00 Build 0)  -->
<svg version="1.1" xmlns="http://www.w3.org/2000/svg" xmlns:xlink="http://www.w3.org/1999/xlink" x="0px" y="0px"
	 viewBox="0 0 512 512" style="enable-background:new 0 0 512 512;" xml:space="preserve">
<g id="crv_x5F_separate">
	<g>
		<path style="fill:#42A5F5;" d="M246.928,459.915c-2.558,0-5.116-0.548-7.309-1.644c-0.914-0.365-24.484-10.963-48.419-28.686
			c-34.716-25.763-52.256-53.353-52.439-81.856c-0.183-39.832,34.35-76.009,102.686-107.254h0.183
			c30.331-13.886,81.125-41.842,80.943-73.634c-0.183-34.716-58.286-68.518-78.75-77.654c-9.136-4.202-13.338-14.983-9.136-24.118
			c2.923-6.578,9.501-10.78,16.627-10.78c2.558,0,5.116,0.548,7.491,1.644c0.914,0.365,24.484,11.146,48.237,28.869
			c34.533,25.945,52.074,53.535,52.074,82.039c0.183,39.832-34.168,75.827-102.138,106.888h-0.183
			c-52.622,24.118-81.673,50.247-81.491,73.817c0.183,34.533,58.651,68.335,79.115,77.288c4.385,2.01,7.857,5.481,9.684,10.049
			c1.827,4.568,1.644,9.501-0.365,14.069C260.815,455.713,254.237,459.915,246.928,459.915z"/>
		<path style="fill:#BDBDBD;" d="M253.134,270.904h-0.183c-52.622,24.118-81.673,50.247-81.491,73.817
			c0.183,34.533,58.651,68.335,79.115,77.288c4.385,2.01,7.857,5.481,9.684,10.049s1.644,9.501-0.365,14.069
			c-2.923,6.76-9.501,10.963-16.81,10.963c-2.558,0-5.116-0.548-7.309-1.644c-0.914-0.365-24.484-10.963-48.419-28.686
			c-34.716-25.763-52.256-53.353-52.439-81.856c-0.183-39.832,34.35-76.009,102.686-107.254h0.183"/>
		<path style="fill:#1D1D1D;" d="M251.314,61.597c1.462,0,3.106,0.365,4.568,0.914c0.914,0.365,23.753,10.78,46.775,27.955
			c32.523,24.484,49.15,50.064,49.15,76.192c0.183,36.726-32.706,70.345-97.935,100.128c0,0,0,0-0.183,0
			c-39.284,17.906-85.876,46.41-85.693,80.577c0.183,38.736,60.296,73.817,83.501,84.049c5.481,2.375,8.039,8.953,5.664,14.434
			c-1.827,4.02-5.847,6.578-10.049,6.578c-1.462,0-2.923-0.365-4.385-0.914c-0.914-0.365-23.753-10.597-46.958-27.773
			c-32.706-24.301-49.333-49.881-49.516-76.009c-0.183-36.726,32.889-70.711,98.483-100.676l0,0
			c38.918-17.723,85.328-46.227,85.145-80.212c-0.183-38.736-59.93-73.999-82.952-84.414c-5.481-2.558-8.039-8.953-5.481-14.434
			C243.091,63.973,247.111,61.597,251.314,61.597 M251.314,46.98L251.314,46.98c-10.049,0-19.185,5.847-23.387,15.165
			c-5.847,12.79,0,27.955,12.79,33.802c29.965,13.338,74.182,45.313,74.365,71.076c0,20.099-27.773,44.582-76.557,66.874
			l-0.183,0.183l0,0c-71.076,32.523-107.071,70.893-106.888,113.831c0.183,30.879,18.82,60.479,55.363,87.703
			c24.484,18.271,48.785,29.052,49.881,29.417c3.289,1.462,6.76,2.193,10.415,2.193c10.049,0,19.368-6.03,23.387-15.165
			c2.741-6.212,2.923-13.155,0.548-19.55c-2.375-6.395-7.309-11.328-13.521-14.252c-30.148-13.338-74.548-44.948-74.73-70.711
			c-0.183-20.099,27.955-44.582,77.106-67.056c0,0,0.183,0,0.183-0.183c70.711-32.34,106.523-70.528,106.34-113.466
			c-0.183-30.879-18.637-60.479-54.997-87.886c-24.301-18.271-48.602-29.234-49.516-29.6
			C258.439,47.711,254.968,46.98,251.314,46.98L251.314,46.98z"/>
	</g>
	
		<line style="fill:none;stroke:#1D1D1D;stroke-width:8;stroke-miterlimit:10;" x1="240.334" y1="242.761" x2="257.726" y2="273.344"/>
	<g id="Page-1_00000168088003133155220430000010413542545923173269_">
		<g id="Combined-Shape" transform="translate(42.666667, 42.666667)">
			<g>
				<path style="fill-rule:evenodd;clip-rule:evenodd;fill:#BDBDBD;" d="M350.034,429.557c-7.775,0.001-15.212-2.421-21.504-7.003
					c-16.312-11.879-19.919-34.814-8.04-51.127c3.367-4.625,7.725-8.348,12.761-10.936l-6.516-23.978l-73.743,3.379l-17.72-24.223
					l135.236-6.352c0.919-5.582,3.123-10.866,6.486-15.485c6.86-9.42,17.935-15.043,29.623-15.043
					c7.776,0,15.212,2.421,21.504,7.003c16.312,11.879,19.919,34.814,8.04,51.127c-6.859,9.419-17.933,15.042-29.622,15.043
					c-7.775,0.001-15.212-2.421-21.504-7.003c-3.877-2.823-7.106-6.397-9.632-10.652l-22.92,1.037l6.056,22.148
					c4.814,1.097,9.201,3.072,13.076,5.894c7.894,5.748,13.077,14.237,14.597,23.903c1.519,9.664-0.81,19.332-6.557,27.224
					C372.796,423.933,361.722,429.557,350.034,429.557z M350.096,381.58c-3.649,0-7.103,1.75-9.237,4.681
					c-1.787,2.454-2.511,5.466-2.036,8.479c0.474,3.014,2.086,5.657,4.54,7.444c1.956,1.425,4.269,2.178,6.688,2.178
					c3.648,0,7.102-1.75,9.236-4.682c3.699-5.08,2.576-12.224-2.504-15.923C354.827,382.332,352.515,381.58,350.096,381.58z
					 M406.602,303.987c-3.649,0-7.103,1.75-9.237,4.681c-1.787,2.454-2.511,5.466-2.037,8.479c0.475,3.014,2.087,5.657,4.541,7.444
					c1.955,1.424,4.268,2.177,6.687,2.177c0.001,0,0.001,0,0.001,0c3.649,0,7.102-1.749,9.236-4.681
					c1.787-2.454,2.511-5.466,2.036-8.479c-0.474-3.014-2.086-5.657-4.54-7.444C411.332,304.74,409.02,303.987,406.602,303.987z
					 M316.951,300.476l-19.175-70.724l28.486,9.44l17.511,64.268l-25.692,1.203L316.951,300.476z"/>
				<path style="fill:#1D1D1D;" d="M305.037,237.426l17.107,5.669l15.166,55.662l-15.449,0.723l-0.083-0.308L305.037,237.426
					 M406.618,283.79c6.451,0,12.956,1.964,18.56,6.045c14.09,10.261,17.197,30.058,6.942,44.141
					c-6.176,8.481-15.815,12.987-25.581,12.987c-6.451,0-12.956-1.964-18.56-6.045c-4.074-2.967-7.323-6.916-9.663-11.747
					l-32.303,1.461l8.532,31.209c5.316,0.744,10.061,2.626,14.128,5.588c14.09,10.26,17.197,30.058,6.942,44.141
					c-6.176,8.481-15.815,12.987-25.581,12.987c-6.451,0-12.956-1.964-18.56-6.045c-14.09-10.26-17.197-30.058-6.942-44.141
					c3.692-5.069,8.755-8.883,14.675-11.034l-8.697-32.002l-75.067,3.44l-10.641-14.547l130.242-6.116
					c0.232-6.283,2.302-12.266,5.994-17.335C387.213,288.295,396.852,283.791,406.618,283.79 M406.555,331.767
					c5.07,0,10.074-2.336,13.279-6.738c5.321-7.307,3.704-17.588-3.603-22.909c-2.905-2.116-6.283-3.135-9.63-3.135
					c-5.07,0-10.074,2.336-13.279,6.738c-5.321,7.307-3.704,17.588,3.603,22.909C399.831,330.748,403.208,331.767,406.555,331.767
					 M350.049,409.361c5.07,0,10.074-2.336,13.279-6.738c5.321-7.307,3.704-17.588-3.603-22.909
					c-2.905-2.116-6.283-3.135-9.63-3.135c-5.07,0-10.074,2.336-13.279,6.738c-5.321,7.307-3.704,17.588,3.603,22.909
					C343.325,408.342,346.702,409.361,350.049,409.361 M290.515,222.079l4.871,17.964l16.741,61.747l0.077,0.286l1.321,4.914
					l-69.192,3.249l-18.589,0.873l10.987,15.02l10.641,14.547l3.168,4.331l5.361-0.246l67.061-3.073l4.458,16.402
					c-4.24,2.741-7.954,6.247-10.971,10.39c-13.502,18.541-9.402,44.61,9.138,58.112c7.152,5.208,15.606,7.962,24.447,7.962
					c13.282,0,25.867-6.393,33.665-17.1c6.533-8.971,9.18-19.96,7.454-30.944c-1.727-10.985-7.619-20.634-16.592-27.168
					c-3.621-2.637-7.623-4.625-11.955-5.943l-3.648-13.345l13.801-0.624c2.588,3.726,5.712,6.93,9.335,9.569
					c7.152,5.209,15.606,7.962,24.447,7.962c13.282,0,25.867-6.393,33.665-17.1c13.502-18.541,9.402-44.61-9.139-58.112
					c-7.152-5.208-15.605-7.962-24.445-7.962v10l0-10h-0.002c-13.283,0.001-25.867,6.394-33.664,17.1
					c-3.013,4.138-5.209,8.744-6.516,13.615l-16.98,0.797l-2.5-9.174l-15.166-55.662l-1.41-5.176l-5.092-1.688l-17.107-5.669
					L290.515,222.079L290.515,222.079z M406.555,321.767c-0.944,0-2.36-0.211-3.743-1.219c-1.375-1.001-2.278-2.485-2.545-4.179
					c-0.266-1.694,0.138-3.384,1.139-4.759c1.214-1.668,3.108-2.624,5.195-2.624c0.944,0,2.36,0.211,3.743,1.219
					c1.375,1.001,2.278,2.485,2.545,4.179c0.266,1.694-0.138,3.384-1.139,4.759C410.536,320.811,408.642,321.767,406.555,321.767
					L406.555,321.767z M350.049,399.361c-0.944,0-2.36-0.211-3.743-1.219c-1.375-1.001-2.278-2.485-2.545-4.179
					s0.138-3.384,1.139-4.759c1.215-1.668,3.108-2.624,5.195-2.624c0.944,0,2.36,0.211,3.743,1.219
					c2.852,2.077,3.482,6.086,1.406,8.938C354.03,398.405,352.136,399.361,350.049,399.361L350.049,399.361z"/>
			</g>
		</g>
	</g>
	<g>
		<path style="fill-rule:evenodd;clip-rule:evenodd;fill:#42A5F5;" d="M59.577,177.586c-4.971,0-9-4.029-9-9v-21.441
			c0-4.971,4.029-9,9-9h123.833c4.971,0,9,4.029,9,9v21.441c0,4.971-4.029,9-9,9H59.577z"/>
		<path style="fill:#1D1D1D;" d="M183.409,147.145v21.441H59.577v-21.441H183.409 M183.409,129.145H59.577c-9.941,0-18,8.059-18,18
			v21.441c0,9.941,8.059,18,18,18h123.833c9.941,0,18-8.059,18-18v-21.441C201.409,137.203,193.35,129.145,183.409,129.145
			L183.409,129.145z"/>
	</g>
</g>
<g id="Layer_1">
</g>
</svg>
