<?xml version="1.0" encoding="iso-8859-1"?>
<!-- Generator: Adobe Illustrator 27.7.0, SVG Export Plug-In . SVG Version: 6.00 Build 0)  -->
<svg version="1.1" xmlns="http://www.w3.org/2000/svg" xmlns:xlink="http://www.w3.org/1999/xlink" x="0px" y="0px"
	 viewBox="0 0 512 512" style="enable-background:new 0 0 512 512;" xml:space="preserve">
<g id="crv_x5F_separate">
	<g>
		<path style="fill:#42A5F5;" d="M246.929,459.915c-2.558,0-5.116-0.548-7.309-1.644c-0.914-0.365-24.484-10.963-48.419-28.686
			c-34.716-25.763-52.256-53.353-52.439-81.856c-0.183-39.832,34.35-76.009,102.686-107.254h0.183
			c30.331-13.886,81.125-41.842,80.943-73.634c-0.183-34.716-58.286-68.518-78.75-77.654c-9.136-4.202-13.338-14.983-9.136-24.118
			c2.923-6.578,9.501-10.78,16.627-10.78c2.558,0,5.116,0.548,7.491,1.644c0.914,0.365,24.484,11.146,48.237,28.869
			c34.533,25.945,52.074,53.535,52.074,82.039c0.183,39.832-34.168,75.827-102.138,106.888h-0.183
			c-52.622,24.118-81.673,50.247-81.491,73.817c0.183,34.533,58.651,68.335,79.115,77.288c4.385,2.01,7.857,5.481,9.684,10.049
			c1.827,4.568,1.644,9.501-0.365,14.069C260.815,455.713,254.237,459.915,246.929,459.915z"/>
		<path style="fill:#BDBDBD;" d="M253.134,270.904h-0.183c-52.622,24.118-81.673,50.247-81.491,73.817
			c0.183,34.533,58.651,68.335,79.115,77.288c4.385,2.01,7.857,5.481,9.684,10.049c1.827,4.568,1.644,9.501-0.365,14.069
			c-2.923,6.76-9.501,10.963-16.81,10.963c-2.558,0-5.116-0.548-7.309-1.644c-0.914-0.365-24.484-10.963-48.419-28.686
			c-34.716-25.763-52.256-53.353-52.439-81.856c-0.183-39.832,34.35-76.009,102.686-107.254h0.183"/>
		<path style="fill:#1D1D1D;" d="M251.314,61.597c1.462,0,3.106,0.365,4.568,0.914c0.914,0.365,23.753,10.78,46.775,27.955
			c32.523,24.484,49.15,50.064,49.15,76.192c0.183,36.726-32.706,70.345-97.935,100.128c0,0,0,0-0.183,0
			c-39.284,17.906-85.876,46.41-85.693,80.577c0.183,38.736,60.296,73.817,83.501,84.049c5.481,2.375,8.039,8.953,5.664,14.434
			c-1.827,4.02-5.847,6.578-10.049,6.578c-1.462,0-2.923-0.365-4.385-0.914c-0.914-0.365-23.753-10.597-46.958-27.773
			c-32.706-24.301-49.333-49.881-49.516-76.009c-0.183-36.726,32.889-70.711,98.483-100.676l0,0
			c38.918-17.723,85.328-46.227,85.145-80.212c-0.183-38.736-59.93-73.999-82.952-84.414c-5.481-2.558-8.039-8.953-5.481-14.434
			C243.091,63.973,247.111,61.597,251.314,61.597 M251.314,46.98L251.314,46.98c-10.049,0-19.185,5.847-23.387,15.165
			c-5.847,12.79,0,27.955,12.79,33.802c29.965,13.338,74.182,45.313,74.365,71.076c0,20.099-27.773,44.582-76.557,66.874
			l-0.183,0.183l0,0c-71.076,32.523-107.071,70.893-106.888,113.831c0.183,30.879,18.82,60.479,55.363,87.703
			c24.484,18.271,48.785,29.052,49.881,29.417c3.289,1.462,6.76,2.193,10.415,2.193c10.049,0,19.368-6.03,23.387-15.165
			c2.741-6.212,2.923-13.155,0.548-19.55s-7.309-11.328-13.521-14.252c-30.148-13.338-74.548-44.948-74.73-70.711
			c-0.183-20.099,27.955-44.582,77.106-67.056c0,0,0.183,0,0.183-0.183c70.711-32.34,106.523-70.528,106.34-113.466
			c-0.183-30.879-18.637-60.479-54.997-87.886c-24.301-18.271-48.602-29.234-49.516-29.6C258.44,47.711,254.968,46.98,251.314,46.98
			L251.314,46.98z"/>
	</g>
	
		<line style="fill:none;stroke:#1D1D1D;stroke-width:8;stroke-miterlimit:10;" x1="240.334" y1="242.761" x2="257.726" y2="273.344"/>
	<g>
		<path style="fill-rule:evenodd;clip-rule:evenodd;fill:#BDBDBD;" d="M73.535,93.025
			C190.471,203.043,307.406,313.062,424.342,423.08"/>
		<g>
			<path style="fill:none;stroke:#1D1D1D;stroke-width:10;stroke-miterlimit:10;" d="M73.535,93.025
				c1.457,1.37,2.913,2.741,4.37,4.111"/>
			<path style="fill:none;stroke:#1D1D1D;stroke-width:10;stroke-miterlimit:10;stroke-dasharray:12.0427,12.0427;" d="
				M86.676,105.389C196.313,208.54,305.95,311.691,415.586,414.842"/>
			<path style="fill:none;stroke:#1D1D1D;stroke-width:10;stroke-miterlimit:10;" d="M419.972,418.969
				c1.457,1.37,2.913,2.741,4.37,4.111"/>
		</g>
	</g>
</g>
<g id="Layer_1">
</g>
</svg>
