<?xml version="1.0" encoding="iso-8859-1"?>
<!-- Generator: Adobe Illustrator 27.7.0, SVG Export Plug-In . SVG Version: 6.00 Build 0)  -->
<svg version="1.1" xmlns="http://www.w3.org/2000/svg" xmlns:xlink="http://www.w3.org/1999/xlink" x="0px" y="0px"
	 viewBox="0 0 512 512" style="enable-background:new 0 0 512 512;" xml:space="preserve">
<g id="mod_x5F_transfer_x5F_uvs">
	<g>
		<g>
			<g>
				<rect x="56.606" y="196.837" style="fill-rule:evenodd;clip-rule:evenodd;fill:#BDBDBD;" width="270.623" height="270.619"/>
				<path style="fill:#1D1D1D;" d="M319.404,204.663v254.969H64.432V204.663H319.404 M335.055,189.012H48.781v286.27h286.274
					V189.012L335.055,189.012z"/>
			</g>
		</g>
		<g>
			<path style="fill-rule:evenodd;clip-rule:evenodd;fill:#1D1D1D;" d="M62.291,288.94h86.418v86.424H62.291V288.94z"/>
			<path style="fill-rule:evenodd;clip-rule:evenodd;fill:#1D1D1D;" d="M148.709,202.523h86.422v86.418h-86.422V202.523z"/>
			<path style="fill-rule:evenodd;clip-rule:evenodd;fill:#1D1D1D;" d="M148.709,375.364h86.422v86.414h-86.422V375.364z"/>
			<path style="fill-rule:evenodd;clip-rule:evenodd;fill:#1D1D1D;" d="M235.131,288.94h86.418v86.424h-86.418
				C235.131,375.364,235.131,288.94,235.131,288.94z"/>
		</g>
	</g>
	<g>
		<g>
			<rect x="127.685" y="59.894" style="fill-rule:evenodd;clip-rule:evenodd;fill:#FFBB63;" width="336.49" height="336.484"/>
			<path style="fill:#1D1D1D;" d="M456.35,67.72v320.834H135.51V67.72L456.35,67.72 M472,52.069h-15.65H135.51h-15.65v15.65v320.834
				v15.65h15.65h320.84H472v-15.65V67.72V52.069L472,52.069z"/>
		</g>
	</g>
	<g>
		<g>
			<g>
				<rect x="160.617" y="92.827" style="fill-rule:evenodd;clip-rule:evenodd;fill:#BDBDBD;" width="270.625" height="270.617"/>
				<path style="fill:#1D1D1D;" d="M423.415,100.652v254.969H168.442V100.652H423.415 M439.066,85.002H152.792v286.27h286.274
					V85.002L439.066,85.002z"/>
			</g>
		</g>
		<g>
			<path style="fill-rule:evenodd;clip-rule:evenodd;fill:#1D1D1D;" d="M166.302,184.928h86.418v86.424h-86.418V184.928z"/>
			<path style="fill-rule:evenodd;clip-rule:evenodd;fill:#1D1D1D;" d="M252.72,98.51h86.422v86.418H252.72V98.51z"/>
			<path style="fill-rule:evenodd;clip-rule:evenodd;fill:#1D1D1D;" d="M252.72,271.351h86.422v86.414H252.72V271.351z"/>
			<path style="fill-rule:evenodd;clip-rule:evenodd;fill:#1D1D1D;" d="M339.142,184.928h86.418v86.424h-86.418V184.928z"/>
		</g>
	</g>
	<rect style="fill:none;" width="509.131" height="509.131"/>
</g>
<g id="Layer_1">
</g>
</svg>
