<?xml version="1.0" encoding="iso-8859-1"?>
<!-- Generator: Adobe Illustrator 27.7.0, SVG Export Plug-In . SVG Version: 6.00 Build 0)  -->
<svg version="1.1" xmlns="http://www.w3.org/2000/svg" xmlns:xlink="http://www.w3.org/1999/xlink" x="0px" y="0px"
	 viewBox="0 0 512 512" style="enable-background:new 0 0 512 512;" xml:space="preserve">
<g id="root_x5F_rigging">
	<g>
		<path style="fill-rule:evenodd;clip-rule:evenodd;fill:#BDBDBD;" d="M311.847,470.47c-19.2,0-34.773-15.573-34.773-34.773V344.83
			h-35.627v90.867c0,19.2-15.573,34.773-34.773,34.773s-34.987-15.573-34.987-34.773V233.67h-70.4
			c-19.2,0-34.773-15.573-34.773-34.773s15.573-34.773,34.773-34.773H417.02c19.2,0,34.773,15.573,34.773,34.773
			S436.22,233.67,417.02,233.67h-70.4v202.027C346.62,454.897,331.047,470.47,311.847,470.47z M259.153,154.523
			c-33.707,0-61.227-27.52-61.227-61.227s27.52-61.227,61.227-61.227s61.227,27.52,61.227,61.227
			C320.38,127.217,292.86,154.523,259.153,154.523z"/>
		<path style="fill:#1D1D1D;" d="M259.153,40.817c29.013,0,52.693,23.467,52.693,52.693c0,29.013-23.68,52.693-52.693,52.693
			c-29.013,0-52.693-23.467-52.693-52.693S230.14,40.817,259.153,40.817 M417.02,172.443c14.507,0,26.24,11.733,26.24,26.24
			c0,14.507-11.733,26.24-26.24,26.24h-78.933v210.56c0,14.507-11.733,26.24-26.24,26.24s-26.24-11.733-26.24-26.24v-96.4h-52.693
			v96.4c0,14.507-11.733,26.24-26.24,26.24c-14.507,0-26.24-11.733-26.24-26.24v-210.56h-79.147c-14.507,0-26.24-11.733-26.24-26.24
			c-0.213-14.507,11.52-26.24,26.24-26.24H417.02 M259.153,23.75c-38.4,0-69.76,31.36-69.76,69.76
			c0,26.88,15.36,50.347,37.76,61.867H101.287c-23.893,0-43.307,19.413-43.307,43.307s19.413,43.307,43.307,43.307h61.867v193.493
			c0,23.893,19.413,43.307,43.307,43.307s43.307-19.413,43.307-43.307V356.15h18.56v79.333c0,23.893,19.413,43.307,43.307,43.307
			s43.307-19.413,43.307-43.307V241.99h61.867c23.893,0,43.307-19.413,43.307-43.307s-19.413-43.307-43.307-43.307H290.94
			c22.4-11.52,37.76-34.987,37.76-61.867C328.913,54.897,297.553,23.75,259.153,23.75L259.153,23.75z"/>
	</g>
	<g>
		<rect x="218.675" y="220.934" style="fill-rule:evenodd;clip-rule:evenodd;fill:#828282;" width="79.379" height="79.38"/>
		<path style="fill:#1D1D1D;" d="M290.555,228.433v64.38h-64.38v-64.38H290.555 M305.555,213.433h-15h-64.38h-15v15v64.38v15h15
			h64.38h15v-15v-64.38V213.433L305.555,213.433z"/>
	</g>
</g>
<g id="Layer_1">
</g>
</svg>
