# This file uses centimeters as units for non-parametric coordinates.

mtllib human_head_low_poly.mtl
g default
v -6.294230 -8.839035 0.927774
v -1.693706 -11.790085 7.871403
v -7.359939 7.202576 0.513826
v -1.951414 6.156586 8.303174
v 6.294257 -8.839050 0.927774
v 1.693732 -11.790085 7.871403
v 7.359969 7.202576 0.513826
v 1.951443 6.156586 8.303174
v -5.301681 6.784195 6.135502
v 5.301710 6.784180 6.135502
v 4.216409 -11.267075 4.399597
v -4.216383 -11.267090 4.399597
v -4.537982 -5.907043 -6.817069
v -5.756485 -1.504807 6.040835
v -1.822560 -4.717361 8.786108
v 1.822587 -4.717361 8.786108
v 5.756513 -1.504837 6.040835
v -5.615174 0.224976 5.461160
v -8.009668 0.553787 0.335790
v -0.581183 0.298965 8.649233
v 0.581211 0.298950 8.649232
v 5.615201 0.224976 5.461160
v 5.121169 2.022949 -9.287397
v 8.009698 0.553802 0.335790
v 7.515845 -4.460327 0.335775
v -7.515817 -4.460327 0.335775
v 5.167749 -6.385956 4.833561
v 1.758160 -7.303421 8.264217
v -1.758132 -7.303421 8.264217
v -5.167721 -6.385956 4.833561
v 0.000015 12.285629 0.927766
v 0.000015 10.055618 6.135499
v -4.548265 10.928040 0.927766
v -3.276297 8.698151 6.135501
v 4.548296 10.928040 0.927767
v 3.276326 8.698151 6.135501
v 0.000015 7.692184 7.893672
v -0.416855 -4.223282 10.406271
v 0.416884 -4.223297 10.406272
v 4.538007 -5.907043 -6.817069
v -5.121141 2.022934 -9.287397
v -0.576897 -3.528946 10.555943
v 0.576924 -3.528946 10.555943
v -5.151148 -1.318176 -8.637550
v 7.760881 1.470734 -5.868981
v -7.760851 1.470734 -5.868981
v 5.151175 -1.318192 -8.637550
v 7.515845 -2.800095 -5.406074
v -7.515817 -2.800079 -5.406074
v -6.294230 -7.285614 -3.843757
v 6.294257 -7.285614 -3.843757
v 4.548296 10.928055 -4.462448
v 7.359968 7.202576 -5.303690
v -4.548265 10.928055 -4.331990
v 0.000015 12.285629 -4.462448
v -7.359939 7.692169 -6.247322
v 1.822103 8.988419 -8.094505
v 4.528378 6.938110 -8.619736
v 0.000014 9.287872 -8.317065
v -1.822075 8.988449 -8.094505
v -4.528351 6.938110 -8.619736
v 0.000013 -5.907059 -7.698376
v 0.000013 -1.318192 -9.906096
v 0.000014 2.022934 -10.555943
v 0.000014 6.938095 -9.888281
v 5.312373 -8.483871 -3.184779
v 5.312373 -9.794937 0.842383
v -5.312345 -8.483871 -3.184779
v -5.312345 -9.794937 0.842383
v 0.000013 -7.320358 -6.438072
v -3.830050 -7.320343 -5.694247
v 3.830076 -7.320343 -5.694247
v -3.558621 -11.844208 3.772604
v -1.429484 -12.285629 6.702826
v 1.429511 -12.285629 6.702826
v 3.558647 -11.844208 3.772604
v -3.693036 1.156631 8.421669
v 3.693064 1.156631 8.421669
v -0.731913 1.660995 9.312996
v 0.731941 1.660995 9.312996
v 7.964682 -0.336411 -0.923871
v -7.964654 -0.336395 -0.923871
v -7.515817 -5.441757 -0.692408
v 7.515845 -5.441757 -0.692408
v 8.004312 0.567154 -2.685400
v -7.651100 -4.897690 -2.213228
v 7.651128 -4.897690 -2.213228
v -8.004282 0.567184 -2.685400
v 8.863384 0.337585 -2.137892
v 8.417748 -4.728577 -1.848580
v -8.863357 0.337585 -2.137892
v 0.000013 -8.483871 -3.184779
v -8.417721 -4.728577 -1.848580
v -9.841351 -0.811356 -3.556506
v -9.561878 -2.907913 -3.376558
v -9.508687 -0.724762 -3.903254
v -9.284147 -2.835754 -3.687307
v 9.561876 -2.907928 -3.376542
v 9.841351 -0.811386 -3.556489
v 9.284149 -2.835770 -3.687290
v 9.508690 -0.724792 -3.903237
v -1.998905 -12.167572 5.919162
v 0.000013 -2.368744 -9.400665
v 7.900501 -0.554886 0.335787
v -7.900091 -0.558762 0.335786
v 0.618250 0.633652 8.638977
v -0.619039 0.641037 8.642579
v -2.487777 -0.865097 7.559937
v 2.480250 -0.868134 7.430373
v 2.679387 0.465073 7.005959
v -2.530456 0.481873 7.103200
vt 0.702341 0.431644
vt 0.668883 0.518012
vt 0.248225 0.765368
vt 0.828270 0.432385
vt 0.232989 0.768222
vt 0.686554 0.434022
vt 0.585606 0.621632
vt 0.690501 0.478416
vt 0.144380 0.914617
vt 0.231564 0.738394
vt 0.668074 0.487777
vt 0.705879 0.486618
vt 0.824733 0.487360
vt 0.862538 0.488519
vt 0.862538 0.465717
vt 0.668074 0.464976
vt 0.842084 0.456960
vt 0.826484 0.452788
vt 0.704128 0.452047
vt 0.688527 0.456219
vt 0.064099 0.801855
vt 0.670766 0.534954
vt 0.694448 0.524813
vt 0.859846 0.535695
vt 0.271998 0.776925
vt 0.257099 0.772351
vt 0.255203 0.718166
vt 0.752032 0.953160
vt 0.624313 0.494458
vt 0.254475 0.721323
vt 0.816062 0.469953
vt 0.890754 0.492688
vt 0.639858 0.491947
vt 0.629667 0.600764
vt 0.093544 0.648023
vt 0.881544 0.452869
vt 0.884358 0.535695
vt 0.888183 0.518754
vt 0.043416 0.826367
vt 0.064099 0.826367
vt 0.638137 0.520239
vt 0.614528 0.553895
vt 0.626835 0.563219
vt 0.606242 0.552534
vt 0.597956 0.553895
vt 0.606242 0.621632
vt 0.606242 0.600764
vt 0.146324 0.651020
vt 0.146324 0.669333
vt 0.098009 0.651020
vt 0.122166 0.636226
vt 0.139583 0.639608
vt 0.105984 0.682658
vt 0.115666 0.695983
vt 0.138349 0.682658
vt 0.240305 0.742631
vt 0.253770 0.744924
vt 0.260427 0.744924
vt 0.061059 0.952573
vt 0.662345 0.483729
vt 0.136709 0.965957
vt 0.112032 0.966193
vt 0.876276 0.488579
vt 0.656482 0.462987
vt 0.874129 0.463728
vt 0.654335 0.487838
vt 0.116133 0.960936
vt 0.080109 0.958093
vt 0.132607 0.960700
vt 0.248563 0.956783
vt 0.249381 0.947249
vt 0.246986 0.957177
vt 0.280397 0.947250
vt 0.281215 0.956784
vt 0.282792 0.957177
vt 0.839230 0.487023
vt 0.861728 0.518754
vt 0.128667 0.695983
vt 0.281208 0.768222
vt 0.670766 0.445064
vt 0.694448 0.516110
vt 0.844058 0.434764
vt 0.105984 0.682658
vt 0.138349 0.682658
vt 0.098009 0.669333
vt 0.688527 0.456219
vt 0.686554 0.434022
vt 0.128097 0.902857
vt 0.144087 0.902857
vt 0.128390 0.882454
vt 0.143794 0.882454
vt 0.128097 0.902857
vt 0.144087 0.902857
vt 0.706501 0.463807
vt 0.688527 0.456219
vt 0.694448 0.516110
vt 0.691381 0.486282
vt 0.668883 0.518012
vt 0.844058 0.434764
vt 0.842084 0.456960
vt 0.839230 0.487023
vt 0.839230 0.487023
vt 0.842084 0.456960
vt 0.824110 0.464548
vt 0.826484 0.452788
vt 0.862538 0.465717
vt 0.842084 0.456960
vt 0.840111 0.479157
vt 0.582818 0.600764
vt 0.606242 0.600764
vt 0.629531 0.585571
vt 0.668074 0.487777
vt 0.690501 0.478416
vt 0.668074 0.464976
vt 0.688527 0.456219
vt 0.242200 0.776925
vt 0.232989 0.768222
vt 0.248225 0.765368
vt 0.836164 0.525555
vt 0.836164 0.516851
vt 0.861728 0.518754
vt 0.084782 0.801855
vt 0.064099 0.778174
vt 0.078998 0.778174
vt 0.257099 0.783099
vt 0.271998 0.776925
vt 0.265973 0.765368
vt 0.248225 0.765368
vt 0.242200 0.776925
vt 0.257099 0.772351
vt 0.257099 0.783099
vt 0.049200 0.778174
vt 0.043416 0.801855
vt 0.064099 0.778174
vt 0.064099 0.801855
vt 0.248811 0.715919
vt 0.744664 0.963343
vt 0.752032 0.956951
vt 0.744664 0.946767
vt 0.259722 0.721323
vt 0.254475 0.721323
vt 0.259742 0.738731
vt 0.254456 0.738731
vt 0.254475 0.721323
vt 0.259722 0.721323
vt 0.255203 0.718166
vt 0.258994 0.718166
vt 0.259722 0.721323
vt 0.258994 0.718166
vt 0.265387 0.715919
vt 0.714549 0.469211
vt 0.706501 0.463807
vt 0.888649 0.473267
vt 0.641963 0.472526
vt 0.136094 0.959042
vt 0.098009 0.669333
vt 0.122166 0.651020
vt 0.146324 0.669333
vt 0.146324 0.669333
vt 0.122166 0.651020
vt 0.112647 0.959278
vt 0.859846 0.535695
vt 0.861728 0.518754
vt 0.043416 0.801855
vt 0.064099 0.801855
vt 0.064099 0.801855
vt 0.064099 0.826367
vt 0.084782 0.801855
vt 0.084782 0.826367
vt 0.061239 0.960583
vt 0.670766 0.534954
vt 0.668883 0.518012
vt 0.646254 0.534954
vt 0.668074 0.487777
vt 0.668883 0.518012
vt 0.638137 0.520239
vt 0.884358 0.535695
vt 0.888183 0.518754
vt 0.626925 0.545075
vt 0.606242 0.538902
vt 0.614528 0.553895
vt 0.585559 0.545075
vt 0.606242 0.538902
vt 0.606242 0.552534
vt 0.585559 0.545075
vt 0.597956 0.553895
vt 0.639858 0.491947
vt 0.638137 0.520239
vt 0.903262 0.517551
vt 0.888183 0.518754
vt 0.146324 0.651020
vt 0.122166 0.651020
vt 0.098009 0.651020
vt 0.122166 0.651020
vt 0.104749 0.639608
vt 0.122166 0.636226
vt 0.888649 0.473267
vt 0.641963 0.472526
vt 0.627268 0.479265
vt 0.639858 0.491947
vt 0.627268 0.479265
vt 0.641963 0.472526
vt 0.888649 0.473267
vt 0.890754 0.492688
vt 0.903344 0.480006
vt 0.906299 0.495199
vt 0.690501 0.478416
vt 0.691381 0.486282
vt 0.582954 0.585571
vt 0.606242 0.585571
vt 0.585650 0.563219
vt 0.606242 0.563219
vt 0.606242 0.563219
vt 0.585650 0.563219
vt 0.606242 0.563219
vt 0.606242 0.585571
vt 0.626835 0.563219
vt 0.582818 0.600764
vt 0.606242 0.600764
vt 0.582954 0.585571
vt 0.606242 0.585571
vt 0.606242 0.600764
vt 0.606242 0.621632
vt 0.629667 0.600764
vt 0.626879 0.621632
vt 0.606242 0.563219
vt 0.606242 0.552534
vt 0.597956 0.553895
vt 0.606242 0.552534
vt 0.626835 0.563219
vt 0.614528 0.553895
vt 0.585650 0.563219
vt 0.572773 0.559790
vt 0.881544 0.452869
vt 0.878547 0.447420
vt 0.859846 0.445805
vt 0.860234 0.441458
vt 0.093544 0.669722
vt 0.098009 0.651020
vt 0.098009 0.669333
vt 0.101530 0.634502
vt 0.104749 0.639608
vt 0.122166 0.630495
vt 0.122166 0.636226
vt 0.101530 0.634502
vt 0.093544 0.648023
vt 0.104749 0.639608
vt 0.098009 0.651020
vt 0.142803 0.634502
vt 0.139583 0.639608
vt 0.150789 0.648023
vt 0.146324 0.651020
vt 0.114464 0.701297
vt 0.102992 0.685510
vt 0.105984 0.682658
vt 0.828270 0.432385
vt 0.844058 0.434764
vt 0.833584 0.430132
vt 0.846909 0.432139
vt 0.129868 0.701297
vt 0.128667 0.695983
vt 0.115666 0.695983
vt 0.859846 0.445805
vt 0.860234 0.441458
vt 0.844058 0.434764
vt 0.846909 0.432139
vt 0.093544 0.669722
vt 0.102992 0.685510
vt 0.098009 0.669333
vt 0.105984 0.682658
vt 0.254456 0.738731
vt 0.248225 0.765368
vt 0.232989 0.768222
vt 0.281208 0.768222
vt 0.273893 0.742631
vt 0.253770 0.744924
vt 0.240305 0.742631
vt 0.253770 0.744924
vt 0.260427 0.744924
vt 0.254456 0.738731
vt 0.259742 0.738731
vt 0.265973 0.765368
vt 0.248225 0.765368
vt 0.265973 0.765368
vt 0.253770 0.744924
vt 0.260427 0.744924
vt 0.333703 0.952206
vt 0.320240 0.960947
vt 0.824110 0.464548
vt 0.691381 0.486282
vt 0.690501 0.478416
vt 0.840111 0.479157
vt 0.895065 0.459138
vt 0.903344 0.480006
vt 0.635546 0.458397
vt 0.649067 0.452128
vt 0.890754 0.492688
vt 0.906299 0.495199
vt 0.627349 0.516810
vt 0.624313 0.494458
vt 0.862538 0.488519
vt 0.862538 0.465717
vt 0.663398 0.460513
vt 0.668074 0.464976
vt 0.888183 0.518754
vt 0.890754 0.492688
vt 0.861728 0.518754
vt 0.084015 0.960583
vt 0.084195 0.952573
vt 0.670766 0.445064
vt 0.668074 0.464976
vt 0.663398 0.460513
vt 0.867213 0.461254
vt 0.859846 0.445805
vt 0.122166 0.636226
vt 0.139583 0.639608
vt 0.122166 0.630495
vt 0.142803 0.634502
vt 0.261587 0.935726
vt 0.260534 0.958943
vt 0.256329 0.938970
vt 0.256329 0.938970
vt 0.260534 0.958943
vt 0.274764 0.962008
vt 0.269243 0.958943
vt 0.273449 0.938970
vt 0.268191 0.935727
vt 0.247968 0.947577
vt 0.281810 0.947578
vt 0.862538 0.488519
vt 0.876276 0.488579
vt 0.876276 0.488579
vt 0.868266 0.484470
vt 0.668074 0.487777
vt 0.654335 0.487838
vt 0.654335 0.487838
vt 0.639858 0.491947
vt 0.881544 0.452869
vt 0.888649 0.473267
vt 0.874129 0.463728
vt 0.656482 0.462987
vt 0.641963 0.472526
vt 0.649067 0.452128
vt 0.249381 0.947249
vt 0.255014 0.962008
vt 0.248563 0.956783
vt 0.084015 0.960583
vt 0.080109 0.958093
vt 0.077174 0.966121
vt 0.075661 0.964545
vt 0.297843 0.962906
vt 0.296237 0.938055
vt 0.290417 0.953530
vt 0.289396 0.943930
vt 0.136094 0.959042
vt 0.128667 0.952338
vt 0.132607 0.960700
vt 0.127404 0.953751
vt 0.273449 0.938970
vt 0.280397 0.947250
vt 0.280397 0.947250
vt 0.281215 0.956784
vt 0.112647 0.959278
vt 0.116133 0.960936
vt 0.120073 0.952574
vt 0.121336 0.953987
vt 0.304818 0.962906
vt 0.312244 0.953530
vt 0.306424 0.938055
vt 0.313265 0.943930
vt 0.068080 0.966121
vt 0.065145 0.958093
vt 0.069593 0.964544
vt 0.874129 0.463728
vt 0.881544 0.452869
vt 0.867213 0.461254
vt 0.859846 0.445805
vt 0.670766 0.445064
vt 0.649067 0.452128
vt 0.663398 0.460513
vt 0.656482 0.462987
vt 0.113076 0.692420
vt 0.113076 0.692420
vt 0.606242 0.605541
vt 0.606242 0.605541
vt 0.862538 0.483477
vt 0.862538 0.483477
vt 0.668074 0.482718
vt 0.668074 0.482718
vt 0.332472 0.907864
vt 0.259910 0.740253
vt 0.254284 0.740286
vt 0.254284 0.740286
vt 0.483167 0.606585
vt 0.832911 0.487170
vt 0.541499 0.734276
vt 0.421508 0.643110
vt 0.279517 0.824706
vn -0.822081 0.256644 0.508248
vn -0.899733 0.053886 0.433102
vn -0.581329 0.113071 0.805774
vn 0.000000 0.545880 0.837863
vn -0.295050 0.274447 0.915218
vn 0.295051 0.274447 0.915218
vn 0.899378 0.053943 0.433831
vn 0.970208 0.066468 0.232979
vn 0.932713 0.299188 0.201329
vn 0.822081 0.256644 0.508249
vn 0.321289 0.671677 -0.667550
vn 0.522152 0.325654 -0.788230
vn -0.000000 0.242628 -0.970119
vn -0.004835 0.718341 -0.695675
vn -0.093079 -0.892796 -0.440740
vn 0.093080 -0.892796 -0.440740
vn 0.100042 -0.994979 0.002930
vn -0.100040 -0.994979 0.002929
vn -0.117186 -0.991036 -0.064145
vn 0.231547 0.197873 0.952488
vn 0.581329 0.113071 0.805774
vn -0.838655 -0.156920 0.521569
vn -0.933143 -0.158893 0.322486
vn -0.910325 -0.350585 0.219996
vn -0.824213 -0.304635 0.477357
vn -0.551860 0.811031 0.194110
vn -0.934425 0.294779 0.199887
vn -0.483422 0.720664 0.496936
vn 0.450957 -0.149927 0.879864
vn 0.471857 -0.264352 0.841112
vn 0.824213 -0.304634 0.477358
vn 0.838383 -0.154767 0.522649
vn -0.131844 -0.912315 -0.387683
vn 0.163823 -0.899320 -0.405446
vn -0.450957 -0.149927 0.879863
vn -0.471857 -0.264352 0.841112
vn 0.483613 -0.112008 0.868086
vn -0.486449 -0.120532 0.865355
vn -0.972360 0.067041 0.223657
vn 0.933152 -0.158871 0.322472
vn 0.910325 -0.350585 0.219996
vn 0.809226 -0.072515 0.583004
vn 0.606837 -0.007972 0.794787
vn -0.000000 -0.472609 -0.881272
vn -0.417838 -0.456375 -0.785578
vn -0.468842 -0.281367 -0.837269
vn -0.000000 -0.316858 -0.948473
vn -0.000000 -0.413191 -0.910644
vn 0.526029 0.028070 -0.850003
vn -0.000000 0.007559 -0.999971
vn -0.946370 -0.082736 0.312313
vn -0.810799 -0.077335 0.580194
vn 0.554905 0.810252 0.188606
vn 0.483423 0.720664 0.496937
vn 0.001002 0.979507 0.201407
vn 0.000000 0.850612 0.525794
vn -0.859823 0.204500 0.467851
vn -0.381185 -0.277927 0.881734
vn -0.518802 0.318957 0.793165
vn -0.000003 -0.956513 0.291691
vn -0.000003 -0.956513 0.291691
vn -0.000003 -0.956513 0.291691
vn -0.000003 -0.956513 0.291691
vn 0.518803 0.318957 0.793165
vn 0.238789 0.432746 0.869316
vn -0.238788 0.432746 0.869317
vn 0.381194 -0.277924 0.881731
vn 0.859823 0.204500 0.467851
vn 0.998518 0.043424 -0.032792
vn 0.993317 -0.069860 -0.091877
vn 0.875816 -0.217091 -0.431066
vn 0.894810 0.020866 -0.445959
vn -0.997298 0.067627 -0.028680
vn -0.891345 -0.007655 -0.453261
vn -0.875816 -0.217090 -0.431066
vn -0.931867 -0.321408 -0.168288
vn -0.945334 -0.325385 0.021658
vn -0.879105 -0.281489 0.384627
vn -0.154362 -0.925852 -0.344921
vn -0.000000 -0.942888 -0.333110
vn 0.260395 -0.894071 -0.364460
vn 0.880383 -0.430217 -0.199599
vn 0.406112 -0.767430 -0.496108
vn 0.945338 -0.325372 0.021658
vn 0.548076 0.806630 -0.221271
vn 0.876774 0.376467 -0.299233
vn -0.537603 0.821634 -0.189476
vn -0.000368 0.974218 -0.225606
vn 0.338294 0.936161 -0.095704
vn -0.052310 0.889032 0.454847
vn 0.326855 0.941972 -0.076520
vn -0.855996 0.391976 -0.337084
vn -0.277155 0.686432 -0.672307
vn -0.468025 0.316918 -0.824933
vn -0.501323 0.006473 -0.865236
vn 0.149862 -0.834695 -0.529930
vn 0.000000 -0.838991 -0.544145
vn -0.149862 -0.834695 -0.529930
vn 0.754140 -0.496626 -0.429693
vn 0.417837 -0.456376 -0.785578
vn 0.468841 -0.281367 -0.837269
vn -0.754141 -0.496625 -0.429692
vn -0.604175 -0.021070 0.796573
vn -0.231547 0.197873 0.952487
vn 0.533385 0.108357 0.838903
vn -0.525146 0.165768 0.834711
vn -0.528592 0.166656 0.832356
vn 0.536495 0.108818 0.836858
vn 0.955926 -0.066655 0.285943
vn 0.809379 -0.039870 0.585932
vn -0.954100 -0.047110 0.295761
vn -0.827611 0.257137 0.498939
vn -0.916803 -0.221234 0.332457
vn -0.931520 0.130737 0.339380
vn 0.916805 -0.221234 0.332452
vn 0.491875 0.116053 -0.862897
vn 0.505816 -0.123026 -0.853824
vn 0.931522 0.130732 0.339377
vn -0.505817 -0.123026 -0.853823
vn -0.491875 0.116052 -0.862897
vn 0.648250 -0.019703 -0.761173
vn 0.648250 -0.019703 -0.761173
vn -0.648252 -0.019703 -0.761171
vn -0.648252 -0.019703 -0.761171
vn 0.549081 0.156164 0.821050
vn 0.528444 0.168840 0.832010
vn 0.946366 -0.082699 0.312335
vn 0.809058 -0.049389 0.585650
vn 0.125729 -0.740999 0.659631
vn 0.133270 -0.750954 0.646766
vn 0.152868 -0.860785 0.485470
vn 0.154840 -0.856655 0.492105
vn -0.123493 -0.736764 0.664777
vn -0.130913 -0.746626 0.652236
vn -0.118743 -0.922457 0.367387
vn -0.153149 -0.858052 0.490196
vn -0.151287 -0.862160 0.483520
vn -0.536789 0.228318 0.812237
vn -0.525774 0.235468 0.817384
vn -0.469856 0.270083 0.840411
vn -0.561949 0.161201 0.811312
vn 0.604410 0.170804 0.778148
vn 0.468896 0.203568 0.859474
vn 0.117480 -0.922890 0.366704
s 1
g human_head_low_poly
usemtl initialShadingGroup
f 9/5/1 18/10/2 77/56/3
f 37/26/4 4/3/5 8/127/6
f 22/101/7 24/14/8 7/77/9 10/274/10
f 57/42/11 58/43/12 65/226/13 59/227/14
f 73/53/15 76/55/16 75/78/17 74/54/18 102/382/19
f 8/282/6 80/58/20 78/275/21 10/79/10
f 30/20/22 26/16/23 1/80/24 12/6/25
f 33/22/26 3/2/27 9/81/1 34/23/28
f 28/18/29 6/4/30 11/82/31 27/17/32
f 76/84/16 73/83/15 69/85/33 67/49/34
f 29/19/35 30/86/22 12/87/25 2/1/36
f 28/89/29 29/88/35 2/90/36 6/91/30
f 29/92/35 28/93/29 16/9/37 15/94/38
f 18/97/2 9/96/1 3/98/27 19/11/39
f 78/275/21 22/76/7 10/274/10
f 25/15/40 27/100/32 11/99/31 5/314/41
f 16/104/37 27/103/32 17/292/42 109/395/43
f 62/46/44 13/7/45 44/109/46 63/47/47 103/384/48
f 23/111/49 64/216/50 65/215/13 58/217/12
f 19/112/39 105/388/51 14/207/52 18/208/2
f 34/116/28 9/117/1 4/118/5
f 35/24/53 36/119/54 10/120/10 7/121/9
f 35/122/53 31/21/55 32/123/56 36/124/54
f 34/129/28 4/128/5 37/130/4 32/131/56
f 33/133/26 34/132/28 32/134/56 31/135/55
s 10
f 15/136/57 38/27/58 42/30/59
s off
f 38/138/60 15/137/61 16/139/62 39/28/63
s 10
f 42/141/59 43/140/64 21/142/65 20/143/66
f 43/145/64 42/144/59 38/146/58 39/147/67
f 43/148/64 39/149/67 16/150/68
s 1
f 85/63/69 87/65/70 48/153/71 45/32/72
f 88/66/73 46/33/74 49/154/75 86/64/76
f 83/61/77 93/69/78 86/155/76
f 69/156/33 68/50/79 92/157/80 67/158/34
f 67/159/34 92/160/80 66/48/81
f 87/161/82 90/67/83 84/62/84
f 52/37/85 35/162/53 7/163/9 53/38/86
f 54/39/87 33/164/26 31/165/55 55/40/88
f 55/167/88 31/166/55 35/168/53 52/169/85
f 85/170/89 81/59/90 89/372/91
f 3/172/27 33/171/26 54/173/87 56/41/92
f 46/337/74 88/336/73 56/176/92
f 52/177/85 53/178/86 58/230/12 57/231/11
f 55/180/88 52/179/85 57/181/11 59/44/14
f 60/45/93 54/182/87 55/183/88 59/184/14
f 54/185/87 60/186/93 61/232/94 56/233/92
f 46/187/74 56/188/92 61/299/94 41/300/95
f 58/189/12 53/190/86 45/297/72 23/298/49
f 72/52/96 66/191/81 92/192/80 70/51/97
f 92/194/80 68/193/79 71/195/98 70/196/97
f 48/197/71 51/36/99 40/293/100 47/294/101
f 49/198/75 44/199/46 13/295/45 50/296/102
f 46/200/74 41/29/95 44/201/46 49/202/75
f 45/204/72 48/203/71 47/205/101 23/206/49
f 64/210/50 41/209/95 61/211/94 65/212/13
f 65/213/13 61/214/94 60/228/93 59/229/14
f 63/219/47 44/218/46 41/220/95 64/221/50
f 62/223/44 103/385/48 63/222/47 47/224/101 40/225/100
f 66/235/81 51/234/99 5/236/41 67/237/34
f 1/238/24 50/35/102 68/239/79 69/240/33
f 71/242/98 13/241/45 62/243/44 70/244/97
f 50/246/102 13/245/45 71/247/98 68/248/79
f 72/250/96 40/249/100 51/251/99 66/252/81
f 2/253/36 12/254/25 73/255/15 102/383/19 74/262/18
f 11/257/31 6/256/30 75/258/17 76/259/16
f 67/264/34 5/263/41 11/265/31 76/266/16
f 12/268/25 1/267/24 69/269/33 73/270/15
f 108/394/103 18/290/2 14/291/52
f 4/272/5 9/273/1 77/277/3 79/276/104
s 17
f 106/391/105 107/393/106 20/280/107 21/281/108
s 1
f 8/284/6 4/283/5 79/285/104 80/286/20
f 81/333/109 84/327/84 90/326/110
f 82/60/111 105/389/51 19/334/39 88/335/73
f 7/307/9 24/330/8 85/331/69 53/305/86
f 88/308/73 91/68/112 82/309/111
f 1/310/24 26/311/23 83/312/77
f 72/316/96 70/315/97 62/317/44 40/318/100
f 83/319/77 82/320/111 93/321/78
f 95/344/113 82/323/111 91/345/112 94/346/114
f 98/360/115 81/325/109 90/359/110
f 94/70/114 96/72/116 97/328/117 95/71/113
f 99/74/118 98/73/115 100/329/119 101/75/120
f 51/338/99 48/339/71 87/340/82
f 86/341/76 49/342/75 50/343/102
f 91/348/112 88/347/73 96/349/116 94/350/114
f 88/352/121 86/351/122 97/353/117 96/354/116
f 97/356/117 86/355/76 93/357/78 95/358/113
f 90/364/83 87/363/82 100/365/119 98/366/115
f 100/368/119 87/367/123 85/369/124 101/370/120
f 51/375/99 87/374/82 84/376/84 5/377/41
f 50/379/102 1/378/24 83/380/77 86/381/76
f 37/26/4 8/127/6 36/126/54 32/125/56
s 17
f 109/395/125 110/396/126 106/390/105 21/13/108
s 10
f 16/289/68 21/13/65 43/31/64
f 15/152/57 42/151/59 20/12/66
s 1
f 24/14/8 22/102/7 17/108/42 104/386/127
f 24/301/8 104/387/127 81/333/109 85/332/69
f 85/170/89 89/372/91 99/373/118 101/371/120
f 25/15/40 5/314/41 84/313/84
f 23/111/49 47/34/101 63/110/47 64/216/50
f 10/79/10 36/25/54 8/282/6
f 29/92/35 15/94/38 30/95/22
f 2/253/36 74/262/18 75/261/17 6/260/30
f 93/322/78 82/323/111 95/344/113
f 89/324/128 81/325/109 98/361/115 99/362/118
f 25/106/40 104/386/127 17/108/42 27/107/32
f 81/333/109 104/387/127 25/302/40 84/327/84
f 82/60/111 83/303/77 26/304/23 105/389/51
f 14/113/52 105/388/51 26/114/23 30/115/22
f 14/8/52 30/95/22 15/152/38 108/394/103
f 27/103/32 16/104/37 28/105/29
s 19
f 80/58/129 106/390/130 110/396/131 78/275/132
f 80/279/129 79/278/133 107/393/134 106/391/130
f 18/288/135 111/398/136 77/287/137
s 17
f 108/394/138 111/397/139 18/290/140
s 1
f 109/395/43 17/292/42 22/76/7
f 20/271/141 108/394/103 15/152/38
f 16/289/37 109/395/43 21/13/142
s 17
f 22/76/143 110/396/126 109/395/125
s 19
f 78/275/132 110/396/131 22/76/144
s 17
f 20/271/107 107/392/106 111/397/139 108/394/138
s 19
f 77/287/137 111/398/136 107/392/134 79/57/133
s 1
f 45/306/72 53/305/86 85/331/69
f 3/175/27 56/176/92 88/336/73 19/174/39
