# This file uses centimeters as units for non-parametric coordinates.

mtllib sphere_platonic_octahedron.mtl
g default
v 0.000000 0.000000 1.000000
v 1.000000 0.000000 0.000000
v 0.000000 1.000000 0.000000
v -1.000000 0.000000 0.000000
v 0.000000 -1.000000 0.000000
v 0.000000 0.000000 -1.000000
v 0.707107 0.707107 0.000000
v 0.000000 0.707107 0.707107
v 0.707107 0.000000 0.707107
v 0.577350 0.577350 0.577350
v -0.707107 0.707107 0.000000
v -0.707107 0.000000 0.707107
v -0.577350 0.577350 0.577350
v -0.707107 -0.707107 0.000000
v 0.000000 -0.707107 0.707107
v -0.577350 -0.577350 0.577350
v 0.707107 -0.707107 0.000000
v 0.577350 -0.577350 0.577350
v 0.000000 0.707107 -0.707107
v 0.707107 0.000000 -0.707107
v 0.577350 0.577350 -0.577350
v -0.707107 0.000000 -0.707107
v -0.577350 0.577350 -0.577350
v 0.000000 -0.707107 -0.707107
v -0.577350 -0.577350 -0.577350
v 0.577350 -0.577350 -0.577350
v 0.948683 0.000000 0.316228
v 0.948683 0.316228 0.000000
v 0.680414 0.680414 0.272166
v 0.680414 0.272166 0.680414
v 0.892607 0.318788 0.318788
v 0.316228 0.948683 0.000000
v 0.000000 0.948683 0.316228
v 0.272166 0.680414 0.680414
v 0.318788 0.892607 0.318788
v 0.000000 0.316228 0.948683
v 0.316228 0.000000 0.948683
v 0.318788 0.318788 0.892607
v -0.316228 0.948683 0.000000
v -0.680414 0.680414 0.272166
v -0.272166 0.680414 0.680414
v -0.318788 0.892607 0.318788
v -0.948683 0.316228 0.000000
v -0.948683 0.000000 0.316228
v -0.680414 0.272166 0.680414
v -0.892607 0.318788 0.318788
v -0.316228 0.000000 0.948683
v -0.318788 0.318788 0.892607
v -0.948683 -0.316228 0.000000
v -0.680414 -0.680414 0.272166
v -0.680414 -0.272166 0.680414
v -0.892607 -0.318788 0.318788
v -0.316228 -0.948683 0.000000
v 0.000000 -0.948683 0.316228
v -0.272166 -0.680414 0.680414
v -0.318788 -0.892607 0.318788
v 0.000000 -0.316228 0.948683
v -0.318788 -0.318788 0.892607
v 0.272166 -0.680414 0.680414
v 0.680414 -0.272166 0.680414
v 0.318788 -0.318788 0.892607
v 0.316228 -0.948683 0.000000
v 0.680414 -0.680414 0.272166
v 0.318788 -0.892607 0.318788
v 0.948683 -0.316228 0.000000
v 0.892607 -0.318788 0.318788
v 0.316228 0.000000 -0.948683
v 0.000000 0.316228 -0.948683
v 0.272166 0.680414 -0.680414
v 0.680414 0.272166 -0.680414
v 0.318788 0.318788 -0.892607
v 0.000000 0.948683 -0.316228
v 0.680414 0.680414 -0.272166
v 0.318788 0.892607 -0.318788
v 0.948683 0.000000 -0.316228
v 0.892607 0.318788 -0.318788
v -0.316228 0.000000 -0.948683
v -0.680414 0.272166 -0.680414
v -0.272166 0.680414 -0.680414
v -0.318788 0.318788 -0.892607
v -0.948683 0.000000 -0.316228
v -0.680414 0.680414 -0.272166
v -0.892607 0.318788 -0.318788
v -0.318788 0.892607 -0.318788
v 0.000000 -0.316228 -0.948683
v -0.272166 -0.680414 -0.680414
v -0.680414 -0.272166 -0.680414
v -0.318788 -0.318788 -0.892607
v 0.000000 -0.948683 -0.316228
v -0.680414 -0.680414 -0.272166
v -0.318788 -0.892607 -0.318788
v -0.892607 -0.318788 -0.318788
v 0.680414 -0.272166 -0.680414
v 0.272166 -0.680414 -0.680414
v 0.318788 -0.318788 -0.892607
v 0.680414 -0.680414 -0.272166
v 0.892607 -0.318788 -0.318788
v 0.318788 -0.892607 -0.318788
vt 0.375068 0.505238
vt 0.578928 0.504731
vt 0.682045 0.820988
vt 0.171208 0.505933
vt 0.876302 0.176283
vt 0.782788 0.504726
vt 0.578928 0.620650
vt 0.375068 0.620603
vt 0.476998 0.504900
vt 0.476998 0.589202
vt 0.171208 0.623719
vt 0.273138 0.505634
vt 0.273138 0.590127
vt 0.171208 0.388716
vt 0.375068 0.389718
vt 0.273138 0.421241
vt 0.578928 0.388475
vt 0.476998 0.420486
vt 0.782788 0.620596
vt 0.680858 0.504706
vt 0.680858 0.589677
vt 0.069278 0.506037
vt 0.069278 0.596994
vt 0.782788 0.388830
vt 0.069278 0.415327
vt 0.680858 0.419674
vt 0.537170 0.504784
vt 0.578928 0.547482
vt 0.529545 0.611825
vt 0.476998 0.540848
vt 0.534410 0.547527
vt 0.578928 0.743411
vt 0.375068 0.743252
vt 0.424450 0.611809
vt 0.476998 0.687892
vt 0.375068 0.547783
vt 0.416825 0.505089
vt 0.419586 0.547696
vt 0.171208 0.743471
vt 0.220590 0.613598
vt 0.325685 0.612194
vt 0.273138 0.688357
vt 0.171208 0.549572
vt 0.212965 0.505821
vt 0.273138 0.541658
vt 0.215726 0.548962
vt 0.333310 0.505408
vt 0.330550 0.548085
vt 0.171208 0.462373
vt 0.220590 0.398317
vt 0.273138 0.469623
vt 0.215726 0.462728
vt 0.171208 0.270864
vt 0.375068 0.266509
vt 0.325685 0.398668
vt 0.273138 0.323405
vt 0.375068 0.462673
vt 0.330550 0.462751
vt 0.424450 0.398089
vt 0.476998 0.468953
vt 0.419586 0.462416
vt 0.578928 0.264507
vt 0.529545 0.397526
vt 0.476998 0.321264
vt 0.578928 0.461960
vt 0.534410 0.462011
vt 0.741030 0.504731
vt 0.782788 0.547257
vt 0.733405 0.612409
vt 0.680858 0.540902
vt 0.738269 0.547595
vt 0.782788 0.750804
vt 0.628310 0.612384
vt 0.680858 0.690342
vt 0.620685 0.504723
vt 0.623446 0.547665
vt 0.009105 0.506027
vt 0.069278 0.544623
vt 0.016730 0.625324
vt 0.011866 0.552516
vt 0.129450 0.506000
vt 0.121825 0.618039
vt 0.126690 0.550721
vt 0.069278 0.702724
vt 0.782788 0.462208
vt 0.016730 0.387053
vt 0.069278 0.467492
vt 0.011866 0.459600
vt 0.782788 0.259098
vt 0.121825 0.394408
vt 0.069278 0.310361
vt 0.126690 0.461383
vt 0.680858 0.468525
vt 0.733405 0.396962
vt 0.738269 0.461828
vt 0.628310 0.396828
vt 0.623446 0.461738
vt 0.680858 0.318731
vt 0.832170 0.609115
vt 0.827306 0.546830
vt 0.824545 0.504746
vt 0.986648 0.759446
vt 0.884718 0.692595
vt 0.827306 0.462618
vt 0.832170 0.400094
vt 0.884718 0.315194
vt 0.986648 0.242000
vt 0.485924 0.822350
vt 0.277428 0.816017
vt 0.888483 0.837155
vt 0.272367 0.201092
vt 0.474825 0.195416
vt 0.671095 0.191737
vn 0.674869 0.298504 0.674869
vn 0.707107 -0.000000 0.707107
vn 0.931089 -0.000000 0.364792
vn 0.875173 0.342105 0.342105
vn 1.000000 0.000000 0.000000
vn 0.931089 0.364792 -0.000000
vn 0.707107 0.707107 -0.000000
vn 0.674869 0.674869 0.298504
vn 0.577350 0.577350 0.577350
vn 0.364792 0.931089 -0.000000
vn 0.342105 0.875173 0.342105
vn 0.000000 1.000000 -0.000000
vn -0.000000 0.931089 0.364792
vn -0.000000 0.707107 0.707107
vn 0.298504 0.674869 0.674869
vn -0.000000 0.364792 0.931089
vn 0.342105 0.342105 0.875173
vn 0.000000 0.000000 1.000000
vn 0.364792 0.000000 0.931089
vn -0.298504 0.674869 0.674869
vn -0.342105 0.875173 0.342105
vn -0.364792 0.931089 0.000000
vn -0.707107 0.707107 0.000000
vn -0.674869 0.674869 0.298504
vn -0.577350 0.577350 0.577350
vn -0.931089 0.364792 0.000000
vn -0.875173 0.342105 0.342105
vn -1.000000 0.000000 0.000000
vn -0.931089 0.000000 0.364792
vn -0.707107 0.000000 0.707107
vn -0.674869 0.298504 0.674869
vn -0.364792 0.000000 0.931089
vn -0.342105 0.342105 0.875173
vn -0.674869 -0.298504 0.674869
vn -0.875173 -0.342105 0.342105
vn -0.931089 -0.364792 -0.000000
vn -0.707107 -0.707107 -0.000000
vn -0.674869 -0.674869 0.298504
vn -0.577350 -0.577350 0.577350
vn -0.364792 -0.931089 -0.000000
vn -0.342105 -0.875173 0.342105
vn 0.000000 -1.000000 -0.000000
vn 0.000000 -0.931089 0.364792
vn 0.000000 -0.707107 0.707107
vn -0.298504 -0.674869 0.674869
vn 0.000000 -0.364792 0.931089
vn -0.342105 -0.342105 0.875173
vn 0.674869 -0.298504 0.674869
vn 0.342105 -0.342105 0.875173
vn 0.298504 -0.674869 0.674869
vn 0.577350 -0.577350 0.577350
vn 0.342105 -0.875173 0.342105
vn 0.364792 -0.931089 0.000000
vn 0.707107 -0.707107 0.000000
vn 0.674869 -0.674869 0.298504
vn 0.931089 -0.364792 0.000000
vn 0.875173 -0.342105 0.342105
vn 0.674869 0.298504 -0.674869
vn 0.707107 0.000000 -0.707107
vn 0.364792 0.000000 -0.931089
vn 0.342105 0.342105 -0.875173
vn 0.000000 0.000000 -1.000000
vn 0.000000 0.364792 -0.931089
vn 0.000000 0.707107 -0.707107
vn 0.298504 0.674869 -0.674869
vn 0.577350 0.577350 -0.577350
vn 0.000000 0.931089 -0.364792
vn 0.342105 0.875173 -0.342105
vn 0.674869 0.674869 -0.298504
vn 0.875173 0.342105 -0.342105
vn 0.931089 0.000000 -0.364792
vn -0.298504 0.674869 -0.674869
vn -0.342105 0.342105 -0.875173
vn -0.364792 0.000000 -0.931089
vn -0.707107 -0.000000 -0.707107
vn -0.674869 0.298504 -0.674869
vn -0.577350 0.577350 -0.577350
vn -0.931089 -0.000000 -0.364792
vn -0.875173 0.342105 -0.342105
vn -0.674869 0.674869 -0.298504
vn -0.342105 0.875173 -0.342105
vn -0.674869 -0.298504 -0.674869
vn -0.342105 -0.342105 -0.875173
vn -0.000000 -0.364792 -0.931089
vn -0.000000 -0.707107 -0.707107
vn -0.298504 -0.674869 -0.674869
vn -0.577350 -0.577350 -0.577350
vn -0.000000 -0.931089 -0.364792
vn -0.342105 -0.875173 -0.342105
vn -0.674869 -0.674869 -0.298504
vn -0.875173 -0.342105 -0.342105
vn 0.298504 -0.674869 -0.674869
vn 0.342105 -0.342105 -0.875173
vn 0.674869 -0.298504 -0.674869
vn 0.577350 -0.577350 -0.577350
vn 0.875173 -0.342105 -0.342105
vn 0.674869 -0.674869 -0.298504
vn 0.342105 -0.875173 -0.342105
s 1
g sphere_platonic_octahedron
usemtl initialShadingGroup
f 30/30/1 9/9/2 27/27/3 31/31/4
f 27/27/3 2/2/5 28/28/6 31/31/4
f 28/28/6 7/7/7 29/29/8 31/31/4
f 29/29/8 10/10/9 30/30/1 31/31/4
f 29/29/8 7/7/7 32/32/10 35/35/11
f 32/32/10 3/108/12 33/33/13 35/35/11
f 33/33/13 8/8/14 34/34/15 35/35/11
f 34/34/15 10/10/9 29/29/8 35/35/11
f 34/34/15 8/8/14 36/36/16 38/38/17
f 36/36/16 1/1/18 37/37/19 38/38/17
f 37/37/19 9/9/2 30/30/1 38/38/17
f 30/30/1 10/10/9 34/34/15 38/38/17
f 41/41/20 8/8/14 33/33/13 42/42/21
f 33/33/13 3/109/12 39/39/22 42/42/21
f 39/39/22 11/11/23 40/40/24 42/42/21
f 40/40/24 13/13/25 41/41/20 42/42/21
f 40/40/24 11/11/23 43/43/26 46/46/27
f 43/43/26 4/4/28 44/44/29 46/46/27
f 44/44/29 12/12/30 45/45/31 46/46/27
f 45/45/31 13/13/25 40/40/24 46/46/27
f 45/45/31 12/12/30 47/47/32 48/48/33
f 47/47/32 1/1/18 36/36/16 48/48/33
f 36/36/16 8/8/14 41/41/20 48/48/33
f 41/41/20 13/13/25 45/45/31 48/48/33
f 51/51/34 12/12/30 44/44/29 52/52/35
f 44/44/29 4/4/28 49/49/36 52/52/35
f 49/49/36 14/14/37 50/50/38 52/52/35
f 50/50/38 16/16/39 51/51/34 52/52/35
f 50/50/38 14/14/37 53/53/40 56/56/41
f 53/53/40 5/111/42 54/54/43 56/56/41
f 54/54/43 15/15/44 55/55/45 56/56/41
f 55/55/45 16/16/39 50/50/38 56/56/41
f 55/55/45 15/15/44 57/57/46 58/58/47
f 57/57/46 1/1/18 47/47/32 58/58/47
f 47/47/32 12/12/30 51/51/34 58/58/47
f 51/51/34 16/16/39 55/55/45 58/58/47
f 60/60/48 9/9/2 37/37/19 61/61/49
f 37/37/19 1/1/18 57/57/46 61/61/49
f 57/57/46 15/15/44 59/59/50 61/61/49
f 59/59/50 18/18/51 60/60/48 61/61/49
f 59/59/50 15/15/44 54/54/43 64/64/52
f 54/54/43 5/112/42 62/62/53 64/64/52
f 62/62/53 17/17/54 63/63/55 64/64/52
f 63/63/55 18/18/51 59/59/50 64/64/52
f 63/63/55 17/17/54 65/65/56 66/66/57
f 65/65/56 2/2/5 27/27/3 66/66/57
f 27/27/3 9/9/2 60/60/48 66/66/57
f 60/60/48 18/18/51 63/63/55 66/66/57
f 70/70/58 20/20/59 67/67/60 71/71/61
f 67/67/60 6/6/62 68/68/63 71/71/61
f 68/68/63 19/19/64 69/69/65 71/71/61
f 69/69/65 21/21/66 70/70/58 71/71/61
f 69/69/65 19/19/64 72/72/67 74/74/68
f 72/72/67 3/3/12 32/32/10 74/74/68
f 32/32/10 7/7/7 73/73/69 74/74/68
f 73/73/69 21/21/66 69/69/65 74/74/68
f 73/73/69 7/7/7 28/28/6 76/76/70
f 28/28/6 2/2/5 75/75/71 76/76/70
f 75/75/71 20/20/59 70/70/58 76/76/70
f 70/70/58 21/21/66 73/73/69 76/76/70
f 79/99/72 19/19/64 68/68/63 80/100/73
f 68/68/63 6/6/62 77/101/74 80/100/73
f 77/77/74 22/22/75 78/78/76 80/80/73
f 78/78/76 23/23/77 79/79/72 80/80/73
f 78/78/76 22/22/75 81/81/78 83/83/79
f 81/81/78 4/4/28 43/43/26 83/83/79
f 43/43/26 11/11/23 82/82/80 83/83/79
f 82/82/80 23/23/77 78/78/76 83/83/79
f 82/82/80 11/11/23 39/39/22 84/84/81
f 39/102/22 3/110/12 72/72/67 84/103/81
f 72/72/67 19/19/64 79/99/72 84/103/81
f 79/79/72 23/23/77 82/82/80 84/84/81
f 87/87/82 22/22/75 77/77/74 88/88/83
f 77/101/74 6/6/62 85/85/84 88/104/83
f 85/85/84 24/24/85 86/105/86 88/104/83
f 86/86/86 25/25/87 87/87/82 88/88/83
f 86/105/86 24/24/85 89/89/88 91/106/89
f 89/89/88 5/5/42 53/107/40 91/106/89
f 53/53/40 14/14/37 90/90/90 91/91/89
f 90/90/90 25/25/87 86/86/86 91/91/89
f 90/90/90 14/14/37 49/49/36 92/92/91
f 49/49/36 4/4/28 81/81/78 92/92/91
f 81/81/78 22/22/75 87/87/82 92/92/91
f 87/87/82 25/25/87 90/90/90 92/92/91
f 94/94/92 24/24/85 85/85/84 95/95/93
f 85/85/84 6/6/62 67/67/60 95/95/93
f 67/67/60 20/20/59 93/93/94 95/95/93
f 93/93/94 26/26/95 94/94/92 95/95/93
f 93/93/94 20/20/59 75/75/71 97/97/96
f 75/75/71 2/2/5 65/65/56 97/97/96
f 65/65/56 17/17/54 96/96/97 97/97/96
f 96/96/97 26/26/95 93/93/94 97/97/96
f 96/96/97 17/17/54 62/62/53 98/98/98
f 62/62/53 5/113/42 89/89/88 98/98/98
f 89/89/88 24/24/85 94/94/92 98/98/98
f 94/94/92 26/26/95 96/96/97 98/98/98
