# This file uses centimeters as units for non-parametric coordinates.

mtllib primitive_gem_diamond.mtl
g default
v 1.177249 0.761857 1.789553
v 1.801613 0.761857 1.165188
v 1.801613 0.761857 -0.875816
v 1.177249 0.761857 -1.500181
v -0.863756 0.761857 -1.500181
v -1.488121 0.761857 -0.875816
v -1.488121 0.761857 1.165188
v -0.863756 0.761857 1.789553
v 1.177249 1.386206 1.165188
v 1.177249 1.386206 -0.875816
v -0.863756 1.386206 -0.875816
v -0.863756 1.386206 1.165188
v 0.156771 -1.650736 0.144711
vt 0.519531 0.250000
vt 0.746094 0.914063
vt 0.601563 0.250000
vt 0.968750 0.250000
vt 0.894531 0.250000
vt 0.386719 0.015625
vt 0.386719 0.187500
vt 0.468750 0.187500
vt 0.093750 0.015625
vt 0.093750 0.187500
vt 0.011719 0.187500
vt 0.011719 0.765625
vt 0.093750 0.765625
vt 0.093750 0.937500
vt 0.386719 0.937500
vt 0.386719 0.765625
vt 0.468750 0.765625
vt 0.601563 0.250000
vt 0.519531 0.250000
vt 0.601563 0.250000
vt 0.894531 0.250000
vt 0.601563 0.250000
vt 0.894531 0.250000
vt 0.968750 0.250000
vt 0.894531 0.250000
vt 0.894531 0.250000
vt 0.601563 0.250000
vn -0.557229 -0.615623 -0.557229
vn -0.557229 -0.615623 -0.557229
vn -0.557229 -0.615623 -0.557229
vn 0.557237 -0.615609 0.557236
vn 0.557237 -0.615609 0.557236
vn 0.557237 -0.615609 0.557236
vn 0.826245 -0.563312 0.000000
vn 0.826245 -0.563312 0.000000
vn 0.826245 -0.563312 0.000000
vn 0.557233 -0.615616 -0.557232
vn 0.557233 -0.615616 -0.557232
vn 0.557233 -0.615616 -0.557232
vn 0.000000 -0.563323 -0.826237
vn 0.000000 -0.563323 -0.826236
vn 0.000000 -0.563323 -0.826237
vn -0.826236 -0.563323 0.000000
vn -0.826236 -0.563323 0.000000
vn -0.826236 -0.563323 0.000000
vn -0.557233 -0.615616 0.557233
vn -0.557233 -0.615616 0.557233
vn -0.557233 -0.615616 0.557233
vn 0.000000 -0.563312 0.826245
vn 0.000000 -0.563312 0.826245
vn 0.000000 -0.563312 0.826245
vn 0.577346 0.577360 0.577345
vn 0.577346 0.577360 0.577345
vn 0.577346 0.577360 0.577345
vn 0.707098 0.707115 0.000000
vn 0.707098 0.707115 0.000000
vn 0.707098 0.707115 0.000000
vn 0.707098 0.707115 0.000000
vn 0.577346 0.577360 -0.577345
vn 0.577346 0.577360 -0.577345
vn 0.577346 0.577360 -0.577345
vn 0.000000 0.707116 -0.707098
vn 0.000000 0.707116 -0.707098
vn 0.000000 0.707116 -0.707098
vn 0.000000 0.707116 -0.707098
vn -0.577345 0.577360 -0.577345
vn -0.577345 0.577360 -0.577345
vn -0.577345 0.577360 -0.577345
vn -0.707098 0.707116 0.000000
vn -0.707098 0.707116 0.000000
vn -0.707098 0.707116 0.000000
vn -0.707098 0.707116 0.000000
vn -0.577345 0.577360 0.577345
vn -0.577345 0.577360 0.577345
vn -0.577345 0.577360 0.577345
vn 0.000000 0.707116 0.707098
vn 0.000000 0.707116 0.707098
vn 0.000000 0.707116 0.707098
vn 0.000000 0.707116 0.707098
vn 0.000000 1.000000 0.000000
vn 0.000000 1.000000 0.000000
vn 0.000000 1.000000 0.000000
vn 0.000000 1.000000 0.000000
s off
g primitive_gem_diamond group1
usemtl initialShadingGroup
f 5/1/1 13/2/2 6/3/3
f 1/4/4 13/2/5 2/5/6
f 3/18/7 2/5/8 13/2/9
f 4/19/10 3/20/11 13/2/12
f 5/21/13 4/22/14 13/2/15
f 7/23/16 6/3/17 13/2/18
f 8/24/19 7/25/20 13/2/21
f 1/26/22 8/27/23 13/2/24
f 2/6/25 9/7/26 1/8/27
f 9/7/28 2/6/29 3/9/30 10/10/31
f 4/11/32 10/10/33 3/9/34
f 10/10/35 4/11/36 5/12/37 11/13/38
f 6/14/39 11/13/40 5/12/41
f 11/13/42 6/14/43 7/15/44 12/16/45
f 8/17/46 12/16/47 7/15/48
f 12/16/49 8/17/50 1/8/51 9/7/52
f 11/13/53 12/16/54 9/7/55 10/10/56
