# This file uses centimeters as units for non-parametric coordinates.

mtllib topology_five_to_three_a.mtl
g default
v -2.502846 0.000000 -3.000000
v -2.502846 0.000000 3.000000
v 2.502846 0.000000 -3.000000
v 2.502846 0.000000 3.000000
v -2.502846 0.000000 -1.999998
v 2.502846 0.000000 -1.999998
v -2.502846 0.000000 1.000000
v 2.502846 0.000000 1.000000
v -2.502846 0.000000 2.000000
v 2.502846 0.000000 2.000000
v -1.501708 0.000000 -3.000000
v -1.501708 0.000000 -1.999998
v -1.501708 0.000000 -0.227471
v -0.500569 0.000000 -3.000000
v -0.500569 0.000000 -1.999998
v -0.500569 0.000000 -0.227471
v -0.935945 0.000000 1.000000
v -0.935945 0.000000 2.000000
v -0.935945 0.000000 3.000000
v 0.500568 0.000000 -3.000000
v 0.500568 0.000000 -1.999998
v 0.500568 0.000000 -0.227471
v 0.935944 0.000000 1.000000
v 0.935944 0.000000 2.000000
v 0.935944 0.000000 3.000000
v 1.501707 0.000000 -3.000000
v 1.501707 0.000000 -1.999998
v 1.501707 0.000000 -0.227471
vt 0.375000 0.500000
vt 0.375000 0.250000
vt 0.000000 1.000000
vt 1.000000 1.000000
vt 0.375000 0.458333
vt 0.166667 1.000000
vt 0.375000 0.333333
vt 0.666667 1.000000
vt 0.375000 0.291667
vt 0.833333 1.000000
vt 0.300000 0.600000
vt 0.333333 0.566667
vt 0.400000 0.500000
vt 0.225000 0.700000
vt 0.291667 0.675000
vt 0.425000 0.625000
vt 0.491667 0.600000
vt 0.558333 0.575000
vt 0.625000 0.550000
vt 0.150000 0.800000
vt 0.250000 0.783333
vt 0.450000 0.750000
vt 0.550000 0.733333
vt 0.650000 0.716666
vt 0.750000 0.700000
vt 0.075000 0.900000
vt 0.208334 0.891667
vt 0.475000 0.875000
vn 0.000000 1.000000 0.000000
vn 0.000000 1.000000 0.000000
vn 0.000000 1.000000 0.000000
vn 0.000000 1.000000 0.000000
vn 0.000000 1.000000 0.000000
vn 0.000000 1.000000 0.000000
vn 0.000000 1.000000 0.000000
vn 0.000000 1.000000 0.000000
vn 0.000000 1.000000 0.000000
vn 0.000000 1.000000 0.000000
vn 0.000000 1.000000 0.000000
vn 0.000000 1.000000 0.000000
vn 0.000000 1.000000 0.000000
vn 0.000000 1.000000 0.000000
vn 0.000000 1.000000 0.000000
vn 0.000000 1.000000 0.000000
vn 0.000000 1.000000 0.000000
vn 0.000000 1.000000 0.000000
vn 0.000000 1.000000 0.000000
vn 0.000000 1.000000 0.000000
vn 0.000000 1.000000 0.000000
vn 0.000000 1.000000 0.000000
vn 0.000000 1.000000 0.000000
vn 0.000000 1.000000 0.000000
vn 0.000000 1.000000 0.000000
vn 0.000000 1.000000 0.000000
vn 0.000000 1.000000 0.000000
vn 0.000000 1.000000 0.000000
s 1
g topology_five_to_three_a Transitions TopologyTips
usemtl initialShadingGroup
f 26/26/1 27/27/2 6/6/3 3/3/4
f 8/8/5 6/6/3 27/27/2 28/28/6
f 10/10/7 8/8/5 23/23/8 24/24/9
f 25/25/10 4/4/11 10/10/7 24/24/9
f 5/5/12 12/12/13 11/11/14 1/1/15
f 12/12/13 5/5/12 7/7/16 13/13/17
f 11/11/14 12/12/13 15/15/18 14/14/19
f 15/15/18 12/12/13 13/13/17 16/16/20
f 18/18/21 17/17/22 7/7/16 9/9/23
f 2/2/24 19/19/25 18/18/21 9/9/23
f 14/14/19 15/15/18 21/21/26 20/20/27
f 21/21/26 15/15/18 16/16/20 22/22/28
f 17/17/22 18/18/21 24/24/9 23/23/8
f 18/18/21 19/19/25 25/25/10 24/24/9
f 20/20/27 21/21/26 27/27/2 26/26/1
f 27/27/2 21/21/26 22/22/28 28/28/6
f 17/17/22 16/16/20 13/13/17 7/7/16
f 23/23/8 22/22/28 16/16/20 17/17/22
f 23/23/8 8/8/5 28/28/6 22/22/28
