# This file uses centimeters as units for non-parametric coordinates.

mtllib topology_five_to_three_b.mtl
g default
v -2.502846 0.117041 -3.000000
v -2.502846 0.117041 3.000000
v 2.502846 0.117041 -3.000000
v 2.502846 0.117041 3.000000
v -2.502846 0.117041 -1.999998
v 2.502846 0.117041 -1.999998
v -2.502846 0.117041 -0.999998
v 2.502846 0.117041 -0.999999
v -2.502846 0.117041 0.000001
v 2.502846 0.117041 0.000001
v -2.502846 0.117041 1.000000
v 2.502846 0.117041 1.000000
v -2.502846 0.117041 2.000000
v 2.502846 0.117041 2.000000
v -1.501708 0.117041 -3.000000
v -1.501708 0.117041 -1.999998
v -1.501708 0.117041 -0.999998
v -1.501708 0.117041 0.000001
v -0.500569 0.117041 -3.000000
v -0.500569 0.117041 -1.999998
v -0.500569 0.117041 -0.999998
v -0.500569 0.117041 0.000001
v -0.935945 0.117041 1.000000
v -0.935945 0.117041 2.000000
v -0.935945 0.117041 3.000000
v 0.500568 0.117041 -3.000000
v 0.500568 0.117041 -1.999998
v 0.500568 0.117041 -0.999999
v 0.500568 0.117041 0.000001
v 0.935944 0.117041 1.000000
v 0.935944 0.117041 2.000000
v 0.935944 0.117041 3.000000
v 1.501707 0.117041 -3.000000
v 1.501707 0.117041 -1.999998
v 1.501707 0.117041 -0.999999
v 1.501707 0.117041 0.000001
v -0.500569 0.117041 0.500000
v 0.500568 0.117041 0.500000
vt 0.375000 0.500000
vt 0.375000 0.250000
vt 0.000000 1.000000
vt 1.000000 1.000000
vt 0.375000 0.458333
vt 0.166667 1.000000
vt 0.375000 0.416667
vt 0.333334 1.000000
vt 0.375000 0.375000
vt 0.500000 1.000000
vt 0.375000 0.333333
vt 0.666667 1.000000
vt 0.375000 0.291667
vt 0.833333 1.000000
vt 0.300000 0.600000
vt 0.333333 0.566667
vt 0.366667 0.533333
vt 0.400000 0.500000
vt 0.225000 0.700000
vt 0.291667 0.675000
vt 0.358333 0.650000
vt 0.425000 0.625000
vt 0.491667 0.600000
vt 0.558333 0.575000
vt 0.625000 0.550000
vt 0.150000 0.800000
vt 0.250000 0.783333
vt 0.350000 0.766667
vt 0.450000 0.750000
vt 0.550000 0.733333
vt 0.650000 0.716666
vt 0.750000 0.700000
vt 0.075000 0.900000
vt 0.208334 0.891667
vt 0.341667 0.883333
vt 0.475000 0.875000
vt 0.458333 0.612500
vt 0.500000 0.741667
vn 0.000000 1.000000 0.000000
vn 0.000000 1.000000 0.000000
vn 0.000000 1.000000 0.000000
vn 0.000000 1.000000 0.000000
vn 0.000000 1.000000 0.000000
vn 0.000000 1.000000 0.000000
vn 0.000000 1.000000 0.000000
vn 0.000000 1.000000 0.000000
vn 0.000000 1.000000 0.000000
vn 0.000000 1.000000 0.000000
vn 0.000000 1.000000 0.000000
vn 0.000000 1.000000 0.000000
vn 0.000000 1.000000 0.000000
vn 0.000000 1.000000 0.000000
vn 0.000000 1.000000 0.000000
vn 0.000000 1.000000 0.000000
vn 0.000000 1.000000 0.000000
vn 0.000000 1.000000 0.000000
vn 0.000000 1.000000 0.000000
vn 0.000000 1.000000 0.000000
vn 0.000000 1.000000 0.000000
vn 0.000000 1.000000 0.000000
vn 0.000000 1.000000 0.000000
vn 0.000000 1.000000 0.000000
vn 0.000000 1.000000 0.000000
vn 0.000000 1.000000 0.000000
vn 0.000000 1.000000 0.000000
vn 0.000000 1.000000 0.000000
vn 0.000000 1.000000 0.000000
vn 0.000000 1.000000 0.000000
vn 0.000000 1.000000 0.000000
vn 0.000000 1.000000 0.000000
vn 0.000000 1.000000 0.000000
vn 0.000000 1.000000 0.000000
vn 0.000000 1.000000 0.000000
vn 0.000000 1.000000 0.000000
vn 0.000000 1.000000 0.000000
vn 0.000000 1.000000 0.000000
s 1
g topology_five_to_three_b
usemtl initialShadingGroup
f 33/33/1 34/34/2 6/6/3 3/3/4
f 34/34/2 35/35/5 8/8/6 6/6/3
f 35/35/5 36/36/7 10/10/8 8/8/6
f 30/30/9 12/12/10 10/10/8 36/36/7
f 14/14/11 12/12/10 30/30/9 31/31/12
f 32/32/13 4/4/14 14/14/11 31/31/12
f 5/5/15 16/16/16 15/15/17 1/1/18
f 7/7/19 17/17/20 16/16/16 5/5/15
f 9/9/21 18/18/22 17/17/20 7/7/19
f 15/15/17 16/16/16 20/20/23 19/19/24
f 16/16/16 17/17/20 21/21/25 20/20/23
f 17/17/20 18/18/22 22/22/26 21/21/25
f 18/18/22 23/23/27 37/37/28 22/22/26
f 24/24/29 23/23/27 11/11/30 13/13/31
f 2/2/32 25/25/33 24/24/29 13/13/31
f 19/19/24 20/20/23 27/27/34 26/26/35
f 20/20/23 21/21/25 28/28/36 27/27/34
f 21/21/25 22/22/26 29/29/37 28/28/36
f 22/22/26 37/37/28 38/38/38 29/29/37
f 23/23/27 24/24/29 31/31/12 30/30/9
f 24/24/29 25/25/33 32/32/13 31/31/12
f 26/26/35 27/27/34 34/34/2 33/33/1
f 27/27/34 28/28/36 35/35/5 34/34/2
f 28/28/36 29/29/37 36/36/7 35/35/5
f 29/29/37 38/38/38 30/30/9 36/36/7
f 11/11/30 23/23/27 18/18/22 9/9/21
f 38/38/38 37/37/28 23/23/27 30/30/9
