# This file uses centimeters as units for non-parametric coordinates.

mtllib topology_two_to_one_a.mtl
g default
v -0.391551 0.117041 -2.000000
v 1.547083 0.117041 -2.000000
v -0.391551 0.117041 -3.000000
v 1.547083 0.117041 -3.000000
v 1.547083 0.117041 0.000000
v -0.391551 0.117041 0.000000
v 1.547083 0.117041 1.000000
v -0.391551 0.117041 1.000000
v 1.547083 0.117041 2.000000
v -0.391551 0.117041 2.000000
v 1.547083 0.117041 3.000000
v -0.391551 0.117041 3.000000
v -1.547083 0.117041 -2.000000
v -1.547083 0.117041 0.000000
v 0.577766 0.117041 -3.000000
v 0.577766 0.117041 -2.000000
v 0.577766 0.117041 -1.000000
v -0.391551 0.117041 -1.000000
v -1.547083 0.117041 -1.000000
vt 0.375000 0.250000
vt 0.625000 0.250000
vt 0.375000 0.500000
vt 0.625000 0.500000
vt 0.625000 0.250000
vt 0.375000 0.250000
vt 0.625000 0.250000
vt 0.375000 0.250000
vt 0.625000 0.250000
vt 0.375000 0.250000
vt 0.625000 0.250000
vt 0.375000 0.250000
vt 0.375000 0.250000
vt 0.375000 0.250000
vt 0.500000 0.500000
vt 0.500000 0.250000
vt 0.500000 0.250000
vt 0.375000 0.250000
vt 0.375000 0.250000
vn 0.000000 1.000000 0.000000
vn 0.000000 1.000000 0.000000
vn 0.000000 1.000000 0.000000
vn 0.000000 1.000000 0.000000
vn 0.000000 1.000000 0.000000
vn 0.000000 1.000000 0.000000
vn 0.000000 1.000000 0.000000
vn 0.000000 1.000000 0.000000
vn 0.000000 1.000000 0.000000
vn 0.000000 1.000000 0.000000
vn 0.000000 1.000000 0.000000
vn 0.000000 1.000000 0.000000
vn 0.000000 1.000000 0.000000
vn 0.000000 1.000000 0.000000
vn 0.000000 1.000000 0.000000
vn 0.000000 1.000000 0.000000
vn 0.000000 1.000000 0.000000
vn 0.000000 1.000000 0.000000
vn 0.000000 1.000000 0.000000
vn 0.000000 1.000000 0.000000
vn 0.000000 1.000000 0.000000
vn 0.000000 1.000000 0.000000
s 1
g topology_two_to_one_a Transitions TopologyTips
usemtl initialShadingGroup
f 15/15/1 16/16/2 2/2/3 4/4/4
f 16/16/2 17/17/5 5/5/6 2/2/3
f 8/8/7 7/7/8 5/5/6 6/6/9
f 9/9/10 7/7/8 8/8/7 10/10/11
f 12/12/12 11/11/13 9/9/10 10/10/11
s 3
f 18/18/14 19/19/15 14/14/16 6/6/17
s 1
f 1/1/18 16/16/2 15/15/1 3/3/19
f 18/18/20 17/17/5 16/16/2 1/1/18
s 3
f 13/13/21 19/19/15 18/18/14 1/1/22
s 1
f 6/6/9 5/5/6 17/17/5 18/18/20
