# This file uses centimeters as units for non-parametric coordinates.

mtllib topology_two_to_one_c.mtl
g default
v -0.927953 0.117041 -2.000000
v 1.010681 0.117041 -2.000000
v -0.927953 0.117041 -3.000000
v 1.010681 0.117041 -3.000000
v 1.010681 0.117041 -1.000000
v 1.010681 0.117041 0.000000
v -0.927953 0.117041 0.000000
v 1.010681 0.117041 1.000000
v -0.927953 0.117041 1.000000
v 1.010681 0.117041 2.000000
v -0.927953 0.117041 2.000000
v 1.010681 0.117041 3.000000
v -0.927953 0.117041 3.000000
v -2.083485 0.117041 -2.000000
v -2.083485 0.117041 0.000000
v 2.083485 0.117041 -2.000000
v 2.083485 0.117041 -1.000000
v 2.083485 0.117041 0.000000
v 0.041364 0.117041 -3.000000
v 0.041364 0.117041 -2.000000
vt 0.375000 0.250000
vt 0.625000 0.250000
vt 0.375000 0.500000
vt 0.625000 0.500000
vt 0.625000 0.250000
vt 0.625000 0.250000
vt 0.375000 0.250000
vt 0.625000 0.250000
vt 0.375000 0.250000
vt 0.625000 0.250000
vt 0.375000 0.250000
vt 0.625000 0.250000
vt 0.375000 0.250000
vt 0.375000 0.250000
vt 0.375000 0.250000
vt 0.625000 0.250000
vt 0.625000 0.250000
vt 0.625000 0.250000
vt 0.500000 0.500000
vt 0.500000 0.250000
vn 0.000000 1.000000 0.000000
vn 0.000000 1.000000 0.000000
vn 0.000000 1.000000 0.000000
vn 0.000000 1.000000 0.000000
vn 0.000000 1.000000 0.000000
vn 0.000000 1.000000 0.000000
vn 0.000000 1.000000 0.000000
vn 0.000000 1.000000 0.000000
vn 0.000000 1.000000 0.000000
vn 0.000000 1.000000 0.000000
vn 0.000000 1.000000 0.000000
vn 0.000000 1.000000 0.000000
vn 0.000000 1.000000 0.000000
vn 0.000000 1.000000 0.000000
vn 0.000000 1.000000 0.000000
vn 0.000000 1.000000 0.000000
vn 0.000000 1.000000 0.000000
vn 0.000000 1.000000 0.000000
vn 0.000000 1.000000 0.000000
vn 0.000000 1.000000 0.000000
vn 0.000000 1.000000 0.000000
vn 0.000000 1.000000 0.000000
vn 0.000000 1.000000 0.000000
vn 0.000000 1.000000 0.000000
vn 0.000000 1.000000 0.000000
vn 0.000000 1.000000 0.000000
vn 0.000000 1.000000 0.000000
s 1
g topology_two_to_one_c
usemtl initialShadingGroup
f 19/19/1 20/20/2 2/2/3 4/4/4
f 6/6/5 5/5/6 2/2/3 7/7/7
f 9/9/8 8/8/9 6/6/5 7/7/7
f 10/10/10 8/8/9 9/9/8 11/11/11
f 13/13/12 12/12/13 10/10/10 11/11/11
s off
f 14/14/14 15/15/15 7/7/16 1/1/17
f 2/2/18 5/5/19 17/17/20 16/16/21
f 5/5/22 6/6/23 18/18/24 17/17/25
s 1
f 1/1/26 20/20/2 19/19/1 3/3/27
f 7/7/7 2/2/3 20/20/2 1/1/26
