# This file uses centimeters as units for non-parametric coordinates.

mtllib topology_three_to_one_a.mtl
g default
v -1.526542 0.117041 -2.000000
v 1.526542 0.117041 -2.000000
v -1.526542 0.117041 -3.000000
v 1.526542 0.117041 -3.000000
v 1.526542 0.117041 0.000000
v -1.526542 0.117041 0.000000
v 1.526542 0.117041 1.000000
v -1.526542 0.117041 1.000000
v 1.526542 0.117041 2.000000
v -1.526542 0.117041 2.000000
v 1.526542 0.117041 3.000000
v -1.526542 0.117041 3.000000
v 1.526542 0.117041 -1.000000
v -1.526542 0.117041 -1.000000
v -0.610617 0.117041 -3.000000
v -0.610617 0.117041 -2.000000
v -0.610617 0.117041 -1.000000
v 0.671679 0.117041 -1.000000
v 0.671679 0.117041 -2.000000
v 0.671679 0.117041 -3.000000
v 0.671679 0.117041 -0.500000
v -0.610617 0.117041 -0.500000
vt 0.375000 0.250000
vt 0.625000 0.250000
vt 0.375000 0.500000
vt 0.625000 0.500000
vt 0.625000 0.250000
vt 0.375000 0.250000
vt 0.625000 0.250000
vt 0.375000 0.250000
vt 0.625000 0.250000
vt 0.375000 0.250000
vt 0.625000 0.250000
vt 0.375000 0.250000
vt 0.625000 0.250000
vt 0.375000 0.250000
vt 0.450000 0.500000
vt 0.450000 0.250000
vt 0.450000 0.250000
vt 0.555000 0.250000
vt 0.555000 0.250000
vt 0.555000 0.500000
vt 0.555000 0.250000
vt 0.450000 0.250000
vn 0.000000 1.000000 0.000000
vn 0.000000 1.000000 0.000000
vn 0.000000 1.000000 0.000000
vn 0.000000 1.000000 0.000000
vn 0.000000 1.000000 0.000000
vn 0.000000 1.000000 0.000000
vn 0.000000 1.000000 0.000000
vn 0.000000 1.000000 0.000000
vn 0.000000 1.000000 0.000000
vn 0.000000 1.000000 0.000000
vn 0.000000 1.000000 0.000000
vn 0.000000 1.000000 0.000000
vn 0.000000 1.000000 0.000000
vn 0.000000 1.000000 0.000000
vn 0.000000 1.000000 0.000000
vn 0.000000 1.000000 0.000000
vn 0.000000 1.000000 0.000000
vn 0.000000 1.000000 0.000000
vn 0.000000 1.000000 0.000000
vn 0.000000 1.000000 0.000000
vn 0.000000 1.000000 0.000000
vn 0.000000 1.000000 0.000000
s 1
g topology_three_to_one_a
usemtl initialShadingGroup
f 19/19/1 20/20/2 15/15/3 16/16/4
f 6/6/5 5/5/6 21/21/7 22/22/8
f 6/6/5 8/8/9 7/7/10 5/5/6
f 8/8/9 10/10/11 9/9/12 7/7/10
f 10/10/11 12/12/13 11/11/14 9/9/12
f 16/16/4 17/17/15 18/18/16 19/19/1
f 16/16/4 15/15/3 3/3/17 1/1/18
f 14/14/19 17/17/15 16/16/4 1/1/18
f 21/21/7 5/5/6 13/13/20 18/18/16
f 19/19/1 18/18/16 13/13/20 2/2/21
f 2/2/21 4/4/22 20/20/2 19/19/1
f 22/22/8 21/21/7 18/18/16 17/17/15
f 14/14/19 6/6/5 22/22/8 17/17/15
